<?xml version="1.0" encoding="UTF-8"?>
<svg width="548px" height="222px" viewBox="0 0 548 222" version="1.1" xmlns="http://www.w3.org/2000/svg" xmlns:xlink="http://www.w3.org/1999/xlink">
    <!-- Generator: Sketch 53.2 (72643) - https://sketchapp.com -->
    <title>Group</title>
    <desc>Created with Sketch.</desc>
    <g id="Page-1" stroke="none" stroke-width="1" fill="none" fill-rule="evenodd">
        <g id="jobs-and-nav" transform="translate(-430.000000, -260.000000)">
            <g id="Group" transform="translate(429.000000, 260.000000)">
                <g id="Group-4" transform="translate(506.000000, 111.000000) scale(-1, 1) translate(-506.000000, -111.000000) translate(463.000000, 0.000000)">
                    <path d="M76.321323,58.7404484 L71.175323,62.0544484 L71.597323,65.4364484 L67.522323,69.4624484 L72.866323,76.3084484 L85.354323,66.9424484 C85.354323,66.9424484 81.977323,55.2194484 81.214323,55.4784484 C80.451323,55.7384484 76.321323,58.7404484 76.321323,58.7404484" id="Fill-3" fill="#EFA78C"></path>
                    <polyline id="Fill-4" fill="#F9D9BC" points="83.713323 55.4744484 81.541323 72.8594484 72.826323 73.0894484 70.732323 55.4744484 83.713323 55.4744484"></polyline>
                    <polyline id="Fill-5" fill="#493D3A" points="85.588323 55.7084484 69.199323 55.7084484 69.199323 53.9834484 70.732323 53.9834484 70.732323 51.2604484 84.078323 53.2544484 84.117323 54.2134484 85.588323 54.2134484 85.588323 55.9004484"></polyline>
                    <path d="M84.474323,67.2694484 C87.488323,67.5634484 83.713323,59.2164484 83.713323,59.2164484 C83.713323,59.2164484 75.525323,58.6564484 75.451323,59.0974484 C75.377323,59.5384484 75.397323,60.3034484 76.059323,60.4644484 C76.720323,60.6254484 81.830323,61.3174484 81.830323,61.3174484 C81.830323,61.3174484 76.497323,61.5734484 76.603323,62.1564484 C76.757323,63.0164484 77.393323,63.0904484 78.979323,63.3324484 C80.336323,63.5404484 83.292323,63.6264484 83.292323,63.6264484 C83.292323,63.6264484 77.668323,63.7454484 77.790323,64.1094484 C77.911323,64.4744484 77.545323,65.6234484 79.472323,65.3554484 C83.835323,64.7474484 84.474323,67.2694484 84.474323,67.2694484" id="Fill-6" fill="#EFA78C"></path>
                    <path d="M71.282323,60.1044484 C71.282323,60.1044484 69.314323,56.1564484 66.897323,56.3494484 C66.897323,56.3494484 69.797323,59.9044484 70.184323,62.2844484 C70.571323,64.6634484 70.732323,66.2904484 70.732323,66.2904484 L72.018323,66.2904484 L71.282323,60.1044484" id="Fill-7" fill="#EFA78C"></path>
                    <path d="M47.593323,100.752448 C47.593323,100.752448 55.931323,159.591448 52.064323,172.082448 C48.198323,184.574448 46.708323,195.877448 46.708323,195.877448 L27.377323,190.225448 C27.377323,190.225448 33.784323,160.780448 34.745323,155.129448 C35.705323,149.478448 25.800323,103.510448 25.800323,103.510448 L47.593323,100.752448" id="Fill-8" fill="#2D3968"></path>
                    <path d="M38.463323,104.989448 L29.337323,199.555448 L10.835323,199.555448 C10.835323,199.555448 16.803323,99.4454484 15.742323,98.6154484 C14.680323,97.7854484 38.463323,104.989448 38.463323,104.989448" id="Fill-9" fill="#283F7C"></path>
                    <path d="M45.742323,47.3494484 C45.742323,47.3494484 47.699323,79.0574484 51.952323,77.9384484 C56.205323,76.8194484 67.623323,68.5354484 67.623323,68.5354484 L74.563323,76.1474484 C74.563323,76.1474484 53.450323,99.6534484 44.753323,90.0274484 C36.058323,80.4004484 45.742323,47.3494484 45.742323,47.3494484" id="Fill-10" fill="#283F7C"></path>
                    <path d="M40.027323,215.361448 L41.282323,208.955448 L27.777323,203.562448 L25.655323,213.079448 L26.399323,213.198448 C29.418323,214.602448 44.134323,221.401448 46.449323,221.599448 C49.030323,221.821448 40.027323,215.361448 40.027323,215.361448" id="Fill-11" fill="#3D2612"></path>
                    <path d="M7.97832304,122.288448 L9.46332304,124.408448 C9.46332304,124.408448 10.155323,125.834448 11.889323,128.021448 C12.338323,128.589448 12.887323,129.071448 13.500323,129.455448 C14.244323,129.921448 15.259323,130.499448 15.912323,130.643448 C16.722323,130.822448 16.893323,131.891448 16.204323,132.194448 C15.516323,132.497448 13.275323,132.059448 11.150323,130.448448 C9.02532304,128.836448 10.018323,132.914448 10.354323,134.406448 C10.690323,135.899448 11.511323,140.565448 11.134323,141.032448 C10.580323,141.716448 9.74532304,141.250448 9.44632304,139.751448 C9.14132304,138.235448 7.92732304,133.823448 7.14832304,134.038448 C6.38032304,134.250448 8.19232304,141.825448 8.19232304,141.825448 C8.19232304,141.825448 8.84132304,143.381448 7.94932304,143.660448 C6.33832304,144.163448 5.00532304,135.969448 4.89832304,135.186448 C4.82332304,134.642448 3.96732304,134.845448 4.07832304,135.425448 C4.19432304,136.022448 6.06232304,142.938448 4.42732304,143.466448 C3.17332304,143.871448 3.26832304,136.736448 2.08332304,135.517448 C0.899323044,134.298448 2.56232304,140.934448 1.34832304,141.272448 C0.896323044,141.398448 0.541323044,141.429448 0.136323044,137.479448 C-0.277676956,133.435448 0.383323044,122.294448 0.383323044,122.294448 L8.10132304,122.382448" id="Fill-12" fill="#EFA78C"></path>
                    <path d="M34.745323,36.6654484 C34.570323,35.3974484 35.251323,30.1174484 35.251323,30.1174484 C35.251323,30.1174484 40.103323,29.7614484 40.550323,24.9764484 C40.997323,20.1914484 41.059323,9.12544839 41.059323,9.12544839 L32.391323,4.53744839 L22.468323,11.5644484 L20.205323,16.8114484 L23.178323,29.2944484 L23.166323,35.5844484 L34.745323,36.6654484" id="Fill-13" fill="#EFA78C"></path>
                    <path d="M40.411323,16.7184484 C40.401323,17.0574484 40.117323,17.3234484 39.779323,17.3124484 C39.440323,17.3014484 39.173323,17.0174484 39.185323,16.6784484 C39.196323,16.3404484 39.479323,16.0734484 39.818323,16.0854484 C40.157323,16.0954484 40.423323,16.3794484 40.411323,16.7184484" id="Fill-14" fill="#17152A"></path>
                    <path d="M40.453323,16.5034484 C40.372323,16.5804484 39.931323,16.1804484 39.272323,16.1234484 C38.613323,16.0574484 38.106323,16.3694484 38.039323,16.2784484 C38.007323,16.2384484 38.094323,16.0944484 38.316323,15.9524484 C38.533323,15.8114484 38.898323,15.6874484 39.309323,15.7254484 C39.719323,15.7644484 40.055323,15.9524484 40.242323,16.1324484 C40.434323,16.3124484 40.493323,16.4694484 40.453323,16.5034484" id="Fill-15" fill="#17152A"></path>
                    <path d="M32.875323,16.0044484 C33.149323,16.2044484 33.208323,16.5884484 33.008323,16.8624484 C32.808323,17.1354484 32.423323,17.1954484 32.150323,16.9944484 C31.876323,16.7944484 31.817323,16.4094484 32.017323,16.1364484 C32.218323,15.8634484 32.602323,15.8034484 32.875323,16.0044484" id="Fill-16" fill="#17152A"></path>
                    <path d="M33.130323,16.2684484 C33.048323,16.3454484 32.607323,15.9454484 31.948323,15.8884484 C31.289323,15.8224484 30.782323,16.1344484 30.716323,16.0434484 C30.683323,16.0024484 30.770323,15.8594484 30.992323,15.7174484 C31.209323,15.5764484 31.574323,15.4524484 31.985323,15.4904484 C32.396323,15.5294484 32.731323,15.7174484 32.918323,15.8974484 C33.111323,16.0774484 33.169323,16.2344484 33.130323,16.2684484" id="Fill-17" fill="#17152A"></path>
                    <path d="M35.334323,21.9254484 C35.333323,21.8904484 35.748323,21.8564484 36.419323,21.8294484 C36.587323,21.8264484 36.757323,21.8084484 36.798323,21.6814484 C36.850323,21.5514484 36.790323,21.3524484 36.723323,21.1414484 C36.594323,20.7044484 36.457323,20.2424484 36.315323,19.7574484 C36.032323,18.7734484 35.789323,17.8784484 35.625323,17.2274484 C35.462323,16.5764484 35.378323,16.1684484 35.411323,16.1594484 C35.446323,16.1494484 35.590323,16.5394484 35.798323,17.1784484 C36.005323,17.8164484 36.275323,18.7034484 36.558323,19.6874484 C36.695323,20.1744484 36.825323,20.6374484 36.947323,21.0764484 C36.998323,21.2824484 37.091323,21.5174484 36.991323,21.7654484 C36.939323,21.8894484 36.814323,21.9714484 36.706323,21.9914484 C36.598323,22.0164484 36.503323,22.0104484 36.420323,22.0084484 C35.749323,21.9894484 35.334323,21.9604484 35.334323,21.9254484" id="Fill-18" fill="#17152A"></path>
                    <path d="M30.586323,22.0824484 C30.573323,22.0824484 30.561323,22.0824484 30.548323,22.0824484 C29.528323,22.0714484 28.691323,21.6884484 28.678323,21.1414484 C28.665323,20.6054484 29.502323,20.1064484 30.552323,20.1064484 C30.565323,20.1064484 30.577323,20.1064484 30.590323,20.1064484 C31.658323,20.1164484 32.493323,20.6384484 32.457323,21.1804484 C32.423323,21.7204484 31.589323,22.0824484 30.586323,22.0824484" id="Fill-19" fill="#EC9680"></path>
                    <path d="M33.131323,22.4804484 C32.477323,22.0154484 34.943323,23.6394484 36.290323,23.6824484 C36.290323,23.6824484 35.420323,24.8514484 34.080323,24.2344484 C32.689323,23.5934484 33.131323,22.4804484 33.131323,22.4804484" id="Fill-20" fill="#EEE5D9"></path>
                    <path d="M35.251323,30.1174484 C35.251323,30.1174484 32.021323,30.0504484 28.968323,27.7684484 C28.968323,27.7684484 30.294323,31.3354484 35.109323,31.2914484 L35.251323,30.1174484" id="Fill-21" fill="#E88173"></path>
                    <path d="M20.382323,22.0714484 C21.679323,24.9864484 22.481323,29.2294484 22.481323,29.2294484 C23.196323,30.5544484 23.434323,26.3774484 23.434323,26.3774484 C23.434323,26.3774484 24.046323,22.3614484 23.492323,20.7964484 C23.492323,20.7964484 21.047323,21.5874484 20.496323,17.2014484 C20.225323,15.0354484 23.497323,13.9964484 24.388323,16.6184484 L26.430323,16.8074484 C26.430323,16.8074484 26.596323,8.61744839 31.302323,10.1264484 C31.302323,10.1264484 34.714323,12.2334484 36.748323,10.9434484 C38.783323,9.65444839 38.637323,9.20844839 38.637323,9.20844839 C38.637323,9.20844839 39.616323,11.3634484 42.240323,9.94844839 C44.864323,8.53344839 45.209323,6.01044839 44.299323,4.80444839 C43.773323,4.10744839 43.264323,3.33144839 42.404323,3.17644839 C41.544323,3.02144839 40.613323,3.36344839 40.059323,4.03844839 C40.702323,3.09644839 40.248323,1.68744839 39.292323,1.06244839 C38.337323,0.438448388 37.064323,0.487448388 36.002323,0.905448388 C34.941323,1.32444839 34.043323,2.06644839 33.166323,2.79644839 C32.565323,1.06744839 30.713323,-0.136551612 28.889323,0.0124483882 C27.064323,0.163448388 25.435323,1.65444839 25.124323,3.45844839 C24.139323,2.23144839 22.247323,1.95144839 20.828323,2.63144839 C19.408323,3.31144839 18.475323,4.79144839 18.203323,6.34144839 C17.932323,7.89144839 18.258323,9.49744839 18.853323,10.9544484 C17.757323,10.3234484 16.235323,10.7764484 15.496323,11.8034484 C14.758323,12.8314484 14.751323,14.2724484 15.290323,15.4174484 C15.829323,16.5624484 16.845323,17.4304484 17.970323,18.0094484 C17.136323,18.6854484 16.882323,19.9794484 17.398323,20.9214484 C17.914323,21.8624484 19.143323,22.3434484 20.161323,22.0034484" id="Fill-22" fill="#332B2A"></path>
                    <path d="M23.845323,19.1694484 C23.826323,19.1574484 23.778323,19.2234484 23.660323,19.2854484 C23.546323,19.3474484 23.347323,19.3964484 23.129323,19.3294484 C22.688323,19.1974484 22.283323,18.5334484 22.219323,17.7994484 C22.186323,17.4274484 22.242323,17.0694484 22.356323,16.7674484 C22.462323,16.4614484 22.643323,16.2404484 22.858323,16.1894484 C23.072323,16.1264484 23.233323,16.2464484 23.290323,16.3584484 C23.352323,16.4694484 23.330323,16.5534484 23.353323,16.5584484 C23.365323,16.5684484 23.436323,16.4854484 23.393323,16.3184484 C23.371323,16.2384484 23.318323,16.1444484 23.217323,16.0724484 C23.114323,15.9984484 22.967323,15.9664484 22.817323,15.9914484 C22.503323,16.0324484 22.238323,16.3394484 22.112323,16.6704484 C21.969323,17.0034484 21.898323,17.4074484 21.935323,17.8234484 C22.010323,18.6454484 22.479323,19.3894484 23.079323,19.5244484 C23.371323,19.5824484 23.606323,19.4814484 23.724323,19.3774484 C23.844323,19.2684484 23.860323,19.1764484 23.845323,19.1694484" id="Fill-23" fill="#E88173"></path>
                    <path d="M3.80932304,49.2594484 C3.80932304,49.2594484 7.11132304,33.9744484 23.166323,35.5844484 C37.823323,37.0534484 37.823323,37.0534484 37.823323,37.0534484 C37.823323,37.0534484 47.888323,41.3094484 46.489323,53.3234484 C45.088323,65.3384484 44.395323,76.3014484 44.753323,78.4214484 C45.112323,80.5414484 48.656323,99.4634484 47.593323,100.752448 C36.998323,113.610448 9.99932304,93.1034484 9.99932304,93.1034484 L3.80932304,49.2594484" id="Fill-24" fill="#EEA555"></path>
                    <path d="M23.166323,35.5844484 L19.435323,124.900448 L8.31732304,118.895448 L9.48432304,39.6484484 C9.48432304,39.6484484 12.473323,34.5114484 23.166323,35.5844484" id="Fill-25" fill="#283F7C"></path>
                    <path d="M0.000323043864,123.881448 L3.80932304,49.2594484 C4.99532304,44.6844484 7.54132304,41.1584484 10.835323,38.2074484 L10.835323,124.900448 L0.000323043864,123.881448" id="Fill-26" fill="#283F7C"></path>
                    <path d="M34.745323,36.6654484 C34.745323,36.6654484 44.764323,41.6234484 44.286323,58.3994484 C43.808323,75.1764484 50.311323,122.536448 50.311323,122.536448 L58.671323,120.853448 C58.671323,120.853448 48.989323,75.9464484 48.579323,68.0654484 C48.163323,60.0384484 48.873323,48.6974484 43.469323,40.8684484 C39.587323,35.2454484 34.745323,36.6654484 34.745323,36.6654484" id="Fill-27" fill="#283F7C"></path>
                    <path d="M23.166323,35.5844484 C23.166323,35.5844484 19.871323,42.9464484 20.205323,45.6424484 C20.539323,48.3384484 21.674323,53.9934484 21.674323,53.9934484 C21.674323,53.9934484 19.263323,55.4534484 19.445323,56.7304484 C19.627323,58.0084484 21.925323,70.9274484 21.925323,70.9274484 L23.166323,35.5844484" id="Fill-28" fill="#2C2D54"></path>
                    <path d="M12.636323,53.7974484 C12.707323,53.8014484 12.727323,54.7994484 12.700323,56.5984484 C12.672323,58.4564484 12.633323,61.0434484 12.585323,64.2164484 C12.500323,70.7014484 12.384323,79.5644484 12.256323,89.3544484 C12.114323,99.1764484 11.912323,108.069448 11.621323,114.504448 C11.482323,117.720448 11.322323,120.323448 11.176323,122.118448 C11.025323,123.914448 10.907323,124.904448 10.835323,124.900448 C10.763323,124.896448 10.744323,123.898448 10.771323,122.099448 C10.799323,120.242448 10.838323,117.654448 10.885323,114.482448 C10.970323,107.996448 11.086323,99.1334484 11.215323,89.3394484 C11.358323,79.5204484 11.558323,70.6284484 11.849323,64.1944484 C11.989323,60.9774484 12.150323,58.3754484 12.294323,56.5794484 C12.447323,54.7834484 12.564323,53.7934484 12.636323,53.7974484" id="Fill-29" fill="#2C2D54"></path>
                    <path d="M40.135323,208.497448 C39.977323,208.434448 43.526323,194.946448 43.526323,194.946448 L31.692323,191.487448 L29.181323,204.123448 L40.135323,208.497448" id="Fill-30" fill="#EFA78C"></path>
                    <polygon id="Fill-31" fill="#EFA78C" points="12.847323 210.131448 26.312323 210.131448 26.312323 199.555448 12.847323 199.555448"></polygon>
                    <path d="M27.635323,215.874448 L26.425323,209.461448 L11.883323,209.461448 L13.408323,218.878448 L14.177323,218.920448 C17.502323,219.104448 33.691323,219.961448 35.913323,219.287448 C38.392323,218.535448 27.635323,215.874448 27.635323,215.874448" id="Fill-32" fill="#6C431F"></path>
                </g>
                <g id="Group-8" transform="translate(81.500000, 139.000000) scale(-1, 1) translate(-81.500000, -139.000000) translate(0.000000, 59.000000)">
                    <path d="M89.9950511,7.93618227 C89.2470511,9.59318227 89.5760511,11.5081823 89.7950511,13.3131823 C90.0140511,15.1181823 90.0470511,17.1391823 88.8740511,18.5281823 C87.7170511,19.9001823 85.7410511,20.2311823 84.3000511,21.3011823 C82.8900511,22.3471823 82.0660511,24.1331823 82.1850511,25.8841823 C82.2670511,27.0921823 82.7260511,28.4531823 81.9880511,29.4131823 C81.6060511,29.9111823 80.9870511,30.1561823 80.3940511,30.3601823 C79.1100511,30.8031823 77.7900511,31.1631823 76.5740511,31.7701823 C75.3580511,32.3761823 74.2290511,33.2651823 73.6350511,34.4861823 C72.7970511,36.2091823 73.1490511,38.2531823 73.6070511,40.1121823 C74.0590511,41.9531823 74.6980511,43.9191823 76.2600511,44.9911823 C77.4310511,45.7941823 78.9180511,45.9471823 80.3360511,45.9881823 C84.4780511,46.1071823 88.6410511,45.4691823 92.5570511,44.1141823 C95.0210511,43.2621823 97.4680511,42.0661823 99.1260511,40.0541823 C101.728051,36.8961823 101.881051,32.4161823 101.546051,28.3361823 C101.357051,26.0461823 101.014051,23.6571823 99.6660511,21.7961823 C98.3340511,19.9561823 96.1440511,18.8631823 93.9030511,18.4891823 C91.6620511,18.1151823 92.2160511,7.45618227 89.9950511,7.93618227" id="Fill-125" fill="#F6C37F"></path>
                    <path d="M107.439051,22.4551823 C109.595051,19.6011823 110.675051,15.9551823 110.421051,12.3871823 C110.168051,8.82018227 108.583051,5.36218227 106.046051,2.84218227" id="Fill-126" fill="#F6C37F"></path>
                    <polyline id="Fill-127" fill="#A28675" points="53.5560511 114.630182 45.0800511 157.360182 49.0150511 157.360182 62.2130511 119.258182 53.5560511 114.630182"></polyline>
                    <polyline id="Fill-128" fill="#A28675" points="117.116051 115.019182 128.299051 156.620182 132.110051 156.620182 127.196051 108.294182 117.116051 115.019182"></polyline>
                    <path d="M44.4020511,106.849182 C55.5440511,119.012182 72.7140511,124.893182 89.1630511,123.673182 C105.612051,122.453182 121.202051,114.562182 133.119051,103.156182 C145.035051,91.7521823 153.436051,77.0051823 158.807051,61.4101823 C160.639051,56.0911823 162.148051,50.5581823 162.005051,44.9351823 C161.860051,39.3131823 159.876051,33.5361823 155.665051,29.8081823 C148.137051,23.1441823 136.252051,24.9701823 127.327051,29.5971823 C115.134051,35.9201823 105.356051,46.7731823 100.335051,59.5581823 C97.8420511,65.9071823 96.4890511,72.6771823 93.7210511,78.9111823 C90.9520511,85.1451823 86.3640511,91.0571823 79.8650511,93.1281823 C75.3030511,94.5831823 70.3610511,93.9831823 65.6390511,93.1791823 C60.9190511,92.3761823 56.1180511,91.3781823 51.3810511,92.0831823 C46.6430511,92.7871823 35.5220511,94.8891823 44.4020511,106.849182" id="Fill-129" fill="#F9D9BC"></path>
                    <path d="M82.8680511,80.9921823 C82.8680511,80.9921823 33.7870511,67.1701823 24.1130511,83.2741823 C14.4390511,99.3791823 9.41705106,147.915182 9.41705106,147.915182 L20.2790511,151.400182 C20.2790511,151.400182 36.3610511,96.9481823 42.2630511,95.1381823 C48.1640511,93.3281823 86.4590511,99.3671823 86.4590511,99.3671823 L82.8680511,80.9921823" id="Fill-130" fill="#E88173"></path>
                    <path d="M9.41705106,147.915182 C9.41705106,147.915182 -1.89494894,147.076182 0.277051063,148.597182 C2.44905106,150.118182 19.8370511,154.306182 19.8370511,154.306182 L20.3120511,151.060182 L9.41705106,147.915182" id="Fill-131" fill="#E15967"></path>
                    <path d="M49.8670511,82.8381823 L52.1600511,74.1681823 C64.4560511,75.2401823 77.1450511,79.0921823 89.9510511,83.7631823 L49.8670511,82.8381823" id="Fill-132" fill="#283F7C"></path>
                    <path d="M91.7480511,35.4351823 C91.7480511,35.4351823 82.6220511,34.0511823 79.4700511,49.7881823 C74.9240511,72.4741823 49.1730511,58.0401823 49.1730511,58.0401823 L40.8120511,63.2851823 C40.8120511,63.2851823 54.4280511,79.5611823 74.9240511,72.4741823 C95.4200511,65.3881823 91.7480511,35.4351823 91.7480511,35.4351823" id="Fill-133" fill="#EFA78C"></path>
                    <path d="M114.687051,54.1171823 L114.994051,66.0291823 L116.026051,88.3061823 C107.786051,92.1651823 96.4090511,91.1531823 84.9970511,92.0691823 C88.6660511,81.4041823 90.4710511,70.5841823 87.5290511,59.3701823 C87.5290511,59.3701823 83.5120511,56.8551823 85.6350511,54.3371823 C88.2900511,51.1891823 89.0380511,48.3431823 89.0380511,48.3431823 L113.758051,50.6551823" id="Fill-134" fill="#E15967"></path>
                    <path d="M95.4840511,35.0431823 C95.7160511,33.7541823 95.2380511,28.3261823 95.2380511,28.3261823 C95.2380511,28.3261823 90.2910511,27.7601823 90.0320511,22.8481823 C89.7730511,17.9361823 90.1700511,6.61518227 90.1700511,6.61518227 L99.2250511,2.28318227 L107.972051,9.85718227 L107.370051,34.4191823 L95.4840511,35.0431823" id="Fill-135" fill="#EFA78C"></path>
                    <path d="M91.0850511,14.8771823 C91.0820511,15.2241823 91.3610511,15.5071823 91.7080511,15.5101823 C92.0560511,15.5131823 92.3390511,15.2341823 92.3420511,14.8871823 C92.3450511,14.5401823 92.0660511,14.2561823 91.7190511,14.2531823 C91.3720511,14.2511823 91.0880511,14.5301823 91.0850511,14.8771823" id="Fill-136" fill="#17152A"></path>
                    <path d="M90.4820511,14.1871823 C90.5620511,14.2691823 91.0300511,13.8781823 91.7070511,13.8471823 C92.3840511,13.8071823 92.8890511,14.1471823 92.9610511,14.0571823 C92.9960511,14.0171823 92.9130511,13.8661823 92.6920511,13.7121823 C92.4740511,13.5581823 92.1070511,13.4171823 91.6850511,13.4391823 C91.2640511,13.4611823 90.9130511,13.6401823 90.7140511,13.8161823 C90.5100511,13.9921823 90.4430511,14.1501823 90.4820511,14.1871823" id="Fill-137" fill="#17152A"></path>
                    <path d="M98.3670511,14.9391823 C98.3640511,15.2861823 98.6430511,15.5691823 98.9900511,15.5721823 C99.3380511,15.5751823 99.6210511,15.2961823 99.6240511,14.9491823 C99.6270511,14.6021823 99.3480511,14.3181823 99.0010511,14.3161823 C98.6540511,14.3131823 98.3700511,14.5911823 98.3670511,14.9391823" id="Fill-138" fill="#17152A"></path>
                    <path d="M97.9820511,14.2501823 C98.0630511,14.3321823 98.5300511,13.9411823 99.2070511,13.9111823 C99.8840511,13.8701823 100.389051,14.2101823 100.461051,14.1201823 C100.496051,14.0801823 100.413051,13.9301823 100.192051,13.7751823 C99.9740511,13.6221823 99.6070511,13.4801823 99.1850511,13.5021823 C98.7640511,13.5241823 98.4140511,13.7041823 98.2140511,13.8791823 C98.0110511,14.0561823 97.9430511,14.2141823 97.9820511,14.2501823" id="Fill-139" fill="#17152A"></path>
                    <path d="M95.4930511,19.9441823 C95.4920511,19.9791823 95.0660511,19.9911823 94.3790511,19.9821823 C94.2940511,19.9801823 94.1970511,19.9821823 94.0880511,19.9531823 C93.9790511,19.9271823 93.8550511,19.8391823 93.8070511,19.7111823 C93.7160511,19.4541823 93.8200511,19.2191823 93.8820511,19.0101823 C94.0250511,18.5671823 94.1780511,18.0981823 94.3380511,17.6061823 C94.6680511,16.6101823 94.9800511,15.7141823 95.2190511,15.0701823 C95.4560511,14.4251823 95.6200511,14.0321823 95.6530511,14.0431823 C95.6860511,14.0541823 95.5830511,14.4671823 95.3890511,15.1261823 C95.1930511,15.7851823 94.9080511,16.6911823 94.5780511,17.6851823 C94.4110511,18.1751823 94.2530511,18.6431823 94.1030511,19.0841823 C94.0250511,19.2971823 93.9560511,19.4981823 94.0040511,19.6351823 C94.0420511,19.7681823 94.2160511,19.7931823 94.3880511,19.8031823 C95.0720511,19.8581823 95.4950511,19.9091823 95.4930511,19.9441823" id="Fill-140" fill="#17152A"></path>
                    <path d="M100.776051,21.3091823 C100.735051,21.3091823 100.694051,21.3091823 100.653051,21.3081823 C99.6090511,21.2741823 98.7520511,20.8661823 98.7390511,20.3061823 C98.7260511,19.7681823 99.5440511,19.2831823 100.587051,19.2831823 C100.622051,19.2831823 100.658051,19.2841823 100.693051,19.2851823 C101.786051,19.3171823 102.640051,19.8681823 102.605051,20.4231823 C102.572051,20.9601823 101.765051,21.3091823 100.776051,21.3091823" id="Fill-141" fill="#ED9A83"></path>
                    <path d="M97.8120511,20.5731823 C97.8610511,20.5181823 95.8230511,21.7131823 94.4420511,21.7021823 C94.4420511,21.7021823 95.2830511,22.9331823 96.6800511,22.3571823 C98.1290511,21.7591823 97.8120511,20.5731823 97.8120511,20.5731823" id="Fill-142" fill="#EEE5D9"></path>
                    <path d="M95.2380511,28.3261823 C95.2380511,28.3261823 98.5440511,28.3911823 101.762051,26.1841823 C101.762051,26.1841823 100.257051,29.7771823 95.3350511,29.5321823 L95.2380511,28.3261823" id="Fill-143" fill="#E88173"></path>
                    <path d="M107.768051,17.2651823 C108.348051,17.5661823 109.065051,17.5901823 109.664051,17.3291823 C110.264051,17.0671823 110.733051,16.5261823 110.907051,15.8961823 C111.014051,15.5051823 111.008051,15.0671823 110.805051,14.7161823 C110.532051,14.2441823 109.955051,14.0151823 109.409051,14.0131823 C108.864051,14.0111823 108.338051,14.1961823 107.824051,14.3801823" id="Fill-144" fill="#EFA78C"></path>
                    <path d="M100.868051,13.0971823 C100.938051,13.0891823 100.972051,13.4311823 100.696051,13.6991823 C100.424051,13.9691823 100.083051,13.9311823 100.092051,13.8601823 C100.089051,13.7891823 100.322051,13.7191823 100.518051,13.5181823 C100.723051,13.3251823 100.797051,13.0921823 100.868051,13.0971823" id="Fill-145" fill="#17152A"></path>
                    <path d="M115.537051,88.2331823 C115.537051,88.2331823 116.680051,112.080182 96.7720511,112.752182 L101.539051,85.3871823 L115.537051,88.2331823" id="Fill-146" fill="#283F7C"></path>
                    <path d="M92.9540511,86.9371823 C92.9540511,86.9371823 29.8080511,76.7211823 23.5360511,89.5951823 C17.2620511,102.469182 22.9480511,156.620182 22.9480511,156.620182 L35.2380511,155.554182 C35.2380511,155.554182 37.3950511,104.860182 40.3020511,102.791182 C43.2080511,100.721182 94.3720511,112.816182 98.5590511,112.232182 C103.239051,111.579182 119.503051,93.0991823 92.9540511,86.9371823" id="Fill-147" fill="#EFA78C"></path>
                    <path d="M24.0130511,155.680182 C24.0130511,155.680182 12.9840511,158.333182 15.5160511,159.118182 C18.0490511,159.904182 35.0550511,158.646182 35.0550511,158.646182 L35.4620511,154.064182 L24.0130511,155.680182" id="Fill-148" fill="#E15967"></path>
                    <path d="M49.7750511,58.4111823 L48.0010511,56.8951823 C48.0010511,56.8951823 46.7800511,56.1511823 44.9660511,54.4071823 C44.4950511,53.9551823 44.1100511,53.4211823 43.8180511,52.8371823 C43.4640511,52.1291823 43.0320511,51.1691823 42.9590511,50.5701823 C42.8680511,49.8291823 41.9240511,49.5831823 41.5920511,50.1751823 C41.2610511,50.7671823 41.4610511,52.8161823 42.7240511,54.8621823 C43.9880511,56.9081823 40.4140511,55.6651823 39.1030511,55.2351823 C37.7930511,54.8061823 33.6750511,53.6671823 33.2230511,53.9661823 C32.5610511,54.4031823 32.9080511,55.1931823 34.2270511,55.5911823 C35.5620511,55.9951823 39.4180511,57.4631823 39.1570511,58.1451823 C38.9010511,58.8161823 32.2590511,56.5381823 32.2590511,56.5381823 C32.2590511,56.5381823 30.9180511,55.8211823 30.5910511,56.5991823 C30.0010511,58.0011823 37.2400511,59.9021823 37.9340511,60.0661823 C38.4160511,60.1801823 38.1600511,60.9301823 37.6490511,60.7801823 C37.1230511,60.6261823 31.0760511,58.3541823 30.4620511,59.7751823 C29.9910511,60.8661823 36.4020511,61.3951823 37.3950511,62.5631823 C38.3880511,63.7321823 32.5730511,61.6681823 32.1660511,62.7281823 C32.0140511,63.1231823 31.9560511,63.4391823 35.4660511,64.1421823 C39.0600511,64.8621823 49.1170511,65.2271823 49.1170511,65.2271823 L49.7020511,58.2921823" id="Fill-149" fill="#EFA78C"></path>
                    <path d="M88.9280511,49.6011823 L90.1670511,35.5031823 L93.9930511,34.6501823 L105.879051,34.0251823 C105.879051,34.0251823 113.138051,33.4871823 115.642051,35.7321823 C118.148051,37.9761823 115.566051,53.9641823 115.566051,53.9641823 L88.9280511,49.6011823" id="Fill-150" fill="#E15967"></path>
                    <path d="M110.039051,34.0541823 C110.039051,34.0541823 125.273051,30.8521823 123.835051,56.5471823 C122.369051,82.7161823 82.6930511,86.6791823 82.6930511,86.6791823 L81.8970511,76.8661823 C81.8970511,76.8661823 110.431051,69.1461823 112.578051,58.2671823 C114.725051,47.3881823 110.039051,34.0541823 110.039051,34.0541823" id="Fill-151" fill="#EFA78C"></path>
                    <polyline id="Fill-152" fill="#94B7CF" points="50.5460511 84.2961823 35.5220511 52.0531823 37.4610511 50.9511823 52.7340511 82.2181823 79.6590511 80.0801823 79.9230511 81.9001823 50.5460511 84.2961823"></polyline>
                    <path d="M88.7920511,9.20718227 C88.7920511,9.20718227 88.0580511,1.34318227 98.9130511,0.0851822732 C109.767051,-1.17281773 109.882051,11.9191823 109.882051,11.9191823 L103.979051,10.7261823 L102.691051,7.34318227 L102.467051,10.5751823 L98.0510511,10.1961823 L98.3480511,7.82618227 L97.0590511,9.67818227 L88.7920511,9.20718227" id="Fill-153" fill="#F6C37F"></path>
                    <path d="M82.8690511,76.8661823 C82.8690511,76.8661823 78.4700511,76.9551823 76.0910511,73.7831823 C73.7110511,70.6101823 72.8530511,73.9141823 75.4560511,76.8661823 C78.0580511,79.8181823 79.3170511,80.4821823 79.3170511,80.4821823 C79.3170511,80.4821823 64.8150511,84.1391823 67.8480511,84.3281823 C70.8790511,84.5181823 84.7700511,85.9661823 84.7700511,85.9661823 L82.8690511,76.8661823" id="Fill-154" fill="#EFA78C"></path>
                    <path d="M49.1300511,105.688182 L46.9840511,83.0921823 C46.9840511,83.0921823 100.500051,81.1691823 107.780051,87.9111823 C115.061051,94.6541823 111.026051,114.000182 96.7720511,112.752182 C82.5180511,111.503182 49.1300511,105.688182 49.1300511,105.688182" id="Fill-155" fill="#283F7C"></path>
                    <path d="M108.086051,56.7291823 C108.127051,56.7651823 107.796051,57.2151823 106.997051,57.5761823 C106.222051,57.9351823 104.917051,58.1311823 103.665051,57.5581823 C102.419051,56.9731823 101.724051,55.8511823 101.498051,55.0261823 C101.257051,54.1841823 101.387051,53.6411823 101.440051,53.6491823 C101.524051,53.6471823 101.531051,54.1691823 101.837051,54.9081823 C102.128051,55.6361823 102.796051,56.5911823 103.879051,57.0981823 C104.965051,57.5971823 106.125051,57.4891823 106.869051,57.2411823 C107.630051,56.9961823 108.033051,56.6641823 108.086051,56.7291823" id="Fill-156" fill="#AF3F4F"></path>
                    <path d="M118.416051,119.856182 L117.116051,115.021182 L118.416051,119.856182 M127.764051,113.881182 L127.196051,108.294182 C127.196051,108.295182 127.196051,108.295182 127.196051,108.295182 L127.764051,113.881182" id="Fill-157" fill="#C5CBCC"></path>
                    <path d="M118.416051,119.856182 L117.116051,115.021182 C120.642051,113.049182 124.015051,110.792182 127.196051,108.295182 L127.764051,113.881182 L118.416051,119.856182" id="Fill-158" fill="#8A786E"></path>
                    <path d="M117.116051,115.021182 L117.116051,115.019182 L127.196051,108.294182 L127.196051,108.295182 C124.015051,110.792182 120.642051,113.049182 117.116051,115.021182" id="Fill-159" fill="#CAB9A9"></path>
                    <polyline id="Fill-160" fill="#C5CBCC" points="52.4890511 120.011182 52.1600511 119.856182 53.5560511 114.631182 53.5560511 114.632182 52.4890511 120.011182"></polyline>
                    <path d="M60.6290511,123.831182 L52.4890511,120.011182 L53.5560511,114.632182 C56.2850511,116.435182 59.1880511,117.980182 62.2120511,119.261182 L60.6290511,123.831182" id="Fill-161" fill="#8A786E"></path>
                    <path d="M62.2120511,119.261182 C59.1880511,117.980182 56.2850511,116.435182 53.5560511,114.632182 L53.5560511,114.630182 L62.2130511,119.258182 L62.2120511,119.261182" id="Fill-162" fill="#CAB9A9"></path>
                    <path d="M135.234051,74.3741823 C135.297051,74.4881823 133.663051,75.4081823 131.216051,77.1621823 C130.911051,77.3841823 130.594051,77.6161823 130.262051,77.8581823 C129.931051,78.1001823 129.603051,78.3751823 129.255051,78.6461823 C128.551051,79.1811823 127.844051,79.8081823 127.088051,80.4521823 C125.608051,81.7771823 124.046051,83.3051823 122.526051,85.0201823 C121.019051,86.7481823 119.704051,88.4941823 118.580051,90.1311823 C118.038051,90.9631823 117.508051,91.7451823 117.067051,92.5121823 C116.844051,92.8931823 116.612051,93.2531823 116.415051,93.6121823 C116.218051,93.9721823 116.028051,94.3181823 115.848051,94.6481823 C114.422051,97.3001823 113.720051,99.0381823 113.598051,98.9901823 C113.550051,98.9721823 113.681051,98.5211823 113.962051,97.7181823 C114.098051,97.3151823 114.279051,96.8271823 114.524051,96.2751823 C114.764051,95.7211823 115.019051,95.0801823 115.369051,94.4031823 C115.538051,94.0611823 115.716051,93.7041823 115.899051,93.3321823 C116.087051,92.9611823 116.307051,92.5891823 116.522051,92.1961823 C116.944051,91.4051823 117.463051,90.5991823 117.997051,89.7441823 C119.105051,88.0611823 120.425051,86.2741823 121.955051,84.5181823 C123.499051,82.7751823 125.101051,81.2381823 126.629051,79.9231823 C127.408051,79.2831823 128.140051,78.6671823 128.871051,78.1461823 C129.232051,77.8821823 129.573051,77.6161823 129.918051,77.3831823 C130.263051,77.1521823 130.595051,76.9311823 130.912051,76.7191823 C131.538051,76.2861823 132.140051,75.9501823 132.659051,75.6411823 C133.176051,75.3271823 133.637051,75.0861823 134.018051,74.8991823 C134.779051,74.5171823 135.209051,74.3281823 135.234051,74.3741823" id="Fill-163" fill="#CAAE97"></path>
                    <path d="M140.656051,44.1811823 C140.874051,44.2941823 138.450051,48.2981823 137.240051,53.8431823 C135.973051,59.3781823 136.462051,64.0321823 136.216051,64.0411823 C136.125051,64.0521823 135.884051,62.9051823 135.806051,61.0171823 C135.764051,60.0731823 135.787051,58.9461823 135.884051,57.6991823 C135.995051,56.4541823 136.187051,55.0891823 136.498051,53.6771823 C136.818051,52.2691823 137.224051,50.9521823 137.655051,49.7781823 C138.098051,48.6081823 138.557051,47.5791823 138.998051,46.7431823 C139.872051,45.0671823 140.578051,44.1331823 140.656051,44.1811823" id="Fill-164" fill="#CAAE97"></path>
                    <path d="M135.290051,27.4171823 C135.287051,27.4041823 135.438051,27.3541823 135.740051,27.2691823 C136.044051,27.1961823 136.485051,27.0301823 137.091051,26.9411823 C138.285051,26.6941823 140.105051,26.4801823 142.430051,26.7131823 C143.586051,26.8491823 144.871051,27.0661823 146.228051,27.4951823 C147.580051,27.9291823 149.014051,28.5331823 150.434051,29.4001823 C151.856051,30.2621823 153.251051,31.4111823 154.473051,32.8581823 C155.697051,34.3051823 156.698051,36.0711823 157.415051,38.0431823 C158.843051,42.0021823 159.016051,46.7641823 157.936051,51.5551823 C156.873051,56.3681823 154.613051,61.1471823 152.045051,65.9731823 C149.474051,70.8081823 146.690051,75.8451823 143.517051,80.9001823 C140.345051,85.9521823 136.776051,91.0241823 132.633051,95.8231823 C128.492051,100.624182 123.949051,104.894182 119.113051,108.425182 C114.282051,111.960182 109.151051,114.739182 103.975051,116.623182 C102.692051,117.125182 101.373051,117.465182 100.095051,117.872182 C99.4590511,118.087182 98.8010511,118.204182 98.1600511,118.368182 C97.5160511,118.521182 96.8780511,118.673182 96.2430511,118.824182 C94.9580511,119.038182 93.6980511,119.296182 92.4450511,119.463182 C91.8170511,119.536182 91.1940511,119.608182 90.5760511,119.679182 C89.9590511,119.755182 89.3470511,119.826182 88.7340511,119.849182 C83.8540511,120.207182 79.2860511,119.969182 75.1690511,119.443182 C71.0450511,118.930182 67.3760511,118.081182 64.2040511,117.195182 C61.0210511,116.334182 58.3560511,115.346182 56.1880511,114.530182 C54.0390511,113.662182 52.3830511,112.959182 51.2890511,112.419182 C50.7440511,112.156182 50.3260511,111.955182 50.0390511,111.816182 C49.7600511,111.677182 49.6190511,111.599182 49.6250511,111.587182 C49.6310511,111.576182 49.7820511,111.629182 50.0720511,111.746182 C50.3660511,111.868182 50.7930511,112.046182 51.3510511,112.279182 C52.4640511,112.774182 54.1350511,113.431182 56.2940511,114.253182 C58.4710511,115.025182 61.1390511,115.967182 64.3150511,116.785182 C67.4820511,117.628182 71.1380511,118.435182 75.2350511,118.910182 C79.3270511,119.398182 83.8570511,119.602182 88.6860511,119.221182 C89.2910511,119.194182 89.8970511,119.121182 90.5080511,119.043182 C91.1180511,118.969182 91.7340511,118.894182 92.3540511,118.819182 C93.5930511,118.649182 94.8370511,118.386182 96.1070511,118.170182 C96.7330511,118.018182 97.3630511,117.865182 97.9990511,117.711182 C98.6310511,117.546182 99.2800511,117.428182 99.9080511,117.213182 C101.168051,116.806182 102.470051,116.465182 103.734051,115.965182 C108.837051,114.087182 113.899051,111.330182 118.674051,107.824182 C123.453051,104.322182 127.950051,100.088182 132.057051,95.3271823 C136.169051,90.5651823 139.721051,85.5271823 142.887051,80.5041823 C146.054051,75.4771823 148.844051,70.4621823 151.427051,65.6451823 C154.005051,60.8401823 156.254051,56.1301823 157.322051,51.4151823 C158.406051,46.7291823 158.264051,42.0791823 156.909051,38.2231823 C156.227051,36.3021823 155.272051,34.5801823 154.100051,33.1681823 C152.931051,31.7531823 151.588051,30.6191823 150.210051,29.7611823 C148.833051,28.8981823 147.437051,28.2861823 146.117051,27.8391823 C144.793051,27.3981823 143.533051,27.1641823 142.396051,27.0071823 C140.113051,26.7321823 138.309051,26.8951823 137.117051,27.0921823 C136.512051,27.1561823 136.068051,27.2961823 135.759051,27.3441823 C135.453051,27.4041823 135.294051,27.4291823 135.290051,27.4171823" id="Fill-165" fill="#CAAE97"></path>
                </g>
                <g id="Group-3" transform="translate(393.000000, 112.000000) scale(-1, 1) translate(-393.000000, -112.000000) translate(359.000000, 4.000000)">
                    <path d="M14.916,11.9951792 C14.691,16.1181792 14.323,20.5971792 11.539,23.6451792 C10.002,25.3281792 7.788,26.4921792 6.893,28.5871792 C6.114,30.4101792 6.518,32.5631792 5.78,34.4031792 C5.131,36.0261792 3.692,37.1791792 2.66,38.5921792 C0.412,41.6681792 0.259,46.0151792 1.91,49.4491792 C3.562,52.8831792 6.834,55.3951792 10.466,56.5461792 C14.098,57.6981792 18.055,57.5711792 21.751,56.6471792 C24.48,55.9651792 27.135,54.8361792 29.31,53.0521792 C31.485,51.2671792 33.153,48.7871792 33.651,46.0181792 C34.204,42.9361792 33.305,39.8071792 32.645,36.7461792 C30.489,26.7671792 30.858,16.2541792 33.703,6.44917925 L14.916,11.9951792" id="Fill-544" fill="#17152A"></path>
                    <polyline id="Fill-545" fill="#EFA78C" points="34.209 173.969179 35.806 210.852179 46.389 210.852179 47.598 173.969179 35.632 173.969179"></polyline>
                    <path d="M16.915,65.9121792 L17.641,63.4271792 C17.641,63.4271792 18.321,61.9961792 18.945,59.2751792 C19.107,58.5701792 19.14,57.8411792 19.056,57.1211792 C18.954,56.2491792 18.772,55.0961792 18.476,54.4961792 C18.11,53.7531792 18.837,52.9511792 19.504,53.2991792 C20.171,53.6471792 21.23,55.6691792 21.301,58.3351792 C21.371,61.0021792 23.933,57.6771792 24.888,56.4821792 C25.843,55.2871792 28.971,51.7281792 29.571,51.7311792 C30.451,51.7351792 30.61,52.6781792 29.627,53.8491792 C28.634,55.0351792 25.949,58.7401792 26.605,59.2141792 C27.25,59.6811792 32.03,53.5311792 32.03,53.5311792 C32.03,53.5311792 32.838,52.0521792 33.614,52.5741792 C35.013,53.5161792 29.451,59.6801792 28.907,60.2531792 C28.53,60.6521792 29.223,61.1921792 29.606,60.7431792 C30,60.2801792 34.231,54.4981792 35.664,55.4431792 C36.764,56.1691792 31.136,60.5561792 30.925,62.2431792 C30.714,63.9291792 34.855,58.4821792 35.877,59.2191792 C36.257,59.4931792 36.503,59.7501792 33.674,62.5351792 C30.777,65.3871792 21.668,71.8361792 21.668,71.8361792 L16.911,65.7581792" id="Fill-546" fill="#EFA78C"></path>
                    <path d="M32.609,31.6111792 C32.414,30.4801792 32.874,25.7291792 32.874,25.7291792 C32.874,25.7291792 37.211,25.2701792 37.474,20.9691792 C37.738,16.6691792 37.474,6.75017925 37.474,6.75017925 L29.574,2.88817925 L20.885,9.47117925 L22.201,30.9761792 L32.609,31.6111792" id="Fill-547" fill="#EFA78C"></path>
                    <path d="M21.546,12.7881792 C21.546,12.7881792 28.639,12.1201792 29.894,5.68117925 L37.591,12.7881792 C37.591,12.7881792 39.928,8.02217925 35.663,3.59117925 C31.399,-0.840820752 28.472,0.0791792482 26.8,0.0791792482 C25.24,0.0791792482 17.357,1.75117925 15.01,10.7211792 C14.84,11.3711792 14.699,12.9811792 14.592,13.7101792 L21.546,12.7881792" id="Fill-548" fill="#17152A"></path>
                    <path d="M53.952,107.212179 L62.527,107.260179 C61.649,89.8261792 50.869,54.5971792 46.249,40.1781792 C44.91,35.9991792 41.363,32.9201792 37.037,32.1881792 C33.458,31.5821792 28.651,31.0201792 22.881,30.9431792 C20.996,30.9181792 19.118,30.6731792 17.284,30.2421792 C16.338,30.0201792 15.408,29.8801792 15.093,30.0841792 C13.244,31.2851792 12.582,35.8151792 5.892,41.9821792 L12.429,65.0811792 L8.482,90.2031792 L43.741,88.5981792 L39.325,71.9821792 L39.156,55.8621792 L39.332,55.6871792 C48.048,75.2311792 53.952,107.212179 53.952,107.212179" id="Fill-549" fill="#EFA78C"></path>
                    <path d="M36.612,13.9801792 C36.612,14.2841792 36.364,14.5301792 36.061,14.5301792 C35.756,14.5301792 35.51,14.2841792 35.51,13.9801792 C35.51,13.6761792 35.756,13.4291792 36.061,13.4291792 C36.364,13.4291792 36.612,13.6761792 36.612,13.9801792" id="Fill-550" fill="#17152A"></path>
                    <path d="M37.144,13.3801792 C37.073,13.4511792 36.666,13.1051792 36.073,13.0731792 C35.482,13.0331792 35.036,13.3271792 34.974,13.2481792 C34.944,13.2121792 35.018,13.0811792 35.212,12.9471792 C35.404,12.8141792 35.727,12.6931792 36.096,12.7161792 C36.465,12.7381792 36.771,12.8981792 36.945,13.0531792 C37.121,13.2091792 37.178,13.3481792 37.144,13.3801792" id="Fill-551" fill="#17152A"></path>
                    <path d="M30.232,13.9801792 C30.232,14.2841792 29.986,14.5301792 29.682,14.5301792 C29.377,14.5301792 29.131,14.2841792 29.131,13.9801792 C29.131,13.6761792 29.377,13.4291792 29.682,13.4291792 C29.986,13.4291792 30.232,13.6761792 30.232,13.9801792" id="Fill-552" fill="#17152A"></path>
                    <path d="M30.574,13.3801792 C30.503,13.4511792 30.096,13.1051792 29.504,13.0731792 C28.911,13.0331792 28.466,13.3271792 28.405,13.2481792 C28.374,13.2121792 28.447,13.0811792 28.643,12.9471792 C28.833,12.8141792 29.156,12.6931792 29.526,12.7161792 C29.895,12.7381792 30.2,12.8981792 30.374,13.0531792 C30.551,13.2091792 30.609,13.3481792 30.574,13.3801792" id="Fill-553" fill="#17152A"></path>
                    <path d="M32.712,18.3861792 C32.711,18.3501792 33.081,18.3041792 33.682,18.2581792 C33.833,18.2501792 33.978,18.2271792 34.006,18.1201792 C34.046,18.0091792 33.988,17.8351792 33.921,17.6471792 C33.792,17.2561792 33.656,16.8481792 33.515,16.4191792 C32.951,14.6711792 32.549,13.2381792 32.615,13.2161792 C32.683,13.1941792 33.195,14.5931792 33.758,16.3401792 C33.894,16.7711792 34.023,17.1821792 34.146,17.5751792 C34.196,17.7581792 34.288,17.9671792 34.203,18.1991792 C34.158,18.3151792 34.044,18.3941792 33.946,18.4161792 C33.849,18.4411792 33.763,18.4381792 33.689,18.4391792 C33.086,18.4391792 32.713,18.4211792 32.712,18.3861792" id="Fill-554" fill="#17152A"></path>
                    <path d="M28.106,19.5421792 C27.225,19.5421792 26.505,19.2281792 26.48,18.7521792 C26.452,18.2661792 27.204,17.7891792 28.162,17.7691792 C28.185,17.7691792 28.208,17.7691792 28.23,17.7691792 C29.155,17.7691792 29.883,18.2031792 29.866,18.6781792 C29.851,19.1691792 29.097,19.5201792 28.183,19.5421792 C28.157,19.5421792 28.131,19.5421792 28.106,19.5421792" id="Fill-555" fill="#ED9A83"></path>
                    <path d="M30.754,18.9461792 C30.155,18.5481792 32.41,19.9331792 33.62,19.9331792 C33.62,19.9331792 32.874,21.0051792 31.655,20.4911792 C30.39,19.9561792 30.754,18.9461792 30.754,18.9461792" id="Fill-556" fill="#EEE5D9"></path>
                    <path d="M32.874,25.7291792 C32.874,25.7291792 29.977,25.7621792 27.175,23.8051792 C27.175,23.8051792 28.467,26.9631792 32.78,26.7851792 L32.874,25.7291792" id="Fill-557" fill="#E88173"></path>
                    <path d="M4.478,88.4051792 C4.478,88.4051792 6.44,142.326179 8.452,158.829179 C10.465,175.333179 12.189,211.744179 12.189,211.744179 L23.899,211.744179 C23.899,211.744179 24.104,159.031179 24.53,151.383179 C24.956,143.735179 25.543,102.671179 25.543,102.671179 C22.843,88.8301792 15.579,88.8021792 4.478,88.4051792" id="Fill-558" fill="#EFA78C"></path>
                    <path d="M4.478,89.4431792 C4.478,89.4431792 24.171,91.9391792 25.03,102.671179 L27.851,102.671179 L45.059,88.1291792 L18.847,85.0161792 L4.478,89.4431792" id="Fill-559" fill="#F6C37F"></path>
                    <path d="M42.393,63.6361792 L41.732,61.7741792 L41.732,61.5401792 C41.961,62.1441792 42.187,62.7541792 42.411,63.3701792 C42.398,63.5411792 42.393,63.6361792 42.393,63.6361792" id="Fill-560" fill="#F3BCB0"></path>
                    <path d="M42.411,63.3701792 C42.187,62.7541792 41.961,62.1441792 41.732,61.5401792 L41.732,42.2781792 C47.744,51.6031792 45.621,53.8241792 44.168,55.9561792 C42.906,57.8091792 42.497,62.2391792 42.411,63.3701792" id="Fill-561" fill="#EC9680"></path>
                    <path d="M54.113,103.122179 L53.835,105.426179 C53.835,105.426179 53.893,106.847179 53.447,109.309179 C53.332,109.948179 53.103,110.560179 52.78,111.124179 C52.389,111.807179 51.832,112.694179 51.376,113.084179 C50.813,113.568179 51.13,114.485179 51.803,114.433179 C52.475,114.382179 54.061,113.087179 55.059,110.914179 C56.056,108.741179 56.996,112.384179 57.363,113.706179 C57.73,115.028179 59.055,119.063179 59.55,119.273179 C60.278,119.579179 60.739,118.858179 60.343,117.546179 C59.942,116.219179 59.034,112.218179 59.741,112.058179 C60.438,111.901179 62.211,118.655179 62.211,118.655179 C62.211,118.655179 62.357,120.160179 63.181,120.002179 C64.666,119.718179 62.252,112.678179 62.006,112.013179 C61.834,111.551179 62.597,111.350179 62.754,111.855179 C62.916,112.376179 64.366,118.633179 65.881,118.359179 C67.044,118.148179 63.949,112.549179 64.37,111.083179 C64.79,109.619179 66.284,115.568179 67.387,115.321179 C67.797,115.229179 68.091,115.104179 66.739,111.811179 C65.356,108.438179 60.118,99.9121792 60.118,99.9121792 L54.055,103.248179" id="Fill-562" fill="#EFA78C"></path>
                    <path d="M40.245,72.4291792 C44.168,78.8761792 45.059,88.1291792 45.059,88.1291792 C32.812,91.5091792 27.043,90.6701792 27.043,90.6701792 L4.478,89.4431792 C4.979,72.4291792 11.542,72.9591792 11.109,66.8301792 C10.674,60.7011792 8.165,51.6521792 8.165,51.6521792 C13.806,50.9141792 15.093,30.0841792 15.093,30.0841792 L17.353,30.5051792 C17.353,30.5051792 18.611,52.2271792 30.025,52.3671792 C41.438,52.5061792 37.591,32.2841792 37.591,32.2841792 L40.417,32.8401792 L42.167,45.3971792 C42.167,45.3971792 44.397,50.6941792 44.397,52.0881792 C44.397,53.4821792 41.827,56.4151792 41.827,56.4151792 L40.245,72.4291792" id="Fill-563" fill="#F6C37F"></path>
                    <path d="M10.975,68.8311792 L40.477,70.0881792 C40.477,70.0881792 43.855,76.9411792 45.059,88.1291792 C45.946,96.3821792 56.025,175.486179 56.025,175.486179 C56.025,175.486179 48.001,176.632179 39.405,175.486179 C30.81,174.340179 20.017,184.392179 14.096,184.954179 C8.174,185.515179 5.68434189e-14,180.954179 5.68434189e-14,180.954179 L4.478,88.4051792 C4.478,88.4051792 4.309,74.2351792 10.975,68.8311792" id="Fill-564" fill="#E36B5B"></path>
                    <path d="M15.093,30.0841792 C15.093,30.0841792 5.189,32.5011792 5.892,43.6761792 C6.595,54.8511792 6.5,84.5021792 14.096,85.0161792 C21.692,85.5311792 43.855,74.1481792 43.855,74.1481792 L40.918,65.6151792 C40.918,65.6151792 21.434,72.5211792 19.744,70.5331792 C17.517,67.9111792 15.093,30.0841792 15.093,30.0841792" id="Fill-565" fill="#EFA78C"></path>
                    <path d="M39.044,68.6901792 L40.202,66.6791792 C40.202,66.6791792 41.099,65.5761792 42.217,63.3371792 C42.508,62.7561792 42.691,62.1281792 42.77,61.4841792 C42.866,60.7021792 42.951,59.6591792 42.821,59.0741792 C42.658,58.3481792 43.462,57.8041792 43.969,58.2481792 C44.477,58.6931792 44.972,60.6791792 44.469,63.0171792 C43.966,65.3551792 46.902,63.0001792 47.987,62.1611792 C49.071,61.3221792 52.55,58.8841792 53.072,59.0141792 C53.838,59.2031792 53.777,60.0581792 52.673,60.8711792 C51.557,61.6931792 48.434,64.3531792 48.905,64.9051792 C49.367,65.4491792 54.833,61.1021792 54.833,61.1021792 C54.833,61.1021792 55.851,59.9841792 56.416,60.6031792 C57.436,61.7211792 51.285,65.9131792 50.691,66.2981792 C50.277,66.5651792 50.767,67.1831792 51.196,66.8721792 C51.637,66.5521792 56.546,62.4101792 57.595,63.5371792 C58.4,64.4031792 52.568,67.0331792 52.027,68.4581792 C51.486,69.8831792 56.246,66.0141792 56.981,66.8711792 C57.255,67.1911792 57.414,67.4671792 54.36,69.2951792 C51.232,71.1661792 41.931,74.8571792 41.931,74.8571792 L39.073,68.5541792" id="Fill-566" fill="#EFA78C"></path>
                    <path d="M47.301,212.268179 L47.408,205.836179 L34.66,205.755179 L35.152,215.169179 L35.899,215.222179 C39.223,215.428179 52.814,216.035179 55.04,215.375179 C57.524,214.639179 47.301,212.268179 47.301,212.268179" id="Fill-567" fill="#283F7C"></path>
                    <path d="M24.191,212.268179 L24.875,205.840179 L11.55,205.755179 L12.041,215.169179 L12.788,215.222179 C16.113,215.428179 29.703,216.035179 31.93,215.375179 C34.413,214.639179 24.191,212.268179 24.191,212.268179" id="Fill-568" fill="#283F7C"></path>
                </g>
            </g>
        </g>
    </g>
</svg>