<?xml version="1.0" encoding="UTF-8"?>
<svg width="640px" height="310px" viewBox="0 0 640 310" version="1.1" xmlns="http://www.w3.org/2000/svg" xmlns:xlink="http://www.w3.org/1999/xlink">
    <!-- Generator: Sketch 61.2 (89653) - https://sketch.com -->
    <title>3327592</title>
    <desc>Created with Sketch.</desc>
    <defs>
        <path d="M130.932,116.003 C127.716,116.003 125.658,115.86 125.658,115.86 L48.767,115.86 C16.949,115.86 4.196,115.071 1.152,105.136 C0.975,104.604 0.846,104.041 0.734,103.445 C0.341,101.345 0.376,98.382 0.814,94.787 C2.322,82.428 8.605,62.582 18.737,44.503 C19.285,43.526 19.843,42.556 20.413,41.59 L26.905,47.345 C27.146,47.558 27.42,47.651 27.686,47.651 C28.433,47.651 29.117,46.918 28.821,46.063 L25.542,36.591 L35.693,36.591 C37.887,36.591 39.666,34.812 39.666,32.618 L39.666,17.113 C40.161,16.665 40.655,16.23 41.15,15.806 C47.363,10.478 53.487,7.039 59.186,4.832 C68.123,1.37 76.013,0.92 81.553,0.92 C91.31,0.92 99.186,1.644 105.868,3.206 C111.398,4.502 116.115,6.362 120.408,8.843 C129.744,14.238 137.071,22.569 146.378,34.406 L146.378,56.574 C146.378,58.687 148.091,60.398 150.202,60.398 L162.425,60.398 C165.524,67.237 167.725,73.954 168.934,80.173 C169.375,82.443 169.685,84.646 169.857,86.764 C170.217,91.189 169.979,95.244 169.102,98.759 L169.102,98.775 C168.636,100.675 167.976,102.414 167.122,103.977 C162.161,113.047 146.654,115.381 136.076,115.882 C134.172,115.972 132.427,116.003 130.932,116.003 M47.158,39.834 C44.839,58.31 42.216,76.515 33.872,89.637 C55.743,105.944 74.921,111.321 90.713,111.321 C121.333,111.321 139.211,91.094 139.211,91.094 C130.881,74.617 128.472,57.394 128.744,39.834 L117.204,77.407 L54.404,77.407 L47.158,39.834" id="path-1"></path>
        <linearGradient x1="50.0001991%" y1="94.3762328%" x2="50.0001991%" y2="10.1896023%" id="linearGradient-3">
            <stop stop-color="#1F3964" offset="0%"></stop>
            <stop stop-color="#294979" offset="100%"></stop>
        </linearGradient>
        <path d="M57.713,72.321 C41.921,72.321 22.743,66.944 0.872,50.637 C9.216,37.515 11.839,19.31 14.158,0.834 L21.404,38.407 L84.204,38.407 L95.744,0.834 C95.472,18.394 97.881,35.617 106.211,52.094 C106.211,52.094 88.333,72.321 57.713,72.321" id="path-4"></path>
        <linearGradient x1="48.7644652%" y1="97.4960482%" x2="48.7644652%" y2="-38.0313903%" id="linearGradient-6">
            <stop stop-color="#193057" offset="0%"></stop>
            <stop stop-color="#213D69" offset="100%"></stop>
        </linearGradient>
        <path d="M52.938,29.86 L48.768,29.86 C16.949,29.86 4.196,29.071 1.152,19.136 C-0.506,11.326 1.603,3.113 11.12,0.666 C26.031,-3.166 51.988,11.938 51.988,11.938 L52.938,29.86" id="path-7"></path>
        <linearGradient x1="49.9996531%" y1="103.977625%" x2="49.9996531%" y2="16.627514%" id="linearGradient-9">
            <stop stop-color="#1F3964" offset="0%"></stop>
            <stop stop-color="#294979" offset="100%"></stop>
        </linearGradient>
        <path d="M67.103,16.759 L67.103,16.775 C66.636,18.675 65.976,20.414 65.122,21.977 C57.345,36.194 23.658,33.86 23.658,33.86 L0.841,33.86 L3.739,14.537 C3.739,14.537 44.188,-4.19 58.681,1.654 C65.767,4.505 67.94,10.431 67.103,16.759" id="path-10"></path>
        <linearGradient x1="49.9986784%" y1="103.116615%" x2="49.9986784%" y2="25.3204941%" id="linearGradient-12">
            <stop stop-color="#1F3964" offset="0%"></stop>
            <stop stop-color="#294979" offset="100%"></stop>
        </linearGradient>
        <path d="M91.358,5.467 L91.084,7.142 L91.084,7.157 L83.452,54.419 L8.365,54.419 L0.813,5.435 C0.443,3.035 2.311,0.861 4.726,0.861 L87.445,0.861 C89.893,0.861 91.745,3.052 91.358,5.467" id="path-13"></path>
        <linearGradient x1="70.3217743%" y1="66.0474861%" x2="33.0155963%" y2="31.0586472%" id="linearGradient-15">
            <stop stop-color="#3854E0" offset="0%"></stop>
            <stop stop-color="#5C7DF7" offset="100%"></stop>
        </linearGradient>
        <path d="M57.648,43.298 C57.648,43.298 56.193,51.565 54.382,56.799 C54.382,56.799 51.067,56.131 49.994,47.408 C49.994,47.408 42.829,48.813 38.334,42.037 C38.334,42.037 37.261,48.746 30.35,43.982 C25.742,47.745 20.294,48.141 14.113,45.593 C14.113,45.593 15.153,54.389 12.201,58.615 C12.201,58.615 11.127,55.141 7.699,45.275 C7.699,45.275 6.227,45.327 5.287,46.669 C5.287,46.669 -2.124,32.174 1.365,25.196 C4.854,18.218 9.551,20.902 9.551,20.902 C9.551,20.902 7.806,11.375 18.139,7.886 C28.471,4.397 28.471,-0.3 30.082,0.64 C31.692,1.579 32.363,5.068 32.363,5.068 C32.363,5.068 50.21,3.189 55.041,22.378 C55.041,22.378 67.931,22.79 60.281,44.395 C60.281,44.395 59.778,43.499 57.648,43.298" id="path-16"></path>
        <linearGradient x1="50.8127315%" y1="82.0703511%" x2="49.0770558%" y2="18.92129%" id="linearGradient-18">
            <stop stop-color="#3E2222" offset="0%"></stop>
            <stop stop-color="#5E3434" offset="100%"></stop>
        </linearGradient>
        <path d="M7.686,30.651 C7.42,30.651 7.146,30.558 6.905,30.345 L0.413,24.59 C3.092,20.052 6.017,15.661 9.171,11.567 C12.649,7.058 16.168,3.279 19.666,0.113 L19.666,15.618 C19.666,17.812 17.887,19.591 15.693,19.591 L5.542,19.591 L8.821,29.063 C9.117,29.918 8.433,30.651 7.686,30.651" id="path-19"></path>
        <linearGradient x1="336.711162%" y1="302.632785%" x2="336.711162%" y2="-14.6260397%" id="linearGradient-21">
            <stop stop-color="#183161" offset="0%"></stop>
            <stop stop-color="#1F3F75" offset="100%"></stop>
        </linearGradient>
        <path d="M21.512,0.037 L0.578,0.037 L0.578,18.152 C0.578,22.377 4.003,25.802 8.228,25.802 L13.863,25.802 C18.088,25.802 21.512,22.377 21.512,18.152 L21.512,0.037" id="path-22"></path>
        <linearGradient x1="0%" y1="49.9980594%" x2="99.9971338%" y2="49.9980594%" id="linearGradient-24">
            <stop stop-color="#1F3964" offset="0%"></stop>
            <stop stop-color="#294979" offset="100%"></stop>
        </linearGradient>
        <path d="M12.221,41.037 L12.221,35.451 C12.221,34.534 12.964,33.791 13.882,33.791 L15.995,33.791 C16.912,33.791 17.655,33.048 17.655,32.131 L17.655,30.017 C17.655,29.1 16.912,28.356 15.995,28.356 L9.201,28.356 C4.532,28.356 0.748,24.571 0.748,19.902 C0.748,15.233 4.532,11.448 9.201,11.448 L18.209,11.448 C19.126,11.448 19.869,10.705 19.869,9.788 L19.869,9.033 C19.869,4.197 23.79,0.277 28.625,0.277 C33.461,0.277 37.381,4.197 37.381,9.033 C37.381,14.258 33.146,18.493 27.921,18.493 L12.07,18.493 C11.152,18.493 10.409,19.237 10.409,20.154 C10.409,21.071 11.152,21.814 12.07,21.814 L20.725,21.814 C23.921,21.814 26.512,24.405 26.512,27.602 L26.512,31.225 C26.512,34.421 23.921,37.012 20.725,37.012 C19.808,37.012 19.064,37.755 19.064,38.672 L19.064,41.037 L12.221,41.037" id="path-25"></path>
        <linearGradient x1="86.182576%" y1="-44.796369%" x2="27.597871%" y2="84.5856232%" id="linearGradient-27">
            <stop stop-color="#E1E8F7" offset="0%"></stop>
            <stop stop-color="#FFFFFF" offset="100%"></stop>
        </linearGradient>
        <path d="M16.425,26.398 L4.202,26.398 C2.091,26.398 0.378,24.687 0.378,22.574 L0.378,0.406 C0.673,0.781 0.969,1.158 1.268,1.54 C1.877,2.318 2.475,3.101 3.062,3.888 L3.062,19.22 C3.062,21.772 5.14,23.85 7.691,23.85 L15.231,23.85 C15.643,24.7 16.041,25.551 16.425,26.398" id="path-28"></path>
        <linearGradient x1="-380.993332%" y1="289.03124%" x2="-380.993332%" y2="-83.7161434%" id="linearGradient-30">
            <stop stop-color="#183161" offset="0%"></stop>
            <stop stop-color="#1F3F75" offset="100%"></stop>
        </linearGradient>
        <path d="M10.437,16.239 L3.691,16.239 C2.026,16.239 0.673,14.885 0.673,13.22 L0.673,0.095 C0.709,0.146 0.746,0.198 0.782,0.249 C2.558,2.747 4.222,5.279 5.771,7.828 L5.771,12.793 L8.631,12.793 C9.257,13.942 9.859,15.091 10.437,16.239 M7.737,11.183 L7.381,11.183 L7.381,10.557 C7.501,10.766 7.619,10.973 7.737,11.183" id="path-31"></path>
        <linearGradient x1="-670.145432%" y1="430.104063%" x2="-670.145432%" y2="-170.022919%" id="linearGradient-33">
            <stop stop-color="#183161" offset="0%"></stop>
            <stop stop-color="#1F3F75" offset="100%"></stop>
        </linearGradient>
        <path d="M3.631,5.793 L0.771,5.793 L0.771,0.828 C1.322,1.735 1.859,2.646 2.381,3.557 L2.381,4.183 L2.737,4.183 C3.04,4.719 3.338,5.256 3.631,5.793" id="path-34"></path>
        <linearGradient x1="-2466.11888%" y1="1242.75932%" x2="-2466.11888%" y2="-708.590131%" id="linearGradient-36">
            <stop stop-color="#081232" offset="0%"></stop>
            <stop stop-color="#0A1942" offset="100%"></stop>
        </linearGradient>
    </defs>
    <g id="Page-1" stroke="none" stroke-width="1" fill="none" fill-rule="evenodd">
        <g id="3327592">
            <path d="M568.438,180.044 C568.566,198.272 567.343,214.986 565.072,229.768 C564.911,230.88 564.734,231.991 564.541,233.069 C563.35,240.268 561.9,246.982 560.258,253.182 C559.968,254.245 559.678,255.291 559.388,256.322 C553.076,278.383 544.106,293.294 534.542,298.801 L132.733,298.801 C132.733,298.801 98.483,269.107 91.607,226.693 C91.43,225.614 91.269,224.535 91.14,223.44 C88.467,202.33 92.766,178.289 111.268,153.281 C119.706,141.897 130.801,133.974 143.538,128.516 C144.536,128.097 145.519,127.694 146.533,127.308 C165.421,119.916 187.611,117.598 209.897,117.244 C211.024,117.228 212.151,117.211 213.278,117.211 C226.547,117.115 239.783,117.662 252.327,118.162 C253.519,118.226 254.694,118.274 255.87,118.322 C276.127,119.176 294.387,119.804 307.64,117.373 L307.656,117.373 C308.879,117.147 310.039,116.889 311.166,116.6 L311.182,116.6 C325.852,113.009 333.082,104.684 327.881,86.777 C317.8,52.044 328.122,26.586 350.585,12.528 C351.728,11.804 352.92,11.111 354.128,10.451 C366.833,3.559 382.888,-0.048 401.051,0.000507341795 C402.323,0.000507341795 403.611,0.033 404.916,0.065 C420.358,0.532 437.218,3.575 454.721,9.388 C464.141,12.512 472.917,16.377 481.049,20.837 C482.047,21.385 483.046,21.948 484.012,22.528 C499.953,31.739 513.367,43.365 524.478,56.504 C525.234,57.374 525.959,58.26 526.683,59.162 C555.556,94.748 568.147,140.689 568.438,180.044" id="Fill-2" fill="#E4EBF7"></path>
            <path d="M560.258,253.182 C559.968,254.245 559.678,255.291 559.388,256.322 C553.446,254.196 547.198,251.475 540.806,248.013 C511.338,232.007 473.818,196.355 462.45,117.324 C457.555,83.251 463.803,50.804 481.049,20.837 C482.047,21.385 483.046,21.948 484.012,22.528 C468.875,48.808 460.373,80.224 465.639,116.857 C476.813,194.488 513.432,229.446 542.19,245.099 C548.374,248.464 554.461,251.121 560.258,253.182" id="Fill-3" fill="#FFFFFF"></path>
            <path d="M565.072,229.769 C564.911,230.88 564.734,231.991 564.541,233.069 C545.927,224.326 522.465,205.309 511.515,164.021 C500.936,124.039 505.154,88.549 524.478,56.504 C525.234,57.374 525.959,58.26 526.684,59.162 C508.311,90.208 504.397,124.554 514.639,163.2 C525.105,202.7 547.279,221.154 565.072,229.769" id="Fill-4" fill="#FFFFFF"></path>
            <path d="M389.377,67.486 C390.939,119.949 384.965,153.845 370.005,177.419 C354.337,202.12 328.203,217.048 285.257,225.823 C277.254,227.466 269.348,228.287 261.586,228.287 C237.416,228.287 214.647,220.413 194.696,205.02 C171.492,187.097 153.731,160.108 143.538,128.516 C144.536,128.097 145.519,127.694 146.533,127.308 C156.517,158.37 173.923,184.907 196.677,202.475 C222.248,222.232 252.665,229.205 284.613,222.684 C364.481,206.34 389.151,168.644 386.156,67.583 C385.303,38.888 390.311,16.248 401.051,0.001 C402.323,0.001 403.611,0.033 404.916,0.065 C393.74,15.845 388.523,38.454 389.377,67.486" id="Fill-5" fill="#FFFFFF"></path>
            <path d="M289.717,176.051 C286.4,176.598 282.971,176.888 279.476,176.888 C253.728,176.888 224.244,161.284 209.897,117.244 C211.024,117.228 212.151,117.211 213.278,117.211 C229.091,164.488 262.987,177.178 289.186,172.878 C324.58,167.081 358.621,130.641 352.034,74.524 C349.2,50.45 349.072,29.903 350.585,12.528 C351.728,11.804 352.92,11.111 354.128,10.451 C352.373,28.148 352.309,49.242 355.239,74.153 C362.051,132.252 326.56,170.012 289.717,176.051" id="Fill-6" fill="#FFFFFF"></path>
            <path d="M311.166,116.6 C309.926,122.251 307.752,128.016 304.033,132.863 C299.089,139.336 292.149,143.169 283.405,144.248 C282.358,144.376 281.328,144.441 280.313,144.441 C274.887,144.441 269.911,142.589 265.499,138.886 C259.67,133.99 255.419,126.39 252.327,118.162 C253.519,118.226 254.694,118.274 255.87,118.322 C258.736,125.601 262.536,132.187 267.576,136.422 C272.085,140.206 277.286,141.768 283.003,141.06 C290.861,140.093 297.06,136.68 301.473,130.931 C304.532,126.938 306.464,122.155 307.64,117.373 L307.656,117.373 C308.879,117.147 310.039,116.889 311.166,116.6" id="Fill-7" fill="#FFFFFF"></path>
            <path d="M186.129,298.801 L182.619,298.801 C168.175,265.726 147.354,243.682 120.656,233.23 C110.962,229.431 101.124,227.45 91.607,226.693 C91.43,225.614 91.269,224.535 91.14,223.44 C101.172,224.165 111.574,226.227 121.832,230.235 C149.705,241.153 171.315,264.18 186.129,298.801" id="Fill-8" fill="#FFFFFF"></path>
            <path d="M116.43,199.12 L106.479,209.378 L102.324,203.274 L100.939,201.23 C96.511,202.341 89.973,193.678 87.349,189.057 C84.74,184.419 95.207,177.269 95.207,177.269 C93.499,172.148 86.64,168.928 86.447,167.511 C86.253,166.11 87.961,164.597 94.192,167.511 C100.44,170.441 105.867,180.796 105.867,180.796 C106.977,177.784 102.05,169.637 102.952,168.719 C103.854,167.816 108.685,168.928 112.404,176.769 C116.14,184.628 113.918,193.887 113.918,193.887 L113.966,193.968 L116.43,199.12" id="Fill-10" fill="#98B2D8"></path>
            <path d="M94.837,176.367 C94.837,176.367 102.232,184.825 101.435,188.146 C100.637,191.468 96.914,187.613 96.914,187.613 C96.914,187.613 100.335,191.568 99.228,192.877 C98.121,194.185 93.995,190.863 93.995,190.863 C93.995,190.863 98.926,197.003 93.995,196.097 C89.063,195.191 82.869,185.891 87.627,184.955 C87.627,184.955 87.051,178.183 91.378,180.498 C91.378,180.498 89.44,174.853 94.837,176.367" id="Fill-11" fill="#B1C3E8"></path>
            <path d="M184.684,298.86 C184.684,298.86 193.008,274.545 188.628,250.568 C188.628,250.568 188.612,250.519 188.596,250.407 L188.564,250.214 C188.436,249.586 188.307,248.958 188.178,248.33 C188.178,248.33 183.347,252.549 176.681,256.735 C168.677,261.775 158.001,266.783 149.805,264.433 C134.765,260.133 112.769,230.891 102.56,207.8 C102.56,207.8 107.665,200.15 117.857,197.8 C117.857,197.8 138.26,224.981 156.246,231.422 C156.246,231.422 165.908,219.877 173.412,202.969 C178.21,192.18 185.408,185.352 194.49,181.682 C199.643,179.571 205.408,178.493 211.671,178.3 L227.436,170.94 C227.436,170.94 229.996,170.957 233.974,171.472 C241.365,172.439 253.651,175.143 263.586,182.712 C278.884,194.37 300.896,298.86 300.896,298.86 L184.684,298.86" id="Fill-12" fill="#B7CAE5"></path>
            <path d="M188.596,250.407 C188.468,249.715 188.323,249.022 188.178,248.33 C188.178,248.33 183.347,252.549 176.681,256.735 L181.334,216.93 C186.068,235.158 188.339,248.781 188.596,250.407" id="Fill-13" fill="#97B3D1"></path>
            <path d="M233.974,171.472 C231.542,186.931 216.067,201.214 204.892,201.02 C195.907,200.859 194.586,187.977 194.49,181.682 C199.643,179.571 205.408,178.493 211.671,178.3 L227.436,170.94 C227.436,170.94 229.996,170.957 233.974,171.472" id="Fill-14" fill="#CED9EA"></path>
            <path d="M207.223,283.061 C207.223,283.061 242.726,246.116 244.269,207.268 L254.735,240.011 L250.709,274.099 L207.223,283.061" id="Fill-15" fill="#97B3D1"></path>
            <path d="M206.192,298.852 L166.439,298.852 C166.439,298.852 166.54,293.417 172.679,291.605 C178.818,289.794 182.743,282.146 201.161,283.152 L206.192,298.852" id="Fill-16" fill="#98B2D8"></path>
            <path d="M246.864,262.317 C246.864,262.317 228.136,273.088 198.645,280.736 C198.645,280.736 194.552,290.6 201.731,298.852 L258.789,298.852 L246.864,262.317" id="Fill-17" fill="#B6C5DD"></path>
            <path d="M177.127,149.409 C177.127,149.409 168.649,137.707 169.692,129.829 C170.734,121.95 178.028,123.8 178.028,123.8 C178.028,123.8 177.688,104.655 195.411,109.55 C195.411,109.55 195.02,103.705 198.891,103.856 C202.76,104.007 208.829,112.909 208.829,112.909 C208.829,112.909 210.335,106.314 212.956,107.871 C215.577,109.427 216.385,116.233 221.859,119.509 C227.333,122.785 230.719,127.025 226.421,140.308 C222.123,153.592 225.348,154.532 223.813,161.353 C222.355,167.83 221.19,171.77 217.17,172.134 C213.15,172.498 197.76,156.262 197.76,156.262 L177.127,149.409" id="Fill-18" fill="#5D7CA0"></path>
            <path d="M227.436,170.94 C227.436,170.94 217.565,194.886 207.195,193.082 C202.042,192.18 200.899,189.04 200.851,185.401 C200.802,180.65 202.654,175.079 199.852,172.744 L212.283,155.08 L215.021,151.183 C215.021,151.183 218.37,160.877 227.436,170.94" id="Fill-19" fill="#98B2D8"></path>
            <path d="M200.851,185.401 C200.802,180.65 202.654,175.079 199.852,172.744 L212.283,155.08 C213.346,156.319 214.103,158.525 214.409,161.987 C216.051,180.231 206.406,184.467 200.851,185.401" id="Fill-20" fill="#799CBF"></path>
            <path d="M175.919,140.099 C175.919,140.099 179.28,170.943 191.866,177.886 C202.804,183.92 216.089,165.67 215.822,156.643 C215.822,156.643 220.589,153.002 219.794,147.108 C218.999,141.215 212.767,143.169 212.021,152.667 C212.021,152.667 206.954,152.306 206.016,140.435 C202.835,143.068 199.402,142.257 195.795,139.053 C195.795,139.053 194.006,145.66 184.798,137.938 C184.798,137.938 181.324,142.656 175.919,140.099" id="Fill-21" fill="#98B2D8"></path>
            <path d="M472.792,259.602 C472.792,259.602 489.037,286.708 494.664,299.858 L437.379,299.858 C437.379,299.858 434.115,284.014 428.375,268.788 L472.792,259.602" id="Fill-22" fill="#5D7CA0"></path>
            <path d="M450.449,265.641 C447.315,276.028 442.534,284.898 435.442,291.635 L437.379,299.858 L368.057,299.003 L375.773,251.551 L450.449,265.641" id="Fill-23" fill="#799CBF"></path>
            <path d="M559.195,117.711 C559.195,117.711 561.49,103.339 566.053,98.24 C570.615,93.141 583.095,85.598 584.57,88.282 C586.047,90.965 573.567,99.381 573.567,99.381 C573.567,99.381 579.203,98.039 584.034,106.358 C588.864,114.678 573.299,121.119 573.299,121.119 L570.212,128.097 L557.867,120.314 L559.195,117.711" id="Fill-24" fill="#799CBF"></path>
            <path d="M575.159,99.653 C575.159,99.653 568.203,106.726 569.221,108.748 C570.237,110.769 574.071,107.592 574.071,107.592 C574.071,107.592 570.941,112.356 573.367,113.584 C575.793,114.811 579.549,110.696 579.549,110.696 C579.549,110.696 576.419,115.027 578.219,115.822 C580.019,116.616 589.643,109.831 587.921,108.243 C586.2,106.654 585.261,107.953 585.261,107.953 C585.261,107.953 587.275,104.561 585.261,103.478 C583.068,102.299 581.975,104.416 581.975,104.416 C581.975,104.416 583.618,101.817 582.288,100.807 C580.957,99.796 578.141,101.096 578.141,101.096 C578.141,101.096 579.064,96.766 575.159,99.653" id="Fill-25" fill="#98B2D8"></path>
            <path d="M568.703,99.481 C566.589,98.877 562.295,103.272 562.295,103.272 C560.606,105.445 560.261,109.775 560.193,111.771 C559.977,117.348 557.867,120.314 557.867,120.314 L564.132,124.264 C568.983,118.014 567.396,110.01 566.613,107.178 C568.978,103.645 569.964,99.842 568.703,99.481" id="Fill-26" fill="#98B2D8"></path>
            <path d="M572.757,129.573 C572.757,129.573 551.823,185.32 518.555,190.264 C503.677,192.47 492.436,192.695 484.579,192.276 C475.207,191.794 470.602,190.377 470.264,190.28 L470.247,190.264 C470.247,190.264 461.117,207.268 467.026,231.696 C472.92,256.107 475.078,261.212 475.078,261.212 C475.078,261.212 430.232,294.19 393.76,264.159 L360.846,212.984 L350.54,196.946 C350.54,196.946 360.009,165.852 386.707,145.643 L386.723,145.627 C396.787,137.995 409.315,131.908 424.693,129.654 C432.583,128.462 441.214,128.285 450.65,129.412 C450.65,129.412 457.897,131.457 469.684,135.772 C476.028,138.091 483.693,141.07 492.243,144.742 C516.671,155.208 523.386,158.332 523.386,158.332 C523.386,158.332 549.408,132.665 556.123,117.094 C556.123,117.094 569.536,118.446 572.757,129.573" id="Fill-27" fill="#B7CAE5"></path>
            <path d="M404.809,155.026 C404.688,167.52 402.019,179.625 400.843,189.027 L421.528,184.841 L453.716,216.663 C453.716,216.663 457.794,225.987 449.492,227.598 C442.986,228.859 412.587,233.088 412.587,233.088 C405.581,242.623 402.415,257.21 398.921,271.364 L368.057,217.735 L404.809,155.026" id="Fill-28" fill="#97B3D1"></path>
            <path d="M450.65,158.026 C436.238,154.371 428.654,141.409 424.693,129.654 C432.583,128.462 441.214,128.285 450.65,129.412 C450.65,129.412 457.896,131.457 469.684,135.772 C471.068,146.062 470.569,163.066 450.65,158.026" id="Fill-29" fill="#CED9EA"></path>
            <path d="M488.491,169.427 C488.491,169.427 485.4,181.536 484.579,192.276 C475.207,191.794 470.602,190.377 470.264,190.28 L470.247,190.264 C470.247,190.264 478.428,176.271 488.491,169.427" id="Fill-30" fill="#97B3D1"></path>
            <path d="M452.519,221.968 L416.573,227.186 C415.51,227.34 414.522,226.603 414.368,225.539 L406.427,170.826 C406.272,169.763 407.01,168.776 408.073,168.622 L444.021,163.404 C445.084,163.25 446.071,163.987 446.226,165.051 L454.166,219.763 C454.32,220.826 453.583,221.813 452.519,221.968" id="Fill-31" fill="#F2F4F9"></path>
            <path d="M426.362,187.14 L431.864,184.993 C431.864,184.993 437.098,170.501 443.605,179.625 C443.605,179.625 448.101,176.941 447.967,175.466 C447.832,173.989 447.766,171.843 447.766,171.843 C447.766,171.843 456.874,173.811 454.836,186.514 C453.019,197.836 446.638,197.787 439.857,197.738 C439.03,197.732 438.197,197.727 437.366,197.741 L427.839,201.498 L426.362,187.14" id="Fill-32" fill="#98B2D8"></path>
            <path d="M429.91,204.852 C429.91,204.852 387.045,233.226 368.527,219.538 C365.709,217.445 363.148,215.239 360.846,212.984 L350.54,196.946 C350.54,196.946 360.009,165.852 386.707,145.643 L386.723,145.627 C395.572,141.651 404.819,143.099 405.295,151.298 C406.427,170.826 389.725,182.835 387.657,191.697 L426.078,183.92 C426.078,183.92 432.325,190.554 429.91,204.852" id="Fill-33" fill="#C1CFE5"></path>
            <path d="M480.298,99.698 C480.298,99.698 486.424,86.611 483.918,79.069 C481.413,71.526 474.598,74.715 474.598,74.715 C474.598,74.715 471.331,55.848 454.846,63.988 C454.846,63.988 454.129,58.173 450.357,59.05 C446.584,59.926 442.298,69.81 442.298,69.81 C442.298,69.81 439.579,63.616 437.298,65.637 C435.016,67.659 435.502,74.496 430.741,78.742 C425.981,82.989 423.452,87.79 430.171,100.028 C436.89,112.267 433.9,113.797 436.69,120.206 C439.34,126.294 441.225,129.945 445.241,129.547 C449.259,129.148 461.32,110.308 461.32,110.308 L480.298,99.698" id="Fill-34" fill="#5D7CA0"></path>
            <path d="M434.935,130.305 C434.935,130.305 444.411,153.66 459.306,149.836 C464.372,148.534 464.401,143.092 463.765,139.509 C462.919,134.834 460.053,129.71 462.365,126.89 L446.835,111.878 L443.413,108.565 C443.413,108.565 441.946,118.716 434.935,130.305" id="Fill-35" fill="#98B2D8"></path>
            <path d="M463.765,139.509 C462.919,134.834 460.053,129.71 462.365,126.89 L446.835,111.878 C446.023,113.295 445.695,115.604 446.046,119.063 C447.863,137.29 458.133,139.636 463.765,139.509" id="Fill-36" fill="#799CBF"></path>
            <path d="M479.733,90.327 C479.733,90.327 482.232,121.253 471.176,130.438 C461.567,138.421 445.088,122.995 443.653,114.079 C443.653,114.079 438.286,111.399 437.959,105.461 C437.632,99.523 444.12,100.271 446.64,109.459 C446.64,109.459 451.548,108.151 450.236,96.316 C453.856,98.304 457.074,96.862 460.015,93.037 C460.015,93.037 463.015,99.189 470.606,89.875 C470.606,89.875 474.906,93.854 479.733,90.327" id="Fill-37" fill="#98B2D8"></path>
            <g id="Group-40" transform="translate(232.000000, 183.000000)">
                <mask id="mask-2" fill="white">
                    <use xlink:href="#path-1"></use>
                </mask>
                <g id="Clip-39"></g>
                <path d="M130.932,116.003 C127.716,116.003 125.658,115.86 125.658,115.86 L48.767,115.86 C16.949,115.86 4.196,115.071 1.152,105.136 C0.975,104.604 0.846,104.041 0.734,103.445 C0.341,101.345 0.376,98.382 0.814,94.787 C2.322,82.428 8.605,62.582 18.737,44.503 C19.285,43.526 19.843,42.556 20.413,41.59 L26.905,47.345 C27.146,47.558 27.42,47.651 27.686,47.651 C28.433,47.651 29.117,46.918 28.821,46.063 L25.542,36.591 L35.693,36.591 C37.887,36.591 39.666,34.812 39.666,32.618 L39.666,17.113 C40.161,16.665 40.655,16.23 41.15,15.806 C47.363,10.478 53.487,7.039 59.186,4.832 C68.123,1.37 76.013,0.92 81.553,0.92 C91.31,0.92 99.186,1.644 105.868,3.206 C111.398,4.502 116.115,6.362 120.408,8.843 C129.744,14.238 137.071,22.569 146.378,34.406 L146.378,56.574 C146.378,58.687 148.091,60.398 150.202,60.398 L162.425,60.398 C165.524,67.237 167.725,73.954 168.934,80.173 C169.375,82.443 169.685,84.646 169.857,86.764 C170.217,91.189 169.979,95.244 169.102,98.759 L169.102,98.775 C168.636,100.675 167.976,102.414 167.122,103.977 C162.161,113.047 146.654,115.381 136.076,115.882 C134.172,115.972 132.427,116.003 130.932,116.003 M47.158,39.834 C44.839,58.31 42.216,76.515 33.872,89.637 C55.743,105.944 74.921,111.321 90.713,111.321 C121.333,111.321 139.211,91.094 139.211,91.094 C130.881,74.617 128.472,57.394 128.744,39.834 L117.204,77.407 L54.404,77.407 L47.158,39.834" id="Fill-38" fill="url(#linearGradient-3)" mask="url(#mask-2)"></path>
            </g>
            <g id="Group-43" transform="translate(265.000000, 222.000000)">
                <mask id="mask-5" fill="white">
                    <use xlink:href="#path-4"></use>
                </mask>
                <g id="Clip-42"></g>
                <path d="M57.713,72.321 C41.921,72.321 22.743,66.944 0.872,50.637 C9.216,37.515 11.839,19.31 14.158,0.834 L21.404,38.407 L84.204,38.407 L95.744,0.834 C95.472,18.394 97.881,35.617 106.211,52.094 C106.211,52.094 88.333,72.321 57.713,72.321" id="Fill-41" fill="url(#linearGradient-6)" mask="url(#mask-5)"></path>
            </g>
            <g id="Group-46" transform="translate(232.000000, 269.000000)">
                <mask id="mask-8" fill="white">
                    <use xlink:href="#path-7"></use>
                </mask>
                <g id="Clip-45"></g>
                <path d="M52.938,29.86 L48.768,29.86 C16.949,29.86 4.196,29.071 1.152,19.136 C-0.506,11.326 1.603,3.113 11.12,0.666 C26.031,-3.166 51.988,11.938 51.988,11.938 L52.938,29.86" id="Fill-44" fill="url(#linearGradient-9)" mask="url(#mask-8)"></path>
            </g>
            <g id="Group-49" transform="translate(334.000000, 265.000000)">
                <mask id="mask-11" fill="white">
                    <use xlink:href="#path-10"></use>
                </mask>
                <g id="Clip-48"></g>
                <path d="M67.103,16.759 L67.103,16.775 C66.636,18.675 65.976,20.414 65.122,21.977 C57.345,36.194 23.658,33.86 23.658,33.86 L0.841,33.86 L3.739,14.537 C3.739,14.537 44.188,-4.19 58.681,1.654 C65.767,4.505 67.94,10.431 67.103,16.759" id="Fill-47" fill="url(#linearGradient-12)" mask="url(#mask-11)"></path>
            </g>
            <path d="M337.868,186.206 C337.191,195.239 333.455,211.696 315.26,211.696 C296.082,211.696 292.023,195.481 291.186,187.832 C300.123,184.37 308.013,183.92 313.553,183.92 C323.311,183.92 331.186,184.645 337.868,186.206" id="Fill-50" fill="#1F395E"></path>
            <path d="M354.438,298.852 L280.768,298.852 C278.989,298.852 277.547,297.41 277.547,295.632 C277.547,293.853 278.989,292.411 280.768,292.411 L354.438,292.411 C356.216,292.411 357.658,293.853 357.658,295.632 C357.658,297.41 356.216,298.852 354.438,298.852" id="Fill-51" fill="#FFFFFF"></path>
            <g id="Group-54" transform="translate(272.000000, 238.000000)">
                <mask id="mask-14" fill="white">
                    <use xlink:href="#path-13"></use>
                </mask>
                <g id="Clip-53"></g>
                <path d="M91.358,5.467 L91.084,7.142 L91.084,7.157 L83.452,54.419 L8.365,54.419 L0.813,5.435 C0.443,3.035 2.311,0.861 4.726,0.861 L87.445,0.861 C89.893,0.861 91.745,3.052 91.358,5.467" id="Fill-52" fill="url(#linearGradient-15)" mask="url(#mask-14)"></path>
            </g>
            <path d="M363.084,245.157 L355.452,292.419 L280.768,292.419 L306.081,289.778 C332.07,287.089 354.212,269.73 363.084,245.157" id="Fill-55" fill="#3150BC"></path>
            <path d="M314.954,204.853 L314.455,204.853 C311.556,204.853 309.157,204.257 307.208,203.388 C302.474,201.262 299.608,196.318 299.721,191.134 C299.737,190.602 299.737,190.087 299.737,189.571 C299.753,185.272 299.479,181.697 299.479,181.697 L299.479,179.765 L326.531,178.558 C326.628,182.454 327.079,185.916 327.61,188.686 L327.643,188.814 C329.188,196.946 323.23,204.644 314.954,204.853" id="Fill-56" fill="#FEB19E"></path>
            <path d="M327.61,188.686 C316.338,201.922 304.761,194.193 299.737,189.571 C299.753,185.272 299.479,181.697 299.479,181.697 L299.479,179.765 L326.531,178.558 C326.628,182.454 327.079,185.916 327.61,188.686" id="Fill-57" fill="#FF856A"></path>
            <path d="M291.201,166.615 C291.201,166.615 299.588,190.26 313.577,190.26 C327.566,190.26 333.382,164.799 333.382,164.799 L333.382,142.657 L290.127,142.657 L291.201,166.615" id="Fill-58" fill="#FEB19E"></path>
            <path d="M286.699,153.275 C286.699,153.275 282.58,154.029 283.284,158.759 C283.988,163.489 288.282,169.226 291.771,166.207 L286.699,153.275" id="Fill-59" fill="#FEB19E"></path>
            <path d="M336.648,151.298 C336.648,151.298 340.832,151.483 340.777,156.266 C340.724,161.048 337.249,167.315 333.382,164.799 L336.648,151.298" id="Fill-60" fill="#FEB19E"></path>
            <g id="Group-63" transform="translate(279.000000, 108.000000)">
                <mask id="mask-17" fill="white">
                    <use xlink:href="#path-16"></use>
                </mask>
                <g id="Clip-62"></g>
                <path d="M57.648,43.298 C57.648,43.298 56.193,51.565 54.382,56.799 C54.382,56.799 51.067,56.131 49.994,47.408 C49.994,47.408 42.829,48.813 38.334,42.037 C38.334,42.037 37.261,48.746 30.35,43.982 C25.742,47.745 20.294,48.141 14.113,45.593 C14.113,45.593 15.153,54.389 12.201,58.615 C12.201,58.615 11.127,55.141 7.699,45.275 C7.699,45.275 6.227,45.327 5.287,46.669 C5.287,46.669 -2.124,32.174 1.365,25.196 C4.854,18.218 9.551,20.902 9.551,20.902 C9.551,20.902 7.806,11.375 18.139,7.886 C28.471,4.397 28.471,-0.3 30.082,0.64 C31.692,1.579 32.363,5.068 32.363,5.068 C32.363,5.068 50.21,3.189 55.041,22.378 C55.041,22.378 67.931,22.79 60.281,44.395 C60.281,44.395 59.778,43.499 57.648,43.298" id="Fill-61" fill="url(#linearGradient-18)" mask="url(#mask-17)"></path>
            </g>
            <path d="M271.666,195.373 C268.875,189.182 266.137,184.656 263.586,182.712 C253.651,175.143 241.365,172.439 233.974,171.472 C233.765,171.445 233.56,171.419 233.359,171.395 L253.591,171.395 C259.563,174.047 265.663,175.667 271.666,176.408 L271.666,195.373 M196.281,180.998 L196.281,179.083 C196.341,179.084 196.401,179.085 196.461,179.085 C198.119,179.085 199.78,178.659 201.394,177.916 C201.375,178.449 201.335,178.999 201.286,179.561 C199.564,179.948 197.894,180.426 196.281,180.998 M270.915,173.042 C268.339,172.67 265.746,172.125 263.157,171.395 L267.693,171.395 C269.019,171.395 270.193,172.044 270.915,173.042" id="Fill-64" fill="#AEC6ED"></path>
            <path d="M271.666,176.408 C265.663,175.667 259.563,174.047 253.591,171.395 L263.157,171.395 C265.746,172.125 268.339,172.67 270.915,173.042 C271.387,173.695 271.666,174.498 271.666,175.366 L271.666,176.408" id="Fill-65" fill="#C2D7F4"></path>
            <path d="M252.413,224.59 L248.775,221.365 L245.442,210.94 L259.484,210.94 C260.069,210.94 260.543,210.466 260.543,209.881 C260.543,209.296 260.069,208.821 259.484,208.821 L244.765,208.821 L244.269,207.268 C244.248,207.785 244.221,208.305 244.189,208.821 L205.638,208.821 C205.053,208.821 204.579,209.296 204.579,209.881 C204.579,210.466 205.053,210.94 205.638,210.94 L244.023,210.94 C243.752,213.845 243.3,216.735 242.7,219.591 L200.253,219.591 C198.059,219.591 196.281,217.812 196.281,215.618 L196.281,193.438 C197.733,197.563 200.32,200.938 204.892,201.02 C204.967,201.022 205.042,201.022 205.117,201.022 C208.291,201.022 211.799,199.874 215.25,197.876 L259.484,197.876 C260.069,197.876 260.543,197.401 260.543,196.816 C260.543,196.231 260.069,195.757 259.484,195.757 L218.465,195.757 C220.201,194.472 221.889,192.987 223.477,191.344 L259.484,191.344 C260.069,191.344 260.543,190.869 260.543,190.284 C260.543,189.699 260.069,189.225 259.484,189.225 L225.392,189.225 C229.681,184.153 232.96,177.914 233.974,171.472 C233.765,171.445 233.56,171.419 233.359,171.395 C233.56,171.419 233.765,171.445 233.974,171.472 C241.365,172.439 253.651,175.143 263.586,182.712 C266.137,184.656 268.875,189.182 271.666,195.373 L271.666,200.113 C268.168,203.279 264.649,207.058 261.171,211.567 C258.017,215.661 255.092,220.052 252.413,224.59 M205.638,202.289 C205.053,202.289 204.579,202.764 204.579,203.349 C204.579,203.934 205.053,204.408 205.638,204.408 L259.484,204.408 C260.069,204.408 260.543,203.934 260.543,203.349 C260.543,202.764 260.069,202.289 259.484,202.289 L205.638,202.289" id="Fill-66" fill="#8CAADB"></path>
            <path d="M205.117,201.022 C205.042,201.022 204.967,201.022 204.892,201.02 C200.32,200.938 197.733,197.563 196.281,193.438 L196.281,180.998 C197.894,180.426 199.564,179.948 201.286,179.561 C201.122,181.401 200.851,183.36 200.85,185.206 C200.85,185.271 200.85,185.336 200.851,185.401 C200.899,189.04 202.042,192.18 207.195,193.082 C207.571,193.147 207.947,193.179 208.322,193.179 C210.195,193.179 212.04,192.39 213.802,191.11 C213.984,191.256 214.214,191.344 214.465,191.344 L223.477,191.344 C221.889,192.987 220.201,194.472 218.465,195.757 L205.638,195.757 C205.053,195.757 204.579,196.231 204.579,196.816 C204.579,197.401 205.053,197.876 205.638,197.876 L215.25,197.876 C211.799,199.874 208.291,201.022 205.117,201.022 M225.392,189.225 L216.009,189.225 C218.068,187.207 219.966,184.641 221.599,182.074 C221.973,181.911 222.233,181.538 222.233,181.105 C222.233,181.089 222.233,181.074 222.232,181.059 C224.837,176.793 226.666,172.725 227.243,171.395 L233.359,171.395 C233.56,171.419 233.765,171.445 233.974,171.472 C232.96,177.914 229.681,184.153 225.392,189.225" id="Fill-67" fill="#9DB7E0"></path>
            <path d="M248.775,221.365 L246.773,219.591 L242.7,219.591 C243.3,216.735 243.752,213.845 244.023,210.94 L245.442,210.94 L248.775,221.365 M244.765,208.821 L244.189,208.821 C244.221,208.305 244.248,207.785 244.269,207.268 L244.765,208.821" id="Fill-68" fill="#7397C8"></path>
            <path d="M208.322,193.179 C207.947,193.179 207.571,193.147 207.195,193.082 C202.042,192.18 200.899,189.04 200.851,185.401 C203.018,185.037 205.809,184.169 208.309,182.163 L221.174,182.163 C221.326,182.163 221.469,182.131 221.599,182.074 C219.966,184.641 218.068,187.207 216.009,189.225 L214.465,189.225 C213.88,189.225 213.406,189.699 213.406,190.284 C213.406,190.618 213.561,190.916 213.802,191.11 C212.04,192.39 210.195,193.179 208.322,193.179 M222.232,181.059 C222.208,180.494 221.744,180.045 221.174,180.045 L210.445,180.045 C212.124,177.993 213.487,175.199 214.153,171.395 L227.243,171.395 C226.666,172.725 224.837,176.793 222.232,181.059" id="Fill-69" fill="#7496CF"></path>
            <path d="M200.851,185.401 C200.85,185.336 200.85,185.271 200.85,185.206 C200.851,182.797 201.313,180.193 201.394,177.916 C204.31,176.573 207.073,174.191 209.386,171.395 L214.153,171.395 C213.487,175.199 212.124,177.993 210.445,180.045 L205.638,180.045 C205.053,180.045 204.579,180.519 204.579,181.105 C204.579,181.689 205.053,182.163 205.638,182.163 L208.309,182.163 C205.809,184.169 203.018,185.037 200.851,185.401" id="Fill-70" fill="#5C83B7"></path>
            <path d="M196.461,179.085 C196.401,179.085 196.341,179.084 196.281,179.083 L196.281,175.366 C196.281,173.173 198.059,171.395 200.253,171.395 L209.386,171.395 C207.073,174.191 204.31,176.573 201.394,177.916 C199.78,178.659 198.119,179.085 196.461,179.085" id="Fill-71" fill="#7496CF"></path>
            <g id="Group-74" transform="translate(252.000000, 200.000000)">
                <mask id="mask-20" fill="white">
                    <use xlink:href="#path-19"></use>
                </mask>
                <g id="Clip-73"></g>
                <path d="M7.686,30.651 C7.42,30.651 7.146,30.558 6.905,30.345 L0.413,24.59 C3.092,20.052 6.017,15.661 9.171,11.567 C12.649,7.058 16.168,3.279 19.666,0.113 L19.666,15.618 C19.666,17.812 17.887,19.591 15.693,19.591 L5.542,19.591 L8.821,29.063 C9.117,29.918 8.433,30.651 7.686,30.651" id="Fill-72" fill="url(#linearGradient-21)" mask="url(#mask-20)"></path>
            </g>
            <path d="M221.599,182.074 C221.815,181.736 222.026,181.396 222.232,181.059 C222.233,181.074 222.233,181.089 222.233,181.105 C222.233,181.538 221.973,181.911 221.599,182.074" id="Fill-75" fill="#5F87D0"></path>
            <path d="M221.174,182.163 L208.309,182.163 C209.055,181.564 209.775,180.864 210.445,180.045 L221.174,180.045 C221.744,180.045 222.208,180.494 222.232,181.059 C222.026,181.396 221.815,181.736 221.599,182.074 C221.469,182.131 221.326,182.163 221.174,182.163" id="Fill-76" fill="#466FC0"></path>
            <path d="M208.309,182.163 L205.638,182.163 C205.053,182.163 204.579,181.689 204.579,181.105 C204.579,180.519 205.053,180.045 205.638,180.045 L210.445,180.045 C209.775,180.864 209.055,181.564 208.309,182.163" id="Fill-77" fill="#3861AA"></path>
            <path d="M259.484,191.344 L223.477,191.344 C224.134,190.664 224.773,189.956 225.392,189.225 L259.484,189.225 C260.069,189.225 260.543,189.699 260.543,190.284 C260.543,190.869 260.069,191.344 259.484,191.344" id="Fill-78" fill="#557DCC"></path>
            <path d="M223.477,191.344 L214.465,191.344 C214.214,191.344 213.984,191.256 213.802,191.11 C214.555,190.563 215.291,189.928 216.009,189.225 L225.392,189.225 C224.773,189.956 224.134,190.664 223.477,191.344" id="Fill-79" fill="#5F87D0"></path>
            <path d="M213.802,191.11 C213.561,190.916 213.406,190.618 213.406,190.284 C213.406,189.699 213.88,189.225 214.465,189.225 L216.009,189.225 C215.291,189.928 214.555,190.563 213.802,191.11" id="Fill-80" fill="#466FC0"></path>
            <path d="M259.484,197.876 L215.25,197.876 C216.331,197.25 217.407,196.54 218.465,195.757 L259.484,195.757 C260.069,195.757 260.543,196.231 260.543,196.816 C260.543,197.401 260.069,197.876 259.484,197.876" id="Fill-81" fill="#557DCC"></path>
            <path d="M215.25,197.876 L205.638,197.876 C205.053,197.876 204.579,197.401 204.579,196.816 C204.579,196.231 205.053,195.757 205.638,195.757 L218.465,195.757 C217.407,196.54 216.331,197.25 215.25,197.876" id="Fill-82" fill="#5F87D0"></path>
            <path d="M259.484,204.408 L205.638,204.408 C205.053,204.408 204.579,203.934 204.579,203.349 C204.579,202.764 205.053,202.289 205.638,202.289 L259.484,202.289 C260.069,202.289 260.543,202.764 260.543,203.349 C260.543,203.934 260.069,204.408 259.484,204.408" id="Fill-83" fill="#557DCC"></path>
            <path d="M259.484,210.94 L245.442,210.94 L244.765,208.821 L259.484,208.821 C260.069,208.821 260.543,209.296 260.543,209.881 C260.543,210.466 260.069,210.94 259.484,210.94 M244.023,210.94 L205.638,210.94 C205.053,210.94 204.579,210.466 204.579,209.881 C204.579,209.296 205.053,208.821 205.638,208.821 L244.189,208.821 C244.144,209.529 244.089,210.234 244.023,210.94" id="Fill-84" fill="#557DCC"></path>
            <path d="M245.442,210.94 L244.023,210.94 C244.089,210.234 244.144,209.529 244.189,208.821 L244.765,208.821 L245.442,210.94" id="Fill-85" fill="#456FBA"></path>
            <path d="M566.686,309.318 L77.167,309.318 C76.201,309.318 75.419,308.536 75.419,307.571 L75.419,300.599 C75.419,299.634 76.201,298.852 77.167,298.852 L566.686,298.852 C567.65,298.852 568.433,299.634 568.433,300.599 L568.433,307.571 C568.433,308.536 567.65,309.318 566.686,309.318" id="Fill-86" fill="#C1C8D3"></path>
            <g id="Group-89" transform="translate(445.000000, 273.000000)">
                <mask id="mask-23" fill="white">
                    <use xlink:href="#path-22"></use>
                </mask>
                <g id="Clip-88"></g>
                <path d="M21.512,0.037 L0.578,0.037 L0.578,18.152 C0.578,22.377 4.003,25.802 8.228,25.802 L13.863,25.802 C18.088,25.802 21.512,22.377 21.512,18.152 L21.512,0.037" id="Fill-87" fill="url(#linearGradient-24)" mask="url(#mask-23)"></path>
            </g>
            <g id="Group-92" transform="translate(440.000000, 232.000000)">
                <mask id="mask-26" fill="white">
                    <use xlink:href="#path-25"></use>
                </mask>
                <g id="Clip-91"></g>
                <path d="M12.221,41.037 L12.221,35.451 C12.221,34.534 12.964,33.791 13.882,33.791 L15.995,33.791 C16.912,33.791 17.655,33.048 17.655,32.131 L17.655,30.017 C17.655,29.1 16.912,28.356 15.995,28.356 L9.201,28.356 C4.532,28.356 0.748,24.571 0.748,19.902 C0.748,15.233 4.532,11.448 9.201,11.448 L18.209,11.448 C19.126,11.448 19.869,10.705 19.869,9.788 L19.869,9.033 C19.869,4.197 23.79,0.277 28.625,0.277 C33.461,0.277 37.381,4.197 37.381,9.033 C37.381,14.258 33.146,18.493 27.921,18.493 L12.07,18.493 C11.152,18.493 10.409,19.237 10.409,20.154 C10.409,21.071 11.152,21.814 12.07,21.814 L20.725,21.814 C23.921,21.814 26.512,24.405 26.512,27.602 L26.512,31.225 C26.512,34.421 23.921,37.012 20.725,37.012 C19.808,37.012 19.064,37.755 19.064,38.672 L19.064,41.037 L12.221,41.037" id="Fill-90" fill="url(#linearGradient-27)" mask="url(#mask-26)"></path>
            </g>
            <path d="M437.152,243.398 L406.992,243.398 C407.349,242.532 407.719,241.68 408.103,240.85 L440.642,240.85 C440.681,240.85 440.721,240.849 440.76,240.848 C440.235,242.334 438.818,243.398 437.152,243.398" id="Fill-93" fill="#8CAADB"></path>
            <path d="M406.992,243.398 L394.425,243.398 C394.041,242.551 393.643,241.7 393.231,240.85 L408.103,240.85 C407.719,241.68 407.349,242.532 406.992,243.398" id="Fill-94" fill="#7397C8"></path>
            <path d="M381.062,220.888 C380.475,220.101 379.877,219.318 379.268,218.54 C378.969,218.158 378.673,217.781 378.378,217.406 L378.378,170.132 C378.378,168.413 379.512,166.959 381.072,166.477 C381.066,166.577 381.062,166.677 381.062,166.777 L381.062,220.888" id="Fill-95" fill="#93AFDB"></path>
            <g id="Group-98" transform="translate(378.000000, 217.000000)">
                <mask id="mask-29" fill="white">
                    <use xlink:href="#path-28"></use>
                </mask>
                <g id="Clip-97"></g>
                <path d="M16.425,26.398 L4.202,26.398 C2.091,26.398 0.378,24.687 0.378,22.574 L0.378,0.406 C0.673,0.781 0.969,1.158 1.268,1.54 C1.877,2.318 2.475,3.101 3.062,3.888 L3.062,19.22 C3.062,21.772 5.14,23.85 7.691,23.85 L15.231,23.85 C15.643,24.7 16.041,25.551 16.425,26.398" id="Fill-96" fill="url(#linearGradient-30)" mask="url(#mask-29)"></path>
            </g>
            <path d="M440.642,239.239 L408.877,239.239 C409.987,237.022 411.213,234.958 412.587,233.088 C412.587,233.088 414.352,232.842 417.123,232.452 L431.126,232.452 C431.786,232.452 432.322,231.916 432.322,231.256 C432.322,230.887 432.155,230.558 431.892,230.338 C435.045,229.879 438.188,229.414 440.978,228.988 L440.978,239.221 C440.867,239.233 440.755,239.239 440.642,239.239 M400.843,189.027 C401.155,186.531 401.572,183.845 402.02,181.011 C403.19,180.21 404.616,179.407 406.328,178.702 L405.715,177.214 C404.454,177.733 403.338,178.301 402.355,178.883 C402.981,174.91 403.627,170.681 404.1,166.308 L424.019,166.308 L408.073,168.622 C407.01,168.776 406.272,169.763 406.427,170.826 L408.834,187.41 L400.843,189.027" id="Fill-99" fill="#8CAADB"></path>
            <path d="M408.877,239.239 L392.437,239.239 C391.859,238.091 391.257,236.942 390.631,235.793 L399.983,235.793 L399.983,227.419 C401.394,226.16 403.458,224.703 406.328,223.521 L405.715,222.033 C403.302,223.027 401.419,224.197 399.983,225.312 L399.983,221.167 L395.171,221.167 C401.286,219.468 407.398,216.946 412.75,214.391 L414.181,224.253 L412.182,224.253 C411.522,224.253 410.986,224.788 410.986,225.449 C410.986,226.109 411.522,226.645 412.182,226.645 L414.927,226.645 C415.282,226.995 415.769,227.206 416.291,227.206 C416.384,227.206 416.479,227.199 416.573,227.186 L420.3,226.645 L431.126,226.645 C431.786,226.645 432.322,226.109 432.322,225.449 C432.322,225.258 432.278,225.078 432.198,224.918 L440.978,223.643 L440.978,228.988 C438.188,229.414 435.045,229.879 431.892,230.338 C431.685,230.165 431.417,230.061 431.126,230.061 L412.182,230.061 C411.522,230.061 410.986,230.596 410.986,231.256 C410.986,231.916 411.522,232.452 412.182,232.452 L417.123,232.452 C414.352,232.842 412.587,233.088 412.587,233.088 C411.213,234.958 409.987,237.022 408.877,239.239 M398.373,234.183 L389.737,234.183 C389.619,233.973 389.501,233.766 389.381,233.557 L389.381,222.777 L398.373,222.777 L398.373,226.702 C397.606,227.438 397.052,228.096 396.678,228.589 L394.476,226.131 L393.277,227.207 L396.91,231.256 L397.464,230.286 C397.471,230.272 397.752,229.792 398.373,229.06 L398.373,234.183 M387.771,230.828 C386.222,228.279 384.558,225.747 382.782,223.249 C384.409,223.195 386.079,223.031 387.771,222.777 L387.771,230.828 M399.983,189.202 L399.983,182.6 C400.552,182.092 401.228,181.552 402.02,181.011 C401.572,183.845 401.155,186.531 400.843,189.027 L408.834,187.41 L408.834,187.411 L399.983,189.202 M399.983,180.494 L399.983,176.348 L397.112,176.348 C399.15,173.311 401.138,169.984 402.65,166.308 L404.1,166.308 C403.627,170.681 402.981,174.91 402.355,178.883 C401.457,179.416 400.669,179.961 399.983,180.494" id="Fill-100" fill="#7397C8"></path>
            <path d="M416.291,227.206 C415.769,227.206 415.282,226.995 414.927,226.645 L420.3,226.645 L416.573,227.186 C416.479,227.199 416.384,227.206 416.291,227.206 M432.198,224.918 C432.002,224.524 431.595,224.253 431.126,224.253 L414.181,224.253 L412.75,214.391 C415.872,212.9 418.734,211.399 421.191,210.042 L431.126,210.042 C431.786,210.042 432.322,209.507 432.322,208.847 C432.322,208.186 431.786,207.65 431.126,207.65 L425.378,207.65 C428.225,205.968 429.91,204.852 429.91,204.852 C429.945,204.645 429.978,204.44 430.01,204.235 L431.126,204.235 C431.786,204.235 432.322,203.7 432.322,203.039 C432.322,202.379 431.786,201.844 431.126,201.844 L430.306,201.844 C430.349,201.382 430.383,200.928 430.408,200.485 L437.366,197.741 C437.753,197.734 438.139,197.732 438.526,197.732 C438.97,197.732 439.414,197.735 439.857,197.738 C440.232,197.741 440.606,197.744 440.978,197.745 L440.978,223.643 L432.198,224.918 M408.834,187.411 L408.834,187.41 L406.427,170.826 C406.272,169.763 407.01,168.776 408.073,168.622 L424.019,166.308 L437.152,166.308 C439.265,166.308 440.978,168.02 440.978,170.132 L440.978,177.088 C440.367,176.756 439.775,176.61 439.205,176.61 C434.892,176.61 431.864,184.993 431.864,184.993 L431.219,185.245 C431.188,185.242 431.157,185.241 431.126,185.241 L427.056,185.241 C426.487,184.354 426.078,183.92 426.078,183.92 L419.551,185.241 L412.182,185.241 C411.522,185.241 410.986,185.776 410.986,186.438 C410.986,186.621 411.028,186.796 411.102,186.951 L408.834,187.411 M412.182,179.435 C411.522,179.435 410.986,179.97 410.986,180.63 C410.986,181.29 411.522,181.825 412.182,181.825 L431.126,181.825 C431.786,181.825 432.322,181.29 432.322,180.63 C432.322,179.97 431.786,179.435 431.126,179.435 L412.182,179.435" id="Fill-101" fill="#B8CEEE"></path>
            <path d="M430.408,200.485 C430.742,194.604 429.552,190.354 428.336,187.633 L431.126,187.633 C431.786,187.633 432.322,187.098 432.322,186.438 C432.322,185.808 431.836,185.292 431.219,185.245 L431.864,184.993 C431.864,184.993 434.892,176.61 439.205,176.61 C439.775,176.61 440.367,176.756 440.978,177.088 L440.978,197.745 C440.606,197.744 440.232,197.741 439.857,197.738 C439.414,197.735 438.97,197.732 438.526,197.732 C438.139,197.732 437.753,197.734 437.366,197.741 L430.408,200.485" id="Fill-102" fill="#7496CF"></path>
            <path d="M387.657,191.697 C387.713,191.458 387.779,191.217 387.856,190.974 L391.232,190.974 L387.657,191.697" id="Fill-103" fill="#7397C8"></path>
            <path d="M382.782,223.249 C382.746,223.198 382.709,223.146 382.673,223.095 L382.673,166.777 C382.673,166.618 382.685,166.461 382.709,166.308 L402.65,166.308 C401.138,169.984 399.15,173.311 397.112,176.348 L387.771,176.348 L387.771,190.974 L387.856,190.974 C387.779,191.217 387.713,191.458 387.657,191.697 L391.232,190.974 L399.983,190.974 L399.983,189.202 L408.834,187.411 L411.102,186.951 C411.294,187.354 411.706,187.633 412.182,187.633 L428.336,187.633 C429.552,190.354 430.742,194.604 430.408,200.485 C430.383,200.928 430.349,201.382 430.306,201.844 L412.182,201.844 C411.522,201.844 410.986,202.379 410.986,203.039 C410.986,203.7 411.522,204.235 412.182,204.235 L430.01,204.235 C429.978,204.44 429.945,204.645 429.91,204.852 C429.91,204.852 428.225,205.968 425.378,207.65 L412.182,207.65 C411.522,207.65 410.986,208.186 410.986,208.847 C410.986,209.507 411.522,210.042 412.182,210.042 L421.191,210.042 C418.734,211.399 415.872,212.9 412.75,214.391 C407.398,216.946 401.286,219.468 395.171,221.167 L387.771,221.167 L387.771,222.777 C386.079,223.031 384.409,223.195 382.782,223.249 M387.771,198.757 L387.771,213.383 L399.983,213.383 L399.983,205.01 C401.394,203.751 403.458,202.294 406.328,201.111 L405.715,199.624 C403.302,200.617 401.419,201.787 399.983,202.903 L399.983,198.757 L387.771,198.757 M398.373,211.773 L389.381,211.773 L389.381,200.367 L398.373,200.367 L398.373,204.292 C397.606,205.029 397.052,205.687 396.678,206.18 L394.476,203.722 L393.277,204.797 L396.91,208.847 L397.464,207.876 C397.471,207.862 397.752,207.382 398.373,206.65 L398.373,211.773 M427.056,185.241 L419.551,185.241 L426.078,183.92 C426.078,183.92 426.487,184.354 427.056,185.241" id="Fill-104" fill="#93AFDB"></path>
            <g id="Group-107" transform="translate(382.000000, 223.000000)">
                <mask id="mask-32" fill="white">
                    <use xlink:href="#path-31"></use>
                </mask>
                <g id="Clip-106"></g>
                <path d="M10.437,16.239 L3.691,16.239 C2.026,16.239 0.673,14.885 0.673,13.22 L0.673,0.095 C0.709,0.146 0.746,0.198 0.782,0.249 C2.558,2.747 4.222,5.279 5.771,7.828 L5.771,12.793 L8.631,12.793 C9.257,13.942 9.859,15.091 10.437,16.239 M7.737,11.183 L7.381,11.183 L7.381,10.557 C7.501,10.766 7.619,10.973 7.737,11.183" id="Fill-105" fill="url(#linearGradient-33)" mask="url(#mask-32)"></path>
            </g>
            <path d="M398.373,189.363 L389.381,189.363 L389.381,187.63 C391.017,184.761 393.493,181.573 396.01,177.958 L398.373,177.958 L398.373,181.883 C397.606,182.62 397.052,183.278 396.678,183.77 L394.476,181.313 L393.277,182.388 L396.91,186.438 L397.464,185.467 C397.471,185.453 397.752,184.973 398.373,184.241 L398.373,189.363" id="Fill-108" fill="#7397C8"></path>
            <path d="M389.381,187.63 L389.381,177.958 L396.01,177.958 C393.493,181.573 391.017,184.761 389.381,187.63" id="Fill-109" fill="#93AFDB"></path>
            <path d="M385.691,163.758 C384.026,163.758 382.673,165.112 382.673,166.777 L382.673,236.22 C382.673,237.885 384.026,239.239 385.691,239.239 L440.642,239.239 C442.308,239.239 443.661,237.885 443.661,236.22 L443.661,166.777 C443.661,165.112 442.308,163.758 440.642,163.758 L385.691,163.758 M440.642,240.85 L385.691,240.85 C383.14,240.85 381.062,238.772 381.062,236.22 L381.062,166.777 C381.062,164.226 383.14,162.147 385.691,162.147 L440.642,162.147 C443.194,162.147 445.272,164.226 445.272,166.777 L445.272,236.22 C445.272,238.772 443.194,240.85 440.642,240.85" id="Fill-110" fill="#4F7EB7"></path>
            <path d="M391.232,190.974 L387.856,190.974 C388.19,189.907 388.716,188.794 389.381,187.63 L389.381,189.363 L398.373,189.363 L398.373,184.241 C398.767,183.777 399.298,183.212 399.983,182.6 L399.983,189.202 L391.232,190.974 M398.373,181.883 L398.373,177.958 L396.01,177.958 C396.377,177.43 396.745,176.894 397.112,176.348 L399.983,176.348 L399.983,180.494 C399.366,180.973 398.832,181.442 398.373,181.883" id="Fill-111" fill="#335498"></path>
            <path d="M399.983,190.974 L391.232,190.974 L399.983,189.202 L399.983,190.974 M387.856,190.974 L387.771,190.974 L387.771,176.348 L397.112,176.348 C396.745,176.894 396.377,177.43 396.01,177.958 L389.381,177.958 L389.381,187.63 C388.716,188.794 388.19,189.907 387.856,190.974" id="Fill-112" fill="#476AB1"></path>
            <path d="M402.02,181.011 C402.13,180.31 402.242,179.601 402.355,178.883 C403.338,178.301 404.454,177.733 405.715,177.214 L406.328,178.702 C404.616,179.407 403.19,180.21 402.02,181.011" id="Fill-113" fill="#80678A"></path>
            <path d="M396.91,186.438 L393.277,182.388 L394.476,181.313 L396.678,183.77 C397.052,183.278 397.606,182.62 398.373,181.883 C398.832,181.442 399.366,180.973 399.983,180.494 C400.669,179.961 401.457,179.416 402.355,178.883 C402.242,179.601 402.13,180.31 402.02,181.011 C401.228,181.552 400.552,182.092 399.983,182.6 C399.298,183.212 398.767,183.777 398.373,184.241 C397.752,184.973 397.471,185.453 397.464,185.467 L396.91,186.438" id="Fill-114" fill="#6A5C7E"></path>
            <path d="M431.126,181.825 L412.182,181.825 C411.522,181.825 410.986,181.29 410.986,180.63 C410.986,179.97 411.522,179.435 412.182,179.435 L431.126,179.435 C431.786,179.435 432.322,179.97 432.322,180.63 C432.322,181.29 431.786,181.825 431.126,181.825" id="Fill-115" fill="#6F98DD"></path>
            <path d="M427.823,186.57 C427.552,186.049 427.29,185.607 427.056,185.241 L431.126,185.241 C431.157,185.241 431.188,185.242 431.219,185.245 L427.823,186.57" id="Fill-116" fill="#6F98DD"></path>
            <path d="M431.126,187.633 L428.336,187.633 C428.164,187.248 427.992,186.894 427.823,186.57 L431.219,185.245 C431.836,185.292 432.322,185.808 432.322,186.438 C432.322,187.098 431.786,187.633 431.126,187.633" id="Fill-117" fill="#466FC0"></path>
            <path d="M411.102,186.951 C411.028,186.796 410.986,186.621 410.986,186.438 C410.986,185.776 411.522,185.241 412.182,185.241 L419.551,185.241 L411.102,186.951" id="Fill-118" fill="#6F98DD"></path>
            <path d="M428.336,187.633 L412.182,187.633 C411.706,187.633 411.294,187.354 411.102,186.951 L419.551,185.241 L427.056,185.241 C427.29,185.607 427.552,186.049 427.823,186.57 C427.992,186.894 428.164,187.248 428.336,187.633" id="Fill-119" fill="#5981CC"></path>
            <path d="M399.983,213.383 L387.771,213.383 L387.771,198.757 L399.983,198.757 L399.983,202.903 C399.366,203.382 398.832,203.852 398.373,204.292 L398.373,200.367 L389.381,200.367 L389.381,211.773 L398.373,211.773 L398.373,206.65 C398.767,206.187 399.298,205.622 399.983,205.01 L399.983,213.383" id="Fill-120" fill="#476AB1"></path>
            <path d="M396.91,208.847 L393.277,204.797 L394.476,203.722 L396.678,206.18 C397.052,205.687 397.606,205.029 398.373,204.292 C398.832,203.852 399.366,203.382 399.983,202.903 C401.419,201.787 403.302,200.617 405.715,199.624 L406.328,201.111 C403.458,202.294 401.394,203.751 399.983,205.01 C399.298,205.622 398.767,206.187 398.373,206.65 C397.752,207.382 397.471,207.862 397.464,207.876 L396.91,208.847" id="Fill-121" fill="#876A8A"></path>
            <path d="M431.126,204.235 L430.01,204.235 C430.137,203.412 430.234,202.615 430.306,201.844 L431.126,201.844 C431.786,201.844 432.322,202.379 432.322,203.039 C432.322,203.7 431.786,204.235 431.126,204.235" id="Fill-122" fill="#6F98DD"></path>
            <path d="M430.01,204.235 L412.182,204.235 C411.522,204.235 410.986,203.7 410.986,203.039 C410.986,202.379 411.522,201.844 412.182,201.844 L430.306,201.844 C430.234,202.615 430.137,203.412 430.01,204.235" id="Fill-123" fill="#5981CC"></path>
            <path d="M431.126,210.042 L421.191,210.042 C422.767,209.172 424.176,208.36 425.378,207.65 L431.126,207.65 C431.786,207.65 432.322,208.186 432.322,208.847 C432.322,209.507 431.786,210.042 431.126,210.042" id="Fill-124" fill="#6F98DD"></path>
            <path d="M421.191,210.042 L412.182,210.042 C411.522,210.042 410.986,209.507 410.986,208.847 C410.986,208.186 411.522,207.65 412.182,207.65 L425.378,207.65 C424.176,208.36 422.767,209.172 421.191,210.042" id="Fill-125" fill="#5981CC"></path>
            <path d="M399.983,235.793 L390.631,235.793 C390.338,235.256 390.04,234.719 389.737,234.183 L398.373,234.183 L398.373,229.06 C398.767,228.597 399.298,228.031 399.983,227.419 L399.983,235.793 M389.381,233.557 C388.859,232.646 388.322,231.735 387.771,230.828 L387.771,222.777 C390.205,222.411 392.688,221.857 395.171,221.167 L399.983,221.167 L399.983,225.312 C399.366,225.791 398.832,226.261 398.373,226.702 L398.373,222.777 L389.381,222.777 L389.381,233.557" id="Fill-126" fill="#335498"></path>
            <path d="M387.771,222.777 L387.771,221.167 L395.171,221.167 C392.688,221.857 390.205,222.411 387.771,222.777" id="Fill-127" fill="#476AB1"></path>
            <g id="Group-130" transform="translate(387.000000, 230.000000)">
                <mask id="mask-35" fill="white">
                    <use xlink:href="#path-34"></use>
                </mask>
                <g id="Clip-129"></g>
                <path d="M3.631,5.793 L0.771,5.793 L0.771,0.828 C1.322,1.735 1.859,2.646 2.381,3.557 L2.381,4.183 L2.737,4.183 C3.04,4.719 3.338,5.256 3.631,5.793" id="Fill-128" fill="url(#linearGradient-36)" mask="url(#mask-35)"></path>
            </g>
            <path d="M396.91,231.256 L393.277,227.207 L394.476,226.131 L396.678,228.589 C397.052,228.096 397.606,227.438 398.373,226.702 C398.832,226.261 399.366,225.791 399.983,225.312 C401.419,224.197 403.302,223.027 405.715,222.033 L406.328,223.521 C403.458,224.703 401.394,226.16 399.983,227.419 C399.298,228.031 398.767,228.597 398.373,229.06 C397.752,229.792 397.471,230.272 397.464,230.286 L396.91,231.256" id="Fill-131" fill="#6A5C7E"></path>
            <path d="M431.126,226.645 L420.3,226.645 L432.198,224.918 C432.278,225.078 432.322,225.258 432.322,225.449 C432.322,226.109 431.786,226.645 431.126,226.645 M414.927,226.645 L412.182,226.645 C411.522,226.645 410.986,226.109 410.986,225.449 C410.986,224.788 411.522,224.253 412.182,224.253 L414.181,224.253 L414.368,225.539 C414.431,225.976 414.635,226.357 414.927,226.645" id="Fill-132" fill="#456FBA"></path>
            <path d="M420.3,226.645 L414.927,226.645 C414.635,226.357 414.431,225.976 414.368,225.539 L414.181,224.253 L431.126,224.253 C431.595,224.253 432.002,224.524 432.198,224.918 L420.3,226.645" id="Fill-133" fill="#6F98DD"></path>
            <path d="M431.126,232.452 L417.123,232.452 C420.845,231.928 426.383,231.142 431.892,230.338 C432.155,230.558 432.322,230.887 432.322,231.256 C432.322,231.916 431.786,232.452 431.126,232.452" id="Fill-134" fill="#557DCC"></path>
            <path d="M417.123,232.452 L412.182,232.452 C411.522,232.452 410.986,231.916 410.986,231.256 C410.986,230.596 411.522,230.061 412.182,230.061 L431.126,230.061 C431.417,230.061 431.685,230.165 431.892,230.338 C426.383,231.142 420.845,231.928 417.123,232.452" id="Fill-135" fill="#456FBA"></path>
            <path d="M630.189,137.206 L575.239,137.206 C573.128,137.206 571.415,135.494 571.415,133.382 L571.415,132.877 C572.3,130.789 572.757,129.573 572.757,129.573 C572.415,128.392 571.958,127.321 571.415,126.351 L571.415,125.377 L573.299,121.119 C573.299,121.119 578.017,119.166 581.452,116.023 C581.706,116.098 581.974,116.139 582.252,116.139 C583.809,116.139 585.07,114.877 585.07,113.32 C585.07,113.035 585.028,112.759 584.949,112.499 C587.098,110.81 588.714,108.975 587.921,108.243 C587.268,107.64 586.727,107.453 586.308,107.453 C585.622,107.453 585.261,107.953 585.261,107.953 C585.261,107.953 587.275,104.561 585.261,103.478 C584.783,103.221 584.358,103.12 583.985,103.12 C583.958,103.12 583.933,103.121 583.907,103.122 C584.612,102.61 585.07,101.779 585.07,100.841 C585.07,99.285 583.809,98.023 582.252,98.023 C580.764,98.023 579.545,99.177 579.442,100.64 C579.297,100.678 579.16,100.719 579.033,100.76 C578.761,100.584 578.494,100.429 578.233,100.293 C578.258,99.583 578.127,98.66 577.273,98.66 C576.873,98.66 576.314,98.863 575.539,99.384 C575.131,99.322 574.774,99.301 574.48,99.301 C573.903,99.301 573.567,99.381 573.567,99.381 C573.567,99.381 583.181,92.898 584.534,89.498 C585.759,90.06 587.123,90.374 588.56,90.374 C593.896,90.374 598.221,86.049 598.221,80.713 C598.221,80.531 598.216,80.35 598.206,80.171 L603.454,80.713 C606.273,75.01 603.454,69.441 597.55,67.965 L594.618,73.187 C592.961,71.851 590.854,71.051 588.56,71.051 C583.224,71.051 578.897,75.377 578.897,80.713 C578.897,83.559 580.129,86.118 582.087,87.886 C579.398,88.525 575.101,90.925 571.415,93.6 L571.415,63.939 C571.415,61.827 573.128,60.115 575.239,60.115 L630.189,60.115 C632.302,60.115 634.015,61.827 634.015,63.939 L634.015,133.382 C634.015,135.494 632.302,137.206 630.189,137.206 M599.294,123.183 C597.738,123.183 596.477,124.445 596.477,126.002 C596.477,127.558 597.738,128.819 599.294,128.819 L621.838,128.819 C623.395,128.819 624.656,127.558 624.656,126.002 C624.656,124.445 623.395,123.183 621.838,123.183 L599.294,123.183 M582.252,123.183 C580.696,123.183 579.434,124.445 579.434,126.002 C579.434,127.558 580.696,128.819 582.252,128.819 C583.809,128.819 585.07,127.558 585.07,126.002 C585.07,124.445 583.809,123.183 582.252,123.183 M599.294,110.502 C597.738,110.502 596.477,111.764 596.477,113.32 C596.477,114.877 597.738,116.139 599.294,116.139 L621.838,116.139 C623.395,116.139 624.656,114.877 624.656,113.32 C624.656,111.764 623.395,110.502 621.838,110.502 L599.294,110.502 M599.294,98.023 C597.738,98.023 596.477,99.285 596.477,100.841 C596.477,102.397 597.738,103.659 599.294,103.659 L621.838,103.659 C623.395,103.659 624.656,102.397 624.656,100.841 C624.656,99.285 623.395,98.023 621.838,98.023 L599.294,98.023 M582.366,103.881 C582.346,103.855 582.325,103.83 582.305,103.804 C582.328,103.757 582.351,103.707 582.374,103.656 C582.459,103.653 582.543,103.645 582.626,103.634 C582.528,103.715 582.442,103.8 582.366,103.881" id="Fill-136" fill="#C2D7F4"></path>
            <path d="M571.415,125.377 L571.415,109.196 C572.724,108.708 574.071,107.592 574.071,107.592 C574.071,107.592 570.941,112.356 573.367,113.584 C573.682,113.743 574.019,113.812 574.367,113.812 C576.704,113.812 579.549,110.696 579.549,110.696 C579.549,110.696 576.419,115.027 578.219,115.822 C578.318,115.865 578.44,115.886 578.583,115.886 C579.011,115.886 579.623,115.7 580.333,115.384 C580.648,115.677 581.029,115.898 581.452,116.023 C578.017,119.166 573.299,121.119 573.299,121.119 L571.415,125.377 M582.054,104.283 C582.116,104.175 582.207,104.009 582.305,103.804 C582.325,103.83 582.346,103.855 582.366,103.881 C582.223,104.036 582.119,104.183 582.054,104.283 M571.415,103.944 L571.415,93.6 C575.101,90.925 579.398,88.525 582.087,87.886 C582.812,88.54 583.636,89.086 584.534,89.498 C583.181,92.898 573.567,99.381 573.567,99.381 C573.567,99.381 573.903,99.301 574.48,99.301 C574.774,99.301 575.131,99.322 575.539,99.384 C575.417,99.466 575.291,99.555 575.159,99.653 C575.159,99.653 573.123,101.723 571.415,103.944 M578.141,101.096 C578.141,101.096 578.217,100.736 578.233,100.293 C578.494,100.429 578.761,100.584 579.033,100.76 C578.505,100.928 578.141,101.096 578.141,101.096" id="Fill-137" fill="#5C83B7"></path>
            <path d="M578.583,115.886 C578.44,115.886 578.318,115.865 578.219,115.822 C576.419,115.027 579.549,110.696 579.549,110.696 C579.549,110.696 576.704,113.812 574.367,113.812 C574.019,113.812 573.682,113.743 573.367,113.584 C570.941,112.356 574.071,107.592 574.071,107.592 C574.071,107.592 572.724,108.708 571.415,109.196 L571.415,103.944 C573.123,101.723 575.159,99.653 575.159,99.653 C575.291,99.555 575.417,99.466 575.539,99.384 C576.314,98.863 576.873,98.66 577.273,98.66 C578.127,98.66 578.258,99.583 578.233,100.293 C578.217,100.736 578.141,101.096 578.141,101.096 C578.141,101.096 578.505,100.928 579.033,100.76 C579.16,100.719 579.297,100.678 579.442,100.64 C579.437,100.706 579.434,100.773 579.434,100.841 C579.434,102.397 580.696,103.659 582.252,103.659 C582.293,103.659 582.333,103.658 582.374,103.656 C582.351,103.707 582.328,103.757 582.305,103.804 C582.207,104.009 582.116,104.175 582.054,104.283 C582.119,104.183 582.223,104.036 582.366,103.881 C582.442,103.8 582.528,103.715 582.626,103.634 C583.1,103.571 583.538,103.39 583.907,103.122 C583.933,103.121 583.958,103.12 583.985,103.12 C584.358,103.12 584.783,103.221 585.261,103.478 C587.275,104.561 585.261,107.953 585.261,107.953 C585.261,107.953 585.622,107.453 586.308,107.453 C586.727,107.453 587.268,107.64 587.921,108.243 C588.714,108.975 587.098,110.81 584.949,112.499 C584.597,111.343 583.523,110.502 582.252,110.502 C580.696,110.502 579.434,111.764 579.434,113.32 C579.434,114.135 579.78,114.869 580.333,115.384 C579.623,115.7 579.011,115.886 578.583,115.886" id="Fill-138" fill="#7496CF"></path>
            <path d="M571.415,132.877 L571.415,126.351 C571.958,127.321 572.415,128.392 572.757,129.573 C572.757,129.573 572.3,130.789 571.415,132.877" id="Fill-139" fill="#8CAADB"></path>
            <path d="M580.071,56.528 C578.406,56.528 577.052,57.883 577.052,59.547 L577.052,128.99 C577.052,130.654 578.406,132.009 580.071,132.009 L635.021,132.009 C636.687,132.009 638.04,130.654 638.04,128.99 L638.04,59.547 C638.04,57.883 636.687,56.528 635.021,56.528 L580.071,56.528 Z M635.021,133.619 L580.071,133.619 C577.519,133.619 575.441,131.542 575.441,128.99 L575.441,59.547 C575.441,56.994 577.519,54.917 580.071,54.917 L635.021,54.917 C637.573,54.917 639.65,56.994 639.65,59.547 L639.65,128.99 C639.65,131.542 637.573,133.619 635.021,133.619 L635.021,133.619 Z" id="Fill-140" fill="#4F7EB7"></path>
            <path d="M588.56,90.374 C587.123,90.374 585.759,90.06 584.534,89.498 C584.723,89.024 584.751,88.61 584.57,88.282 C584.358,87.895 583.917,87.721 583.304,87.721 C582.951,87.721 582.543,87.778 582.087,87.886 C580.129,86.118 578.897,83.559 578.897,80.713 C578.897,75.377 583.224,71.051 588.56,71.051 C590.854,71.051 592.961,71.851 594.618,73.187 L591.108,79.438 L598.206,80.171 C598.216,80.35 598.221,80.531 598.221,80.713 C598.221,86.049 593.896,90.374 588.56,90.374" id="Fill-141" fill="#90B1E1"></path>
            <path d="M584.534,89.498 C583.636,89.086 582.812,88.54 582.087,87.886 C582.543,87.778 582.951,87.721 583.304,87.721 C583.917,87.721 584.358,87.895 584.57,88.282 C584.751,88.61 584.723,89.024 584.534,89.498" id="Fill-142" fill="#446CA9"></path>
            <path d="M603.454,80.713 L598.206,80.171 C598.05,77.35 596.684,74.852 594.618,73.187 L597.55,67.965 C603.454,69.441 606.273,75.01 603.454,80.713" id="Fill-143" fill="#A482A0"></path>
            <path d="M598.206,80.171 L591.108,79.438 L594.618,73.187 C596.684,74.852 598.05,77.35 598.206,80.171" id="Fill-144" fill="#8C7D9C"></path>
            <path d="M582.374,103.656 C582.756,102.808 583.158,101.468 582.288,100.807 C581.915,100.524 581.426,100.422 580.915,100.422 C580.415,100.422 579.895,100.519 579.442,100.64 C579.545,99.177 580.764,98.023 582.252,98.023 C583.809,98.023 585.07,99.285 585.07,100.841 C585.07,101.779 584.612,102.61 583.907,103.122 C583.367,103.142 582.94,103.373 582.626,103.634 C582.543,103.645 582.459,103.653 582.374,103.656" id="Fill-145" fill="#9BBBEB"></path>
            <path d="M582.252,103.659 C580.696,103.659 579.434,102.397 579.434,100.841 C579.434,100.773 579.437,100.706 579.442,100.64 C579.895,100.519 580.415,100.422 580.915,100.422 C581.426,100.422 581.915,100.524 582.288,100.807 C583.158,101.468 582.756,102.808 582.374,103.656 C582.333,103.658 582.293,103.659 582.252,103.659 M582.626,103.634 C582.94,103.373 583.367,103.142 583.907,103.122 C583.538,103.39 583.1,103.571 582.626,103.634" id="Fill-146" fill="#5D82C7"></path>
            <path d="M582.252,116.139 C581.974,116.139 581.706,116.098 581.452,116.023 C582.327,115.223 583.118,114.346 583.727,113.403 C584.144,113.112 584.556,112.808 584.949,112.499 C585.028,112.759 585.07,113.035 585.07,113.32 C585.07,114.877 583.809,116.139 582.252,116.139" id="Fill-147" fill="#9BBBEB"></path>
            <path d="M581.452,116.023 C581.029,115.898 580.648,115.677 580.333,115.384 C581.347,114.933 582.562,114.217 583.727,113.403 C583.118,114.346 582.327,115.223 581.452,116.023" id="Fill-148" fill="#4A72B0"></path>
            <path d="M580.333,115.384 C579.78,114.869 579.434,114.135 579.434,113.32 C579.434,111.764 580.696,110.502 582.252,110.502 C583.523,110.502 584.597,111.343 584.949,112.499 C584.556,112.808 584.144,113.112 583.727,113.403 C582.562,114.217 581.347,114.933 580.333,115.384" id="Fill-149" fill="#5D82C7"></path>
            <path d="M621.838,103.659 L599.294,103.659 C597.738,103.659 596.477,102.397 596.477,100.841 C596.477,99.285 597.738,98.023 599.294,98.023 L621.838,98.023 C623.395,98.023 624.656,99.285 624.656,100.841 C624.656,102.397 623.395,103.659 621.838,103.659" id="Fill-150" fill="#9BBBEB"></path>
            <path d="M621.838,116.139 L599.294,116.139 C597.738,116.139 596.477,114.877 596.477,113.32 C596.477,111.764 597.738,110.502 599.294,110.502 L621.838,110.502 C623.395,110.502 624.656,111.764 624.656,113.32 C624.656,114.877 623.395,116.139 621.838,116.139" id="Fill-151" fill="#9BBBEB"></path>
            <path d="M582.252,128.819 C580.696,128.819 579.434,127.558 579.434,126.002 C579.434,124.445 580.696,123.183 582.252,123.183 C583.809,123.183 585.07,124.445 585.07,126.002 C585.07,127.558 583.809,128.819 582.252,128.819" id="Fill-152" fill="#9BBBEB"></path>
            <path d="M621.838,128.819 L599.294,128.819 C597.738,128.819 596.477,127.558 596.477,126.002 C596.477,124.445 597.738,123.183 599.294,123.183 L621.838,123.183 C623.395,123.183 624.656,124.445 624.656,126.002 C624.656,127.558 623.395,128.819 621.838,128.819" id="Fill-153" fill="#9BBBEB"></path>
            <path d="M160.206,114.584 L105.255,114.584 C103.143,114.584 101.431,112.872 101.431,110.759 L101.431,28.435 C101.431,26.323 103.143,24.61 105.255,24.61 L160.206,24.61 C162.318,24.61 164.03,26.323 164.03,28.435 L164.03,110.759 C164.03,112.872 162.318,114.584 160.206,114.584" id="Fill-154" fill="#C2D7F4"></path>
            <path d="M101.767,21.927 C100.102,21.927 98.748,23.282 98.748,24.946 L98.748,107.271 C98.748,108.936 100.102,110.29 101.767,110.29 L156.717,110.29 C158.381,110.29 159.736,108.936 159.736,107.271 L159.736,24.946 C159.736,23.282 158.381,21.927 156.717,21.927 L101.767,21.927 Z M156.717,111.9 L101.767,111.9 C99.214,111.9 97.137,109.824 97.137,107.271 L97.137,24.946 C97.137,22.393 99.214,20.317 101.767,20.317 L156.717,20.317 C159.27,20.317 161.346,22.393 161.346,24.946 L161.346,107.271 C161.346,109.824 159.27,111.9 156.717,111.9 L156.717,111.9 Z" id="Fill-155" fill="#4F7EB7"></path>
            <path d="M129.783,61.643 L128.997,62.341 C128.498,62.784 127.735,62.739 127.292,62.24 L119.23,53.163 L121.822,50.861 L129.883,59.938 C130.327,60.437 130.281,61.2 129.783,61.643" id="Fill-156" fill="#7CA6D8"></path>
            <path d="M116.423,52.055 C112.947,52.055 110.112,49.236 110.112,45.745 C110.112,42.254 112.947,39.435 116.423,39.435 C119.913,39.435 122.733,42.254 122.733,45.745 C122.733,49.236 119.913,52.055 116.423,52.055 Z M116.423,36.486 C111.318,36.486 107.164,40.625 107.164,45.745 C107.164,50.866 111.318,55.004 116.423,55.004 C121.543,55.004 125.682,50.866 125.682,45.745 C125.682,40.625 121.543,36.486 116.423,36.486 L116.423,36.486 Z" id="Fill-157" fill="#7CA6D8"></path>
            <path d="M153.934,41.585 L139.307,41.585 C138.381,41.585 137.63,40.834 137.63,39.908 C137.63,38.981 138.381,38.23 139.307,38.23 L153.934,38.23 C154.86,38.23 155.611,38.981 155.611,39.908 C155.611,40.834 154.86,41.585 153.934,41.585" id="Fill-158" fill="#9ABCED"></path>
            <path d="M153.934,50.308 L139.307,50.308 C138.381,50.308 137.63,49.557 137.63,48.63 C137.63,47.704 138.381,46.953 139.307,46.953 L153.934,46.953 C154.86,46.953 155.611,47.704 155.611,48.63 C155.611,49.557 154.86,50.308 153.934,50.308" id="Fill-159" fill="#9ABCED"></path>
            <path d="M153.934,58.359 L139.307,58.359 C138.381,58.359 137.63,57.608 137.63,56.682 C137.63,55.755 138.381,55.004 139.307,55.004 L153.934,55.004 C154.86,55.004 155.611,55.755 155.611,56.682 C155.611,57.608 154.86,58.359 153.934,58.359" id="Fill-160" fill="#9ABCED"></path>
            <path d="M135.718,80.768 L113.174,80.768 C112.118,80.768 111.262,79.912 111.262,78.856 C111.262,77.8 112.118,76.944 113.174,76.944 L135.718,76.944 C136.773,76.944 137.63,77.8 137.63,78.856 C137.63,79.912 136.773,80.768 135.718,80.768" id="Fill-161" fill="#9ABCED"></path>
            <path d="M135.718,92.745 L113.174,92.745 C112.118,92.745 111.262,91.889 111.262,90.833 C111.262,89.776 112.118,88.92 113.174,88.92 L135.718,88.92 C136.773,88.92 137.63,89.776 137.63,90.833 C137.63,91.889 136.773,92.745 135.718,92.745" id="Fill-162" fill="#9ABCED"></path>
            <path d="M135.718,104.721 L113.174,104.721 C112.118,104.721 111.262,103.865 111.262,102.809 C111.262,101.753 112.118,100.896 113.174,100.896 L135.718,100.896 C136.773,100.896 137.63,101.753 137.63,102.809 C137.63,103.865 136.773,104.721 135.718,104.721" id="Fill-163" fill="#9ABCED"></path>
            <path d="M153.38,78.856 C153.38,80.551 152.006,81.926 150.311,81.926 C148.615,81.926 147.241,80.551 147.241,78.856 C147.241,77.161 148.615,75.787 150.311,75.787 C152.006,75.787 153.38,77.161 153.38,78.856" id="Fill-164" fill="#9ABCED"></path>
            <path d="M153.38,90.833 C153.38,92.528 152.006,93.902 150.311,93.902 C148.615,93.902 147.241,92.528 147.241,90.833 C147.241,89.137 148.615,87.763 150.311,87.763 C152.006,87.763 153.38,89.137 153.38,90.833" id="Fill-165" fill="#9ABCED"></path>
            <path d="M153.38,102.809 C153.38,104.504 152.006,105.878 150.311,105.878 C148.615,105.878 147.241,104.504 147.241,102.809 C147.241,101.113 148.615,99.739 150.311,99.739 C152.006,99.739 153.38,101.113 153.38,102.809" id="Fill-166" fill="#9ABCED"></path>
            <path d="M322.07,112.078 C321.65,111.207 321.415,110.231 321.415,109.2 L321.415,42.374 C321.415,40.091 322.566,38.077 324.32,36.882 C324.176,37.459 324.1,38.063 324.1,38.684 L324.1,57.964 C323.981,60.302 323.98,62.706 324.1,65.172 L324.1,105.51 C324.1,106.931 324.5,108.261 325.194,109.392 C324.283,110.38 323.239,111.272 322.07,112.078" id="Fill-167" fill="#C2D7F4"></path>
            <path d="M428.699,115.842 L388.21,115.842 C388.301,114.889 388.387,113.927 388.469,112.957 L432.188,112.957 C432.955,112.957 433.695,112.841 434.391,112.625 C433.229,114.552 431.114,115.842 428.699,115.842 M384.963,115.842 L352.505,115.842 C352.766,114.891 353.013,113.928 353.247,112.957 L385.227,112.957 C385.144,113.928 385.056,114.887 384.963,115.842 M349.15,115.842 L328.058,115.842 C325.42,115.842 323.142,114.305 322.07,112.078 C323.239,111.272 324.283,110.38 325.194,109.392 C326.504,111.529 328.862,112.957 331.547,112.957 L349.919,112.957 C349.677,113.927 349.419,114.892 349.15,115.842 M324.1,65.172 C323.98,62.706 323.981,60.302 324.1,57.964 L324.1,65.172" id="Fill-168" fill="#AEC6ED"></path>
            <path d="M388.21,115.842 L384.963,115.842 C385.056,114.887 385.144,113.928 385.227,112.957 L388.469,112.957 C388.387,113.927 388.301,114.889 388.21,115.842" id="Fill-169" fill="#C2D7F4"></path>
            <path d="M352.505,115.842 L349.15,115.842 C349.419,114.892 349.677,113.927 349.919,112.957 L353.247,112.957 C353.013,113.928 352.766,114.891 352.505,115.842" id="Fill-170" fill="#C2D7F4"></path>
            <path d="M326.297,108.061 C325.92,107.29 325.709,106.424 325.709,105.51 L325.709,77.931 C326.282,80.808 327.005,83.759 327.881,86.777 C330.669,96.376 329.885,103.222 326.297,108.061 M325.709,46.545 L325.709,38.684 C325.709,37.693 325.957,36.759 326.394,35.941 C326.926,35.804 327.483,35.732 328.058,35.732 L329.5,35.732 C327.895,39.113 326.623,42.721 325.709,46.545" id="Fill-171" fill="#C2D7F4"></path>
            <path d="M432.188,111.347 L388.6,111.347 C388.695,110.13 388.784,108.9 388.866,107.656 L410.382,107.656 C411.716,107.656 412.798,106.575 412.798,105.241 C412.798,103.907 411.716,102.826 410.382,102.826 L389.146,102.826 C389.277,100.245 389.38,97.605 389.456,94.908 L392.317,94.908 C393.456,94.908 394.38,93.985 394.38,92.845 L394.38,64.364 C394.38,63.224 393.456,62.301 392.317,62.301 L389.289,62.301 C389.274,58.779 389.353,55.356 389.526,52.035 L391.462,52.035 C393.073,52.035 394.38,50.728 394.38,49.117 C394.38,47.505 393.073,46.198 391.462,46.198 L389.936,46.198 C390.259,42.58 390.701,39.089 391.264,35.732 L428.699,35.732 C432.367,35.732 435.341,38.705 435.341,42.374 L435.341,70.019 C434.538,72.811 433.557,76.23 430.741,78.742 C425.981,82.989 423.452,87.79 430.171,100.028 C432.948,105.087 434.066,108.316 434.62,110.816 C433.879,111.157 433.056,111.347 432.188,111.347 M404.813,88.467 C403.813,88.467 403.002,89.278 403.002,90.279 C403.002,91.279 403.813,92.09 404.813,92.09 L422.157,92.09 C423.157,92.09 423.969,91.279 423.969,90.279 C423.969,89.278 423.157,88.467 422.157,88.467 L404.813,88.467 M404.813,80.282 C403.813,80.282 403.002,81.093 403.002,82.093 C403.002,83.094 403.813,83.905 404.813,83.905 L422.157,83.905 C423.157,83.905 423.969,83.094 423.969,82.093 C423.969,81.093 423.157,80.282 422.157,80.282 L404.813,80.282 M404.813,72.096 C403.813,72.096 403.002,72.907 403.002,73.908 C403.002,74.908 403.813,75.719 404.813,75.719 L422.157,75.719 C423.157,75.719 423.969,74.908 423.969,73.908 C423.969,72.907 423.157,72.096 422.157,72.096 L404.813,72.096 M404.813,63.911 C403.813,63.911 403.002,64.722 403.002,65.723 C403.002,66.723 403.813,67.534 404.813,67.534 L422.157,67.534 C423.157,67.534 423.969,66.723 423.969,65.723 C423.969,64.722 423.157,63.911 422.157,63.911 L404.813,63.911 M404.545,46.198 C402.933,46.198 401.626,47.505 401.626,49.117 C401.626,50.728 402.933,52.035 404.545,52.035 L421.05,52.035 C422.662,52.035 423.969,50.728 423.969,49.117 C423.969,47.505 422.662,46.198 421.05,46.198 L404.545,46.198 M385.361,111.347 L353.62,111.347 C353.891,110.131 354.141,108.901 354.369,107.656 L385.632,107.656 C385.548,108.901 385.458,110.127 385.361,111.347 M350.306,111.347 L331.547,111.347 C329.242,111.347 327.245,110.005 326.297,108.061 C329.885,103.222 330.669,96.376 327.881,86.777 C327.005,83.759 326.282,80.808 325.709,77.931 L325.709,46.545 C326.623,42.721 327.895,39.113 329.5,35.732 L349.625,35.732 C349.63,39.125 349.694,42.612 349.822,46.198 L335.706,46.198 C334.095,46.198 332.788,47.505 332.788,49.117 C332.788,50.728 334.095,52.035 335.706,52.035 L350.085,52.035 C350.266,55.376 350.502,58.799 350.797,62.301 L334.851,62.301 C333.711,62.301 332.788,63.224 332.788,64.364 L332.788,92.845 C332.788,93.985 333.711,94.908 334.851,94.908 L352.66,94.908 C352.496,97.607 352.232,100.246 351.875,102.826 L346.173,102.826 C344.839,102.826 343.758,103.907 343.758,105.241 C343.758,106.575 344.839,107.656 346.173,107.656 L351.082,107.656 C350.845,108.904 350.587,110.13 350.306,111.347 M385.917,102.826 L355.135,102.826 C355.481,100.244 355.736,97.605 355.894,94.908 L386.231,94.908 C386.154,97.601 386.05,100.24 385.917,102.826 M386.065,62.301 L354.041,62.301 C353.747,58.797 353.513,55.376 353.336,52.035 L386.296,52.035 C386.126,55.36 386.049,58.783 386.065,62.301 M386.697,46.198 L353.081,46.198 C352.958,42.613 352.901,39.123 352.903888,35.732 L387.993,35.732 C387.444,39.096 387.012,42.586 386.697,46.198" id="Fill-172" fill="#AEC6ED"></path>
            <path d="M388.6,111.347 L385.361,111.347 C385.458,110.127 385.548,108.901 385.632,107.656 L388.866,107.656 C388.784,108.9 388.695,110.13 388.6,111.347 M389.146,102.826 L385.917,102.826 C386.05,100.24 386.154,97.601 386.231,94.908 L389.456,94.908 C389.38,97.605 389.277,100.245 389.146,102.826 M389.289,62.301 L386.065,62.301 C386.049,58.783 386.126,55.36 386.296,52.035 L389.526,52.035 C389.353,55.356 389.274,58.779 389.289,62.301 M389.936,46.198 L386.697,46.198 C387.012,42.586 387.444,39.096 387.993,35.732 L391.264,35.732 C390.701,39.089 390.259,42.58 389.936,46.198" id="Fill-173" fill="#C2D7F4"></path>
            <path d="M353.62,111.347 L350.306,111.347 C350.587,110.13 350.845,108.904 351.082,107.656 L354.369,107.656 C354.141,108.901 353.891,110.131 353.62,111.347 M355.135,102.826 L351.875,102.826 C352.232,100.246 352.496,97.607 352.66,94.908 L355.894,94.908 C355.736,97.605 355.481,100.244 355.135,102.826 M354.041,62.301 L350.797,62.301 C350.502,58.799 350.266,55.376 350.085,52.035 L353.336,52.035 C353.513,55.376 353.747,58.797 354.041,62.301 M353.081,46.198 L349.822,46.198 C349.694,42.612 349.63,39.125 349.625,35.732 L352.904,35.732 C352.901,39.123 352.958,42.613 353.081,46.198" id="Fill-174" fill="#C2D7F4"></path>
            <path d="M434.62,110.816 C434.066,108.316 432.948,105.087 430.171,100.028 C423.452,87.79 425.981,82.989 430.741,78.742 C433.557,76.23 434.538,72.811 435.341,70.019 L435.341,109.2 C435.341,109.645 435.297,110.08 435.214,110.5 C435.023,110.616 434.824,110.722 434.62,110.816" id="Fill-175" fill="#476899"></path>
            <path d="M331.547,32.847 C328.328,32.847 325.709,35.465 325.709,38.684 L325.709,105.51 C325.709,108.728 328.328,111.347 331.547,111.347 L432.188,111.347 C435.407,111.347 438.025,108.728 438.025,105.51 L438.025,38.684 C438.025,35.465 435.407,32.847 432.188,32.847 L331.547,32.847 M432.188,112.957 L331.547,112.957 C327.44,112.957 324.1,109.616 324.1,105.51 L324.1,38.684 C324.1,34.577 327.44,31.236 331.547,31.236 L432.188,31.236 C436.294,31.236 439.636,34.577 439.636,38.684 L439.636,105.51 C439.636,109.616 436.294,112.957 432.188,112.957" id="Fill-176" fill="#4F7EB7"></path>
            <path d="M391.462,52.035 L389.526,52.035 C389.629,50.053 389.766,48.108 389.936,46.198 L391.462,46.198 C393.073,46.198 394.38,47.505 394.38,49.117 C394.38,50.728 393.073,52.035 391.462,52.035 M386.296,52.035 L353.336,52.035 C353.232,50.06 353.147,48.117 353.081,46.198 L386.697,46.198 C386.531,48.109 386.397,50.055 386.296,52.035 M350.085,52.035 L335.706,52.035 C334.095,52.035 332.788,50.728 332.788,49.117 C332.788,47.505 334.095,46.198 335.706,46.198 L349.822,46.198 C349.891,48.116 349.979,50.061 350.085,52.035" id="Fill-177" fill="#8BACE4"></path>
            <path d="M389.526,52.035 L386.296,52.035 C386.397,50.055 386.531,48.109 386.697,46.198 L389.936,46.198 C389.766,48.108 389.629,50.053 389.526,52.035" id="Fill-178" fill="#9BBBEB"></path>
            <path d="M353.336,52.035 L350.085,52.035 C349.979,50.061 349.891,48.116 349.822,46.198 L353.081,46.198 C353.147,48.117 353.232,50.06 353.336,52.035" id="Fill-179" fill="#9BBBEB"></path>
            <path d="M392.317,94.908 L389.456,94.908 C389.697,86.376 389.668,77.253 389.377,67.486 C389.325,65.734 389.296,64.006 389.289,62.301 L392.317,62.301 C393.456,62.301 394.38,63.224 394.38,64.364 L394.38,92.845 C394.38,93.985 393.456,94.908 392.317,94.908 M386.231,94.908 L355.894,94.908 C356.28,88.321 356.088,81.394 355.239,74.153 C354.763,70.102 354.365,66.151 354.041,62.301 L386.065,62.301 C386.073,64.038 386.103,65.798 386.156,67.583 C386.443,77.261 386.476,86.356 386.231,94.908 M352.66,94.908 L334.851,94.908 C333.711,94.908 332.788,93.985 332.788,92.845 L332.788,64.364 C332.788,63.224 333.711,62.301 334.851,62.301 L350.797,62.301 C351.132,66.27 351.542,70.343 352.034,74.524 C352.87,81.641 353.051,88.446 352.66,94.908" id="Fill-180" fill="#6F95D3"></path>
            <path d="M389.456,94.908 L386.231,94.908 C386.476,86.356 386.443,77.261 386.156,67.583 C386.103,65.798 386.073,64.038 386.065,62.301 L389.289,62.301 C389.296,64.006 389.325,65.734 389.377,67.486 C389.668,77.253 389.697,86.376 389.456,94.908" id="Fill-181" fill="#7BA2DA"></path>
            <path d="M355.894,94.908 L352.66,94.908 C353.051,88.446 352.87,81.641 352.034,74.524 C351.542,70.343 351.132,66.27 350.797,62.301 L354.041,62.301 C354.365,66.151 354.763,70.102 355.239,74.153 C356.088,81.394 356.28,88.321 355.894,94.908" id="Fill-182" fill="#7BA2DA"></path>
            <path d="M421.05,52.035 L404.545,52.035 C402.933,52.035 401.626,50.728 401.626,49.117 C401.626,47.505 402.933,46.198 404.545,46.198 L421.05,46.198 C422.662,46.198 423.969,47.505 423.969,49.117 C423.969,50.728 422.662,52.035 421.05,52.035" id="Fill-183" fill="#8BACE4"></path>
            <path d="M422.157,67.534 L404.813,67.534 C403.813,67.534 403.002,66.723 403.002,65.723 C403.002,64.722 403.813,63.911 404.813,63.911 L422.157,63.911 C423.157,63.911 423.969,64.722 423.969,65.723 C423.969,66.723 423.157,67.534 422.157,67.534" id="Fill-184" fill="#8BACE4"></path>
            <path d="M422.157,75.719 L404.813,75.719 C403.813,75.719 403.002,74.908 403.002,73.908 C403.002,72.907 403.813,72.096 404.813,72.096 L422.157,72.096 C423.157,72.096 423.969,72.907 423.969,73.908 C423.969,74.908 423.157,75.719 422.157,75.719" id="Fill-185" fill="#8BACE4"></path>
            <path d="M422.157,83.905 L404.813,83.905 C403.813,83.905 403.002,83.094 403.002,82.093 C403.002,81.093 403.813,80.282 404.813,80.282 L422.157,80.282 C423.157,80.282 423.969,81.093 423.969,82.093 C423.969,83.094 423.157,83.905 422.157,83.905" id="Fill-186" fill="#8BACE4"></path>
            <path d="M422.157,92.09 L404.813,92.09 C403.813,92.09 403.002,91.279 403.002,90.279 C403.002,89.278 403.813,88.467 404.813,88.467 L422.157,88.467 C423.157,88.467 423.969,89.278 423.969,90.279 C423.969,91.279 423.157,92.09 422.157,92.09" id="Fill-187" fill="#8BACE4"></path>
            <path d="M410.382,107.656 L388.866,107.656 C388.97,106.069 389.064,104.459 389.146,102.826 L410.382,102.826 C411.716,102.826 412.798,103.907 412.798,105.241 C412.798,106.575 411.716,107.656 410.382,107.656 M385.632,107.656 L354.369,107.656 C354.66,106.069 354.916,104.459 355.135,102.826 L385.917,102.826 C385.833,104.454 385.738,106.07 385.632,107.656 M351.082,107.656 L346.173,107.656 C344.839,107.656 343.758,106.575 343.758,105.241 C343.758,103.907 344.839,102.826 346.173,102.826 L351.875,102.826 C351.648,104.46 351.383,106.071 351.082,107.656" id="Fill-188" fill="#8BACE4"></path>
            <path d="M388.866,107.656 L385.632,107.656 C385.738,106.07 385.833,104.454 385.917,102.826 L389.146,102.826 C389.064,104.459 388.97,106.069 388.866,107.656" id="Fill-189" fill="#9BBBEB"></path>
            <path d="M354.369,107.656 L351.082,107.656 C351.383,106.071 351.648,104.46 351.875,102.826 L355.135,102.826 C354.916,104.459 354.66,106.069 354.369,107.656" id="Fill-190" fill="#9BBBEB"></path>
            <path d="M91.572,197.826 L10.43,197.826 C7.465,197.826 5.062,195.423 5.062,192.458 L5.062,134.757 C5.062,131.793 7.465,129.39 10.43,129.39 L105.704,129.39 C108.668,129.39 111.071,131.793 111.071,134.757 L111.071,153.548 C106.475,159.792 102.765,165.973 99.825,172.065 C98.136,170.173 96.207,168.456 94.192,167.511 C91.58,166.289 89.763,165.846 88.548,165.846 C86.864,165.846 86.335,166.697 86.447,167.511 C86.614,168.735 91.754,171.305 94.252,175.282 L76.584,175.282 C75.805,175.282 75.174,175.913 75.174,176.691 C75.174,177.469 75.805,178.1 76.584,178.1 L91.056,178.1 C90.971,179.064 91.249,180.082 91.346,180.398 C91.327,180.416 91.308,180.434 91.289,180.451 C90.697,180.147 90.198,180.016 89.779,180.016 C87.249,180.016 87.614,184.793 87.627,184.951 C87.626,184.952 87.625,184.954 87.624,184.956 C83.676,185.735 87.282,192.284 91.442,194.997 C91.613,195.207 91.786,195.416 91.962,195.623 C91.822,196.36 91.692,197.094 91.572,197.826 M60.148,185.347 C59.37,185.347 58.739,185.977 58.739,186.755 C58.739,187.533 59.37,188.164 60.148,188.164 L79.069,188.164 C79.847,188.164 80.478,187.533 80.478,186.755 C80.478,185.977 79.847,185.347 79.069,185.347 L60.148,185.347 M33.042,185.347 C32.264,185.347 31.633,185.977 31.633,186.755 C31.633,187.533 32.264,188.164 33.042,188.164 L51.962,188.164 C52.741,188.164 53.372,187.533 53.372,186.755 C53.372,185.977 52.741,185.347 51.962,185.347 L33.042,185.347 M49.477,175.282 C48.699,175.282 48.068,175.913 48.068,176.691 C48.068,177.469 48.699,178.1 49.477,178.1 L68.397,178.1 C69.176,178.1 69.807,177.469 69.807,176.691 C69.807,175.913 69.176,175.282 68.397,175.282 L49.477,175.282 M20.629,175.282 C19.852,175.282 19.221,175.913 19.221,176.691 C19.221,177.469 19.852,178.1 20.629,178.1 L39.55,178.1 C40.328,178.1 40.959,177.469 40.959,176.691 C40.959,175.913 40.328,175.282 39.55,175.282 L20.629,175.282 M64.573,138.483 C64.128,138.483 63.768,138.844 63.768,139.289 L63.768,165.798 L95.168,165.798 C95.613,165.798 95.973,165.438 95.973,164.993 C95.973,164.548 95.613,164.187 95.168,164.187 L90.874,164.187 L90.874,155.108 L86.849,155.108 L86.849,164.187 L82.689,164.187 L82.689,146.029 L78.663,146.029 L78.663,164.187 L74.369,164.187 L74.369,152.141 L70.344,152.141 L70.344,164.187 L65.378,164.187 L65.378,139.289 C65.378,138.844 65.018,138.483 64.573,138.483 M33.549,137.667 C26.013,137.667 19.894,143.785 19.894,151.338 C19.894,158.873 26.013,164.992 33.549,164.992 C37.333,164.992 40.747,163.463 43.211,160.983 L33.549,151.338 L37.929,138.391 C36.561,137.924 35.079,137.667 33.549,137.667 M41.125,139.289 L37.406,150.283 L45.611,158.475 C47.717,156.383 49.016,153.483 49.016,150.283 C49.016,145.169 45.707,140.834 41.125,139.289" id="Fill-191" fill="#C2D7F4"></path>
            <path d="M93.996,197.826 L91.572,197.826 C91.692,197.094 91.822,196.36 91.962,195.623 C92.617,196.397 93.3,197.143 93.996,197.826 M105.867,180.796 C105.867,180.796 103.375,176.042 99.825,172.065 C102.765,165.973 106.475,159.792 111.071,153.548 L111.071,174.302 C108.336,169.866 105.343,168.455 103.819,168.455 C103.418,168.455 103.118,168.552 102.952,168.719 C102.05,169.637 106.977,177.784 105.867,180.796" id="Fill-192" fill="#AEC6ED"></path>
            <path d="M105.704,197.826 L93.996,197.826 C93.3,197.143 92.617,196.397 91.962,195.623 C91.786,195.416 91.613,195.207 91.442,194.997 C92.29,195.55 93.16,195.944 93.995,196.097 C94.334,196.159 94.626,196.188 94.876,196.188 C98.272,196.188 93.995,190.863 93.995,190.863 C93.995,190.863 96.875,193.182 98.469,193.182 C98.782,193.182 99.046,193.092 99.228,192.877 C100.335,191.568 96.914,187.613 96.914,187.613 C96.914,187.613 98.732,189.496 100.1,189.496 C100.689,189.496 101.194,189.146 101.435,188.146 C102.017,185.721 98.23,180.555 96.145,177.946 C96.601,177.712 96.913,177.238 96.913,176.691 C96.913,175.913 96.282,175.282 95.504,175.282 L94.252,175.282 C91.754,171.305 86.614,168.735 86.447,167.511 C86.335,166.697 86.864,165.846 88.548,165.846 C89.763,165.846 91.58,166.289 94.192,167.511 C96.207,168.456 98.136,170.173 99.825,172.065 C103.375,176.042 105.867,180.796 105.867,180.796 C106.977,177.784 102.05,169.637 102.952,168.719 C103.118,168.552 103.418,168.455 103.819,168.455 C105.343,168.455 108.336,169.866 111.071,174.302 L111.071,192.458 C111.071,195.423 108.668,197.826 105.704,197.826" id="Fill-193" fill="#7496CF"></path>
            <path d="M94.876,196.188 C94.626,196.188 94.334,196.159 93.995,196.097 C93.16,195.944 92.29,195.55 91.442,194.997 C87.282,192.284 83.676,185.735 87.624,184.956 C87.625,184.955 87.626,184.955 87.627,184.955 C87.627,184.955 87.627,184.954 87.627,184.951 C87.614,184.793 87.249,180.016 89.779,180.016 C90.198,180.016 90.697,180.147 91.289,180.451 C91.318,180.467 91.348,180.482 91.378,180.498 C91.378,180.498 91.366,180.463 91.346,180.398 C91.249,180.082 90.971,179.064 91.056,178.1 L95.504,178.1 C95.735,178.1 95.953,178.044 96.145,177.946 C98.23,180.555 102.017,185.721 101.435,188.146 C101.194,189.146 100.689,189.496 100.1,189.496 C98.732,189.496 96.914,187.613 96.914,187.613 C96.914,187.613 100.335,191.568 99.228,192.877 C99.046,193.092 98.782,193.182 98.469,193.182 C96.875,193.182 93.995,190.863 93.995,190.863 C93.995,190.863 98.272,196.188 94.876,196.188" id="Fill-194" fill="#87A4DE"></path>
            <path d="M6.522,126.235 C4.006,126.235 1.96,128.282 1.96,130.797 L1.96,188.499 C1.96,191.015 4.006,193.061 6.522,193.061 L101.796,193.061 C104.312,193.061 106.358,191.015 106.358,188.499 L106.358,130.797 C106.358,128.282 104.312,126.235 101.796,126.235 L6.522,126.235 Z M101.796,194.671 L6.522,194.671 C3.119,194.671 0.349,191.901 0.349,188.499 L0.349,130.797 C0.349,127.394 3.119,124.625 6.522,124.625 L101.796,124.625 C105.199,124.625 107.969,127.394 107.969,130.797 L107.969,188.499 C107.969,191.901 105.199,194.671 101.796,194.671 L101.796,194.671 Z" id="Fill-195" fill="#4F7EB7"></path>
            <path d="M33.549,164.992 C26.013,164.992 19.894,158.873 19.894,151.338 C19.894,143.785 26.013,137.667 33.549,137.667 C35.079,137.667 36.561,137.924 37.929,138.391 L33.549,151.338 L43.211,160.983 C40.747,163.463 37.333,164.992 33.549,164.992" id="Fill-196" fill="#90B1E1"></path>
            <path d="M45.611,158.475 L37.406,150.283 L41.125,139.289 C45.707,140.834 49.016,145.169 49.016,150.283 C49.016,153.483 47.717,156.383 45.611,158.475" id="Fill-197" fill="#A482A0"></path>
            <path d="M95.168,165.798 L63.768,165.798 L63.768,139.289 C63.768,138.844 64.128,138.483 64.573,138.483 C65.018,138.483 65.378,138.844 65.378,139.289 L65.378,164.187 L95.168,164.187 C95.613,164.187 95.973,164.548 95.973,164.993 C95.973,165.438 95.613,165.798 95.168,165.798" id="Fill-198" fill="#9BBBEB"></path>
            <polygon id="Fill-199" fill="#9BBBEB" points="70.344 164.187 74.369 164.187 74.369 152.141 70.344 152.141"></polygon>
            <polygon id="Fill-200" fill="#A482A0" points="78.663 164.187 82.689 164.187 82.689 146.029 78.663 146.029"></polygon>
            <polygon id="Fill-201" fill="#9BBBEB" points="86.849 164.187 90.874 164.187 90.874 155.108 86.849 155.108"></polygon>
            <path d="M39.55,178.1 L20.629,178.1 C19.852,178.1 19.221,177.469 19.221,176.691 C19.221,175.913 19.852,175.282 20.629,175.282 L39.55,175.282 C40.328,175.282 40.959,175.913 40.959,176.691 C40.959,177.469 40.328,178.1 39.55,178.1" id="Fill-202" fill="#9BBBEB"></path>
            <path d="M68.397,178.1 L49.477,178.1 C48.699,178.1 48.068,177.469 48.068,176.691 C48.068,175.913 48.699,175.282 49.477,175.282 L68.397,175.282 C69.176,175.282 69.807,175.913 69.807,176.691 C69.807,177.469 69.176,178.1 68.397,178.1" id="Fill-203" fill="#9BBBEB"></path>
            <path d="M91.056,178.1 L76.584,178.1 C75.805,178.1 75.174,177.469 75.174,176.691 C75.174,175.913 75.805,175.282 76.584,175.282 L94.252,175.282 C94.476,175.639 94.679,176.007 94.855,176.387 C94.843,176.374 94.837,176.367 94.837,176.367 C94.199,176.188 93.664,176.109 93.215,176.109 C91.648,176.109 91.146,177.075 91.056,178.1" id="Fill-204" fill="#9BBBEB"></path>
            <path d="M96.145,177.946 C95.457,177.084 94.954,176.501 94.855,176.387 C94.679,176.007 94.476,175.639 94.252,175.282 L95.504,175.282 C96.282,175.282 96.913,175.913 96.913,176.691 C96.913,177.238 96.601,177.712 96.145,177.946" id="Fill-205" fill="#5D82C7"></path>
            <path d="M95.504,178.1 L91.056,178.1 C91.146,177.075 91.648,176.109 93.215,176.109 C93.664,176.109 94.199,176.188 94.837,176.367 C94.837,176.367 94.843,176.374 94.855,176.387 C94.954,176.501 95.457,177.084 96.145,177.946 C95.953,178.044 95.735,178.1 95.504,178.1" id="Fill-206" fill="#6C8ED6"></path>
            <path d="M51.962,188.164 L33.042,188.164 C32.264,188.164 31.633,187.533 31.633,186.755 C31.633,185.977 32.264,185.347 33.042,185.347 L51.962,185.347 C52.741,185.347 53.372,185.977 53.372,186.755 C53.372,187.533 52.741,188.164 51.962,188.164" id="Fill-207" fill="#9BBBEB"></path>
            <path d="M79.069,188.164 L60.148,188.164 C59.37,188.164 58.739,187.533 58.739,186.755 C58.739,185.977 59.37,185.347 60.148,185.347 L79.069,185.347 C79.847,185.347 80.478,185.977 80.478,186.755 C80.478,187.533 79.847,188.164 79.069,188.164" id="Fill-208" fill="#9BBBEB"></path>
        </g>
    </g>
</svg>