<?xml version="1.0" encoding="UTF-8"?>
<svg width="343px" height="104px" viewBox="0 0 343 104" version="1.1" xmlns="http://www.w3.org/2000/svg" xmlns:xlink="http://www.w3.org/1999/xlink">
    <!-- Generator: Sketch 62 (91390) - https://sketch.com -->
    <title>Group</title>
    <desc>Created with Sketch.</desc>
    <g id="Page-1" stroke="none" stroke-width="1" fill="none" fill-rule="evenodd">
        <g id="A4-Copy" transform="translate(-114.000000, -273.000000)">
            <g id="Group" transform="translate(117.000000, 283.000000)">
                <g id="Krim." transform="translate(126.760000, 13.720000)" fill-rule="nonzero">
                    <path d="M14.4,65.28 L14.4,36.096 L35.04,65.28 L54.432,65.28 L28.416,32.64 L53.472,-1.42108547e-14 L35.04,-1.42108547e-14 L14.4,29.184 L14.4,-1.42108547e-14 L-4.26325641e-13,-1.42108547e-14 L-4.26325641e-13,65.28 L14.4,65.28 Z M71.9372303,65.28 L71.9372303,44.16 C71.9372303,39.072 76.0652303,33.6 81.4412303,33.6 C83.6492303,33.6 85.7612303,34.272 87.2012303,36 L87.3932303,36 L87.3932303,22.944 C86.2412303,22.368 84.3212303,21.984 83.0732303,21.984 C77.7932303,21.984 74.1452303,24.96 71.9372303,28.128 L71.9372303,22.944 L57.5372303,22.944 L57.5372303,65.28 L71.9372303,65.28 Z M100.098461,16.896 C104.706461,16.896 108.546461,13.056 108.546461,8.448 C108.546461,3.744 104.706461,-1.42108547e-14 100.098461,-1.42108547e-14 C95.3944605,-1.42108547e-14 91.6504605,3.744 91.6504605,8.448 C91.6504605,13.056 95.3944605,16.896 100.098461,16.896 Z M107.298461,65.28 L107.298461,22.944 L92.8984605,22.944 L92.8984605,65.28 L107.298461,65.28 Z M132.003691,65.28 L132.003691,44.16 C132.003691,39.936 134.883691,33.6 139.779691,33.6 C144.579691,33.6 145.923691,37.728 145.923691,41.856 L145.923691,65.28 L160.323691,65.28 L160.323691,43.776 C160.323691,38.976 162.531691,33.6 168.099691,33.6 C172.899691,33.6 174.243691,37.728 174.243691,41.856 L174.243691,65.28 L188.643691,65.28 L188.643691,41.856 C188.643691,30.912 183.363691,21.984 172.323691,21.984 C165.699691,21.984 160.995691,23.904 156.867691,29.184 C153.891691,24.384 149.091691,21.984 143.715691,21.984 C139.011691,21.984 134.883691,24.48 132.003691,28.128 L132.003691,22.944 L117.603691,22.944 L117.603691,65.28 L132.003691,65.28 Z" id="Krim" fill="#FFFFFF"></path>
                    <path d="M204.708921,66.24 C209.316921,66.24 213.156921,62.496 213.156921,57.888 C213.156921,53.184 209.316921,49.44 204.708921,49.44 C200.004921,49.44 196.260921,53.184 196.260921,57.888 C196.260921,62.496 200.004921,66.24 204.708921,66.24 Z" id="." fill-opacity="0.8" fill="#E52F37"></path>
                </g>
                <g id="logo">
                    <polyline id="Line-4" stroke="#FFFFFF" stroke-width="4" stroke-linecap="square" points="46 80 39 85.7943862 46 91"></polyline>
                    <polyline id="Line-3" stroke="#FFFFFF" stroke-width="4" stroke-linecap="square" points="9.0820197 -2.30718222e-15 33.0820197 19.8174874 21.3625818 27.1870777 8 0 9.63546826 35"></polyline>
                    <polyline id="Line-2" stroke="#FFFFFF" stroke-width="4" stroke-linecap="square" points="9.51221655 36 0 56.049708 38 85"></polyline>
                    <polygon id="Line" stroke="#FFFFFF" stroke-width="4" stroke-linecap="square" points="10.5099556 35.8175849 33.4235747 21 46 21 45.6228929 79.0528467 39.7517605 84.5"></polygon>
                    <polyline id="Line-4" stroke="#FFFFFF" stroke-width="4" stroke-linecap="square" transform="translate(50.500000, 85.500000) scale(-1, 1) translate(-50.500000, -85.500000) " points="54 80 47 85.7943862 54 91"></polyline>
                    <polyline id="Line-3" stroke="#FFFFFF" stroke-width="4" stroke-linecap="square" transform="translate(72.458990, 17.500000) scale(-1, 1) translate(-72.458990, -17.500000) " points="61 -2.30718222e-15 85 19.8174874 73.2805621 27.1870777 59.9179803 0 61.5534486 35"></polyline>
                    <polyline id="Line-2" stroke="#FFFFFF" stroke-width="4" stroke-linecap="square" transform="translate(74.000000, 60.500000) scale(-1, 1) translate(-74.000000, -60.500000) " points="64.5122166 36 55 56.049708 93 85"></polyline>
                    <polygon id="Line" stroke="#FFFFFF" stroke-width="4" stroke-linecap="square" transform="translate(64.745022, 52.750000) scale(-1, 1) translate(-64.745022, -52.750000) " points="47 35.8175849 69.9136192 21 82.4900444 21 82.1129374 79.0528467 76.241805 84.5"></polygon>
                    <polygon id="Rectangle" fill="#B9443F" points="46.4490608 81.1715685 51.1419155 85.8559668 46.5109735 89.2373112 41.756206 85.5"></polygon>
                </g>
            </g>
        </g>
    </g>
</svg>