<?xml version="1.0" encoding="UTF-8"?>
<svg width="111px" height="34px" viewBox="0 0 111 34" version="1.1" xmlns="http://www.w3.org/2000/svg" xmlns:xlink="http://www.w3.org/1999/xlink">
    <!-- Generator: Sketch 62 (91390) - https://sketch.com -->
    <title>Krim</title>
    <desc>Created with Sketch.</desc>
    <g id="Page-1" stroke="none" stroke-width="1" fill="none" fill-rule="evenodd">
        <g id="Desktop-HD" transform="translate(-824.000000, -20.000000)" fill-rule="nonzero">
            <g id="Krim." transform="translate(824.880000, 20.360000)">
                <path d="M7.2,32.64 L7.2,18.048 L17.52,32.64 L27.216,32.64 L14.208,16.32 L26.736,0 L17.52,0 L7.2,14.592 L7.2,0 L-2.27373675e-13,0 L-2.27373675e-13,32.64 L7.2,32.64 Z M36.816,32.64 L36.816,22.08 C36.816,19.536 38.88,16.8 41.568,16.8 C42.672,16.8 43.728,17.136 44.448,18 L44.544,18 L44.544,11.472 C43.968,11.184 43.008,10.992 42.384,10.992 C39.744,10.992 37.92,12.48 36.816,14.064 L36.816,11.472 L29.616,11.472 L29.616,32.64 L36.816,32.64 Z M51.744,8.448 C54.048,8.448 55.968,6.528 55.968,4.224 C55.968,1.872 54.048,0 51.744,0 C49.392,0 47.52,1.872 47.52,4.224 C47.52,6.528 49.392,8.448 51.744,8.448 Z M55.344,32.64 L55.344,11.472 L48.144,11.472 L48.144,32.64 L55.344,32.64 Z M68.544,32.64 L68.544,22.08 C68.544,19.968 69.984,16.8 72.432,16.8 C74.832,16.8 75.504,18.864 75.504,20.928 L75.504,32.64 L82.704,32.64 L82.704,21.888 C82.704,19.488 83.808,16.8 86.592,16.8 C88.992,16.8 89.664,18.864 89.664,20.928 L89.664,32.64 L96.864,32.64 L96.864,20.928 C96.864,15.456 94.224,10.992 88.704,10.992 C85.392,10.992 83.04,11.952 80.976,14.592 C79.488,12.192 77.088,10.992 74.4,10.992 C72.048,10.992 69.984,12.24 68.544,14.064 L68.544,11.472 L61.344,11.472 L61.344,32.64 L68.544,32.64 Z" id="Krim" fill="#FFFFFF"></path>
                <path d="M105.744,33.12 C108.048,33.12 109.968,31.248 109.968,28.944 C109.968,26.592 108.048,24.72 105.744,24.72 C103.392,24.72 101.52,26.592 101.52,28.944 C101.52,31.248 103.392,33.12 105.744,33.12 Z" id="." fill-opacity="0.852026879" fill="#E52F37"></path>
            </g>
        </g>
    </g>
</svg>