<?xml version="1.0" encoding="UTF-8"?>
<svg width="89px" height="25px" viewBox="0 0 89 25" version="1.1" xmlns="http://www.w3.org/2000/svg" xmlns:xlink="http://www.w3.org/1999/xlink">
    <title>newline-logo-longwise-solo-lightbg-gray</title>
    <defs>
        <path d="M0,2.21920278 C0,0.993569444 1.01085174,0 2.25779761,0 L23.4628804,0 C24.7098348,0 25.7206696,0.993572222 25.7206696,2.21920278 L25.7206696,22.7808056 C25.7206696,24.0064167 24.7098348,25 23.4628804,25 L2.25779478,25 C1.01084891,25 0,24.0064167 0,22.7808056 L0,2.21920278 Z" id="path-1"></path>
    </defs>
    <g id="Page-1" stroke="none" stroke-width="1" fill="none" fill-rule="evenodd">
        <g id="Desktop-HD" transform="translate(-724.000000, -83.000000)">
            <g id="Group-2" transform="translate(556.000000, 83.000000)">
                <g id="newline-logo-longwise-solo-lightbg-gray" transform="translate(168.000000, 0.000000)">
                    <g id="Clipped">
                        <mask id="mask-2" fill="white">
                            <use xlink:href="#path-1"></use>
                        </mask>
                        <g id="Rectangle-Copy"></g>
                        <g id="Group" mask="url(#mask-2)">
                            <g transform="translate(-0.847826, 0.000000)">
                                <g id="Group" stroke-width="1" fill="none" transform="translate(1.413043, 1.111111)">
                                    <polygon id="Rectangle-2" fill="#FA5252" points="0.00715565217 19.5085 1.00251761 11.6201389 42.8420652 83.0225 38.623 85.4225"></polygon>
                                    <polygon id="Rectangle-2-Copy" fill="#BE4BDB" points="0.845031087 11.7152778 5.06398043 9.31530556 46.9034348 80.7175 42.6846522 83.1175"></polygon>
                                    <polygon id="Rectangle-2-Copy-2" fill="#4C6EF5" points="4.90651087 9.41047222 9.12546304 7.01047222 50.965087 78.4127778 46.7460217 80.8127778"></polygon>
                                    <polygon id="Rectangle-2-Copy-3" fill="#40C057" points="8.96796522 7.10572222 13.1869174 4.70572222 55.0264565 76.1080556 50.8073913 78.5080556"></polygon>
                                    <polygon id="Rectangle-2-Copy-4" fill="#FAB005" points="13.0294478 4.80088889 17.2484 2.40088889 59.0878261 73.8030556 54.8690435 76.2030556"></polygon>
                                    <polygon id="Rectangle-2-Copy-5" fill="#FD7E14" points="17.0909304 2.49605556 21.3098826 0.0960805556 63.1494783 71.4983333 58.930413 73.8983333"></polygon>
                                </g>
                                <path d="M4.40575652,0.363769444 L18.8985522,0.363769444 C21.1910174,0.363769444 23.3792848,1.43438889 23.3792848,3.6825 L23.3792848,18.2167222 C23.3792848,20.4645833 21.5211326,22.2868333 19.228413,22.2868333 L4.40575652,22.2868333 C2.24727326,22.2868333 1.30491174,20.965 1.10496496,18.8996667 C0.905017326,16.8343333 0.254890435,18.3481111 0.254890435,18.2167222 L1.10496496,4.41502778 C1.10496496,2.16718889 2.11303413,0.363769444 4.40575652,0.363769444 Z" id="Path-Copy" fill="#FFFFFF"></path>
                                <path d="M19.8213543,0 L4.99869783,0 C2.70596978,0 0.847826087,1.82224167 0.847826087,4.07008333 L0.847826087,18.6043333 C0.847826087,20.8524444 2.70622978,22.6744167 4.99869783,22.6744167 L19.8213543,22.6744167 C22.1140739,22.6744167 23.9722261,20.8521667 23.9722261,18.6043333 L23.9722261,4.07008333 C23.9722261,1.82198611 22.1138196,0 19.8213543,0 Z M4.99869783,21.5116389 C3.36106522,21.5116389 2.03369174,20.2101389 2.03369174,18.6043333 L2.03369174,4.07008333 C2.03369174,2.46433333 3.3610087,1.16279167 4.99869783,1.16279167 L19.8213543,1.16279167 C21.458987,1.16279167 22.7863435,2.46427778 22.7863435,4.07008333 L22.7863435,18.6043333 C22.7863435,20.2100833 21.4590435,21.5116389 19.8213543,21.5116389 L4.99869783,21.5116389 Z" id="Rectangle" fill="#27394B"></path>
                                <path d="M6.30966304,5.23491667 L4.47525,5.98922222 L11.191587,18.8413611 L13.1295478,18.2756389 L6.30966304,5.23491667 Z M16.362987,10.2974444 C16.9695217,10.2974444 17.3689609,10.6310833 17.3689609,11.8060556 L17.3689609,16.0852778 L19.4696478,16.0852778 L19.4696478,11.06625 C19.4696478,9.28202778 18.6707978,8.54225 17.3985217,8.54225 C16.3925761,8.54225 15.6676848,8.99191667 15.1055196,9.51413889 L15.0019717,8.70180556 L13.0492022,8.80336111 C13.15275,10.4425 13.1823391,12.6909167 13.1823391,16.0852778 L15.2830261,16.0852778 C15.2830261,13.9093889 15.2534652,12.0381389 15.2238761,10.6455833 C15.5641087,10.428 15.9339587,10.2974444 16.362987,10.2974444 L16.362987,10.2974444 Z" id="\n" fill="#27394B"></path>
                            </g>
                        </g>
                    </g>
                    <path d="M35.7063936,11.2673834 C36.3847155,11.2673834 36.8313878,11.6436171 36.8313878,12.9686408 L36.8313878,17.7943682 L39.1808558,17.7943682 L39.1808558,12.1343677 C39.1808558,10.1222989 38.2872294,9.28802575 36.8643598,9.28802575 C35.7393656,9.28802575 34.928592,9.79513184 34.2998691,10.3840436 L34.1840443,9.46796482 L32,9.58248164 C32.1158248,11.4309669 32.1490786,13.9665253 32.1490786,17.7943682 L34.4985467,17.7943682 C34.4985467,15.3406156 34.4652928,13.2303855 34.4323208,11.6599727 C34.8127672,11.4146114 35.2264675,11.2673834 35.7063936,11.2673834 Z M47.1451494,17.9906629 L47.3601721,16.0767274 C44.0181616,16.0276608 42.7773427,15.651427 42.5124392,14.2773088 L47.5588497,14.1464643 C47.8567252,11.1201555 46.7480761,9.28802575 44.3490091,9.28802575 C42.1153659,9.28802575 40.1466261,11.2510279 40.1466261,13.8356529 C40.1466261,16.5347668 41.5528688,18.1378908 47.1451494,17.9906629 Z M43.9189638,11.1692222 C44.8619073,11.1692222 45.2423537,11.7744895 45.2919526,12.8541518 C44.4318619,12.8705074 43.224015,12.9195741 42.4628403,12.9359296 C42.5456931,11.6272616 43.0253374,11.1692222 43.9189638,11.1692222 Z M53.2069291,17.7943682 L55.2748668,17.7943682 C55.5231433,16.1748887 55.9368436,12.6905683 56.0692953,9.51703152 L53.885251,9.51703152 C53.885251,11.5454837 53.8686241,12.9522852 53.8519972,15.1770321 L53.7860531,15.1770321 C53.5211497,14.2445977 53.1074494,12.9850242 52.8594547,12.1998178 L51.5524099,12.1998178 C51.3207603,12.9686408 50.923687,14.195531 50.6587835,15.1279654 L50.5928395,15.1279654 C50.5595856,12.9032185 50.5266136,11.5291282 50.5099867,9.51703152 L48.2597166,9.51703152 C48.3755414,12.6905683 48.7562696,16.1748887 49.0208912,17.7943682 L51.0395118,17.7943682 L52.0816532,14.2118866 L53.2069291,17.7943682 Z M63.9673631,17.7943682 L64.1660406,16.0603719 L61.7007478,16.0603719 L61.7007478,6.32716702 L57.1176366,6.32716702 L56.9192408,7.99571324 L59.3346529,8.12658562 L59.3346529,16.0603719 L56.885987,16.0603719 L56.885987,17.7943682 L63.9673631,17.7943682 Z M70.2771375,8.37194695 L70.4262161,6 L67.9609233,6 L67.8121265,8.37194695 L70.2771375,8.37194695 Z M72.7920292,17.7943682 L72.9907068,16.0603719 L70.2937644,16.0603719 L70.2937644,9.51703152 L65.3468336,9.51703152 L65.164783,11.1692222 L67.9279513,11.3000946 L67.9279513,16.0603719 L65.2310088,16.0603719 L65.2310088,17.7943682 L72.7920292,17.7943682 Z M77.1000918,11.2673834 C77.7784137,11.2673834 78.225086,11.6436171 78.225086,12.9686408 L78.225086,17.7943682 L80.574554,17.7943682 L80.574554,12.1343677 C80.574554,10.1222989 79.6812095,9.28802575 78.2583398,9.28802575 C77.1330639,9.28802575 76.3222902,9.79513184 75.6938491,10.3840436 L75.5780243,9.46796482 L73.39398,9.58248164 C73.5098048,11.4309669 73.5427769,13.9665253 73.5427769,17.7943682 L75.8922449,17.7943682 C75.8922449,15.3406156 75.8592729,13.2303855 75.826019,11.6599727 C76.2067473,11.4146114 76.6201657,11.2673834 77.1000918,11.2673834 Z M88.5388477,17.9906629 L88.7541521,16.0767274 C85.4118599,16.0276608 84.1710409,15.651427 83.9064193,14.2773088 L88.9525479,14.1464643 C89.2504234,11.1201555 88.1417743,9.28802575 85.7427073,9.28802575 C83.5090641,9.28802575 81.5403243,11.2510279 81.5403243,13.8356529 C81.5403243,16.5347668 82.946567,18.1378908 88.5388477,17.9906629 Z M85.312662,11.1692222 C86.2556055,11.1692222 86.6363337,11.7744895 86.6859327,12.8541518 C85.8255601,12.8705074 84.6177132,12.9195741 83.8565385,12.9359296 C83.9393913,11.6272616 84.4193174,11.1692222 85.312662,11.1692222 Z" id="newline" fill="#FFFFFF" fill-rule="nonzero"></path>
                </g>
            </g>
        </g>
    </g>
</svg>