<svg width="332" height="90" viewBox="0 0 332 90" fill="none" xmlns="http://www.w3.org/2000/svg">
<g id="newline-logo-longwise-solo-lightbg-gray" clip-path="url(#clip0)">
<g id="newline-header-logo">
<g id="Shadowed">
<mask id="mask0" mask-type="alpha" maskUnits="userSpaceOnUse" x="0" y="0" width="92" height="90">
<path id="Rectangle Copy" fill-rule="evenodd" clip-rule="evenodd" d="M0 7.98913C0 3.57685 3.57686 0 7.98913 0H83.0225C87.4348 0 91.0116 3.57686 91.0116 7.98913V82.0109C91.0116 86.4231 87.4348 90 83.0225 90H7.98912C3.57685 90 0 86.4231 0 82.0109V7.98913Z" fill="white"/>
</mask>
<g mask="url(#mask0)">
<g id="Group">
<path id="Rectangle 2" fill-rule="evenodd" clip-rule="evenodd" d="M2.02532 74.2306L5.54737 45.8325L153.595 302.881L138.666 311.521L2.02532 74.2306Z" fill="#FA5252"/>
<path id="Rectangle 2 Copy" fill-rule="evenodd" clip-rule="evenodd" d="M4.99011 46.175L19.9187 37.5351L167.966 294.583L153.038 303.223L4.99011 46.175Z" fill="#BE4BDB"/>
<path id="Rectangle 2 Copy 2" fill-rule="evenodd" clip-rule="evenodd" d="M19.3615 37.8777L34.2901 29.2377L182.338 286.286L167.409 294.926L19.3615 37.8777Z" fill="#4C6EF5"/>
<path id="Rectangle 2 Copy 3" fill-rule="evenodd" clip-rule="evenodd" d="M33.7328 29.5806L48.6614 20.9406L196.709 277.989L181.78 286.629L33.7328 29.5806Z" fill="#40C057"/>
<path id="Rectangle 2 Copy 4" fill-rule="evenodd" clip-rule="evenodd" d="M48.1042 21.2832L63.0328 12.6432L211.08 269.691L196.152 278.331L48.1042 21.2832Z" fill="#FAB005"/>
<path id="Rectangle 2 Copy 5" fill-rule="evenodd" clip-rule="evenodd" d="M62.4756 12.9858L77.4042 4.34589L225.452 261.394L210.523 270.034L62.4756 12.9858Z" fill="#FD7E14"/>
</g>
<path id="Path Copy" fill-rule="evenodd" clip-rule="evenodd" d="M12.5896 1.30957H63.8718C71.9836 1.30957 79.7267 5.1638 79.7267 13.257V65.5802C79.7267 73.6725 73.1517 80.2326 65.039 80.2326H12.5896C4.95189 80.2326 1.61738 75.474 0.909876 68.0388C0.202369 60.6036 -2.09808 66.0532 -2.09808 65.5802L0.909876 15.8941C0.909876 7.80188 4.47689 1.30957 12.5896 1.30957Z" fill="white"/>
<path id="Rectangle" fill-rule="evenodd" clip-rule="evenodd" d="M67.1371 0H14.6877C6.57497 0 0 6.56007 0 14.6523V66.9756C0 75.0688 6.57589 81.6279 14.6877 81.6279H67.1371C75.2498 81.6279 81.8248 75.0678 81.8248 66.9756V14.6523C81.8248 6.55915 75.2489 0 67.1371 0ZM14.6877 77.4419C8.893 77.4419 4.19614 72.7565 4.19614 66.9756V14.6523C4.19614 8.8716 8.8928 4.18605 14.6877 4.18605H67.1371C72.9318 4.18605 77.6286 8.8714 77.6286 14.6523V66.9756C77.6286 72.7563 72.932 77.4419 67.1371 77.4419H14.6877Z" fill="#27394B"/>
<path id="\n" fill-rule="evenodd" clip-rule="evenodd" d="M19.3265 18.8457L12.8355 21.5612L36.601 67.8289L43.4584 65.7923L19.3265 18.8457ZM54.8998 37.0708C57.046 37.0708 58.4594 38.2719 58.4594 42.5018V57.907H65.8926V39.8385C65.8926 33.4153 63.0659 30.7521 58.564 30.7521C55.0045 30.7521 52.4395 32.3709 50.4503 34.2509L50.0839 31.3265L43.1741 31.6921C43.5405 37.593 43.6452 45.6873 43.6452 57.907H51.0784C51.0784 50.0738 50.9738 43.3373 50.8691 38.3241C52.073 37.5408 53.3817 37.0708 54.8998 37.0708V37.0708Z" fill="#27394B"/>
</g>
</g>
<path id="newline" d="M130.498 38.5747C132.905 38.5747 134.49 39.925 134.49 44.6805V62H142.827V41.6863C142.827 34.465 139.656 31.4708 134.607 31.4708C130.615 31.4708 127.738 33.2908 125.507 35.4044L125.096 32.1166L117.346 32.5276C117.757 39.1618 117.875 48.2619 117.875 62H126.212C126.212 53.1935 126.094 45.6199 125.977 39.9837C127.327 39.1031 128.795 38.5747 130.498 38.5747ZM171.088 62.7045L171.851 55.8354C159.992 55.6593 155.589 54.309 154.649 49.3773L172.556 48.9077C173.613 38.0463 169.679 31.4708 161.166 31.4708C153.24 31.4708 146.254 38.516 146.254 47.7922C146.254 57.4793 151.244 63.2329 171.088 62.7045ZM159.64 38.2224C162.986 38.2224 164.336 40.3947 164.512 44.2696C161.46 44.3283 157.174 44.5044 154.473 44.5631C154.767 39.8663 156.469 38.2224 159.64 38.2224ZM192.598 62H199.936C200.817 56.1877 202.285 43.6825 202.755 32.2927H195.005C195.005 39.5728 194.946 44.6218 194.887 52.6064H194.653C193.713 49.2599 192.245 44.7393 191.365 41.9212H186.727C185.905 44.6805 184.496 49.0838 183.556 52.4303H183.322C183.204 44.4457 183.087 39.5141 183.028 32.2927H175.043C175.454 43.6825 176.805 56.1877 177.744 62H184.907L188.605 49.1425L192.598 62ZM230.781 62L231.486 55.7767H222.738V20.8443H206.475L205.771 26.8327L214.342 27.3024V55.7767H205.653V62H230.781ZM253.171 28.183L253.7 19.6701H244.952L244.424 28.183H253.171ZM262.095 62L262.8 55.7767H253.23V32.2927H235.676L235.03 38.2224L244.835 38.6921V55.7767H235.265V62H262.095ZM277.382 38.5747C279.789 38.5747 281.374 39.925 281.374 44.6805V62H289.711V41.6863C289.711 34.465 286.541 31.4708 281.492 31.4708C277.499 31.4708 274.622 33.2908 272.392 35.4044L271.981 32.1166L264.231 32.5276C264.642 39.1618 264.759 48.2619 264.759 62H273.096C273.096 53.1935 272.979 45.6199 272.861 39.9837C274.212 39.1031 275.679 38.5747 277.382 38.5747ZM317.972 62.7045L318.736 55.8354C306.876 55.6593 302.473 54.309 301.534 49.3773L319.44 48.9077C320.497 38.0463 316.563 31.4708 308.05 31.4708C300.124 31.4708 293.138 38.516 293.138 47.7922C293.138 57.4793 298.128 63.2329 317.972 62.7045ZM306.524 38.2224C309.87 38.2224 311.221 40.3947 311.397 44.2696C308.344 44.3283 304.058 44.5044 301.357 44.5631C301.651 39.8663 303.354 38.2224 306.524 38.2224Z" fill="#27394B"/>
</g>
</g>
<defs>
<clipPath id="clip0">
<rect width="332" height="90" fill="white"/>
</clipPath>
</defs>
</svg>
