<?xml version="1.0" encoding="UTF-8"?>
<svg width="334px" height="68px" viewBox="0 0 334 68" version="1.1" xmlns="http://www.w3.org/2000/svg" xmlns:xlink="http://www.w3.org/1999/xlink">
    <title>Rectangle</title>
    <g id="Page-1" stroke="none" stroke-width="1" fill="none" fill-rule="evenodd">
        <g id="big-idea" transform="translate(-347.000000, -2466.000000)" fill="#2A2727" stroke="#272727">
            <g id="Group-10" transform="translate(271.000000, 2466.000000)">
                <path d="M393.948959,3.5044787 C397.953023,3.5044787 401.578023,5.12744648 404.202007,7.75143037 C406.825991,10.3754143 408.448959,14.0004143 408.448959,18.0044787 L408.448959,18.0044787 L408.448959,50.0040895 C408.445843,54.0071042 406.822185,57.6313866 404.198569,60.2561298 C401.574953,62.880873 397.951369,64.5060883 393.948745,64.5109241 L393.948745,64.5109241 L90.8179141,64.6411754 C86.8138501,64.6428959 83.188153,63.0214859 80.5630419,60.3986298 C77.9379307,57.7757736 76.3134055,54.1514713 76.311685,50.1474072 C76.3108725,48.256399 76.6799565,46.3834913 77.3981489,44.6341736 L77.3981489,44.6341736 L90.5920536,12.4974755 C91.7088752,9.77720743 93.5919571,7.52895824 95.9309846,5.96077605 C98.270012,4.39259387 101.064985,3.5044787 104.005588,3.5044787 L104.005588,3.5044787 Z" id="Rectangle" transform="translate(238.691697, 34.077636) rotate(-1.000000) translate(-238.691697, -34.077636) "></path>
            </g>
        </g>
    </g>
</svg>