<?xml version="1.0" encoding="UTF-8"?>
<svg width="152px" height="382px" viewBox="0 0 152 382" version="1.1" xmlns="http://www.w3.org/2000/svg" xmlns:xlink="http://www.w3.org/1999/xlink">
    <!-- Generator: Sketch 64 (93537) - https://sketch.com -->
    <title>brown boy</title>
    <desc>Created with Sketch.</desc>
    <defs>
        <path d="M5.97,4.539 C5.97,4.539 16.899,10.912 22.354,0.926 L62.348,22.152 L0.058,21.772 L5.97,4.539" id="path-1"></path>
        <path d="M57.291,4.539 C57.291,4.539 46.361,10.912 40.906,0.926 L0.913,22.152 L63.203,21.772 L57.291,4.539" id="path-3"></path>
    </defs>
    <g id="Page-1" stroke="none" stroke-width="1" fill="none" fill-rule="evenodd">
        <g id="brown-boy">
            <path d="M76.979,7.31590205 C76.979,7.31590205 86.058,3.27090205 89.276,10.919902 C92.375,18.284902 80.069,25.303902 80.069,25.303902 L76.979,7.31590205" id="Fill-134" fill="#1E0B02"></path>
            <path d="M59.997,37.849902 C60.093,41.251902 57.414,44.086902 54.013,44.182902 C50.611,44.278902 47.776,41.599902 47.68,38.197902 C47.584,34.796902 50.263,31.961902 53.665,31.865902 C57.066,31.769902 59.901,34.448902 59.997,37.849902" id="Fill-135" fill="#E8A896"></path>
            <path d="M50.505,37.494902 L50.505,37.494902 C50.538,37.479902 50.787,37.377902 51.17,37.377902 C51.562,37.379902 52.094,37.478902 52.721,37.899902 C53.347,38.321902 54.071,39.075902 54.798,40.400902 C54.897,40.581902 55.124,40.648902 55.305,40.548902 C55.487,40.449902 55.553,40.222902 55.453,40.040902 C54.684,38.638902 53.888,37.784902 53.139,37.279902 C52.392,36.774902 51.695,36.628902 51.17,36.629897 C50.581,36.630902 50.212,36.804902 50.177,36.821902 C49.991,36.912902 49.914,37.135902 50.005,37.321902 C50.095,37.507902 50.319,37.584902 50.505,37.494902" id="Fill-136" fill="#A8523F"></path>
            <path d="M82.491,38.024902 C82.491,41.426902 85.25,44.184902 88.652,44.184902 C92.056,44.184902 94.813,41.426902 94.813,38.024902 C94.813,34.621902 92.056,31.862902 88.652,31.862902 C85.25,31.862902 82.491,34.621902 82.491,38.024902" id="Fill-137" fill="#E8A896"></path>
            <path d="M92.279,36.718902 C92.245,36.703902 91.905,36.554902 91.363,36.5538969 C90.844,36.552902 90.139,36.697902 89.389,37.218902 C88.638,37.739902 87.844,38.624902 87.096,40.085902 C87.002,40.269902 87.074,40.495902 87.258,40.589902 C87.442,40.683902 87.667,40.610902 87.762,40.426902 C88.469,39.045902 89.189,38.266902 89.815,37.833902 C90.442,37.401902 90.977,37.303902 91.363,37.301902 C91.564,37.301902 91.724,37.329902 91.83,37.356902 L91.947,37.391902 L91.971,37.400902 L91.974,37.392902 L91.971,37.400902 L91.974,37.392902 L91.971,37.400902 C92.159,37.485902 92.381,37.401902 92.466,37.213902 C92.551,37.025902 92.467,36.803902 92.279,36.718902" id="Fill-138" fill="#A8523F"></path>
            <path d="M79.149,52.220902 C79.149,52.220902 75.676,54.671902 72.511,55.276902 C69.345,55.881902 66.268,54.044902 66.229,54.022902 L62.532,51.896902 L61.019,72.174902 L61.428,72.512902 C66.795,76.940902 74.532,76.992902 79.958,72.638902 L80.752,72.001902 L79.149,52.220902" id="Fill-139" fill="#E8A896"></path>
            <path d="M61.019,49.763902 C61.019,49.763902 64.471,61.063902 72.415,60.938902 C78.945,60.834902 79.998,49.763902 79.998,49.763902 L61.019,49.763902" id="Fill-140" fill="#1E0B02"></path>
            <path d="M87.882,27.298902 C87.917,34.262902 86.952,40.277902 85.981,44.547902 C85.029,48.728902 82.309,51.660902 78.455,54.029902 L77.752,54.460902 C73.674,56.966902 68.389,57.051902 64.224,54.677902 C60.022,52.282902 57.073,49.112902 56.148,44.636902 C54.465,36.494902 54.24,27.468902 54.24,27.468902 C54.24,27.468902 51.875,8.63090205 70.02,8.88090205 C88.164,9.13090205 87.882,27.298902 87.882,27.298902" id="Fill-141" fill="#E8A896"></path>
            <path d="M64.702,32.823902 C64.702,33.634902 64.045,34.292902 63.234,34.292902 C62.423,34.292902 61.766,33.634902 61.766,32.823902 C61.766,32.012902 62.423,31.355902 63.234,31.355902 C64.045,31.355902 64.702,32.012902 64.702,32.823902" id="Fill-142" fill="#1E0B02"></path>
            <path d="M79.109,32.823902 C79.109,33.634902 78.451,34.292902 77.641,34.292902 C76.83,34.292902 76.172,33.634902 76.172,32.823902 C76.172,32.012902 76.83,31.355902 77.641,31.355902 C78.451,31.355902 79.109,32.012902 79.109,32.823902" id="Fill-143" fill="#1E0B02"></path>
            <path d="M68.731,34.967902 L68.731,39.017902 C68.731,39.116902 68.771,39.212902 68.84,39.282902 C68.91,39.351902 69.006,39.391902 69.105,39.391902 L71.721,39.391902 C71.928,39.391902 72.095,39.224902 72.095,39.017902 C72.095,38.811902 71.928,38.643902 71.721,38.643902 L69.479,38.643902 L69.479,34.967902 C69.479,34.761902 69.312,34.593902 69.105,34.593902 C68.898,34.593902 68.731,34.761902 68.731,34.967902" id="Fill-144" fill="#A8523F"></path>
            <path d="M57.763,26.617902 L67.357,25.753902 C67.357,25.753902 66.498,23.267902 62.619,23.670902 C58.65,24.083902 57.763,26.617902 57.763,26.617902" id="Fill-145" fill="#000000"></path>
            <path d="M82.491,26.617902 L72.898,25.753902 C72.898,25.753902 73.757,23.267902 77.636,23.670902 C81.605,24.083902 82.491,26.617902 82.491,26.617902" id="Fill-146" fill="#000000"></path>
            <path d="M65.822,42.371902 L75.286,42.371902 C75.286,42.371902 74.841,45.270902 70.413,45.270902 C65.986,45.270902 65.822,42.371902 65.822,42.371902" id="Fill-147" fill="#FFFFFF"></path>
            <path d="M54.857,36.382902 C54.857,36.382902 57.543,16.008902 56.229,12.651902 C56.229,12.651902 47.092,20.210902 54.857,36.382902" id="Fill-148" fill="#1E0B02"></path>
            <path d="M87.197,36.219902 C87.197,36.219902 84.174,16.763902 85.013,11.165902 C85.013,11.165902 93.836,18.981902 87.197,36.219902" id="Fill-149" fill="#1E0B02"></path>
            <path d="M84.381,9.77790205 L76.015,8.51290205 L75.278,7.06590205 L70.863,7.73390205 L66.447,7.06590205 L65.711,8.51290205 L57.345,9.77790205 L56.229,14.253902 L56.505,19.413902 C56.505,19.413902 57.829,13.561902 62.438,14.726902 C63.525,15.001902 64.827,15.456902 66.348,15.763902 C67.77,16.073902 69.124,16.213902 70.402,16.235902 C70.553,16.239902 70.709,16.235902 70.863,16.236902 C71.017,16.235902 71.173,16.239902 71.324,16.235902 C72.602,16.213902 73.956,16.073902 75.377,15.763902 C76.899,15.456902 78.229,15.095902 79.287,14.726902 C83.561,13.239902 85.135,19.147902 85.135,19.147902 L85.496,14.253902 L84.381,9.77790205" id="Fill-150" fill="#1E0B02"></path>
            <path d="M84.214,14.870902 C84.214,14.870902 78.772,19.725902 71.802,15.994902 C71.802,15.994902 54.067,26.919902 49.062,15.026902 C44.889,5.11190205 62.212,-8.34309795 80.084,6.81890205 L84.214,14.870902" id="Fill-151" fill="#1E0B02"></path>
            <polyline id="Fill-152" fill="#C67D69" points="92.404 326.126902 95.273 361.799902 111.042 362.295902 111.081 319.986902 92.404 326.126902"></polyline>
            <path d="M94.97,358.022902 C94.97,358.022902 105.899,364.395902 111.354,354.409902 L151.348,375.635902 L89.058,375.254902 L94.97,358.022902" id="Fill-153" fill="#101010"></path>
            <g id="Group-156" transform="translate(89.000000, 353.483902)">
                <mask id="mask-2" fill="white">
                    <use xlink:href="#path-1"></use>
                </mask>
                <g id="Clip-155"></g>
                <path d="M55.223,9.503 C55.223,9.503 39.848,11.803 41.03,30.924 L67.643,23.63 L55.223,9.503" id="Fill-154" fill="#FFFFFF" mask="url(#mask-2)"></path>
            </g>
            <polyline id="Fill-157" fill="#FFFFFF" points="151.31 381.083902 89.019 380.702902 89.058 375.254902 151.348 375.635902 151.31 381.083902"></polyline>
            <path d="M116.093,364.794902 C116.26,364.726902 116.41,364.616902 116.525,364.465902 C118.945,361.294902 121.376,359.727902 121.4,359.712902 C121.88,359.407902 122.01,358.790902 121.688,358.333902 C121.369,357.876902 120.713,357.764902 120.242,358.056902 C120.13,358.126902 117.49,359.815902 114.833,363.296902 C114.494,363.742902 114.598,364.363902 115.064,364.686902 C115.373,364.899902 115.766,364.928902 116.093,364.794902" id="Fill-158" fill="#FFFFFF"></path>
            <path d="M121.183,367.340902 C121.35,367.272902 121.5,367.162902 121.615,367.012902 C124.035,363.839902 126.467,362.274902 126.49,362.258902 C126.97,361.954902 127.1,361.337902 126.778,360.879902 C126.46,360.423902 125.801,360.305902 125.332,360.603902 C125.22,360.672902 122.581,362.362902 119.923,365.842902 C119.584,366.288902 119.688,366.910902 120.154,367.232902 C120.464,367.446902 120.855,367.474902 121.183,367.340902" id="Fill-159" fill="#FFFFFF"></path>
            <path d="M126.272,369.885902 C126.438,369.818902 126.589,369.707902 126.704,369.557902 C129.125,366.386902 131.557,364.821902 131.58,364.805902 C132.06,364.501902 132.189,363.883902 131.868,363.426902 C131.55,362.969902 130.893,362.851902 130.423,363.149902 C130.31,363.219902 127.671,364.909902 125.012,368.388902 C124.673,368.832902 124.777,369.455902 125.243,369.778902 C125.553,369.991902 125.944,370.020902 126.272,369.885902" id="Fill-160" fill="#FFFFFF"></path>
            <polyline id="Fill-161" fill="#C67D69" points="56.304 326.126902 57.26 361.799902 41.491 362.295902 37.627 319.986902 56.304 326.126902"></polyline>
            <path d="M57.291,358.022902 C57.291,358.022902 46.361,364.395902 40.906,354.409902 L0.913,375.635902 L63.203,375.254902 L57.291,358.022902" id="Fill-162" fill="#101010"></path>
            <g id="Group-165" transform="translate(0.000000, 353.483902)">
                <mask id="mask-4" fill="white">
                    <use xlink:href="#path-3"></use>
                </mask>
                <g id="Clip-164"></g>
                <path d="M8.037,9.503 C8.037,9.503 23.413,11.803 22.23,30.924 L-4.382,23.63 L8.037,9.503" id="Fill-163" fill="#FFFFFF" mask="url(#mask-4)"></path>
            </g>
            <polyline id="Fill-166" fill="#FFFFFF" points="0.951 381.083902 63.242 380.702902 63.203 375.254902 0.913 375.635902 0.951 381.083902"></polyline>
            <path d="M36.167,364.794902 C36.001,364.726902 35.851,364.616902 35.735,364.465902 C33.315,361.294902 30.884,359.727902 30.86,359.712902 C30.381,359.407902 30.251,358.790902 30.572,358.333902 C30.891,357.876902 31.547,357.764902 32.018,358.056902 C32.13,358.126902 34.77,359.815902 37.428,363.296902 C37.767,363.742902 37.663,364.363902 37.196,364.686902 C36.887,364.899902 36.495,364.928902 36.167,364.794902" id="Fill-167" fill="#FFFFFF"></path>
            <path d="M31.078,367.340902 C30.911,367.272902 30.761,367.162902 30.646,367.012902 C28.225,363.839902 25.794,362.274902 25.77,362.258902 C25.291,361.954902 25.161,361.337902 25.482,360.879902 C25.801,360.423902 26.459,360.305902 26.928,360.603902 C27.041,360.672902 29.68,362.362902 32.338,365.842902 C32.677,366.288902 32.573,366.910902 32.106,367.232902 C31.797,367.446902 31.405,367.474902 31.078,367.340902" id="Fill-168" fill="#FFFFFF"></path>
            <path d="M25.988,369.885902 C25.822,369.818902 25.671,369.707902 25.556,369.557902 C23.135,366.386902 20.704,364.821902 20.68,364.805902 C20.201,364.501902 20.071,363.883902 20.392,363.426902 C20.711,362.969902 21.368,362.851902 21.838,363.149902 C21.951,363.219902 24.59,364.909902 27.249,368.388902 C27.588,368.832902 27.483,369.455902 27.017,369.778902 C26.708,369.991902 26.316,370.020902 25.988,369.885902" id="Fill-169" fill="#FFFFFF"></path>
            <path d="M73.578,188.576902 L87.58,343.527902 L115.416,343.527902 L104.92,158.288902 L70.39,155.235902 L41.816,153.822902 L30.269,251.941902 C29.333,260.912902 36.474,268.671902 45.491,268.483902 C52.573,268.335902 58.584,263.250902 59.905,256.291902 L73.578,188.576902" id="Fill-170" fill="#7B97FB"></path>
            <path d="M61.074,187.533902 L79.001,189.813902 C79.262,189.846902 79.501,189.662902 79.534,189.401902 C79.567,189.140902 79.383,188.901902 79.122,188.868902 L61.194,186.588902 C60.933,186.554902 60.694,186.739902 60.661,187.000902 C60.628,187.261902 60.813,187.500902 61.074,187.533902" id="Fill-171" fill="#000000"></path>
            <polyline id="Fill-172" fill="#A1B9FC" points="121.016 346.240902 84.321 346.240902 82.552 329.614902 119.246 329.614902 121.016 346.240902"></polyline>
            <polyline id="Fill-173" fill="#7B97FB" points="59.905 256.291902 61.614 341.140902 32.241 341.140902 30.269 251.941902 59.905 256.291902"></polyline>
            <polygon id="Fill-174" fill="#A1B9FC" points="28.479 346.240902 65.173 346.240902 65.173 329.614902 28.479 329.614902"></polygon>
            <path d="M101.554,80.205902 L80.752,72.001902 L61.019,72.174902 L35,84.348902 C32.961,85.569902 33.345,88.040902 34.085,90.298902 L39.969,159.839902 L105.224,158.941902 L109.476,88.285902 C110.032,85.961902 103.704,81.248902 101.554,80.205902" id="Fill-175" fill="#E180A0"></path>
            <path d="M61.019,72.174902 L55.2049961,74.846902 C55.2049961,74.846902 55.142,84.591902 70.938,84.086902 C87.136,83.568902 87.1000004,74.389902 87.1000004,74.389902 L80.752,72.001902 L61.019,72.174902" id="Fill-176" fill="#E8A896"></path>
            <polyline id="Fill-177" fill="#E8A896" points="135.878 123.650902 92.01 102.704902 113.761 89.761902 133.24 101.826902 135.878 123.650902"></polyline>
            <path d="M127.738,55.370902 L136.227,52.317902 L151.261,111.559902 C153.371,117.902902 149.032,124.560902 142.377,125.191902 C136.844,125.715902 131.876,121.795902 131.101,116.291902 L127.738,55.370902" id="Fill-178" fill="#E8A896"></path>
            <path d="M127.738,55.370902 L123.69,50.901902 C121.578,48.569902 120.043,45.773902 119.21,42.738902 L117.742,37.396902 C117.394,36.126902 118.27,34.848902 119.58,34.715902 C120.686,34.603902 121.749,35.174902 122.267,36.158902 L125.001,41.364902 L125.764,18.350902 C125.775,17.357902 126.656,16.601902 127.64,16.738902 L128.3,16.831902 C129.076,16.939902 129.669,17.581902 129.716,18.364902 L129.692,32.006902 L131.887,16.339902 C131.964,15.353902 132.887,14.655902 133.856,14.851902 L134.337,14.948902 C135.152,15.113902 135.718,15.860902 135.653,16.690902 L133.853,33.059902 L137.701,20.246902 C137.98,19.231902 139.127,18.734902 140.059,19.225902 L140.246,19.324902 C140.885,19.661902 141.23,20.373902 141.099,21.083902 L138.536,34.886902 L141.162,26.752902 C141.535,25.596902 142.989,25.228902 143.868,26.066902 C144.286,26.465902 144.465,27.054902 144.339,27.618902 L137.522,58.129902 L127.738,55.370902" id="Fill-179" fill="#E8A896"></path>
            <path d="M124.917,41.728902 L124.955,41.738902 C125.399,41.858902 129.317,43.016902 131.426,47.761902 C131.51,47.950902 131.731,48.035902 131.92,47.951902 C132.108,47.867902 132.193,47.646902 132.109,47.457902 C130.916,44.774902 129.167,43.156902 127.717,42.216902 C126.267,41.276902 125.115,41.007902 125.085,40.999902 C124.884,40.953902 124.683,41.078902 124.637,41.280902 C124.59,41.481902 124.715,41.682902 124.917,41.728902" id="Fill-180" fill="#A8523F"></path>
            <path d="M129.747,100.842902 L130.65,112.126902 C130.666,112.332902 130.846,112.485902 131.052,112.469902 C131.258,112.452902 131.412,112.272902 131.395,112.066902 L130.493,100.782902 C130.477,100.576902 130.296,100.423902 130.09,100.439902 C129.884,100.456902 129.731,100.636902 129.747,100.842902" id="Fill-181" fill="#A8523F"></path>
            <path d="M98.65,79.219902 C114.926,84.157902 126.186,97.457902 126.186,97.457902 L113.943,121.750902 L85.846,108.712902 L98.65,79.219902" id="Fill-182" fill="#E180A0"></path>
            <path d="M107.838,118.391902 L99.854,114.687902 C99.615,114.576902 99.332,114.680902 99.221,114.918902 C99.11,115.157902 99.214,115.440902 99.453,115.551902 L107.437,119.255902 C107.676,119.366902 107.959,119.262902 108.07,119.024902 C108.181,118.785902 108.077,118.502902 107.838,118.391902" id="Fill-183" fill="#000000"></path>
            <path d="M22.213,106.881902 L12.317,142.523902 C11.193,148.191902 17.893,154.618902 23.331,156.060902 C28.701,157.484902 27.565,153.275902 28.972,147.759902 L42.458,114.041902 L22.213,106.881902" id="Fill-184" fill="#E8A896"></path>
            <path d="M13.275,146.653902 C15.029,153.930902 38.024,169.992902 38.024,169.992902 L51.206,170.108902 L27.287,137.060902 L13.275,146.653902" id="Fill-185" fill="#E8A896"></path>
            <path d="M55.293,173.601902 C55.293,173.601902 58.654,175.289902 61.958,174.617902 C63.78,174.247902 64.106,171.769902 62.453,170.919902 C58.146,168.703902 49.08,163.524902 45.506,162.233902 L39.284,160.498902 L33.423,166.323902 L38.024,169.992902 C38.024,169.992902 39.13,175.817902 41.379,177.798902 C41.379,177.798902 51.115,179.312902 55.293,173.601902" id="Fill-186" fill="#E8A896"></path>
            <path d="M31.431,142.149902 L27.59,136.841902 C27.469,136.673902 27.235,136.636902 27.067,136.757902 C26.9,136.878902 26.862,137.112902 26.984,137.279902 L30.825,142.588902 C30.947,142.755902 31.18,142.792902 31.348,142.671902 C31.515,142.550902 31.553,142.316902 31.431,142.149902" id="Fill-187" fill="#A8523F"></path>
            <path d="M35,84.348902 C35,84.348902 18.595,89.828902 15.215,118.956902 L47.678,128.622902 L56.71,100.457902 L35,84.348902" id="Fill-188" fill="#E180A0"></path>
            <path d="M37.896,126.152902 L36.437,109.969902 C36.413,109.706902 36.182,109.513902 35.92,109.537902 C35.658,109.560902 35.464,109.792902 35.488,110.054902 L36.947,126.237902 C36.971,126.499902 37.202,126.693902 37.464,126.669902 C37.726,126.645902 37.919,126.414902 37.896,126.152902" id="Fill-189" fill="#000000"></path>
        </g>
    </g>
</svg>