<?xml version="1.0" encoding="UTF-8"?>
<svg width="222px" height="226px" viewBox="0 0 222 226" version="1.1" xmlns="http://www.w3.org/2000/svg" xmlns:xlink="http://www.w3.org/1999/xlink">
    <!-- Generator: Sketch 53.2 (72643) - https://sketchapp.com -->
    <title>logo</title>
    <desc>Created with Sketch.</desc>
    <defs>
        <path d="M218.664835,107.5025 C219.104739,123.947724 215.905435,139.646569 209.830565,153.808638 C209.830565,153.808638 209.782957,153.894759 209.702974,154.055517 C206.113278,162.37669 201.5238,170.160086 196.064035,177.256431 C191.744974,182.902121 186.88127,188.111466 181.56433,192.807914 L181.551,192.830879 C174.640122,198.914828 166.938939,204.150966 158.637887,208.351741 C151.033826,212.188897 142.90607,215.174414 134.397443,217.139879 C130.794417,217.997259 127.109504,218.657517 123.359843,219.126397 L123.287478,219.139793 C119.77967,219.578052 116.23187,219.855552 112.632652,219.953155 C104.746748,220.165586 97.0455652,219.51681 89.6071826,218.125483 C81.1880609,216.554259 73.1098174,214.007 65.4943304,210.600448 C63.953713,209.921052 62.4492783,209.203379 60.9562696,208.447431 C55.106113,205.484879 49.5358957,202.038138 44.3408348,198.103379 C40.0541478,194.865241 36.0264522,191.328552 32.2729826,187.500966 C30.4086261,185.617793 28.6261565,183.659983 26.9046261,181.639017 C21.6905217,175.537845 17.1391304,168.833828 13.3704261,161.666672 C9.79215652,154.897586 6.90897391,147.682586 4.80847826,140.140328 C4.5152087,139.145155 4.2447913,138.149983 4.01055652,137.141414 C2.63561739,131.744517 1.69677391,126.19069 1.19212174,120.502897 C1.0911913,119.477103 1.01692174,118.45131 0.952173913,117.414034 C0.855052174,116.082034 0.794113043,114.738552 0.757930435,113.368276 C0.375156522,98.9535862 2.78225217,85.1226034 7.48408696,72.380569 C22.4941565,31.6722759 60.9619826,2.17689655 106.793922,0.9425 C166.971313,-0.678482759 217.053757,47.0285517 218.664835,107.5025" id="path-1"></path>
        <linearGradient x1="50.3952801%" y1="-16.6223444%" x2="50.3952798%" y2="64.7556874%" id="linearGradient-3">
            <stop stop-color="#FFFFD6" offset="0%"></stop>
            <stop stop-color="#FFD02C" offset="100%"></stop>
        </linearGradient>
        <path d="M128.681159,40.0316024 L112.542319,68.029012 L43.6272464,157.160964 C37.2968116,152.322 31.5146377,146.797229 26.3768116,140.678602 C21.2182609,134.57147 16.7172464,127.860904 12.9868116,120.686747 C9.44666667,113.912964 6.5942029,106.690916 4.51608696,99.1412892 C4.22594203,98.1451446 3.9584058,97.1470843 3.72666667,96.1375301 C2.36826087,90.7372771 1.43942029,85.1761084 0.940144928,79.482759 C25.4328986,33.0336867 94.606087,26.8748313 94.606087,26.8748313 C95.9004348,18.8788554 105.190725,17.0953735 112.608261,12.9134819 C120.025797,8.7296747 124.528696,0.400373494 124.528696,0.400373494 L128.681159,40.0316024" id="path-4"></path>
        <path d="M0.035,0.3305 L0.0335,0.2735 C0.0335,0.2735 0.14,0.2705 0.035,0.3305" id="path-6"></path>
        <linearGradient x1="-1.4%" y1="1.40165289%" x2="2.06%" y2="2.19165289%" id="linearGradient-8">
            <stop stop-color="#FFFFFE" offset="0%"></stop>
            <stop stop-color="#53BDC9" offset="100%"></stop>
        </linearGradient>
        <path d="M127.51913,65.4457143 L127.507826,65.4709184 C111.747681,79.6879592 91.9047826,89.284898 69.9347826,92.1077551 L69.8631884,92.1232653 C66.3946377,92.5653061 62.8827536,92.8483673 59.3218841,92.9472449 C51.52,93.1605102 43.9027536,92.5032653 36.5417391,91.0957143 C28.2123188,89.5020408 20.2201449,86.9215306 12.6857971,83.472449 C12.844058,81.7081633 13.0211594,79.6821429 13.2133333,77.3594898 C16.6630435,36.3582653 -17.6305797,68.2937755 14.664058,38.2737755 C46.9492754,8.25377551 15.5288406,15.9371429 46.9492754,8.25377551 C71.4627536,2.24744898 75.2007246,0.993061224 75.6623188,0.719693878 L76.8134783,20.8054082 C76.8134783,20.8054082 58.7510145,45.1157143 73.3618841,62.6868367 C87.9727536,80.2579592 127.51913,65.4457143 127.51913,65.4457143" id="path-9"></path>
        <linearGradient x1="65.8437235%" y1="92.1812433%" x2="38.3024029%" y2="31.0197895%" id="linearGradient-11">
            <stop stop-color="#FFFFFF" offset="0%"></stop>
            <stop stop-color="#E3E3E3" offset="100%"></stop>
        </linearGradient>
        <path d="M165.129348,86.2984894 C165.129348,86.2984894 163.396494,96.1456596 155.676045,102.721351 C152.676584,105.264979 148.786157,107.31567 143.736719,108.107064 C132.82427,109.820787 121.539955,109.4145 110.535011,108.990883 C96.6061124,108.459436 83.5757303,106.279734 70.3282697,111.996638 C61.9754607,115.608936 55.085573,122.581287 51.3990112,131.042074 C47.1876854,140.735202 48.8506966,152.101617 54.5004045,160.922479 C60.9051685,170.915989 71.1493933,175.854979 82.5299775,177.279872 C88.9120899,178.090521 95.3866966,177.851755 101.77636,177.123904 C101.164764,177.264468 100.564494,177.403106 99.9642247,177.530191 C96.9760899,178.202202 93.9256629,178.729798 90.8337079,179.120681 L90.7619775,179.136085 C87.2868315,179.575106 83.7682697,179.856234 80.2006292,179.954436 C72.3839101,180.166245 64.7521798,179.513489 57.3771685,178.115553 C49.0319101,176.532766 41.0245393,173.969883 33.4758652,170.544362 C31.948764,169.858872 30.4575281,169.136798 28.977618,168.378138 C23.1787865,165.395489 17.6574382,161.927606 12.5079551,157.970638 C8.2588764,154.712638 4.26840449,151.15233 0.545977528,147.301266 C-0.169438202,127.450957 3.08485393,104.267553 17.1383371,85.2201915 C41.7286292,51.8873085 85.2481798,42.7333298 85.2481798,42.7333298 C85.2481798,42.7333298 77.7278202,37.0915213 74.9888539,36.2423617 C74.9888539,36.2423617 96.0870112,35.3585426 93.563236,0.40243617 C93.563236,0.40243617 102.865528,27.4176489 102.28791,34.8444255 C102.28791,34.8444255 120.194067,47.5895213 121.826876,51.8295426 C123.471011,56.0695638 124.662112,65.1465213 129.705888,68.3448298 C134.762876,71.5431383 165.129348,86.2984894 165.129348,86.2984894" id="path-12"></path>
        <path d="M0.572,0.494 C0.572,0.494 7.276,1.27183333 10.512,3.52516667 C13.748,5.7785 14.902,11.2883333 14.902,11.2883333 C14.902,11.2883333 8.2,9.22783333 6.582,8.7555 C4.964,8.28316667 0.572,0.494 0.572,0.494" id="path-14"></path>
        <path d="M124.077682,25.9525 C121.020061,28.5211111 117.054197,30.5919444 111.906848,31.3911111 C100.782803,33.1216667 89.2796818,32.7113889 78.0613485,32.2836111 C63.8623636,31.7469444 50.5793182,29.5458333 37.0749848,35.3188889 C28.5602121,38.9666667 21.5367273,46.0075 17.7786818,54.5513889 C13.485697,64.3397222 15.1809545,75.8177778 20.9402121,84.7252778 C27.4691667,94.8169444 37.9120303,99.8044444 49.5132879,101.243333 C56.0191515,102.061944 62.619303,101.820833 69.1328636,101.085833 C68.5094091,101.227778 67.8975,101.367778 67.2855909,101.496111 C15.2309848,112.501667 -6.69768182,71.4252778 2.86387879,34.4536111 C9.5544697,8.58472222 35.0025758,8.64694444 35.0025758,8.64694444 C32.9744242,5.87805556 17.724803,5.23444444 17.724803,5.23444444 C50.5100455,-10.6575 80.9169242,16.5530556 98.258197,22.3980556 C115.601394,28.245 124.077682,25.9525 124.077682,25.9525" id="path-16"></path>
    </defs>
    <g id="Page-1" stroke="none" stroke-width="1" fill="none" fill-rule="evenodd">
        <g id="A4-Copy" transform="translate(-38.000000, -311.000000)">
            <g id="Group-3" transform="translate(38.000000, 311.000000)">
                <g id="logo">
                    <g id="Group-53" transform="translate(3.000000, 0.000000)">
                        <mask id="mask-2" fill="white">
                            <use xlink:href="#path-1"></use>
                        </mask>
                        <g id="Clip-52"></g>
                        <path d="M218.664835,107.5025 C219.104739,123.947724 215.905435,139.646569 209.830565,153.808638 C209.830565,153.808638 209.782957,153.894759 209.702974,154.055517 C206.113278,162.37669 201.5238,170.160086 196.064035,177.256431 C191.744974,182.902121 186.88127,188.111466 181.56433,192.807914 L181.551,192.830879 C174.640122,198.914828 166.938939,204.150966 158.637887,208.351741 C151.033826,212.188897 142.90607,215.174414 134.397443,217.139879 C130.794417,217.997259 127.109504,218.657517 123.359843,219.126397 L123.287478,219.139793 C119.77967,219.578052 116.23187,219.855552 112.632652,219.953155 C104.746748,220.165586 97.0455652,219.51681 89.6071826,218.125483 C81.1880609,216.554259 73.1098174,214.007 65.4943304,210.600448 C63.953713,209.921052 62.4492783,209.203379 60.9562696,208.447431 C55.106113,205.484879 49.5358957,202.038138 44.3408348,198.103379 C40.0541478,194.865241 36.0264522,191.328552 32.2729826,187.500966 C30.4086261,185.617793 28.6261565,183.659983 26.9046261,181.639017 C21.6905217,175.537845 17.1391304,168.833828 13.3704261,161.666672 C9.79215652,154.897586 6.90897391,147.682586 4.80847826,140.140328 C4.5152087,139.145155 4.2447913,138.149983 4.01055652,137.141414 C2.63561739,131.744517 1.69677391,126.19069 1.19212174,120.502897 C1.0911913,119.477103 1.01692174,118.45131 0.952173913,117.414034 C0.855052174,116.082034 0.794113043,114.738552 0.757930435,113.368276 C0.375156522,98.9535862 2.78225217,85.1226034 7.48408696,72.380569 C22.4941565,31.6722759 60.9619826,2.17689655 106.793922,0.9425 C166.971313,-0.678482759 217.053757,47.0285517 218.664835,107.5025" id="Fill-51" fill="url(#linearGradient-3)" mask="url(#mask-2)"></path>
                        <path d="M218.664835,107.5025 C219.104739,123.947724 215.905435,139.646569 209.830565,153.808638 C209.830565,153.808638 209.782957,153.894759 209.702974,154.055517 C206.113278,162.37669 201.5238,170.160086 196.064035,177.256431 C191.744974,182.902121 186.88127,188.111466 181.56433,192.807914 L181.551,192.830879 C174.640122,198.914828 166.938939,204.150966 158.637887,208.351741 C151.033826,212.188897 142.90607,215.174414 134.397443,217.139879 C130.794417,217.997259 127.109504,218.657517 123.359843,219.126397 L123.287478,219.139793 C119.77967,219.578052 116.23187,219.855552 112.632652,219.953155 C104.746748,220.165586 97.0455652,219.51681 89.6071826,218.125483 C81.1880609,216.554259 73.1098174,214.007 65.4943304,210.600448 C63.953713,209.921052 62.4492783,209.203379 60.9562696,208.447431 C55.106113,205.484879 49.5358957,202.038138 44.3408348,198.103379 C40.0541478,194.865241 36.0264522,191.328552 32.2729826,187.500966 C30.4086261,185.617793 28.6261565,183.659983 26.9046261,181.639017 C21.6905217,175.537845 17.1391304,168.833828 13.3704261,161.666672 C9.79215652,154.897586 6.90897391,147.682586 4.80847826,140.140328 C4.5152087,139.145155 4.2447913,138.149983 4.01055652,137.141414 C2.63561739,131.744517 1.69677391,126.19069 1.19212174,120.502897 C1.0911913,119.477103 1.01692174,118.45131 0.952173913,117.414034 C0.855052174,116.082034 0.794113043,114.738552 0.757930435,113.368276 C0.375156522,98.9535862 2.78225217,85.1226034 7.48408696,72.380569 C22.4941565,31.6722759 60.9619826,2.17689655 106.793922,0.9425 C166.971313,-0.678482759 217.053757,47.0285517 218.664835,107.5025" id="Fill-51" fill="url(#linearGradient-3)" mask="url(#mask-2)"></path>
                    </g>
                    <g id="Group-62" transform="translate(0.000000, 46.000000)">
                        <mask id="mask-5" fill="white">
                            <use xlink:href="#path-4"></use>
                        </mask>
                        <g id="Clip-61"></g>
                        <path d="M128.681159,40.0316024 L112.542319,68.029012 L43.6272464,157.160964 C37.2968116,152.322 31.5146377,146.797229 26.3768116,140.678602 C21.2182609,134.57147 16.7172464,127.860904 12.9868116,120.686747 C9.44666667,113.912964 6.5942029,106.690916 4.51608696,99.1412892 C4.22594203,98.1451446 3.9584058,97.1470843 3.72666667,96.1375301 C2.36826087,90.7372771 1.43942029,85.1761084 0.940144928,79.482759 C25.4328986,33.0336867 94.606087,26.8748313 94.606087,26.8748313 C95.9004348,18.8788554 105.190725,17.0953735 112.608261,12.9134819 C120.025797,8.7296747 124.528696,0.400373494 124.528696,0.400373494 L128.681159,40.0316024" id="Fill-60" fill="#FFFFFF" mask="url(#mask-5)"></path>
                    </g>
                    <g id="Group-65" transform="translate(128.000000, 133.000000)">
                        <mask id="mask-7" fill="white">
                            <use xlink:href="#path-6"></use>
                        </mask>
                        <g id="Clip-64"></g>
                        <path d="M0.035,0.3305 L0.0335,0.2735 C0.0335,0.2735 0.14,0.2705 0.035,0.3305" id="Fill-63" fill="url(#linearGradient-8)" mask="url(#mask-7)"></path>
                    </g>
                    <g id="Group-68" transform="translate(52.000000, 133.000000)">
                        <mask id="mask-10" fill="white">
                            <use xlink:href="#path-9"></use>
                        </mask>
                        <g id="Clip-67"></g>
                        <path d="M127.51913,65.4457143 L127.507826,65.4709184 C111.747681,79.6879592 91.9047826,89.284898 69.9347826,92.1077551 L69.8631884,92.1232653 C66.3946377,92.5653061 62.8827536,92.8483673 59.3218841,92.9472449 C51.52,93.1605102 43.9027536,92.5032653 36.5417391,91.0957143 C28.2123188,89.5020408 20.2201449,86.9215306 12.6857971,83.472449 C12.844058,81.7081633 13.0211594,79.6821429 13.2133333,77.3594898 C16.6630435,36.3582653 -17.6305797,68.2937755 14.664058,38.2737755 C46.9492754,8.25377551 15.5288406,15.9371429 46.9492754,8.25377551 C71.4627536,2.24744898 75.2007246,0.993061224 75.6623188,0.719693878 L76.8134783,20.8054082 C76.8134783,20.8054082 58.7510145,45.1157143 73.3618841,62.6868367 C87.9727536,80.2579592 127.51913,65.4457143 127.51913,65.4457143" id="Fill-66" fill="url(#linearGradient-11)" mask="url(#mask-10)"></path>
                    </g>
                    <g id="Group-71" transform="translate(33.000000, 46.000000)">
                        <mask id="mask-13" fill="white">
                            <use xlink:href="#path-12"></use>
                        </mask>
                        <g id="Clip-70"></g>
                        <path d="M165.129348,86.2984894 C165.129348,86.2984894 163.396494,96.1456596 155.676045,102.721351 C152.676584,105.264979 148.786157,107.31567 143.736719,108.107064 C132.82427,109.820787 121.539955,109.4145 110.535011,108.990883 C96.6061124,108.459436 83.5757303,106.279734 70.3282697,111.996638 C61.9754607,115.608936 55.085573,122.581287 51.3990112,131.042074 C47.1876854,140.735202 48.8506966,152.101617 54.5004045,160.922479 C60.9051685,170.915989 71.1493933,175.854979 82.5299775,177.279872 C88.9120899,178.090521 95.3866966,177.851755 101.77636,177.123904 C101.164764,177.264468 100.564494,177.403106 99.9642247,177.530191 C96.9760899,178.202202 93.9256629,178.729798 90.8337079,179.120681 L90.7619775,179.136085 C87.2868315,179.575106 83.7682697,179.856234 80.2006292,179.954436 C72.3839101,180.166245 64.7521798,179.513489 57.3771685,178.115553 C49.0319101,176.532766 41.0245393,173.969883 33.4758652,170.544362 C31.948764,169.858872 30.4575281,169.136798 28.977618,168.378138 C23.1787865,165.395489 17.6574382,161.927606 12.5079551,157.970638 C8.2588764,154.712638 4.26840449,151.15233 0.545977528,147.301266 C-0.169438202,127.450957 3.08485393,104.267553 17.1383371,85.2201915 C41.7286292,51.8873085 85.2481798,42.7333298 85.2481798,42.7333298 C85.2481798,42.7333298 77.7278202,37.0915213 74.9888539,36.2423617 C74.9888539,36.2423617 96.0870112,35.3585426 93.563236,0.40243617 C93.563236,0.40243617 102.865528,27.4176489 102.28791,34.8444255 C102.28791,34.8444255 120.194067,47.5895213 121.826876,51.8295426 C123.471011,56.0695638 124.662112,65.1465213 129.705888,68.3448298 C134.762876,71.5431383 165.129348,86.2984894 165.129348,86.2984894" id="Fill-69" fill="#F4F4F4" mask="url(#mask-13)"></path>
                    </g>
                    <g id="Group-74" transform="translate(137.000000, 97.000000)">
                        <mask id="mask-15" fill="white">
                            <use xlink:href="#path-14"></use>
                        </mask>
                        <g id="Clip-73"></g>
                        <path d="M0.572,0.494 C0.572,0.494 7.276,1.27183333 10.512,3.52516667 C13.748,5.7785 14.902,11.2883333 14.902,11.2883333 C14.902,11.2883333 8.2,9.22783333 6.582,8.7555 C4.964,8.28316667 0.572,0.494 0.572,0.494" id="Fill-72" fill="#FF6F6F" mask="url(#mask-15)"></path>
                    </g>
                    <g id="Group-77" transform="translate(64.000000, 122.000000)">
                        <mask id="mask-17" fill="white">
                            <use xlink:href="#path-16"></use>
                        </mask>
                        <g id="Clip-76"></g>
                        <path d="M124.077682,25.9525 C121.020061,28.5211111 117.054197,30.5919444 111.906848,31.3911111 C100.782803,33.1216667 89.2796818,32.7113889 78.0613485,32.2836111 C63.8623636,31.7469444 50.5793182,29.5458333 37.0749848,35.3188889 C28.5602121,38.9666667 21.5367273,46.0075 17.7786818,54.5513889 C13.485697,64.3397222 15.1809545,75.8177778 20.9402121,84.7252778 C27.4691667,94.8169444 37.9120303,99.8044444 49.5132879,101.243333 C56.0191515,102.061944 62.619303,101.820833 69.1328636,101.085833 C68.5094091,101.227778 67.8975,101.367778 67.2855909,101.496111 C15.2309848,112.501667 -6.69768182,71.4252778 2.86387879,34.4536111 C9.5544697,8.58472222 35.0025758,8.64694444 35.0025758,8.64694444 C32.9744242,5.87805556 17.724803,5.23444444 17.724803,5.23444444 C50.5100455,-10.6575 80.9169242,16.5530556 98.258197,22.3980556 C115.601394,28.245 124.077682,25.9525 124.077682,25.9525" id="Fill-75" fill="#FFFFFF" mask="url(#mask-17)"></path>
                    </g>
                </g>
            </g>
        </g>
    </g>
</svg>