<?xml version="1.0" encoding="UTF-8"?>
<svg width="83px" height="87px" viewBox="0 0 83 87" version="1.1" xmlns="http://www.w3.org/2000/svg" xmlns:xlink="http://www.w3.org/1999/xlink">
    <title>Group 11</title>
    <g id="Page-1" stroke="none" stroke-width="1" fill="none" fill-rule="evenodd">
        <g id="big-idea" transform="translate(-271.000000, -2466.000000)" fill="#0A0B09">
            <g id="Group-10" transform="translate(271.000000, 2466.000000)">
                <g id="Group-11" transform="translate(41.500000, 43.499543) rotate(-11.000000) translate(-41.500000, -43.499543) translate(7.000000, 5.999543)">
                    <path d="M65.3181075,37.6247676 C64.3980749,40.7526664 62.2362925,44.2466185 59.1780177,45.1262074 C59.4379417,41.7786767 59.4153822,38.3812778 59.2574662,34.9955501 C59.5428921,34.7907725 59.7449462,34.4724653 59.7115974,34.0289572 C59.701789,33.9101226 59.6811912,33.8072032 59.6664786,33.6979178 C59.6674594,33.6979178 59.6694211,33.6979178 59.6704019,33.6968567 C59.6674594,33.6820024 59.6625552,33.666087 59.6605935,33.6501717 C59.6380341,33.5090555 59.6105704,33.3721834 59.5772217,33.2437995 C59.5723174,33.221518 59.5683941,33.2002975 59.5634898,33.176955 C60.3952464,32.3185865 60.847416,31.3954956 62.3039708,31.8496139 C64.5628569,32.5541339 66.0213734,35.2395856 65.3181075,37.6247676 Z M36.1114855,71.922369 C32.1694694,72.2661408 26.887619,72.3393514 23.1005764,71.1181128 C17.3322269,69.2570767 14.4563893,62.9026038 12.4799866,57.2622001 C10.0445484,50.3103708 9.02741211,42.9914271 9.25692984,35.653385 C9.77775854,35.739328 10.3544954,35.5165129 10.5712622,34.8289694 C11.50895,31.8474919 13.0586851,29.2596543 15.1557318,27.080311 C15.3352264,26.8925097 15.4215408,26.6930372 15.4696022,26.4914426 C21.1388864,24.9402255 26.6541779,24.5359754 32.9119691,24.5232431 C38.3370229,24.5136939 43.7748276,23.5343687 49.0606014,24.1731052 C50.0424273,25.6617218 51.7039787,26.6707557 53.0457747,27.7561833 C53.9981752,28.8681364 54.9986371,29.9227943 56.0599114,30.9137907 C56.2972759,31.2660507 56.5081576,31.6374091 56.6964799,32.0236219 C57.4821367,49.0435081 55.144783,70.2576223 36.1114855,71.922369 Z M2.68330655,42.104411 C2.3488384,40.9733594 2.31548967,39.7499987 2.37532121,38.5722621 C2.40278487,38.0184076 2.34099164,37.0794013 2.59110712,36.5870862 C2.79806541,36.180714 6.42032606,33.6575988 6.33989677,35.9388005 C6.32027987,36.4958381 6.59295478,36.847037 6.95096321,37.0168009 C6.92546124,40.0332922 7.10201334,43.0370512 7.49140881,46.0111015 C5.37768781,45.5102981 3.43071045,44.6317702 2.68330655,42.104411 Z M18.1218071,9.81638917 C23.1456953,9.16704248 28.1999896,10.8413384 32.9306051,12.5559532 C39.5866194,14.9665998 45.8679509,18.2366758 51.8128525,22.1889902 C51.7039787,22.1645867 51.5931432,22.1529154 51.4842694,22.1316949 C50.9889427,21.9714803 50.4847884,21.8812933 49.9767107,21.8717441 C45.0891599,21.1831395 40.1054864,21.8176318 34.9452608,21.9852736 C30.7962864,22.1200237 26.6424077,21.5895117 22.5061843,22.0924371 C18.0207801,22.6378034 13.7580276,24.1274811 9.56001095,25.847401 C5.19525063,18.0616068 10.6340362,10.7851041 18.1218071,9.81638917 Z M30.8561179,3.30170171 C32.8315398,3.22106388 34.8089233,3.40992616 36.7696325,3.65183963 C39.133469,3.94256022 41.4629759,4.41896 43.7522682,5.08952718 C43.7875786,5.21897211 43.8425059,5.35053909 43.9356862,5.48210606 C46.5437531,9.19569012 48.4044161,13.2732054 49.5353304,17.7040417 C41.5738114,12.6461402 32.4490102,8.26198899 23.6616197,7.32510478 C24.7974383,4.6884601 28.5687873,3.39613285 30.8561179,3.30170171 Z M67.9889485,35.034808 C67.6034764,32.3663326 65.1307661,30.4044992 62.967022,29.4485166 C61.0337765,28.5954533 60.1402267,29.2002369 59.1123011,30.2336743 C59.056393,30.1604637 58.999504,30.087253 58.9435958,30.0140424 C58.9004386,29.4644319 58.8513964,28.9201266 58.8052966,28.3726382 C58.8072583,28.3397465 58.7974499,28.3057937 58.796469,28.2718409 C58.7425226,27.6362875 58.6934803,26.9964901 58.6356104,26.3641197 C58.796469,26.1710134 58.917113,25.9259168 58.9279023,25.5969994 C59.0946459,20.5359148 59.4683479,13.4228098 56.3708393,9.19781217 C53.8333933,5.73250773 48.9144555,4.11550713 45.1735126,2.92291613 C38.854909,0.90909255 23.4173893,-2.870275 21.248741,7.15746299 C20.7632227,7.14154763 20.2757427,7.113961 19.7921862,7.12138817 C9.72185038,7.29115201 1.70540407,17.2488624 7.7003288,27.3678485 C7.41686459,29.289363 7.2187339,31.2140605 7.09318574,33.136636 C7.08730067,33.1536124 7.07945391,33.1674057 7.07454968,33.1843821 C6.2251379,32.6400768 5.17171035,32.3504173 4.2575628,32.3069153 C1.49648408,32.1742873 0.522504979,34.4724653 0.203730349,37.0603029 C-0.112101746,39.6184318 -0.0463851296,42.5203325 1.27187057,44.7750085 C2.7519657,47.3076728 5.31589457,48.1289054 7.8876702,48.6307698 C8.64095917,52.9470155 9.85034108,57.1858064 11.5511263,61.2898473 C16.1601171,72.4040739 23.470355,74.794561 34.2518034,74.4995963 C43.2069184,74.2566218 50.4455546,69.6751201 54.8995718,61.1996603 C57.1329559,56.9502591 58.334491,52.3878558 58.9190747,47.6917635 C61.3005664,47.2387063 63.1975206,45.9601723 64.7384281,43.868894 C66.3587841,41.6683302 68.4156161,37.992943 67.9889485,35.034808 L67.9889485,35.034808 Z" id="Fill-171"></path>
                    <path d="M50.8493865,32.8860464 C49.3453166,31.4574473 47.3746376,31.6198436 45.5657825,31.6894421 C43.7013316,31.7602615 41.7594433,31.9202158 40.2871425,33.451381 C39.7133126,34.0484621 40.5412956,35.0582497 41.1121472,34.4660527 C42.9418507,32.5636959 48.3277115,32.2889653 50.2606647,34.1241657 C50.8543504,34.6870582 51.4361227,33.4428338 50.8493865,32.8860464" id="Fill-172"></path>
                    <path d="M26.1093075,34.7277246 C22.8313235,32.7682354 19.2564443,32.4147544 15.7711939,33.7650289 C15.0999121,34.0253091 15.387471,35.315344 16.0634209,35.0527907 C19.2629798,33.8127659 22.535362,34.0764558 25.556597,35.8813682 C26.186799,36.2587176 26.7441776,35.1062106 26.1093075,34.7277246" id="Fill-173"></path>
                    <path d="M49.5532711,42.0411537 C49.4062072,42.8986905 48.4290898,43.2168818 47.53588,43.2563736 C47.8336166,43.0893796 48.0907528,42.7689316 48.2125541,42.2679496 C48.3695425,41.6191554 48.3370622,40.8327039 48.0853394,40.2267865 C48.0627836,40.1726263 48.0357166,40.1195944 48.0077474,40.0676909 C49.0056162,40.2662783 49.7508599,40.8834791 49.5532711,42.0411537 Z M44.2580707,41.2693707 C44.5918965,40.7266402 45.2974421,40.3339786 46.0877974,40.1365195 C45.8496081,40.7977255 45.7332202,41.6563905 45.9299068,42.3209815 C46.0462948,42.7125148 46.2420791,42.9878292 46.4703439,43.1649782 C46.4477881,43.1593365 46.4234278,43.1548232 46.4026764,43.1491815 C45.51488,42.8953055 44.8490327,42.0941856 44.2580707,41.2693707 Z M50.4997126,41.8312829 C50.1000238,38.18788 44.8093345,38.4191893 43.5868099,40.9669761 C43.5525251,41.0369331 43.5426006,41.1057617 43.5407961,41.1700769 C43.49388,41.3099908 43.497489,41.4769848 43.5976367,41.6214121 C44.8400104,43.3962875 46.1563671,44.3418346 48.0754148,44.0033332 C48.977647,43.8442376 50.6702345,43.3748491 50.4997126,41.8312829 L50.4997126,41.8312829 Z" id="Fill-174"></path>
                    <path d="M20.5216346,40.2056019 C20.4936672,40.2575054 20.4656998,40.3105373 20.4440476,40.3646975 C20.1914389,40.970615 20.1589606,41.7570664 20.3168411,42.4058607 C20.4386346,42.9068427 20.6948521,43.2272906 20.9925695,43.3942846 C20.1003193,43.3547928 19.1232646,43.0366015 18.9762102,42.1790648 C18.7786341,41.0213902 19.5229278,40.4041894 20.5216346,40.2056019 Z M22.1257003,43.2870925 C22.1049503,43.2927342 22.0805916,43.2972476 22.0598416,43.3028893 C22.2871895,43.1257402 22.4829613,42.8504258 22.5984396,42.4588926 C22.7951136,41.7943016 22.6796353,40.9356365 22.4405591,40.2744305 C23.2317659,40.4718896 23.9372661,40.8645512 24.2701683,41.4072817 C23.6801464,42.2320967 23.0134397,43.0332165 22.1257003,43.2870925 Z M20.4530694,44.1412443 C22.372896,44.4797456 23.6891682,43.5341985 24.9305598,41.7593231 C25.0316034,41.6148959 25.0343099,41.4479019 24.988299,41.307988 C24.9864946,41.2436727 24.9756686,41.1748441 24.9422881,41.1048872 C23.7189399,38.5571003 18.4294927,38.3257911 18.0289273,41.9691939 C17.8584164,43.5127601 19.5517974,43.9821486 20.4530694,44.1412443 L20.4530694,44.1412443 Z" id="Fill-175"></path>
                    <path d="M32.5505998,50.8431086 C32.5244374,51.1863141 32.4151158,53.5478199 32.0058608,53.8259528 C32.0712669,53.7818714 31.770399,51.4287621 31.7862834,50.9900468 C31.8600988,49.0284227 32.3870847,47.0688977 32.7627023,45.1597515 C32.9150049,44.3851776 31.8572957,44.0556163 31.7040586,44.8312398 C31.3275066,46.7435347 30.8154707,48.6915145 30.6996085,50.6552377 C30.6323337,51.8003056 30.5314216,53.8616378 31.2209882,54.8156861 C32.9028581,57.1394078 33.5849498,51.7016472 33.6494215,50.8431086 C33.7073525,50.0517418 32.6085309,50.0569896 32.5505998,50.8431086" id="Fill-176"></path>
                    <path d="M50.4056629,46.5855532 C50.1623242,46.3380952 49.9178992,46.0927613 49.6745605,45.8453032 C49.1009765,45.2664851 48.1993198,46.150112 48.7718175,46.7278682 C49.0151562,46.9742641 49.2595812,47.2206601 49.5029199,47.4681182 C50.0765039,48.0458743 50.9781605,47.1633093 50.4056629,46.5855532" id="Fill-177"></path>
                    <path d="M51.7207655,46.0736676 C51.6742404,45.866964 51.6284203,45.6615208 51.5818953,45.4548172 C51.3866311,44.5813683 50.5851314,44.9632659 50.7832153,45.8493186 C50.8297404,46.0547618 50.8755605,46.2614654 50.9213806,46.4669086 C51.1173497,47.3403575 51.9188494,46.9597203 51.7207655,46.0736676" id="Fill-178"></path>
                    <path d="M16.6601014,46.6069809 C16.29612,46.9401889 16.0458827,47.2929398 15.8782596,47.7179998 C15.6004843,48.4225245 16.958231,48.7254408 17.234809,48.0228704 C17.3270017,47.7903088 17.4551136,47.601719 17.655064,47.4189921 C18.254915,46.8678798 17.2635444,46.0529372 16.6601014,46.6069809" id="Fill-179"></path>
                    <path d="M18.9011871,47.5302985 C18.9004314,47.5988483 18.8996757,47.6685218 18.8989201,47.7370715 C18.5475322,48.3955984 19.171718,49.3361906 19.5268842,48.6720448 C19.7142911,48.3203061 19.8223523,47.9887951 19.7891027,47.5302985 C19.7294046,46.6930928 18.8414889,46.6841027 18.9011871,47.5302985" id="Fill-180"></path>
                    <path d="M35.3188321,63.1124543 C34.6181481,63.3124436 31.11279,64.4801231 31.2271478,62.7920414 C31.228117,62.7812893 31.2232713,62.7726876 31.2232713,62.7608602 C32.4521334,62.5952777 33.7653101,62.1856222 34.8497712,61.8308024 C35.9400471,61.4738323 37.225119,61.177074 38.2669382,60.688928 C38.41037,62.2544357 36.2879663,62.8350498 35.3188321,63.1124543 Z M29.8761748,61.0824554 C30.953852,60.6201145 32.0412205,60.2029325 33.1731692,59.9212271 C34.0395751,59.7029592 34.9214871,59.5481288 35.8063066,59.4599615 C36.2743984,59.4148026 36.7444284,59.3857719 37.2144585,59.3750198 C37.9868584,59.2610474 38.1399816,59.3019054 37.6747972,59.4975939 C37.4509272,59.834135 36.3906945,59.8954221 36.0311457,60.0265979 C35.4138073,60.2545427 34.8168206,60.5287215 34.1868835,60.7136579 C33.4677859,60.9243993 32.7302749,61.0544999 32.0005169,61.2093303 C31.4733079,61.3211523 29.9885944,61.2663165 29.6300148,61.5426458 C29.7889528,61.4200717 29.8606687,61.253414 29.8761748,61.0824554 Z M38.6235795,58.1310003 C37.4945383,57.6718851 35.4128381,58.2062651 34.2547228,58.4084048 C32.4753926,58.7202161 30.7842535,59.3094319 29.1163737,60.0513277 C28.822726,60.1814283 28.7209669,60.4867883 28.7481027,60.765268 C27.9873324,61.71683 28.9700344,62.815696 30.0884152,62.8382755 C29.9110637,66.1262717 34.3778029,64.7112936 35.9090348,64.2478775 C37.8065994,63.6747899 39.9241575,62.2641126 39.2496402,59.8835947 C39.6586148,59.2556713 39.5626705,58.5116251 38.6235795,58.1310003 L38.6235795,58.1310003 Z" id="Fill-181"></path>
                </g>
            </g>
        </g>
    </g>
</svg>