<?xml version="1.0" encoding="UTF-8"?>
<svg width="318px" height="180px" viewBox="0 0 318 180" version="1.1" xmlns="http://www.w3.org/2000/svg" xmlns:xlink="http://www.w3.org/1999/xlink">
    <!-- Generator: Sketch 53.2 (72643) - https://sketchapp.com -->
    <title>Group 2</title>
    <desc>Created with Sketch.</desc>
    <g id="Page-1" stroke="none" stroke-width="1" fill="none" fill-rule="evenodd">
        <g id="641" transform="translate(-247.000000, -269.000000)">
            <g id="Group-2" transform="translate(246.960000, 269.652051)">
                <g id="man-with-curly-hair-on-chair" transform="translate(203.082000, 2.275324)">
                    <path d="M17.924,163.085625 L19.05,171.928625 C19.05,171.928625 8.584,175.228625 11.081,175.816625 C13.578,176.405625 30.705,173.938625 30.705,173.938625 C30.705,173.938625 29.547,163.108625 29.672,163.108625 C29.798,163.108625 17.924,163.085625 17.924,163.085625" id="Fill-389" fill="#5E4B44"></path>
                    <polyline id="Fill-390" fill="#A28675" points="95.044 116.787625 112.312 176.062625 114.286 176.062625 101.036 116.587625 95.044 116.787625"></polyline>
                    <polyline id="Fill-391" fill="#A28675" points="63.826 117.581625 50.77 175.159625 53.086 175.159625 70.561 117.563625 63.826 117.581625"></polyline>
                    <polyline id="Fill-392" fill="#A28675" points="79.233 116.587625 81.245 175.907625 84.004 175.907625 85.214 116.815625 79.233 116.587625"></polyline>
                    <polyline id="Fill-393" fill="#A28675" points="63.239 141.019625 102.671 139.783625 102.932 143.866625 60.279 145.502625 63.239 141.019625"></polyline>
                    <path d="M69.747,120.248625 L63.221,120.248625 L63.826,117.581625 L65.271,117.577625 C65.731,117.580625 66.195,117.581625 66.664,117.581625 C67.633,117.581625 68.619,117.576625 69.62,117.566625 L70.561,117.563625 L69.747,120.248625" id="Fill-394" fill="#8A766C"></path>
                    <path d="M85.144,120.248625 L85.144,120.248625 L85.207,117.162625 L85.144,120.248625 M79.357,120.248625 L79.357,120.248625 L79.268,117.608625 L79.357,120.248625" id="Fill-395" fill="#C9CCCC"></path>
                    <path d="M85.144,120.248625 L79.357,120.248625 L79.268,117.608625 L79.259,117.362625 C81.261,117.302625 83.255,117.233625 85.207,117.162625 L85.144,120.248625" id="Fill-396" fill="#8A766C"></path>
                    <polyline id="Fill-397" fill="#C9CCCC" points="76.702 140.597625 76.702 140.597625 76.719 140.596625 76.702 140.597625"></polyline>
                    <path d="M80.188,144.738625 L77.677,144.738625 L76.702,140.597625 L76.719,140.596625 L80.044,140.510625 L80.188,144.738625 M80.044,140.510625 L80.044,140.492625 L80.709,140.492625 L80.044,140.510625" id="Fill-398" fill="#8A766C"></path>
                    <polyline id="Fill-399" fill="#C9CCCC" points="84.732 144.564625 84.732 144.564625 86.561 144.494625 84.732 144.564625"></polyline>
                    <polyline id="Fill-400" fill="#8A766C" points="84.732 144.564625 84.732 140.346625 87.187 140.269625 86.635 144.491625 86.561 144.494625 84.732 144.564625"></polyline>
                    <polyline id="Fill-401" fill="#C9CCCC" points="101.552 118.905625 101.552 118.905625 101.036 116.587625 101.552 118.905625"></polyline>
                    <path d="M101.552,118.905625 L95.661,118.905625 L95.044,116.787625 C95.072,116.786625 95.098,116.785625 95.126,116.784625 L101.02,116.587625 C101.025,116.587625 101.031,116.587625 101.036,116.587625 L101.552,118.905625" id="Fill-402" fill="#8A766C"></path>
                    <path d="M50.258,112.986625 C55.867,110.238625 78.53,111.719625 78.53,111.719625 C78.53,111.719625 72.13,32.2796247 80.404,31.6446247 C88.677,31.0086247 107.197,25.1156247 110.798,37.0636247 C114.399,49.0136247 109.595,116.526625 104.807,116.526625 C93.892,116.526625 60.649,118.896625 50.61,116.532625 C48.023,115.923625 50.258,112.986625 50.258,112.986625" id="Fill-403" fill="#202A36"></path>
                    <path d="M103.67,38.4366247 C103.705,38.4166247 103.864,38.6346247 104.136,39.0706247 C104.279,39.2856247 104.427,39.5666247 104.6,39.9016247 C104.782,40.2316247 104.958,40.6296247 105.154,41.0776247 C105.934,42.8716247 106.741,45.6286247 107.107,49.1086247 C107.493,52.5896247 107.517,56.7346247 107.44,61.3226247 C107.361,65.9146247 107.083,70.9556247 106.672,76.2326247 C106.253,81.5116247 105.747,86.5266247 105.269,91.0836247 C104.798,95.6386247 104.336,99.7566247 103.694,103.181625 C103.066,106.607625 102.285,109.328625 101.627,111.161625 C100.963,112.993625 100.466,113.952625 100.404,113.927625 C100.318,113.893625 100.671,112.880625 101.196,111.023625 C101.715,109.167625 102.366,106.452625 102.884,103.044625 C103.417,99.6376247 103.792,95.5416247 104.205,90.9796247 C104.624,86.4166247 105.096,81.4056247 105.514,76.1426247 C105.924,70.8796247 106.233,65.8626247 106.371,61.2966247 C106.505,56.7296247 106.565,52.6086247 106.29,49.1886247 C106.033,45.7606247 105.369,43.0496247 104.732,41.2406247 C104.095,39.4306247 103.583,38.4836247 103.67,38.4366247" id="Fill-404" fill="#2B4553"></path>
                    <path d="M21.187,68.2956247 L19.127,67.1916247 C19.127,67.1916247 17.792,66.7166247 15.632,65.4036247 C15.072,65.0636247 14.569,64.6306247 14.138,64.1326247 C13.616,63.5276247 12.952,62.6996247 12.719,62.1476247 C12.431,61.4626247 11.489,61.4056247 11.344,62.0276247 C11.2,62.6496247 11.949,64.5516247 13.681,66.2526247 C15.414,67.9526247 11.761,67.4426247 10.429,67.2806247 C9.097,67.1186247 4.97,66.8096247 4.634,67.1756247 C4.141,67.7126247 4.679,68.3956247 6.01,68.5266247 C7.358,68.6596247 11.333,69.3306247 11.279,70.0236247 C11.226,70.7066247 4.447,69.7896247 4.447,69.7896247 C4.447,69.7896247 3.007,69.3616247 2.919,70.1576247 C2.757,71.5946247 9.986,72.0436247 10.673,72.0696247 C11.151,72.0886247 11.12,72.8456247 10.605,72.7996247 C10.076,72.7516247 3.85,71.7286247 3.672,73.1886247 C3.535,74.3086247 9.62,73.6136247 10.86,74.5336247 C12.1,75.4536247 6.148,74.5856247 6.062,75.6646247 C6.03,76.0666247 6.062,76.3766247 9.506,76.3876247 C13.035,76.3986247 22.45,74.8686247 22.45,74.8686247 L21.088,68.1966247" id="Fill-405" fill="#EFA78C"></path>
                    <path d="M66.152,38.7136247 C66.152,38.7136247 48.412,62.5466247 44.342,63.6096247 C40.272,64.6746247 17.017,66.0706247 17.017,66.0706247 L14.947,76.1446247 C14.947,76.1446247 44.716,77.7156247 51.272,72.8766247 C61.574,65.2716247 72.397,47.7776247 72.397,47.7776247 C72.67,42.0086247 70.467,39.1276247 66.152,38.7136247" id="Fill-406" fill="#4AB8B3"></path>
                    <path d="M43.28,154.786625 L48.749,161.826625 C48.749,161.826625 41.417,169.992625 43.866,169.229625 C46.315,168.464625 59.804,157.626625 59.804,157.626625 C59.804,157.626625 53.297,148.893625 53.406,148.828625 C53.515,148.765625 43.28,154.786625 43.28,154.786625" id="Fill-407" fill="#5E4B44"></path>
                    <polyline id="Fill-408" fill="#EEA555" points="35.26 102.112625 58.359 150.792625 43.683 159.054625 19.685 115.455625 21.197 101.104625 35.26 102.112625"></polyline>
                    <path d="M89.872,83.2756247 C89.872,83.2756247 99.755,104.397625 80.268,111.645625 L69.87,89.0466247 L89.872,83.2756247" id="Fill-409" fill="#F6C37F"></path>
                    <path d="M76.319,88.8796247 C76.319,88.8796247 20.066,73.4306247 13.746,86.4006247 C7.425,99.3726247 14.947,166.925625 14.947,166.925625 L32.553,165.073625 C32.553,165.073625 29.625,105.757625 32.553,103.672625 C35.481,101.588625 76.012,111.830625 80.268,111.645625 C90.625,111.193625 97.951,91.8726247 76.319,88.8796247" id="Fill-410" fill="#F6C37F"></path>
                    <path d="M77.513,32.3466247 C70.124,32.5026247 64.119,38.3536247 63.779,45.7376247 C63.496,51.8736247 63.233,59.3986247 63.203,66.5806247 C63.187,70.4836247 58.167,84.6716247 58.167,84.6716247 L60.066,85.6756247 C62.663,87.0466247 65.496,87.9466247 68.42,88.1966247 C73.973,88.6726247 78.83,88.1506247 84.765,86.5436247 L90.442,85.0066247 C90.442,85.0066247 93.714,67.9306247 95.569,51.8996247 C97.118,38.5016247 94.562,33.3026247 86.439,32.1556247 L77.513,32.3466247" id="Fill-411" fill="#71C4C1"></path>
                    <path d="M85.213,94.7856247 C85.172,94.8506247 84.37,94.3826247 83.046,93.6896247 C81.722,92.9976247 79.861,92.1076247 77.728,91.3146247 C75.593,90.5256247 73.601,89.9866247 72.146,89.6486247 C70.691,89.3106247 69.778,89.1426247 69.789,89.0666247 C69.797,89.0066247 70.729,89.0516247 72.216,89.3046247 C73.703,89.5566247 75.738,90.0486247 77.901,90.8486247 C80.062,91.6516247 81.926,92.6056247 83.216,93.3836247 C84.51,94.1606247 85.247,94.7346247 85.213,94.7856247" id="Fill-412" fill="#EEA555"></path>
                    <path d="M87.74,91.6176247 C87.701,91.7636247 86.052,91.3476247 83.993,91.4286247 C81.932,91.4876247 80.316,92.0146247 80.268,91.8726247 C80.211,91.7616247 81.819,90.9956247 83.976,90.9316247 C86.132,90.8496247 87.789,91.5026247 87.74,91.6176247" id="Fill-413" fill="#EEA555"></path>
                    <path d="M56.594,151.786625 C56.579,151.793625 56.487,151.635625 56.326,151.328625 C56.161,151.004625 55.932,150.554625 55.642,149.981625 C55.337,149.393625 54.967,148.682625 54.541,147.858625 C54.103,147.032625 53.607,146.094625 53.059,145.060625 C50.824,140.911625 47.751,135.209625 44.355,128.909625 C40.953,122.601625 37.905,116.871625 35.776,112.683625 C35.252,111.634625 34.777,110.684625 34.359,109.847625 C33.961,109.008625 33.616,108.282625 33.331,107.684625 C33.06,107.084625 32.863,106.612625 32.73,106.293625 C32.599,105.973625 32.538,105.801625 32.553,105.794625 C32.569,105.787625 32.661,105.945625 32.822,106.251625 C32.986,106.576625 33.214,107.026625 33.505,107.599625 C33.81,108.187625 34.179,108.898625 34.607,109.721625 C35.045,110.548625 35.541,111.485625 36.088,112.521625 C38.324,116.668625 41.397,122.371625 44.794,128.673625 C48.194,134.980625 51.243,140.708625 53.371,144.897625 C53.895,145.945625 54.37,146.896625 54.789,147.733625 C55.187,148.572625 55.532,149.297625 55.816,149.897625 C56.088,150.496625 56.284,150.968625 56.418,151.287625 C56.548,151.607625 56.61,151.779625 56.594,151.786625" id="Fill-414" fill="#D28A3F"></path>
                    <path d="M87.187,108.773625 C87.185,108.781625 87.076,108.763625 86.866,108.718625 C86.647,108.669625 86.337,108.599625 85.932,108.508625 C85.107,108.313625 83.904,108.028625 82.357,107.662625 C79.252,106.928625 74.756,105.873625 69.182,104.663625 C63.608,103.451625 56.954,102.086625 49.535,100.731625 C45.826,100.053625 41.926,99.3766247 37.877,98.7186247 C36.864,98.5566247 35.841,98.3936247 34.812,98.2286247 C33.788,98.0706247 32.752,97.9306247 31.737,98.0406247 C30.721,98.1336247 29.765,98.5766247 29.072,99.3256247 C28.369,100.067625 27.938,101.057625 27.639,102.073625 C27.34,103.098625 27.176,104.157625 27.047,105.223625 C26.915,106.288625 26.783,107.346625 26.651,108.396625 C26.548,109.448625 26.446,110.494625 26.344,111.531625 C26.24,112.568625 26.186,113.602625 26.106,114.623625 C25.836,118.713625 25.702,122.668625 25.707,126.437625 C25.704,133.975625 26.074,140.760625 26.463,146.449625 C26.859,152.140625 27.258,156.739625 27.524,159.919625 C27.652,161.504625 27.752,162.735625 27.82,163.581625 C27.848,163.995625 27.87,164.312625 27.885,164.535625 C27.897,164.750625 27.899,164.860625 27.89,164.861625 C27.882,164.862625 27.863,164.754625 27.835,164.540625 C27.808,164.317625 27.77,164.002625 27.72,163.591625 C27.63,162.747625 27.5,161.518625 27.331,159.937625 C27.005,156.763625 26.553,152.166625 26.111,146.475625 C25.678,140.784625 25.27,133.991625 25.249,126.437625 C25.231,122.660625 25.355,118.693625 25.62,114.590625 C25.699,113.565625 25.751,112.529625 25.854,111.488625 C25.956,110.447625 26.057,109.398625 26.159,108.341625 C26.291,107.287625 26.422,106.226625 26.555,105.156625 C26.684,104.090625 26.85,103.001625 27.162,101.934625 C27.474,100.875625 27.926,99.8156247 28.71,98.9856247 C29.096,98.5716247 29.562,98.2326247 30.071,97.9866247 C30.583,97.7416247 31.134,97.6086247 31.682,97.5496247 C32.782,97.4316247 33.855,97.5836247 34.887,97.7426247 C35.919,97.9086247 36.941,98.0736247 37.955,98.2366247 C42.007,98.9016247 45.909,99.5906247 49.618,100.280625 C57.039,101.661625 63.69,103.063625 69.258,104.319625 C74.826,105.575625 79.311,106.682625 82.403,107.475625 C83.95,107.867625 85.147,108.189625 85.958,108.410625 C86.356,108.523625 86.663,108.608625 86.878,108.668625 C87.085,108.730625 87.189,108.765625 87.187,108.773625" id="Fill-415" fill="#EEA555"></path>
                    <path d="M32.715,103.524625 C32.623,103.626625 31.739,102.972625 30.743,102.063625 C30.62,101.948625 30.501,101.837625 30.382,101.727625 L30.724,101.381625 C31.466,102.211625 31.964,102.892625 31.877,102.973625 C31.789,103.055625 31.144,102.512625 30.368,101.713625 L30.711,101.367625 C30.832,101.475625 30.953,101.583625 31.078,101.695625 C32.075,102.604625 32.807,103.423625 32.715,103.524625" id="Fill-416" fill="#EEA555"></path>
                    <path d="M33.241,103.939625 C33.106,103.968625 32.795,103.021625 32.545,101.824625 C32.295,100.627625 32.201,99.6356247 32.336,99.6066247 C32.469,99.5786247 32.781,100.525625 33.031,101.723625 C33.281,102.918625 33.375,103.911625 33.241,103.939625" id="Fill-417" fill="#EEA555"></path>
                    <polyline id="Fill-418" fill="#AD5035" points="17.017 66.0706247 14.947 76.1446247 18.608 76.3336247 20.777 65.5036247 17.017 66.0706247"></polyline>
                    <path d="M99.432,113.829625 C99.366,114.159625 94.213,113.350625 87.822,112.837625 C81.43,112.304625 76.215,112.266625 76.205,111.930625 C76.187,111.625625 81.445,111.141625 87.917,111.680625 C94.388,112.199625 99.499,113.531625 99.432,113.829625" id="Fill-419" fill="#2B4553"></path>
                    <path d="M97.469,61.7166247 C97.418,61.7576247 97.23,61.6946247 97.144,61.3726247 C97.064,61.0536247 97.223,60.5546247 97.678,60.2256247 C97.904,60.0646247 98.223,59.9276247 98.62,59.9646247 C98.824,59.9906247 99.006,60.0546247 99.166,60.1486247 C99.333,60.2406247 99.484,60.3686247 99.609,60.5166247 C100.107,61.1176247 100.244,61.9546247 99.973,62.7526247 C99.692,63.5246247 99.075,64.1156247 98.31,64.2786247 C98.122,64.3156247 97.928,64.3266247 97.745,64.3016247 C97.564,64.2846247 97.359,64.2126247 97.205,64.1276247 C96.89,63.9426247 96.696,63.6876247 96.578,63.4406247 C96.342,62.9446247 96.415,62.4456247 96.606,62.1976247 C96.797,61.9446247 96.984,61.9366247 97.024,61.9916247 C97.08,62.0566247 97.023,62.1906247 97.024,62.3696247 C97.018,62.5416247 97.088,62.7936247 97.283,63.0206247 C97.379,63.1306247 97.506,63.2236247 97.631,63.2646247 L97.822,63.2826247 L98.058,63.2386247 C98.374,63.1416247 98.732,62.7896247 98.88,62.3636247 C99.029,61.9586247 98.958,61.4506247 98.772,61.1826247 C98.565,60.9006247 98.386,60.8356247 98.096,60.9326247 C97.825,61.0336247 97.658,61.2276247 97.595,61.3716247 C97.527,61.5236247 97.542,61.6716247 97.469,61.7166247" id="Fill-420" fill="#2B4553"></path>
                    <polyline id="Fill-421" fill="#94B7CF" points="0 45.6896247 11.224 78.4896247 62.051 78.4896247 61.676 76.8016247 41.125 76.1656247 31.656 45.6716247 0 45.6896247"></polyline>
                    <path d="M23.177,63.5936247 C23.394,64.8146247 22.725,65.9556247 21.682,66.1416247 C20.639,66.3266247 19.619,65.4856247 19.401,64.2646247 C19.184,63.0426247 19.853,61.9016247 20.896,61.7166247 C21.939,61.5306247 22.96,62.3716247 23.177,63.5936247" id="Fill-422" fill="#FFFFFE"></path>
                    <path d="M47.641,71.9396247 L45.547,70.9016247 C45.547,70.9016247 44.196,70.4696247 41.996,69.2276247 C41.425,68.9046247 40.908,68.4886247 40.462,68.0046247 C39.92,67.4176247 39.229,66.6106247 38.979,66.0656247 C38.67,65.3906247 37.726,65.3646247 37.601,65.9906247 C37.477,66.6166247 38.287,68.4936247 40.073,70.1386247 C41.859,71.7816247 38.192,71.3906247 36.856,71.2716247 C35.519,71.1516247 31.384,70.9746247 31.06,71.3516247 C30.585,71.9046247 31.144,72.5696247 32.479,72.6576247 C33.831,72.7476247 37.825,73.2906247 37.793,73.9846247 C37.762,74.6696247 30.957,73.9706247 30.957,73.9706247 C30.957,73.9706247 29.505,73.5886247 29.441,74.3876247 C29.326,75.8286247 36.566,76.0456247 37.254,76.0496247 C37.732,76.0526247 37.724,76.8106247 37.21,76.7796247 C36.678,76.7496247 30.422,75.9276247 30.292,77.3926247 C30.191,78.5166247 36.251,77.6256247 37.519,78.5066247 C38.789,79.3866247 32.811,78.7096247 32.76,79.7906247 C32.741,80.1936247 32.784,80.5016247 36.226,80.4016247 C39.753,80.2996247 49.114,78.4686247 49.114,78.4686247 L47.538,71.8436247" id="Fill-423" fill="#EFA78C"></path>
                    <path d="M87.808,34.7056247 C87.808,34.7056247 74.307,61.1726247 70.472,62.9016247 C66.637,64.6316247 43.932,70.2316247 43.932,70.2316247 L43.614,79.4606247 C43.614,79.4606247 73.202,76.7446247 78.855,70.8776247 C85.686,63.7856247 91.843,50.8786247 94.323,45.2926247 C95.37,42.9356247 95.378,40.1976247 94.143,37.9346247 C92.831,35.5256247 90.69,34.4966247 87.808,34.7056247" id="Fill-424" fill="#71C4C1"></path>
                    <path d="M74.098,33.6086247 C74.259,32.4466247 73.634,27.6066247 73.634,27.6066247 C73.634,27.6066247 69.187,27.2806247 68.777,22.8946247 C68.367,18.5086247 68.31,8.36362472 68.31,8.36362472 L76.256,4.15862472 L85.351,10.6006247 L87.425,15.4096247 L84.701,26.8526247 L84.712,32.6176247 L74.098,33.6086247" id="Fill-425" fill="#EFA78C"></path>
                    <path d="M68.904,15.3246247 C68.914,15.6356247 69.173,15.8796247 69.484,15.8686247 C69.795,15.8586247 70.039,15.5996247 70.029,15.2886247 C70.018,14.9786247 69.758,14.7336247 69.448,14.7436247 C69.137,14.7536247 68.893,15.0146247 68.904,15.3246247" id="Fill-426" fill="#17152A"></path>
                    <path d="M68.865,15.1276247 C68.94,15.1976247 69.344,14.8316247 69.949,14.7796247 C70.552,14.7186247 71.017,15.0046247 71.078,14.9216247 C71.108,14.8846247 71.028,14.7526247 70.825,14.6226247 C70.626,14.4926247 70.292,14.3796247 69.915,14.4146247 C69.539,14.4496247 69.231,14.6226247 69.059,14.7876247 C68.883,14.9526247 68.829,15.0976247 68.865,15.1276247" id="Fill-427" fill="#17152A"></path>
                    <path d="M75.812,14.6696247 C75.561,14.8536247 75.506,15.2056247 75.69,15.4566247 C75.874,15.7066247 76.226,15.7616247 76.477,15.5776247 C76.728,15.3946247 76.782,15.0416247 76.598,14.7906247 C76.415,14.5406247 76.062,14.4856247 75.812,14.6696247" id="Fill-428" fill="#17152A"></path>
                    <path d="M75.579,14.9126247 C75.654,14.9826247 76.058,14.6156247 76.663,14.5646247 C77.266,14.5036247 77.731,14.7886247 77.792,14.7056247 C77.822,14.6686247 77.742,14.5366247 77.539,14.4066247 C77.338,14.2776247 77.005,14.1636247 76.629,14.1986247 C76.252,14.2336247 75.945,14.4076247 75.772,14.5716247 C75.596,14.7366247 75.543,14.8816247 75.579,14.9126247" id="Fill-429" fill="#17152A"></path>
                    <path d="M73.558,20.0976247 C73.558,20.0656247 73.178,20.0346247 72.563,20.0096247 C72.41,20.0076247 72.254,19.9906247 72.215,19.8746247 C72.169,19.7546247 72.223,19.5726247 72.285,19.3796247 C72.404,18.9786247 72.528,18.5546247 72.66,18.1096247 C72.919,17.2086247 73.141,16.3886247 73.291,15.7916247 C73.441,15.1936247 73.518,14.8206247 73.487,14.8126247 C73.457,14.8036247 73.323,15.1606247 73.133,15.7456247 C72.943,16.3306247 72.696,17.1446247 72.436,18.0466247 C72.311,18.4926247 72.192,18.9176247 72.08,19.3196247 C72.033,19.5086247 71.948,19.7236247 72.04,19.9516247 C72.088,20.0646247 72.202,20.1396247 72.3,20.1586247 C72.399,20.1816247 72.486,20.1756247 72.562,20.1736247 C73.177,20.1566247 73.558,20.1296247 73.558,20.0976247" id="Fill-430" fill="#17152A"></path>
                    <path d="M77.909,20.2416247 C76.989,20.2416247 76.227,19.9096247 76.195,19.4146247 C76.163,18.9176247 76.928,18.4396247 77.907,18.4306247 C77.918,18.4306247 77.929,18.4306247 77.94,18.4306247 C78.904,18.4306247 79.67,18.8876247 79.659,19.3796247 C79.648,19.8806247 78.88,20.2316247 77.945,20.2416247 C77.933,20.2416247 77.921,20.2416247 77.909,20.2416247" id="Fill-431" fill="#EC9680"></path>
                    <path d="M75.577,20.6066247 C76.177,20.1806247 73.918,21.6686247 72.681,21.7086247 C72.681,21.7086247 73.479,22.7796247 74.708,22.2136247 C75.982,21.6266247 75.577,20.6066247 75.577,20.6066247" id="Fill-432" fill="#EEE5D9"></path>
                    <path d="M73.634,27.6066247 C73.634,27.6066247 76.595,27.5456247 79.394,25.4536247 C79.394,25.4536247 78.177,28.7236247 73.764,28.6826247 L73.634,27.6066247" id="Fill-433" fill="#E88173"></path>
                    <path d="M87.263,20.2316247 C86.075,22.9026247 85.34,26.7926247 85.34,26.7926247 C84.685,28.0086247 84.466,24.1786247 84.466,24.1786247 C84.466,24.1786247 83.905,20.4976247 84.414,19.0626247 C84.414,19.0626247 86.654,19.7876247 87.159,15.7686247 C87.408,13.7816247 84.408,12.8296247 83.591,15.2326247 L81.72,15.4056247 C81.72,15.4056247 81.568,7.89862472 77.255,9.28162472 C77.255,9.28162472 74.127,11.2136247 72.261,10.0306247 C70.397,8.84962472 70.531,8.44062472 70.531,8.44062472 C70.531,8.44062472 69.633,10.4156247 67.228,9.11862472 C64.823,7.82162472 64.506,5.50962472 65.34,4.40362472 C65.822,3.76462472 66.29,3.05362472 67.078,2.91062472 C67.865,2.76962472 68.719,3.08262472 69.227,3.70162472 C68.637,2.83762472 69.053,1.54662472 69.929,0.974624716 C70.805,0.401624716 71.972,0.445624716 72.946,0.830624716 C73.919,1.21462472 74.741,1.89462472 75.546,2.56362472 C76.097,0.978624716 77.794,-0.126375284 79.466,0.0116247164 C81.139,0.148624716 82.632,1.51662472 82.918,3.17062472 C83.82,2.04562472 85.554,1.78862472 86.855,2.41162472 C88.156,3.03462472 89.012,4.39162472 89.261,5.81262472 C89.509,7.23262472 89.211,8.70562472 88.666,10.0416247 C89.671,9.46262472 91.066,9.87762472 91.743,10.8196247 C92.42,11.7616247 92.425,13.0826247 91.931,14.1326247 C91.437,15.1816247 90.506,15.9776247 89.474,16.5076247 C90.239,17.1276247 90.472,18.3146247 89.999,19.1776247 C89.526,20.0396247 88.4,20.4816247 87.466,20.1686247" id="Fill-434" fill="#332B2A"></path>
                    <path d="M84.089,17.5706247 C84.106,17.5606247 84.152,17.6206247 84.258,17.6786247 C84.363,17.7336247 84.547,17.7786247 84.746,17.7176247 C85.15,17.5966247 85.521,16.9886247 85.581,16.3146247 C85.611,15.9756247 85.559,15.6466247 85.455,15.3696247 C85.357,15.0896247 85.191,14.8876247 84.994,14.8396247 C84.798,14.7816247 84.65,14.8926247 84.598,14.9946247 C84.542,15.0966247 84.561,15.1726247 84.541,15.1786247 C84.53,15.1876247 84.464,15.1106247 84.504,14.9576247 C84.524,14.8846247 84.573,14.7986247 84.666,14.7316247 C84.759,14.6646247 84.894,14.6356247 85.032,14.6586247 C85.319,14.6956247 85.563,14.9776247 85.678,15.2796247 C85.808,15.5856247 85.875,15.9556247 85.84,16.3376247 C85.771,17.0906247 85.342,17.7736247 84.792,17.8976247 C84.524,17.9496247 84.309,17.8566247 84.201,17.7616247 C84.09,17.6626247 84.076,17.5776247 84.089,17.5706247" id="Fill-435" fill="#E88173"></path>
                    <path d="M62.263,77.2796247 C62.165,77.2796247 62.112,77.2696247 62.108,77.2506247 C62.072,77.0876247 64.557,76.5416247 68.483,75.4506247 C69.2,75.2446247 69.965,75.0166247 70.765,74.7536247 C74.425,73.6606247 77.416,72.3716247 78.855,70.8776247 C78.871,70.8606247 78.888,70.8436247 78.904,70.8266247 C80.029,70.0226247 81.117,69.0916247 82.122,68.0196247 C84.231,65.7946247 85.852,63.3156247 87.238,61.0166247 C88.614,58.7046247 89.772,56.5566247 90.813,54.7866247 C92.826,51.2966247 94.427,49.3186247 94.595,49.3186247 C94.599,49.3186247 94.602,49.3186247 94.604,49.3206247 C94.724,49.4086247 93.334,51.5156247 91.458,55.1446247 C90.503,56.9496247 89.415,59.1326247 88.066,61.5006247 C86.708,63.8576247 85.074,66.4176247 82.876,68.7366247 C80.69,71.0716247 78.071,72.7686247 75.564,73.8826247 C73.054,75.0206247 70.671,75.6866247 68.669,76.1636247 C66.665,76.6376247 65.026,76.9176247 63.892,77.0926247 C63.075,77.2166247 62.517,77.2796247 62.263,77.2796247" id="Fill-436" fill="#62B3B1"></path>
                    <path d="M70.765,74.7536247 C72.147,74.2986247 73.635,73.7396247 75.158,73.0126247 C76.414,72.4226247 77.681,71.6996247 78.904,70.8266247 C78.888,70.8436247 78.871,70.8606247 78.855,70.8776247 C77.416,72.3716247 74.425,73.6606247 70.765,74.7536247" id="Fill-437" fill="#62B3B1"></path>
                    <path d="M67.266,64.0176247 C67.552,63.7696247 68.825,63.1606247 70.427,61.8556247 C72.311,60.3566247 74.496,57.8096247 76.495,54.6806247 C80.48,48.4956247 83.023,43.0336247 83.354,43.0336247 C83.358,43.0336247 83.362,43.0346247 83.365,43.0356247 C83.375,43.0406247 83.382,43.0556247 83.384,43.0796247 C79.793,49.6976247 74.862,58.3486247 71.936,61.6406247 C71.574,61.9386247 71.218,62.2076247 70.87,62.4426247 C70.385,62.7786247 69.929,63.0546247 69.514,63.2796247 C68.911,63.4966247 68.148,63.7456247 67.266,64.0176247" id="Fill-438" fill="#62B3B1"></path>
                    <path d="M67.274,64.1306247 C67.234,64.1306247 67.211,64.1246247 67.208,64.1116247 C67.198,64.0896247 67.218,64.0586247 67.266,64.0176247 C68.148,63.7456247 68.911,63.4966247 69.514,63.2796247 C68.351,63.9076247 67.51,64.1306247 67.274,64.1306247 M71.936,61.6406247 C74.862,58.3486247 79.793,49.6976247 83.384,43.0796247 C83.406,43.3436247 82.925,44.7336247 81.995,46.7916247 C80.978,49.0396247 79.414,52.0726247 77.368,55.2476247 C75.674,57.9036247 73.741,60.1486247 71.936,61.6406247" id="Fill-439" fill="#62B3B1"></path>
                </g>
                <g id="Group">
                    <polyline id="Fill-440" fill="#A28675" points="183.58 114.411949 200.848 173.685949 202.823 173.685949 189.573 114.210949 183.58 114.411949"></polyline>
                    <polyline id="Fill-441" fill="#A28675" points="152.363 115.205949 139.306 172.783949 141.623 172.783949 159.097 115.187949 152.363 115.205949"></polyline>
                    <polyline id="Fill-442" fill="#A28675" points="167.77 114.210949 169.782 173.531949 172.541 173.531949 173.751 114.439949 167.77 114.210949"></polyline>
                    <polyline id="Fill-443" fill="#A28675" points="151.775 138.642949 191.208 137.407949 191.469 141.490949 148.816 143.126949 151.775 138.642949"></polyline>
                    <polyline id="Fill-444" fill="#8A766C" points="158.283 117.872949 151.758 117.872949 152.363 115.205949 159.097 115.187949 158.283 117.872949"></polyline>
                    <path d="M173.68,117.872949 L173.68,117.872949 L173.735,115.187949 L173.68,117.872949 M167.894,117.872949 L167.894,117.872949 L167.805,115.231949 L167.894,117.872949" id="Fill-445" fill="#C9CCCC"></path>
                    <path d="M173.68,117.872949 L167.894,117.872949 L167.805,115.231949 L167.803,115.187949 C169.753,115.187949 171.751,115.187949 173.735,115.187949 L173.68,117.872949" id="Fill-446" fill="#8A766C"></path>
                    <polyline id="Fill-447" fill="#C9CCCC" points="165.239 138.220949 165.252 138.220949 165.239 138.220949"></polyline>
                    <path d="M168.724,142.362949 L166.214,142.362949 L165.239,138.220949 L165.252,138.220949 L168.581,138.133949 L168.724,142.362949 M168.581,138.133949 L168.581,138.116949 L169.245,138.116949 L168.581,138.133949" id="Fill-448" fill="#8A766C"></path>
                    <path d="M173.269,142.188949 L173.269,142.188949 L175.171,142.115949 L173.269,142.188949 M173.269,137.969949 L173.269,137.968949 L174.892,137.918949 L173.269,137.969949" id="Fill-449" fill="#C9CCCC"></path>
                    <polyline id="Fill-450" fill="#8A766C" points="173.269 142.188949 173.269 137.969949 174.892 137.918949 175.724 137.892949 175.171 142.115949 173.269 142.188949"></polyline>
                    <polyline id="Fill-451" fill="#C9CCCC" points="190.089 116.529949 190.089 116.529949 189.79 115.187949 190.089 116.529949"></polyline>
                    <path d="M190.089,116.529949 L184.197,116.529949 L183.806,115.187949 C185.999,115.187949 188.031,115.187949 189.79,115.187949 L190.089,116.529949" id="Fill-452" fill="#8A766C"></path>
                    <path d="M148.816,115.187949 C148.816,115.187949 193.232,115.187949 196.231,115.187949 C199.23,115.187949 205.667,107.291949 170.742,108.192949 C137.946,109.040949 148.816,115.187949 148.816,115.187949" id="Fill-453" fill="#202A36"></path>
                    <path d="M160.241,24.7149486 C158.652,24.8939486 157.012,24.9349486 155.483,24.4659486 C153.954,23.9969486 152.538,22.9489486 151.944,21.4639486 C151.351,19.9779486 151.767,18.0609486 153.11,17.1899486 C153.746,16.7779486 154.597,16.5489486 154.893,15.8499486 C155.222,15.0709486 154.654,14.2369486 154.284,13.4749486 C153.299,11.4499486 153.792,8.80694864 155.44,7.27194864 C157.088,5.73694864 159.759,5.43294864 161.71,6.55994864 C162.006,3.06394864 165.217,0.061948637 168.725,0.000948637015 C172.233,-0.060051363 175.546,2.82894864 175.964,6.31194864 C176.087,7.33894864 176.002,8.44094864 176.524,9.33394864 C177.117,10.3499486 178.332,10.8129486 179.153,11.6559486 C180.756,13.3009486 180.542,15.9859486 179.808,18.1629486 C179.076,20.3389486 177.922,22.4639486 177.99,24.7589486 L160.241,24.7149486" id="Fill-454" fill="#17152A"></path>
                    <path d="M166.484,39.5389486 C166.665,38.3039486 166.041,33.1519486 166.041,33.1519486 C166.041,33.1519486 161.314,32.7669486 160.915,28.0989486 C160.514,23.4299486 160.54,12.6419486 160.54,12.6419486 L169.025,8.23494864 L177.588,15.1749486 L177.78,38.5739486 L166.484,39.5389486" id="Fill-455" fill="#EFA78C"></path>
                    <path d="M161.669,20.4779486 C161.676,20.8079486 161.951,21.0699486 162.281,21.0619486 C162.612,21.0529486 162.874,20.7789486 162.865,20.4489486 C162.857,20.1189486 162.583,19.8569486 162.253,19.8649486 C161.921,19.8729486 161.661,20.1469486 161.669,20.4779486" id="Fill-456" fill="#17152A"></path>
                    <path d="M161.073,19.8399486 C161.152,19.9159486 161.586,19.5289486 162.228,19.4779486 C162.871,19.4189486 163.363,19.7259486 163.428,19.6379486 C163.461,19.5989486 163.377,19.4589486 163.162,19.3189486 C162.951,19.1789486 162.596,19.0559486 162.195,19.0899486 C161.795,19.1249486 161.466,19.3059486 161.282,19.4789486 C161.093,19.6539486 161.035,19.8059486 161.073,19.8399486" id="Fill-457" fill="#17152A"></path>
                    <path d="M168.603,20.3099486 C168.611,20.6399486 168.885,20.9019486 169.215,20.8939486 C169.546,20.8849486 169.807,20.6109486 169.799,20.2809486 C169.792,19.9509486 169.517,19.6889486 169.187,19.6969486 C168.856,19.7049486 168.594,19.9789486 168.603,20.3099486" id="Fill-458" fill="#17152A"></path>
                    <path d="M168.215,19.6669486 C168.295,19.7419486 168.727,19.3549486 169.371,19.3049486 C170.013,19.2459486 170.505,19.5529486 170.57,19.4649486 C170.602,19.4259486 170.519,19.2859486 170.303,19.1459486 C170.092,19.0069486 169.738,18.8819486 169.337,18.9169486 C168.936,18.9509486 168.608,19.1319486 168.423,19.3059486 C168.235,19.4809486 168.177,19.6329486 168.215,19.6669486" id="Fill-459" fill="#17152A"></path>
                    <path d="M166.023,25.1649486 C166.022,25.2029486 165.617,25.2319486 164.962,25.2489486 C164.881,25.2499486 164.789,25.2559486 164.681,25.2299486 C164.575,25.2099486 164.449,25.1259486 164.397,25.0019486 C164.297,24.7509486 164.392,24.5209486 164.443,24.3209486 C164.567,23.8909486 164.696,23.4409486 164.832,22.9689486 C165.399,21.0539486 165.918,19.5199486 165.991,19.5429486 C166.065,19.5639486 165.666,21.1329486 165.098,23.0479486 C164.956,23.5169486 164.819,23.9649486 164.689,24.3939486 C164.621,24.5989486 164.562,24.7909486 164.609,24.9109486 C164.643,25.0259486 164.8,25.0479486 164.965,25.0509486 C165.619,25.0859486 166.023,25.1269486 166.023,25.1649486" id="Fill-460" fill="#17152A"></path>
                    <path d="M170.973,26.3019486 C169.98,26.3019486 169.154,25.9399486 169.124,25.4079486 C169.093,24.8789486 169.911,24.3769486 170.953,24.3749486 C170.956,24.3749486 170.959,24.3749486 170.962,24.3749486 C171.999,24.3749486 172.825,24.8709486 172.808,25.3989486 C172.792,25.9319486 171.972,26.2979486 170.977,26.3019486 C170.976,26.3019486 170.975,26.3019486 170.973,26.3019486" id="Fill-461" fill="#ED9A83"></path>
                    <path d="M168.251,25.6909486 C168.295,25.6369486 166.391,26.8389486 165.077,26.8709486 C165.077,26.8709486 165.916,28.0159486 167.227,27.4239486 C168.588,26.8109486 168.251,25.6909486 168.251,25.6909486" id="Fill-462" fill="#EEE5D9"></path>
                    <path d="M166.041,33.1519486 C166.041,33.1519486 169.19,33.1109486 172.184,30.9099486 C172.184,30.9099486 170.864,34.3769486 166.17,34.2969486 L166.041,33.1519486" id="Fill-463" fill="#E88173"></path>
                    <path d="M158.428,14.0509486 C159.897,15.4189486 162.198,15.6089486 164.08,14.9139486 C165.962,14.2169486 167.474,12.7699486 168.7,11.1819486 C170.312,12.7889486 172.775,13.4859486 174.99,12.9629486 C175.327,17.2209486 175.665,21.4809486 176.002,25.7399486 C176.616,25.8429486 177.703,25.5959486 178.269,25.3389486 C178.817,22.3889486 178.92,19.6019486 179.468,16.6529486 C179.667,15.5839486 179.858,14.4389486 179.43,13.4379486 C178.972,12.3679486 177.915,11.7069486 176.975,11.0189486 C175.806,10.1649486 174.74,9.17394864 173.553,8.34594864 C172.366,7.51794864 171.018,6.84394864 169.575,6.73894864 C168.105,6.63194864 166.665,7.11794864 165.271,7.59694864 C163.685,8.14194864 162.061,8.70894864 160.77,9.77794864 C159.478,10.8479486 158.57,12.5459486 158.908,14.1879486" id="Fill-464" fill="#17152A"></path>
                    <path d="M177.588,19.4839486 C178.072,19.2939486 178.567,19.0999486 179.086,19.0859486 C179.605,19.0699486 180.162,19.2699486 180.436,19.7109486 C180.64,20.0389486 180.661,20.4559486 180.57,20.8319486 C180.424,21.4359486 179.994,21.9659486 179.431,22.2339486 C178.87,22.5019486 178.187,22.5009486 177.625,22.2319486" id="Fill-465" fill="#EFA78C"></path>
                    <path d="M170.926,18.4789486 C171.003,18.4689486 171.053,18.7999486 170.795,19.0699486 C170.538,19.3409486 170.205,19.3069486 170.212,19.2299486 C170.206,19.1519486 170.418,19.0709486 170.593,18.8789486 C170.777,18.6929486 170.847,18.4769486 170.926,18.4789486" id="Fill-466" fill="#17152A"></path>
                    <path d="M180.347,21.6359486 C180.361,21.6169486 180.628,21.7799486 181.114,22.0519486 C181.596,22.3309486 182.31,22.6969486 183.141,23.2379486 L183.215,23.2859486 L183.18,23.3709486 C182.937,23.9649486 182.618,24.6129486 182.258,25.2999486 C182.079,25.6439486 181.892,25.9999486 181.7,26.3649486 C181.51,26.7289486 181.302,27.1209486 181.04,27.4719486 L180.971,27.5639486 L180.871,27.5199486 C180.726,27.4569486 180.571,27.3889486 180.415,27.3209486 C179.117,26.7939486 177.982,26.1009486 176.98,25.5949486 L176.87,25.5399486 L176.923,25.4299486 C177.516,24.2419486 177.917,23.1959486 178.229,22.4739486 C178.538,21.7509486 178.742,21.3449486 178.765,21.3549486 C178.791,21.3659486 178.633,21.7899486 178.365,22.5279486 C178.092,23.2629486 177.723,24.3249486 177.145,25.5389486 L177.088,25.3749486 C178.118,25.8719486 179.239,26.5439486 180.526,27.0659486 C180.681,27.1339486 180.837,27.2019486 180.981,27.2649486 L180.812,27.3129486 C181.071,26.9679486 181.264,26.6049486 181.46,26.2379486 C181.655,25.8749486 181.845,25.5209486 182.029,25.1779486 C182.396,24.4979486 182.723,23.8639486 182.978,23.2849486 L183.017,23.4189486 C182.216,22.8669486 181.514,22.4689486 181.049,22.1579486 C180.58,21.8519486 180.336,21.6529486 180.347,21.6359486" id="Fill-467" fill="#A67542"></path>
                    <path d="M169.404,92.3589486 C169.404,92.3589486 136.049,90.2619486 131.853,97.7559486 C127.657,105.250949 130.612,171.419949 130.612,171.419949 L144.792,172.402949 L146.207,109.675949 L172.102,110.342949 L169.404,92.3589486" id="Fill-468" fill="#EA8F80"></path>
                    <polyline id="Fill-469" fill="#1F2534" points="158.24 110.156949 152.985 110.156949 152.978 109.850949 158.312 109.987949 158.24 110.156949"></polyline>
                    <path d="M158.312,109.987949 L152.978,109.850949 L152.607,93.3359486 C153.141,93.1039486 154.164,93.0169486 155.406,93.0169486 C159.248,93.0169486 165.181,93.8529486 165.181,93.8529486 L158.312,109.987949" id="Fill-470" fill="#CC7C73"></path>
                    <path d="M194.963,92.4719486 C194.963,92.4719486 160.492,88.2759486 156.295,95.7689486 C152.099,103.262949 156.307,170.707949 156.307,170.707949 L169.032,170.707949 L170.742,110.269949 L178.547,109.964949 C187.946,110.206949 195.541,102.359949 194.993,92.9749486 L194.963,92.4719486" id="Fill-471" fill="#EFA78C"></path>
                    <path d="M184.851,55.5009486 L196.231,53.1929486 C196.231,53.1929486 192.46,36.2399486 179.355,36.2399486 C166.794,36.2399486 166.041,36.7809486 166.041,36.7809486 C166.041,36.7809486 151.786,37.5739486 145.462,50.0749486 L156.451,58.1049486 L159.139,56.4809486 C159.139,56.4809486 160.016,74.1649486 158.506,78.9759486 C156.798,84.4209486 154.025,91.0069486 154.025,91.0069486 L194.963,92.4719486 L184.851,55.5009486 C188.785,55.2609486 192.378,54.4889486 196.006,52.9529486" id="Fill-472" fill="#F9D9BC"></path>
                    <path d="M160.276,56.2509486 C160.419,57.4309486 159.561,58.4839486 158.688,59.2919486 C157.815,60.0989486 156.817,60.9089486 156.532,62.0629486 C156.34,62.8379486 156.508,63.6639486 156.821,64.3979486 C157.629,66.2979486 159.446,67.7319486 161.482,68.0769486" id="Fill-473" fill="#00AABA"></path>
                    <path d="M146.426,50.7799486 C146.426,50.7799486 129.174,68.0769486 125.882,71.9479486 C123.075,75.2499486 124.907,81.4829486 127.258,81.7519486 C129.609,82.0199486 167.636,81.5019486 167.636,81.5019486 L167.132,73.7229486 C167.132,73.7229486 142.504,73.8349486 141.781,73.3809486 C141.057,72.9259486 156.027,57.7949486 156.027,57.7949486 L146.426,50.7799486" id="Fill-474" fill="#EFA78C"></path>
                    <path d="M167.132,73.7229486 C167.132,73.7229486 175.277,74.2689486 176.633,81.6319486 L167.636,81.5019486 L167.132,73.7229486" id="Fill-475" fill="#EFA78C"></path>
                    <path d="M195.42,53.1899486 C195.42,53.1899486 200.968,69.1139486 201.603,70.9919486 C202.238,72.8699486 205.491,80.8119486 199.31,81.4769486 C193.129,82.1419486 159.947,81.4769486 159.947,81.4769486 L157.478,73.4489486 C157.478,73.4489486 189.549,73.3679486 189.387,71.6549486 C189.224,69.9419486 184.515,55.5919486 184.515,55.5919486 L195.42,53.1899486" id="Fill-476" fill="#EFA78C"></path>
                    <polyline id="Fill-477" fill="#2C2D54" points="127.258 49.0339486 139.176 82.0489486 194.041 82.0249486 193.66 80.4119486 172.825 78.8879486 162.941 48.5259486 127.258 49.0339486"></polyline>
                    <path d="M152.618,66.6579486 C152.836,67.8799486 152.166,69.0199486 151.124,69.2059486 C150.081,69.3899486 149.059,68.5499486 148.842,67.3289486 C148.625,66.1069486 149.295,64.9649486 150.337,64.7809486 C151.379,64.5949486 152.401,65.4349486 152.618,66.6579486" id="Fill-478" fill="#FFFFFE"></path>
                    <path d="M166.385,36.5079486 C166.385,36.5079486 165.344,50.3369486 170.211,50.2129486 C175.078,50.0889486 177.78,36.2399486 177.78,36.2399486 C174.027,35.6929486 170.228,35.7979486 166.385,36.5079486" id="Fill-479" fill="#EFA78C"></path>
                    <path d="M185.575,58.4239486 C185.433,58.4579486 184.949,56.8639486 184.368,54.8989486 C183.793,52.9309486 183.322,51.3379486 183.457,51.2859486 C183.59,51.2339486 184.288,52.7669486 184.867,54.7519486 C185.454,56.7329486 185.713,58.3939486 185.575,58.4239486" id="Fill-480" fill="#BD987F"></path>
                    <path d="M178.084,36.1779486 C178.116,36.1859486 178.045,36.6249486 177.855,37.4019486 C177.664,38.1789486 177.358,39.2989486 176.889,40.6529486 C176.425,42.0079486 175.796,43.5989486 174.983,45.3129486 C174.563,46.1649486 174.151,47.0629486 173.583,47.9559486 C173.013,48.8169486 172.27,49.7549486 171.104,50.1209486 C169.926,50.5019486 168.688,49.9499486 167.961,49.1659486 C167.192,48.3649486 166.832,47.3559486 166.597,46.4309486 C166.157,44.5669486 165.999,42.8569486 165.959,41.4199486 C165.922,39.9819486 166.018,38.8199486 166.119,38.0249486 C166.221,37.2299486 166.323,36.7979486 166.355,36.8019486 C166.45,36.8109486 166.172,38.5689486 166.327,41.4039486 C166.412,42.8159486 166.608,44.5059486 167.062,46.3109486 C167.297,47.1979486 167.653,48.1219486 168.327,48.8089486 C168.986,49.4989486 170,49.9319486 170.954,49.6219486 C171.909,49.3319486 172.612,48.4979486 173.156,47.6769486 C173.697,46.8399486 174.127,45.9369486 174.551,45.1029486 C175.38,43.4189486 176.039,41.8569486 176.544,40.5269486 C177.052,39.1989486 177.41,38.1029486 177.66,37.3459486 C177.91,36.5899486 178.045,36.1689486 178.084,36.1779486" id="Fill-481" fill="#BD987F"></path>
                    <path d="M195.42,51.1819486 C195.493,51.2879486 193.215,52.7149486 190.028,53.4759486 C186.843,54.2599486 184.167,54.0349486 184.182,53.9079486 C184.18,53.7479486 186.8,53.7359486 189.905,52.9699486 C193.014,52.2289486 195.349,51.0389486 195.42,51.1819486" id="Fill-482" fill="#BD987F"></path>
                    <path d="M182.709,62.0239486 C182.753,62.0599486 182.344,62.6519486 181.394,63.2909486 C180.461,63.9269486 178.921,64.5509486 177.151,64.4889486 C175.379,64.4239486 173.889,63.6889486 173.004,62.9859486 C172.104,62.2799486 171.74,61.6599486 171.787,61.6279486 C171.85,61.5699486 172.308,62.0909486 173.218,62.6859486 C174.116,63.2809486 175.527,63.9069486 177.17,63.9679486 C178.812,64.0269486 180.264,63.5049486 181.203,62.9759486 C182.154,62.4489486 182.648,61.9629486 182.709,62.0239486" id="Fill-483" fill="#BD987F"></path>
                    <path d="M152.607,145.373949 L171.064,145.599949 L171.882,111.780949 C171.882,111.780949 196.231,113.214949 195.622,91.2999486 C195.622,91.2999486 159.148,88.9459486 156.451,91.2999486 C149.135,97.6869486 152.607,144.840949 152.607,144.840949" id="Fill-484" fill="#E15967"></path>
                    <path d="M127.258,144.691949 L146.049,144.691949 L147.183,110.156949 L158.818,111.630949 L171.225,92.1119486 C171.225,92.1119486 143.14,85.9379486 131.279,95.0529486 C130.335,95.7789486 129.572,98.3419486 129.512,99.5309486 L127.258,144.691949" id="Fill-485" fill="#E15967"></path>
                    <path d="M167.474,90.5689486 C167.474,90.6719486 165.663,90.5609486 162.779,90.7529486 C161.344,90.8719486 159.627,91.1259486 157.892,91.8769486 C156.169,92.6109486 154.435,93.9199486 153.484,95.8749486 C152.517,97.8159486 152.288,99.9479486 152.262,101.838949 C152.272,103.748949 152.323,105.491949 152.298,106.946949 C152.282,108.404949 152.22,109.584949 152.155,110.396949 C152.089,111.209949 152.025,111.656949 151.991,111.654949 C151.954,111.652949 151.949,111.201949 151.953,110.388949 C151.955,109.575949 151.961,108.400949 151.93,106.948949 C151.887,105.456949 151.837,103.731949 151.782,101.836949 C151.783,99.9069486 151.996,97.7009486 153.019,95.6399486 C154.03,93.5569486 155.904,92.1679486 157.704,91.4349486 C159.523,90.6779486 161.296,90.4599486 162.754,90.3849486 C164.219,90.3149486 165.4,90.3809486 166.213,90.4279486 C167.027,90.4819486 167.475,90.5339486 167.474,90.5689486" id="Fill-486" fill="#A74353"></path>
                    <path d="M145.742,105.945949 C145.882,105.913949 146.213,106.818949 146.482,107.966949 C146.752,109.117949 146.855,110.075949 146.715,110.107949 C146.576,110.140949 146.244,109.235949 145.975,108.086949 C145.707,106.936949 145.602,105.978949 145.742,105.945949" id="Fill-487" fill="#A74353"></path>
                    <path d="M147.066,104.605949 C147.202,104.581949 147.543,105.934949 147.506,107.643949 C147.477,109.352949 147.084,110.692949 146.95,110.662949 C146.802,110.633949 146.958,109.289949 146.986,107.632949 C147.022,105.977949 146.918,104.629949 147.066,104.605949" id="Fill-488" fill="#A74353"></path>
                    <path d="M170.696,106.903949 C170.835,106.867949 171.287,108.130949 171.705,109.724949 C172.123,111.319949 172.349,112.641949 172.21,112.677949 C172.071,112.714949 171.619,111.451949 171.201,109.856949 C170.783,108.261949 170.556,106.939949 170.696,106.903949" id="Fill-489" fill="#A74353"></path>
                    <path d="M172.332,106.894949 C172.469,106.877949 172.729,108.185949 172.637,109.817949 C172.551,111.449949 172.15,112.721949 172.015,112.689949 C171.87,112.658949 172.035,111.373949 172.118,109.789949 C172.208,108.205949 172.183,106.909949 172.332,106.894949" id="Fill-490" fill="#A74353"></path>
                    <path d="M156.362,170.727949 C156.362,170.727949 148.429,172.099949 150.735,172.798949 C153.041,173.497949 169.16,172.216949 169.16,172.216949 L169.16,170.391949 L156.362,170.727949" id="Fill-491" fill="#283F7C"></path>
                    <path d="M130.13,171.421949 C130.13,171.421949 121.515,172.427949 123.843,173.127949 C126.17,173.826949 144.768,173.250949 144.768,173.250949 L144.768,171.424949 L130.13,171.421949" id="Fill-492" fill="#283F7C"></path>
                    <polyline id="Fill-493" fill="#A28675" points="52.592 86.2829486 299.186 86.2829486 299.186 80.6989486 51.255 80.6989486 52.592 86.2829486"></polyline>
                    <path d="M40.572,32.3329486 C44.968,32.9629486 49.53,32.4069486 53.644,30.7419486 C55.239,30.0949486 56.959,29.0279486 57.166,27.3289486 C57.364,25.6999486 56.068,24.2509486 55.9,22.6199486 C55.768,21.3459486 56.331,20.1199486 56.645,18.8789486 C56.959,17.6379486 56.941,16.1259486 55.945,15.3139486 C54.876,14.4409486 53.265,14.8179486 51.96,14.3629486 C49.936,13.6569486 49.203,11.2749486 48.309,9.33894864 C45.831,3.96894864 39.961,0.333948637 34.018,0.485948637 C28.075,0.636948637 22.402,4.56894864 20.204,10.0569486 L40.572,32.3329486" id="Fill-494" fill="#17152A"></path>
                    <polyline id="Fill-495" fill="#A28675" points="19.242 119.744949 1.974 179.018949 9.9475983e-14 179.018949 13.25 119.543949 19.242 119.744949"></polyline>
                    <polyline id="Fill-496" fill="#A28675" points="50.46 120.538949 63.516 178.116949 61.2 178.116949 43.725 120.520949 50.46 120.538949"></polyline>
                    <polyline id="Fill-497" fill="#A28675" points="35.052 119.543949 33.041 178.864949 30.282 178.864949 29.071 119.772949 35.052 119.543949"></polyline>
                    <polyline id="Fill-498" fill="#A28675" points="51.047 143.975949 11.614 142.740949 11.354 146.823949 54.006 148.459949 51.047 143.975949"></polyline>
                    <path d="M51.064,123.204949 L44.539,123.204949 L43.725,120.520949 L44.761,120.523949 C45.729,120.532949 46.683,120.537949 47.621,120.537949 C48.067,120.537949 48.507,120.536949 48.945,120.534949 L50.46,120.538949 L51.064,123.204949" id="Fill-499" fill="#8A766C"></path>
                    <polyline id="Fill-500" fill="#C9CCCC" points="34.928 123.204949 34.928 123.204949 35.026 120.318949 34.928 123.204949"></polyline>
                    <path d="M34.928,123.204949 L29.142,123.204949 L29.078,120.118949 C31.029,120.189949 33.022,120.258949 35.023,120.318949 L35.026,120.318949 L34.928,123.204949" id="Fill-501" fill="#8A766C"></path>
                    <polyline id="Fill-502" fill="#C9CCCC" points="37.584 143.553949 37.569 143.553949 37.584 143.553949"></polyline>
                    <path d="M36.608,147.695949 L34.098,147.695949 L34.241,143.466949 L37.569,143.553949 L37.584,143.553949 L36.608,147.695949 M34.241,143.466949 L33.577,143.449949 L34.242,143.449949 L34.241,143.466949" id="Fill-503" fill="#8A766C"></path>
                    <path d="M27.809,147.454949 L27.65,147.448949 L27.809,147.454949 M29.553,143.302949 L27.098,143.225949 L27.098,143.224949 L29.553,143.301949 L29.553,143.302949" id="Fill-504" fill="#C9CCCC"></path>
                    <polyline id="Fill-505" fill="#8A766C" points="29.553 147.520949 27.809 147.454949 27.65 147.448949 27.098 143.225949 29.553 143.302949 29.553 147.520949"></polyline>
                    <path d="M18.625,121.862949 L12.733,121.862949 L13.25,119.543949 C13.256,119.543949 13.263,119.543949 13.269,119.543949 L19.242,119.744949 L18.625,121.862949" id="Fill-506" fill="#8A766C"></path>
                    <path d="M63.516,114.394949 C55.927,109.966949 33.508,113.831949 33.508,113.831949 C33.508,113.831949 42.155,35.2369486 33.881,34.6009486 C25.608,33.9639486 7.088,28.0719486 3.488,40.0209486 C-0.113,51.9689486 4.69,119.482949 9.479,119.482949 C20.393,119.482949 53.636,121.852949 63.675,119.488949 C66.263,118.879949 63.516,114.394949 63.516,114.394949" id="Fill-507" fill="#202A36"></path>
                    <path d="M10.616,41.3929486 C10.581,41.3739486 10.422,41.5899486 10.149,42.0269486 C10.006,42.2429486 9.858,42.5239486 9.686,42.8589486 C9.504,43.1889486 9.328,43.5859486 9.132,44.0349486 C8.351,45.8279486 7.545,48.5859486 7.178,52.0659486 C6.793,55.5469486 6.769,59.6919486 6.846,64.2799486 C6.924,68.8719486 7.203,73.9129486 7.614,79.1899486 C8.033,84.4679486 8.539,89.4839486 9.016,94.0399486 C9.487,98.5939486 9.95,102.713949 10.592,106.136949 C11.22,109.564949 12.001,112.285949 12.659,114.118949 C13.323,115.950949 13.819,116.909949 13.882,116.883949 C13.968,116.849949 13.615,115.837949 13.09,113.980949 C12.57,112.123949 11.92,109.409949 11.401,106.001949 C10.869,102.593949 10.494,98.4989486 10.081,93.9349486 C9.662,89.3739486 9.19,84.3619486 8.772,79.0979486 C8.361,73.8369486 8.052,68.8199486 7.915,64.2529486 C7.78,59.6859486 7.72,55.5649486 7.996,52.1439486 C8.253,48.7169486 8.917,46.0069486 9.553,44.1979486 C10.19,42.3859486 10.703,41.4409486 10.616,41.3929486" id="Fill-508" fill="#2B4553"></path>
                    <path d="M93.098,71.2529486 L95.159,70.1489486 C95.159,70.1489486 96.494,69.6739486 98.653,68.3609486 C99.213,68.0199486 99.717,67.5879486 100.148,67.0889486 C100.67,66.4849486 101.334,65.6569486 101.566,65.1039486 C101.854,64.4189486 102.796,64.3629486 102.941,64.9849486 C103.086,65.6069486 102.337,67.5079486 100.604,69.2089486 C98.872,70.9099486 102.524,70.3999486 103.856,70.2379486 C105.189,70.0759486 109.316,69.7659486 109.651,70.1319486 C110.144,70.6699486 109.606,71.3519486 108.275,71.4829486 C106.927,71.6159486 102.953,72.2879486 103.007,72.9809486 C103.06,73.6639486 109.839,72.7469486 109.839,72.7469486 C109.839,72.7469486 111.278,72.3179486 111.367,73.1149486 C111.528,74.5509486 104.3,75.0009486 103.612,75.0269486 C103.134,75.0449486 103.166,75.8019486 103.68,75.7559486 C104.21,75.7079486 110.436,74.6849486 110.614,76.1449486 C110.751,77.2649486 104.666,76.5699486 103.426,77.4909486 C102.185,78.4109486 108.138,77.5429486 108.224,78.6219486 C108.256,79.0239486 108.223,79.3339486 104.779,79.3439486 C101.251,79.3549486 91.836,77.8259486 91.836,77.8259486 L93.198,71.1539486" id="Fill-509" fill="#EFA78C"></path>
                    <path d="M48.133,41.6709486 C48.133,41.6709486 65.874,65.5039486 69.943,66.5669486 C74.014,67.6309486 97.269,69.0269486 97.269,69.0269486 L99.339,79.0999486 C99.339,79.0999486 69.569,80.6719486 63.014,75.8329486 C52.712,68.2279486 41.889,50.7349486 41.889,50.7349486 C41.616,44.9649486 43.818,42.0849486 48.133,41.6709486" id="Fill-510" fill="#D76137"></path>
                    <path d="M96.279,165.225949 L95.981,174.134949 C95.981,174.134949 106.71,176.446949 104.278,177.264949 C101.847,178.083949 84.564,177.219949 84.564,177.219949 C84.564,177.219949 84.709,166.330949 84.584,166.341949 C84.459,166.353949 96.279,165.225949 96.279,165.225949" id="Fill-511" fill="#5E4B44"></path>
                    <path d="M67.219,157.904949 L62.52,165.817949 C62.52,165.817949 69.083,173.110949 66.633,172.345949 C64.185,171.582949 51.701,161.075949 51.701,161.075949 C51.701,161.075949 57.201,152.009949 57.093,151.946949 C56.984,151.882949 67.219,157.904949 67.219,157.904949" id="Fill-512" fill="#5E4B44"></path>
                    <polyline id="Fill-513" fill="#2D345D" points="79.025 105.069949 55.927 153.749949 66.33 159.604949 94.601 118.411949 93.088 104.059949 79.025 105.069949"></polyline>
                    <path d="M24.414,86.2329486 C24.414,86.2329486 14.531,107.352949 34.018,114.601949 L44.416,92.0039486 L24.414,86.2329486" id="Fill-514" fill="#283F7C"></path>
                    <path d="M37.659,91.9519486 C37.659,91.9519486 92.912,76.8779486 99.21,89.8579486 C105.507,102.837949 97.091,167.136949 97.091,167.136949 L83.918,167.136949 C83.918,167.136949 83.703,109.073949 80.81,106.975949 C79.058,105.706949 64.924,108.751949 51.701,111.654949 C43.11,113.540949 35.566,114.724949 33.912,114.641949 C23.72,114.129949 16.395,94.8069486 37.659,91.9519486" id="Fill-515" fill="#283F7C"></path>
                    <path d="M36.772,35.3019486 C44.158,35.4599486 49.747,40.5829486 49.998,47.5029486 C50.22,53.6409486 51.053,62.3539486 51.083,69.5369486 C51.099,73.4399486 55.799,87.8029486 55.799,87.8029486 L49.747,89.9469486 C42.028,91.2359486 37.075,91.5469486 29.521,89.5009486 L23.844,87.9639486 C23.844,87.9639486 20.571,70.8869486 18.717,54.8559486 C17.168,41.4589486 19.723,36.2579486 27.846,35.1129486 L36.772,35.3019486" id="Fill-516" fill="#D76137"></path>
                    <path d="M40.658,36.2579486 C40.408,34.9629486 40.822,29.4889486 40.822,29.4889486 C40.822,29.4889486 45.799,28.8569486 45.999,23.9049486 C46.199,18.9529486 45.66,7.55194864 45.66,7.55194864 L36.483,3.29894864 L26.647,11.0779486 L23.69,18.9779486 L28.023,23.0169486 L29.043,35.4119486 L40.658,36.2579486" id="Fill-517" fill="#EFA78C"></path>
                    <path d="M44.84,15.8869486 C44.847,16.2369486 44.569,16.5259486 44.22,16.5329486 C43.87,16.5409486 43.581,16.2629486 43.574,15.9139486 C43.566,15.5629486 43.844,15.2739486 44.193,15.2669486 C44.543,15.2589486 44.833,15.5379486 44.84,15.8869486" id="Fill-518" fill="#17152A"></path>
                    <path d="M45.439,15.1839486 C45.358,15.2679486 44.882,14.8799486 44.2,14.8569486 C43.518,14.8249486 43.013,15.1739486 42.94,15.0839486 C42.904,15.0439486 42.986,14.8909486 43.207,14.7329486 C43.423,14.5759486 43.792,14.4279486 44.217,14.4459486 C44.642,14.4629486 44.998,14.6389486 45.201,14.8129486 C45.408,14.9889486 45.477,15.1469486 45.439,15.1839486" id="Fill-519" fill="#17152A"></path>
                    <path d="M37.217,15.5219486 C37.51,15.7149486 37.592,16.1059486 37.4,16.3989486 C37.209,16.6919486 36.816,16.7739486 36.524,16.5829486 C36.232,16.3909486 36.149,15.9989486 36.341,15.7059486 C36.532,15.4129486 36.925,15.3309486 37.217,15.5219486" id="Fill-520" fill="#17152A"></path>
                    <path d="M37.883,15.3409486 C37.803,15.4239486 37.327,15.0369486 36.645,15.0139486 C35.963,14.9819486 35.458,15.3309486 35.384,15.2409486 C35.349,15.2009486 35.43,15.0489486 35.651,14.8899486 C35.868,14.7319486 36.236,14.5859486 36.662,14.6019486 C37.087,14.6199486 37.442,14.7959486 37.645,14.9699486 C37.853,15.1449486 37.921,15.3039486 37.883,15.3409486" id="Fill-521" fill="#17152A"></path>
                    <path d="M40.461,21.0469486 C40.463,21.0789486 40.892,21.0829486 41.584,21.0629486 C41.67,21.0599486 41.767,21.0599486 41.875,21.0299486 C41.982,21.0029486 42.102,20.9149486 42.148,20.7879486 C42.235,20.5329486 42.129,20.2989486 42.064,20.0899486 C41.914,19.6469486 41.754,19.1739486 41.586,18.6799486 C41.241,17.6819486 40.917,16.7829486 40.67,16.1349486 C40.424,15.4879486 40.257,15.0929486 40.227,15.1039486 C40.197,15.1139486 40.309,15.5279486 40.515,16.1889486 C40.722,16.8499486 41.022,17.7569486 41.367,18.7559486 C41.54,19.2489486 41.706,19.7179486 41.861,20.1599486 C41.941,20.3729486 42.016,20.5759486 41.967,20.7199486 C41.927,20.8619486 41.746,20.8869486 41.574,20.8989486 C40.885,20.9609486 40.459,21.0149486 40.461,21.0469486" id="Fill-522" fill="#17152A"></path>
                    <path d="M35.177,20.4509486 C34.205,20.4509486 33.417,20.1109486 33.377,19.5809486 C33.334,19.0219486 34.189,18.4559486 35.289,18.4099486 C35.339,18.4079486 35.388,18.4069486 35.437,18.4069486 C36.468,18.4069486 37.277,18.8789486 37.271,19.4149486 C37.265,19.9789486 36.406,20.4009486 35.355,20.4469486 C35.295,20.4489486 35.235,20.4509486 35.177,20.4509486" id="Fill-523" fill="#EB937F"></path>
                    <path d="M38.223,21.7389486 C37.524,21.2959486 40.151,22.8339486 41.542,22.8039486 C41.542,22.8039486 40.71,24.0549486 39.296,23.4929486 C37.828,22.9089486 38.223,21.7389486 38.223,21.7389486" id="Fill-524" fill="#EEE5D9"></path>
                    <path d="M40.822,29.4889486 C40.822,29.4889486 37.492,29.5939486 34.223,27.4109486 C34.223,27.4109486 35.784,31.0119486 40.74,30.7049486 L40.822,29.4889486" id="Fill-525" fill="#E88173"></path>
                    <path d="M76.754,71.8639486 L78.636,70.4779486 C78.636,70.4779486 79.89,69.8169486 81.84,68.2099486 C82.346,67.7929486 82.782,67.2929486 83.138,66.7379486 C83.569,66.0659486 84.108,65.1509486 84.259,64.5709486 C84.446,63.8519486 85.371,63.6619486 85.603,64.2569486 C85.834,64.8519486 85.365,66.8399486 83.892,68.7709486 C82.42,70.7019486 85.962,69.6759486 87.258,69.3259486 C88.553,68.9749486 92.594,68.0799486 92.979,68.3949486 C93.543,68.8559486 93.108,69.6089486 91.809,69.9279486 C90.494,70.2529486 86.656,71.4829486 86.808,72.1619486 C86.958,72.8299486 93.537,70.9559486 93.537,70.9559486 C93.537,70.9559486 94.9,70.3269486 95.102,71.1019486 C95.467,72.5019486 88.376,73.9769486 87.699,74.0999486 C87.229,74.1859486 87.368,74.9319486 87.87,74.8119486 C88.388,74.6889486 94.404,72.7899486 94.789,74.2099486 C95.084,75.2989486 88.962,75.4779486 87.866,76.5659486 C86.769,77.6539486 92.537,75.9449486 92.776,77.0019486 C92.865,77.3939486 92.877,77.7059486 89.469,78.2079486 C85.979,78.7209486 76.442,78.5499486 76.442,78.5499486 L76.839,71.7529486" id="Fill-526" fill="#EFA78C"></path>
                    <path d="M45.722,7.49094864 C43.737,9.91894864 40.796,11.5419486 37.685,11.9269486 C34.704,12.2959486 31.475,11.6099486 28.818,13.0119486 C28.443,10.5419486 29.795,7.99994864 31.851,6.57694864 C33.905,5.15494864 36.544,4.75194864 39.024,5.05794864 C41.504,5.36594864 43.857,6.32894864 46.091,7.44794864" id="Fill-527" fill="#17152A"></path>
                    <path d="M57.691,154.742949 C57.707,154.749949 57.799,154.591949 57.96,154.285949 C58.125,153.961949 58.353,153.509949 58.644,152.937949 C58.949,152.349949 59.318,151.638949 59.745,150.815949 C60.183,149.989949 60.679,149.050949 61.227,148.015949 C63.462,143.868949 66.535,138.165949 69.93,131.866949 C73.333,125.557949 76.381,119.828949 78.509,115.639949 C79.034,114.590949 79.508,113.640949 79.927,112.802949 C80.325,111.964949 80.67,111.239949 80.955,110.639949 C81.226,110.041949 81.422,109.569949 81.555,109.250949 C81.687,108.929949 81.748,108.757949 81.733,108.751949 C81.716,108.744949 81.625,108.901949 81.464,109.208949 C81.299,109.532949 81.071,109.983949 80.78,110.555949 C80.475,111.143949 80.106,111.854949 79.679,112.677949 C79.241,113.504949 78.745,114.442949 78.197,115.477949 C75.962,119.625949 72.888,125.328949 69.492,131.630949 C66.091,137.936949 63.043,143.665949 60.915,147.853949 C60.391,148.902949 59.916,149.852949 59.497,150.690949 C59.099,151.528949 58.754,152.254949 58.469,152.853949 C58.198,153.452949 58.002,153.924949 57.868,154.244949 C57.737,154.564949 57.676,154.735949 57.691,154.742949" id="Fill-528" fill="#283F7C"></path>
                    <path d="M18.319,49.9129486 L18.167,49.0079486 L18.296,49.1289486 C18.302,49.3859486 18.309,49.6469486 18.319,49.9129486" id="Fill-529" fill="#553A32"></path>
                    <path d="M51.566,80.0959486 C51.566,80.0959486 35.412,79.0779486 30.566,73.1479486 C25.721,67.2179486 19.428,56.5029486 19.428,56.5029486 L18.319,49.9129486 C18.309,49.6469486 18.302,49.3859486 18.296,49.1289486 L51.566,80.0959486" id="Fill-530" fill="#C25A37"></path>
                    <path d="M81.571,106.481949 C81.663,106.583949 82.546,105.928949 83.543,105.019949 C83.666,104.905949 83.785,104.794949 83.903,104.683949 L83.561,104.337949 C82.819,105.167949 82.321,105.847949 82.409,105.929949 C82.497,106.011949 83.141,105.467949 83.918,104.670949 L83.575,104.323949 C83.454,104.431949 83.333,104.540949 83.208,104.651949 C82.211,105.560949 81.478,106.380949 81.571,106.481949" id="Fill-531" fill="#2D345D"></path>
                    <path d="M81.045,106.896949 C81.18,106.923949 81.491,105.976949 81.741,104.781949 C81.991,103.584949 82.085,102.591949 81.95,102.563949 C81.816,102.535949 81.504,103.482949 81.254,104.678949 C81.004,105.875949 80.911,106.868949 81.045,106.896949" id="Fill-532" fill="#2D345D"></path>
                    <path d="M24.672,39.1829486 C24.672,39.1829486 44.457,65.3729486 48.961,66.5149486 C53.465,67.6589486 79.166,69.0179486 79.166,69.0179486 L81.531,80.1309486 C81.531,80.1309486 48.658,82.0989486 41.379,76.8049486 C32.582,70.4069486 23.399,57.5519486 19.625,51.9549486 C18.032,49.5919486 17.497,46.6159486 18.403,43.9149486 C19.368,41.0429486 21.497,39.5109486 24.672,39.1829486" id="Fill-533" fill="#E57445"></path>
                    <path d="M14.854,116.785949 C14.92,117.115949 20.072,116.305949 26.463,115.794949 C32.855,115.260949 38.07,115.222949 38.081,114.885949 C38.099,114.582949 32.841,114.097949 26.369,114.636949 C19.897,115.156949 14.787,116.488949 14.854,116.785949" id="Fill-534" fill="#2B4553"></path>
                    <path d="M16.816,64.6729486 C16.868,64.7139486 17.056,64.6519486 17.142,64.3299486 C17.222,64.0099486 17.063,63.5109486 16.607,63.1819486 C16.381,63.0209486 16.062,62.8839486 15.666,62.9209486 C15.462,62.9479486 15.279,63.0109486 15.12,63.1049486 C14.953,63.1969486 14.802,63.3249486 14.676,63.4719486 C14.178,64.0749486 14.042,64.9109486 14.312,65.7099486 C14.594,66.4809486 15.211,67.0729486 15.976,67.2359486 C16.164,67.2729486 16.358,67.2839486 16.541,67.2569486 C16.722,67.2419486 16.926,67.1699486 17.081,67.0849486 C17.395,66.8989486 17.589,66.6439486 17.708,66.3979486 C17.943,65.9019486 17.871,65.4029486 17.679,65.1539486 C17.489,64.9019486 17.302,64.8929486 17.261,64.9479486 C17.206,65.0119486 17.262,65.1479486 17.261,65.3269486 C17.267,65.4989486 17.197,65.7499486 17.003,65.9759486 C16.907,66.0869486 16.779,66.1799486 16.654,66.2209486 L16.463,66.2399486 L16.228,66.1959486 C15.912,66.0979486 15.554,65.7469486 15.406,65.3209486 C15.257,64.9159486 15.328,64.4079486 15.513,64.1389486 C15.72,63.8569486 15.899,63.7929486 16.19,63.8889486 C16.461,63.9909486 16.628,64.1829486 16.69,64.3289486 C16.758,64.4799486 16.744,64.6279486 16.816,64.6729486" id="Fill-535" fill="#2B4553"></path>
                    <path d="M28.216,25.3629486 C28.913,25.1929486 28.005,21.8329486 28.025,21.1159486 C26.349,21.4529486 24.621,19.7129486 24.97,18.0389486 C25.318,16.3649486 27.597,15.4599486 29,16.4379486 C29.217,14.3039486 29.585,11.9009486 31.337,10.6639486 C32.439,9.88594864 33.852,9.75694864 35.184,9.54594864 C38.656,8.99294864 42.009,7.70294864 44.957,5.78694864 C42.498,2.79594864 38.574,1.20394864 34.703,1.15294864 C34.703,1.15294864 23.352,2.18594864 20.541,9.29394864 C17.73,16.4009486 22.94,26.6499486 28.216,25.3629486" id="Fill-536" fill="#17152A"></path>
                    <path d="M43.148,6.13694864 C43.178,6.15194864 43.087,6.41694864 42.866,6.86994864 C42.646,7.32394864 42.279,7.95994864 41.745,8.68994864 C40.689,10.1489486 38.849,11.9649486 36.336,13.1779486 C33.823,14.3919486 31.256,14.7059486 29.457,14.6249486 C28.552,14.5899486 27.827,14.4819486 27.335,14.3719486 C26.842,14.2619486 26.579,14.1699486 26.586,14.1369486 C26.601,14.0479486 27.691,14.2799486 29.461,14.2569486 C31.22,14.2419486 33.686,13.8809486 36.109,12.7089486 C38.533,11.5389486 40.349,9.83294864 41.454,8.46494864 C42.572,7.09194864 43.068,6.09394864 43.148,6.13694864" id="Fill-537" fill="#17152A"></path>
                    <path d="M18.403,43.9149486 C18.403,43.9149486 19.559,35.0779486 28.972,34.5499486 C38.385,34.0239486 47.414,36.6409486 49.406,43.2819486 L18.403,43.9149486" id="Fill-538" fill="#EFA78C"></path>
                    <path d="M18.39,43.7589486 C17.904,45.1359486 17.412,46.5949486 17.691,48.0279486 C17.971,49.4609486 19.337,50.7909486 20.762,50.4749486 C22.485,50.0939486 23.347,47.6609486 25.111,47.6829486 C26.428,47.6989486 27.24,49.0789486 28.319,49.8339486 C29.581,50.7169486 31.407,50.6939486 32.646,49.7799486 C33.727,48.9819486 34.419,47.5789486 35.722,47.2519486 C38.268,46.6119486 40.149,50.5729486 42.741,50.1599486 C44.786,49.8339486 45.984,46.8799486 48.019,47.2629486 C49.43,47.5299486 50.187,49.3479486 51.615,49.5009486 C52.707,49.6179486 53.688,48.5689486 53.753,47.4719486 C53.818,46.3759486 53.156,45.3379486 52.288,44.6649486 C51.42,43.9909486 50.362,43.6179486 49.325,43.2569486 L18.39,43.7589486" id="Fill-539" fill="#E57445"></path>
                    <path d="M49.346,50.0839486 C49.433,50.0829486 49.441,51.0229486 49.393,52.5089486 C49.387,52.8809486 49.381,53.2879486 49.403,53.7149486 C49.416,53.9269486 49.433,54.1499486 49.479,54.3539486 C49.502,54.4519486 49.534,54.5529486 49.568,54.6029486 L49.778,54.8489486 C50.415,55.5189486 51.482,55.8339486 52.445,56.5769486 C52.925,56.9469486 53.309,57.4849486 53.458,58.0559486 C53.618,58.6249486 53.601,59.1989486 53.49,59.7099486 C53.271,60.7489486 52.673,61.5229486 52.143,62.0599486 C51.603,62.6049486 51.105,62.9619486 50.761,63.2029486 C50.414,63.4409486 50.21,63.5539486 50.188,63.5269486 C50.125,63.4549486 50.886,62.8919486 51.873,61.8099486 C52.349,61.2619486 52.852,60.5359486 53.02,59.6159486 C53.207,58.7089486 52.99,57.6229486 52.12,56.9829486 C51.284,56.3199486 50.172,55.9789486 49.433,55.1809486 C49.339,55.0809486 49.259,54.9919486 49.178,54.8639486 C49.084,54.7089486 49.059,54.5759486 49.03,54.4469486 C48.983,54.1909486 48.977,53.9569486 48.972,53.7299486 C48.968,53.2789486 48.996,52.8669486 49.025,52.4909486 C49.168,50.9929486 49.289,50.0869486 49.346,50.0839486" id="Fill-540" fill="#B85536"></path>
                    <path d="M33.066,50.0289486 C33.089,50.0259486 33.106,50.3299486 32.775,50.7149486 C32.451,51.0869486 31.739,51.4459486 30.839,51.3219486 C29.933,51.1869486 29.079,50.5259486 28.249,49.8319486 C27.439,49.1679486 26.381,48.3999486 25.254,48.7099486 C24.14,49.0229486 23.311,50.0569486 22.179,50.4439486 C21.044,50.8419486 19.934,50.5699486 19.186,50.1559486 C18.418,49.7369486 17.961,49.1649486 17.74,48.7439486 C17.522,48.3129486 17.498,48.0439486 17.521,48.0379486 C17.566,48.0219486 17.657,48.2659486 17.912,48.6369486 C18.172,49.0019486 18.634,49.4869486 19.353,49.8279486 C20.056,50.1679486 21.057,50.3589486 22.014,49.9939486 C22.986,49.6639486 23.765,48.6229486 25.121,48.2069486 C25.807,48.0099486 26.531,48.1679486 27.094,48.4469486 C27.665,48.7269486 28.137,49.1019486 28.556,49.4639486 C29.379,50.1889486 30.139,50.8029486 30.903,50.9599486 C31.664,51.1089486 32.314,50.8519486 32.633,50.5709486 C32.962,50.2819486 33.022,50.0119486 33.066,50.0289486" id="Fill-541" fill="#B85536"></path>
                    <path d="M48.918,66.5609486 C49.037,66.6419486 48.746,67.2819486 48.268,67.9909486 C47.79,68.6999486 47.305,69.2089486 47.186,69.1289486 C47.067,69.0489486 47.358,68.4089486 47.836,67.6999486 C48.314,66.9909486 48.798,66.4809486 48.918,66.5609486" id="Fill-542" fill="#B85536"></path>
                    <path d="M48.596,69.8409486 C48.453,69.8249486 48.414,69.1569486 48.509,68.3509486 C48.604,67.5449486 48.796,66.9049486 48.939,66.9219486 C49.082,66.9379486 49.121,67.6049486 49.026,68.4119486 C48.931,69.2169486 48.739,69.8579486 48.596,69.8409486" id="Fill-543" fill="#B85536"></path>
                </g>
            </g>
        </g>
    </g>
</svg>