<?xml version="1.0" encoding="UTF-8"?>
<svg width="85px" height="192px" viewBox="0 0 85 192" version="1.1" xmlns="http://www.w3.org/2000/svg" xmlns:xlink="http://www.w3.org/1999/xlink">
    <!-- Generator: Sketch 53.2 (72643) - https://sketchapp.com -->
    <title>man-with-hair-bun</title>
    <desc>Created with Sketch.</desc>
    <defs>
        <path d="M0.611666667,4.74118182 C0.460833333,4.48236364 0.379166667,4.34881818 0.379166667,4.34881818 L0.379166667,0.0682727273 C0.379166667,0.0682727273 0.4725,1.84336364 0.611666667,4.74118182 L0.611666667,4.74118182 Z" id="path-1"></path>
    </defs>
    <g id="Page-1" stroke="none" stroke-width="1" fill="none" fill-rule="evenodd">
        <g id="Desktop-HD" transform="translate(-834.000000, -493.000000)">
            <g id="man-with-hair-bun" transform="translate(876.500000, 589.000000) scale(-1, 1) translate(-876.500000, -589.000000) translate(834.000000, 493.000000)">
                <path d="M16.0518666,95 C16.0518666,95 18.7976678,131.142525 17.0690052,135.699642 C15.3006033,140.364664 0,181.264302 0,181.264302 L13.6741277,187 C13.6741277,187 33.4898802,143.856686 33.9222824,141 C34.3546846,138.142383 32.84175,104.060282 32.84175,104.060282 L28.6823627,96.8604275 L16.0518666,95" id="Fill-166" fill="#D34B5A"></path>
                <path d="M39.6898599,5.52253458 C39.6898599,5.52253458 40.9551875,7.8009817 40.8993907,10.0312361 C40.8741921,11.0763052 40.980386,12.118697 41.3097672,13.1111111 C41.7183438,14.3453815 42.1449194,15.8161535 41.9523305,16.0803213 C41.61035,16.550647 40.3297233,16.2873717 40.3297233,16.2873717 C40.3297233,16.2873717 40.352222,22.8826417 37.0485109,22.4426595 C33.9274894,22.0267738 35.1028222,21.9875056 35.1028222,21.9875056 L34.9534307,26 L25,25.6340919 L25.1799897,20.8192771 L26.7009027,4 L39.6898599,5.52253458" id="Fill-167" fill="#BD8876"></path>
                <path d="M21.7812188,6.59263823 C19.6802481,8.30941541 22.3703201,13.6220294 23.3901722,15.881646 C24.4100243,18.1412626 24.4448991,21.8168171 24.4448991,21.8168171 C31.0164414,22.998347 32.1937014,18.0776783 32.1937014,18.0776783 C32.1937014,18.0776783 33.1749084,15.7079754 30.6205654,15.5058341 C27.7155893,15.2742732 27.8701694,11.7761855 29.9324951,11.0843499 C31.1531129,10.6753223 31.8892539,11.9527032 32.0476043,13.0080134 C32.1390328,13.6077941 32.7328469,13.2291351 32.7328469,13.2291351 C32.7328469,13.2291351 32.6913741,11.232397 32.7262489,9.67600422 C32.7630088,8.02755647 32.5763816,6.14090471 32.5763816,6.14090471 L40,5.33518673 C40,5.33518673 39.195052,-1.57652595 27.8070178,0.333851317 C22.680423,1.19366344 21.7812188,6.59263823 21.7812188,6.59263823" id="Fill-168" fill="#17152A"></path>
                <path d="M29.9927912,13.7206473 C30.0071505,13.7234608 30.0082551,13.7783245 29.9165761,13.851476 C29.8282108,13.9225174 29.6349117,14.0034061 29.3653976,13.9998892 C28.8098008,13.9830081 28.2751908,13.6074031 28.0774735,13.1487993 C27.9780625,12.9159805 27.9791671,12.6796447 28.053173,12.4763679 C28.1128196,12.2766079 28.3017004,12.0754412 28.5745282,12.0205775 C28.704867,11.9910356 28.8396241,11.9938491 28.9434533,12.0255012 C29.0439688,12.0564499 29.1069291,12.1049832 29.1389615,12.1478894 C29.2041309,12.237922 29.1533209,12.2920823 29.1411707,12.287862 L29.0539099,12.1809482 C28.9854268,12.123271 28.8219511,12.0705175 28.6419068,12.1281947 C28.4585488,12.1788381 28.3315237,12.3223276 28.2851319,12.5073166 C28.2310082,12.6901954 28.236531,12.8990993 28.3248963,13.1065965 C28.4983132,13.5173705 28.9644401,13.8535862 29.379757,13.8845349 C29.5841017,13.9000093 29.7542049,13.8521794 29.8458839,13.8064597 L29.9927912,13.7206473" id="Fill-169" fill="#A27062"></path>
                <path d="M35.8519763,15 C35.6783222,15 35.4931933,14.9786008 35.3050043,14.9325103 C34.4841638,14.7341564 33.905062,14.1555556 34.0129264,13.6403292 C34.0955459,13.2436214 34.5614284,13 35.1474152,13 C35.3218342,13 35.5061982,13.0213992 35.6943872,13.0674897 C36.5159926,13.2658436 37.0943295,13.8444444 36.98723,14.3596708 C36.9038455,14.7563786 36.4379631,15 35.8519763,15" id="Fill-170" fill="#D68673"></path>
                <path d="M21.7642149,7.28660059 C22.4305254,5.49572502 21.6315057,3.21833994 20.0362311,2.36544672 C18.4418781,1.51155244 16.2918055,2.21028422 15.3914107,3.87602873 C14.996048,4.6077951 14.8402991,5.55378583 15.2089356,6.30056793 C15.4015482,6.6909768 15.7185756,6.99329341 16.0595644,7.23554712 C17.6207402,8.34470873 19.8316378,8.23659551 21.2932817,6.97827769" id="Fill-171" fill="#17152A"></path>
                <path d="M32,13.4038546 C32,13.4038546 33.800846,23.0798608 34.869098,23.4371167 C35.9382645,23.7953435 38.9710758,25.6049227 39.8701269,20.003382 L40,17.9578974 C40,17.9578974 35.6995541,17.5093858 34.6852635,16.6123627 C33.6718875,15.7163104 32.6548531,13 32.6548531,13 L32,13.4038546" id="Fill-172" fill="#17152A"></path>
                <path d="M37.9997536,11.5162403 C37.9902254,11.7928053 37.7596432,12.0083354 37.4842785,11.9997523 C37.207961,11.9911693 36.9916711,11.7594268 37.0002464,11.4838154 C37.0097746,11.2072503 37.2403568,10.9907666 37.5157215,11.0003034 C37.792039,11.0079328 38.0083289,11.2406289 37.9997536,11.5162403" id="Fill-173" fill="#17152A"></path>
                <path d="M38.9907528,11.8308608 C38.9233913,11.8968608 38.5606015,11.5548608 38.0188225,11.5068608 C37.4770436,11.4498608 37.0594023,11.7168608 37.0055131,11.6388608 C36.9785685,11.6038608 37.0497792,11.4808608 37.2326176,11.3598608 C37.4116067,11.2388608 37.7108842,11.1338608 38.048654,11.1668608 C38.3864239,11.1988608 38.662606,11.3598608 38.8165752,11.5138608 C38.9743935,11.6678608 39.0225089,11.8028608 38.9907528,11.8308608" id="Fill-174" fill="#17152A"></path>
                <path d="M23.969999,3.00093795 C24.0376493,3.00769138 24.0305282,3.72548477 23.5160296,4.70087336 C23.0175534,5.6704733 21.9422691,6.80119083 20.4699842,7.4109293 C19.0003696,8.01584389 17.5708112,8.04671672 16.5827602,7.96953464 C15.586698,7.88752867 14.991197,7.71097465 15.0000984,7.62510959 C15.0089998,7.52670243 15.6205232,7.53442064 16.5898813,7.49486482 C17.5547887,7.45048512 18.898004,7.34146543 20.24656,6.78382486 C21.5888851,6.2261843 22.6009698,5.26526735 23.1484034,4.44038382 C23.7100792,3.61646507 23.8711939,2.97199466 23.969999,3.00093795" id="Fill-175" fill="#17152A"></path>
                <path d="M20.9715382,6.00453543 C21.1109458,6.08125062 20.7361853,7.44294511 19.8923593,8.85511012 C19.0526335,10.2733316 18.1128623,11.1252739 18.0111767,10.9849658 C17.9004707,10.8386014 18.6294904,9.79688992 19.4306741,8.44024248 C20.2384182,7.0896515 20.8247502,5.91772615 20.9715382,6.00453543" id="Fill-176" fill="#17152A"></path>
                <path d="M21.8248776,26.6448464 C16.6388267,27.7326728 12.9403823,32.4453387 13.0007278,37.8638748 C13.122333,48.8956697 14.8229774,68.5636075 13.4441754,71.2288756 C12.0041136,74.0121009 14.7736038,78.0329392 14.7736038,78.0329392 L42.1686072,79 L44,31.2442361 C44,31.2442361 35.3340284,23.8091958 21.8248776,26.6448464" id="Fill-177" fill="#F9D9BC"></path>
                <polyline id="Fill-178" fill="#BD8876" points="76 77.6718048 56.8427073 63.4183074 47.3775024 42 36 45.1683722 47.2345091 67.5150043 70.8836988 85 76 77.6718048"></polyline>
                <path d="M71.9138105,77.6993261 L73.974039,77.8893565 C73.974039,77.8893565 75.2023377,78.2069789 77.4318024,78.2775616 C78.0098777,78.2965647 78.5870624,78.2087887 79.1375255,78.0296171 C79.8064539,77.8124394 80.6829195,77.485768 81.1077915,77.1563819 C81.6342053,76.7482689 82.3743911,77.2025322 82.2042641,77.788007 C82.0341372,78.3743867 80.6116621,79.5344774 78.5318379,80.0077437 C76.451123,80.4819149 79.4528393,82.0021586 80.5377326,82.5758696 C81.6217352,83.1495806 84.8942295,85.0860815 84.9841919,85.5638724 C85.1169088,86.2660802 84.4007723,86.5393621 83.3319119,85.9403137 C82.2488,85.334026 78.9299884,83.7757763 78.6592104,84.371205 C78.3919953,84.9584896 83.9509602,87.804422 83.9509602,87.804422 C83.9509602,87.804422 85.2362648,88.2170596 84.9458911,88.9165527 C84.4221495,90.1788979 78.7322492,86.7121993 78.1987097,86.3683347 C77.8281715,86.1294392 77.5110762,86.7664937 77.9225875,87.0017695 C78.3465688,87.2433797 83.5323232,89.7083462 83.0112537,90.9987436 C82.6113218,91.9887118 78.3047051,88.1908173 76.9490338,88.2876423 C75.5942532,88.3826576 80.5029946,90.829526 80.0834669,91.7597703 C79.9267007,92.1054448 79.7628088,92.3416255 77.1432101,90.5236674 C74.4603705,88.660464 68,82.4129864 68,82.4129864 L72.034948,77.671274" id="Fill-179" fill="#BD8876"></path>
                <path d="M43.8999404,30.9419012 L53,55.708423 L42,61 C42,61 31,39.3464451 31,37.3675875 C31,35.38873 34.7933294,24.6814308 43.8999404,30.9419012" id="Fill-180" fill="#F9D9BC"></path>
                <path d="M52.9997085,55.5744375 C53.0099794,55.5959823 52.7485389,55.7524169 52.2555367,56.0221962 C51.7625345,56.2910389 51.0398381,56.6732263 50.1275973,57.1453401 C48.3040495,58.0914414 45.7269926,59.4000586 42.7334983,60.9007062 L42.5327493,61 L42.4477811,60.7892349 C41.9202314,59.4853013 41.322653,58.0858209 40.6634493,56.6544916 C39.7362691,54.6395771 38.7857459,52.7483114 37.9304618,51.0228476 C37.074244,49.2964471 36.3216687,47.7292913 35.7287589,46.3953823 C35.1321142,45.0633468 34.6923338,43.9664314 34.4019481,43.2048668 C34.119032,42.4395552 33.9761734,42.0114678 34.0032512,42.000227 C34.0312627,41.9889862 34.2273431,42.3955287 34.5578787,43.1392954 C34.8949502,43.8811886 35.3767478,44.9546856 36.0070063,46.2670498 C36.6335299,47.5794139 37.4122493,49.1259615 38.2880751,50.842058 C39.1620336,52.5572177 40.1256287,54.4475466 41.0574776,56.4727652 C41.7194824,57.909715 42.3142597,59.3194994 42.8343396,60.6356105 L42.5486224,60.5250759 C45.5542551,59.0497201 48.1555886,57.789813 50.0118165,56.9102199 C50.9399305,56.469955 51.6813012,56.125237 52.1929777,55.8957372 C52.7055879,55.6662374 52.9885039,55.5519558 52.9997085,55.5744375" id="Fill-181" fill="#CDB7A3"></path>
                <path d="M42,60.3907371 L43.4569068,63 C43.4569068,63 55.5123497,58.1624266 54.9830683,57.6631876 C54.453787,57.1639487 53.4892778,56.8891063 53.4892778,56.8891063 C53.4892778,56.8891063 54.8954695,55 54.453787,55 C54.0130266,55 42,60.3907371 42,60.3907371" id="Fill-182" fill="#CDB7A3"></path>
                <path d="M39.6542203,78 C39.5262203,78.0009514 39.3522203,71.9568711 39.2682203,64.501903 C39.1822203,57.0450321 39.2182203,51.0009518 39.3462203,51.0000004 C39.4752203,50.9980977 39.6472203,57.0402752 39.7322203,64.4971461 C39.8172203,71.9521143 39.7822203,77.9980973 39.6542203,78" id="Fill-183" fill="#CDB7A3"></path>
                <path d="M41.9999397,73.01011 C42.0047764,73.0297452 41.7184445,73.0791499 41.1951149,73.1513567 C40.6727526,73.2248303 39.911458,73.3135054 38.9683039,73.4097812 C37.0800611,73.6023328 34.4566417,73.8050186 31.5449558,73.9145956 C28.6323025,74.0222725 25.9895364,74.0153052 24.0800122,73.9640003 C23.1262174,73.9386646 22.3552494,73.9069949 21.8232137,73.8727917 C21.2911781,73.8404886 20.9980748,73.8132527 21.0000095,73.7923507 C21.0029115,73.7486466 22.1830633,73.7587809 24.0867835,73.7562473 C25.9905038,73.7543471 28.6197272,73.7277446 31.519805,73.6207012 C34.4169809,73.5117575 37.0336289,73.3426415 38.9257411,73.203295 C40.8178533,73.0639484 41.989299,72.9676727 41.9999397,73.01011" id="Fill-184" fill="#CDB7A3"></path>
                <path d="M40.9999368,67.171 C41.0105733,67.299 39.6765811,67.549 38.0199488,67.731 C36.3624302,67.913 35.0107105,67.956 35.000074,67.829 C34.9885512,67.701 36.3234298,67.45 37.980062,67.269 C39.6366943,67.087 40.988414,67.044 40.9999368,67.171" id="Fill-185" fill="#CDB7A3"></path>
                <path d="M41,66.4995 C41,66.6275 40.3288734,66.7325 39.5004014,66.7325 C38.6711266,66.7325 38,66.6275 38,66.4995 C38,66.3715 38.6711266,66.2675 39.5004014,66.2675 C40.3288734,66.2675 41,66.3715 41,66.4995" id="Fill-186" fill="#CDB7A3"></path>
                <path d="M23,26.3750791 L23,23 C23,23 32.8052612,23.228969 36,24.6875395 L36,27 L23,26.3750791" id="Fill-187" fill="#F9D9BC"></path>
                <path d="M42.9989051,30.639034 C42.9507328,30.7056899 42.2357044,30.1315604 40.8453191,29.7182938 C40.1557937,29.5094387 39.297193,29.3645732 38.3431922,29.3805706 C37.3910805,29.3939018 36.3454578,29.5894257 35.3536748,30.0257997 C34.3685037,30.4763936 33.5476851,31.1180678 32.9375024,31.805068 C32.322597,32.4929569 31.9022699,33.2110632 31.6396835,33.8465161 C31.1060098,35.1236432 31.1296237,36.0079449 31.0446137,35.9999462 C31.0181661,35.9999462 30.9879404,35.7830923 31.0049424,35.3876006 C31.0191107,34.9929977 31.109788,34.4215344 31.3487605,33.7460879 C31.5839548,33.0706414 31.9957808,32.3018766 32.6248546,31.5633292 C33.2510948,30.8256706 34.1134737,30.1333379 35.1647637,29.6534154 C36.2226656,29.1877128 37.3372408,28.9930776 38.3403585,29.0001876 C39.3453653,29.0046313 40.2408037,29.1886016 40.9463865,29.4410053 C41.6538584,29.6925202 42.1828093,29.9866949 42.5181265,30.2248787 C42.8543881,30.4603962 43.0149625,30.6194816 42.9989051,30.639034" id="Fill-188" fill="#CDB7A3"></path>
                <path d="M31.9999894,36.3390157 C32.0038555,36.3990157 30.9455093,36.5390157 29.2260591,36.6630157 C27.5066089,36.7860157 25.1260548,36.8810157 22.4951704,36.8590157 C19.8642859,36.8350157 17.4846983,36.6980157 15.7681477,36.5450157 C14.0506306,36.3910157 12.9951839,36.2320157 13.0000165,36.1720157 C13.0058157,36.1040157 14.0699611,36.1470157 15.7874782,36.2170157 C17.5049954,36.2860157 19.8778173,36.3700157 22.4990365,36.3940157 C25.1202556,36.4170157 27.4930776,36.3740157 29.2115612,36.3350157 C30.9300449,36.2960157 31.9951568,36.2710157 31.9999894,36.3390157" id="Fill-189" fill="#CDB7A3"></path>
                <path d="M34.9999616,26.7651136 C35.0058462,26.8079532 34.3350018,26.8979163 33.2365432,26.9557498 C32.1390653,27.0135832 30.6129925,27.0264351 28.9378431,26.9221921 C27.2617129,26.8165211 25.7601592,26.6130331 24.6930851,26.4195409 C23.6250302,26.2260488 22.9845896,26.0539764 23.0002819,26.0132788 C23.0346087,25.9147477 25.664044,26.3902672 28.976093,26.5916133 C32.2861803,26.8058112 34.9901539,26.6651546 34.9999616,26.7651136" id="Fill-190" fill="#CDB7A3"></path>
                <g id="Group-193" transform="translate(15.000000, 95.000000)">
                    <mask id="mask-2" fill="white">
                        <use xlink:href="#path-1"></use>
                    </mask>
                    <g id="Clip-192"></g>
                    <polygon id="Fill-191" fill="#C9CCCC" mask="url(#mask-2)" points="0.379166667 4.74118182 0.611666667 4.74118182 0.611666667 0.0682727273 0.379166667 0.0682727273"></polygon>
                </g>
                <path d="M32,142 C32,142 30.3429343,136.263372 29.1332133,129.376999 C26.4770477,114.265677 16.9234923,101.773837 15.2511251,99.6780652 C15.1008101,97.397181 15,96 15,96 L27.0153015,101.411053 L31.7956796,127.11844 L32,142" id="Fill-194" fill="#AD4456"></path>
                <path d="M14.7949792,77 C14.7949792,77 12.2156161,90.4861365 16.3491389,94.8601199 C18.6855185,97.3335925 25.6853119,99.5542878 27.1432128,104.419782 C28.3244863,108.361236 36.772835,133.661434 36.772835,140.345053 C36.772835,145.520434 36.772835,188.79497 36.772835,188.79497 L53.9358798,189 C53.9358798,189 54.1676486,135.758549 53.749904,133.812164 C53.3321593,131.865779 41.1614905,77.9736607 41.1614905,77.9736607 L14.7949792,77" id="Fill-195" fill="#E15967"></path>
                <polyline id="Fill-196" fill="#D34B5A" points="36 189.778639 36 184 53 184.885445 52.9363676 190 36 189.778639"></polyline>
                <polyline id="Fill-197" fill="#BC4657" points="0 182.332721 13.2335165 188 15 184.061581 1.22161172 179 0 182.332721"></polyline>
                <path d="M0.98971051,183 L0,185.200654 C0,185.200654 16.3849975,193.207607 15.9930797,191.843611 C15.6021062,190.480547 11.6810394,187.500068 11.6810394,187.500068 L0.98971051,183" id="Fill-198" fill="#2D345D"></path>
                <path d="M37,190 L37.4722898,192 L57.8535529,192 C57.8535529,192 59.5308349,190.214286 51.5327105,190.138393 C43.5345861,190.0625 37,190 37,190" id="Fill-199" fill="#2D345D"></path>
                <polyline id="Fill-200" fill="#A27062" points="14.25535 77 14 79.1212692 41 81 40.5480119 78.3069431 14.25535 77"></polyline>
            </g>
        </g>
    </g>
</svg>