<?xml version="1.0" encoding="UTF-8"?>
<svg width="93px" height="144px" viewBox="0 0 93 144" version="1.1" xmlns="http://www.w3.org/2000/svg" xmlns:xlink="http://www.w3.org/1999/xlink">
    <!-- Generator: Sketch 53.2 (72643) - https://sketchapp.com -->
    <title>man-with-curly-hair-on-chair</title>
    <desc>Created with Sketch.</desc>
    <g id="Page-1" stroke="none" stroke-width="1" fill="none" fill-rule="evenodd">
        <g id="Desktop-HD" transform="translate(-462.000000, -540.000000)">
            <g id="man-with-curly-hair-on-chair" transform="translate(508.500000, 612.000000) scale(-1, 1) translate(-508.500000, -612.000000) translate(462.000000, 540.000000)">
                <path d="M15.4185636,133 L16.2626835,140.58649 C16.2626835,140.58649 8.41671578,143.41759 10.288623,143.922041 C12.1605303,144.427349 25,142.310887 25,142.310887 C25,142.310887 24.1318908,133.019732 24.2255986,133.019732 C24.3200561,133.019732 15.4185636,133 15.4185636,133" id="Fill-389" fill="#5E4B44"></path>
                <polyline id="Fill-390" fill="#A28675" points="77 94.1681379 91.3585906 144 93 144 81.9824343 94 77 94.1681379"></polyline>
                <polyline id="Fill-391" fill="#A28675" points="51.895407 96.015001 42 144 43.7553433 144 57 96 51.895407 96.015001"></polyline>
                <polyline id="Fill-392" fill="#A28675" points="65 94 66.681993 144 68.9884635 144 70 94.192178 65 94"></polyline>
                <polyline id="Fill-393" fill="#A28675" points="50.4983002 115.080608 83.7797107 114 84 117.56968 48 119 50.4983002 115.080608"></polyline>
                <path d="M56.3346049,97 L51,97 L51.4945504,96.0067039 L52.6757493,96.0052142 C53.0517711,96.0063315 53.4310627,96.0067039 53.8144414,96.0067039 C54.6065395,96.0067039 55.4125341,96.0048417 56.2307902,96.0011173 L57,96 L56.3346049,97" id="Fill-394" fill="#8A766C"></path>
                <path d="M69.9469608,99 L69.9469608,99 L70,95 L69.9469608,99 M65.0749284,99 L65.0749284,99 L65,95.5780946 L65.0749284,99" id="Fill-395" fill="#C9CCCC"></path>
                <path d="M69.947041,99 L65.0823806,99 L65.0075656,95.5780946 L65,95.2592353 C66.6829186,95.1814647 68.3591123,95.0920285 70,95 L69.947041,99" id="Fill-396" fill="#8A766C"></path>
                <polyline id="Fill-397" fill="#C9CCCC" points="61.4915 114.5005 61.4915 114.5005 61.5085 114.4995 61.4915 114.5005"></polyline>
                <path d="M65.4799102,118 L62.9732967,118 L62,114.098917 L62.0169703,114.097975 L65.3361617,114.016957 L65.4799102,118 M65.3361617,114.016957 L65.3361617,114 L66,114 L65.3361617,114.016957" id="Fill-398" fill="#8A766C"></path>
                <polyline id="Fill-399" fill="#C9CCCC" points="68 118.535 68 118.535 69 118.465 68 118.535"></polyline>
                <polyline id="Fill-400" fill="#8A766C" points="70 118 70 114.071711 71 114 70.7751527 117.932014 70.7450102 117.934808 70 118"></polyline>
                <polyline id="Fill-401" fill="#C9CCCC" points="81.758 97 81.758 97 81.242 96 81.758 97"></polyline>
                <path d="M82,97 L77.474032,97 L77,96.0862813 C77.021512,96.0858499 77.0414874,96.0854185 77.0629994,96.0849871 L81.5912723,96 C81.5951137,96 81.5997234,96 81.6035648,96 L82,97" id="Fill-402" fill="#8A766C"></path>
                <path d="M41.7294543,93.1859024 C46.292252,90.9049707 64.7281022,92.1342501 64.7281022,92.1342501 C64.7281022,92.1342501 59.5218435,26.196397 66.2525599,25.6693258 C72.9824627,25.1414246 88.0480739,20.2500378 90.9774079,30.1672768 C93.9067419,40.0861759 89.998794,96.1242207 86.1038617,96.1242207 C77.2247501,96.1242207 50.1823035,98.0913998 42.0157986,96.1292009 C39.9113312,95.6237105 41.7294543,93.1859024 41.7294543,93.1859024" id="Fill-403" fill="#202A36"></path>
                <path d="M84.7771217,31.0010364 C84.8067656,30.984611 84.9414335,31.1636481 85.1718087,31.5217223 C85.2929251,31.6982956 85.4182764,31.9290727 85.5648018,32.2041985 C85.71895,32.475218 85.8680163,32.8020838 86.0340221,33.1700133 C86.694657,34.6433735 87.3781601,36.9076178 87.6881504,39.765641 C88.01508,42.6244855 88.0354072,46.0286539 87.9701907,49.7966455 C87.9032802,53.5679221 87.6678231,57.7079494 87.3197193,62.0417967 C86.9648398,66.3772865 86.536274,70.4959608 86.1314234,74.2384929 C85.7325015,77.9793825 85.3412023,81.3613767 84.7974489,84.17423 C84.2655531,86.9879046 83.6040711,89.2225831 83.0467663,90.7279729 C82.4843796,92.2325414 82.0634365,93.0201404 82.0109245,92.9996086 C81.9380853,92.9716854 82.2370649,92.1397378 82.6817231,90.6146375 C83.1212994,89.0903584 83.6726755,86.8606076 84.1114049,84.0617158 C84.5628388,81.2636454 84.8804518,77.8997192 85.2302495,74.1530807 C85.5851291,70.405621 85.9848979,66.2902318 86.3389305,61.9678823 C86.6861873,57.6455328 86.9479004,53.525216 87.064782,49.7752924 C87.1782757,46.0245476 87.2290938,42.6400896 86.9961776,39.8313427 C86.7785068,37.0160255 86.2161202,34.7895597 85.6766016,33.3038804 C85.137083,31.8173799 84.7034355,31.0396362 84.7771217,31.0010364" id="Fill-404" fill="#2B4553"></path>
                <path d="M17.9654792,55.4355131 L16.2781373,54.5399198 C16.2781373,54.5399198 15.1846414,54.1545876 13.4153897,53.0894481 C12.9566948,52.8136314 12.5446885,52.4623706 12.1916573,52.0583801 C11.7640881,51.5675885 11.220207,50.8958936 11.0293572,50.448097 C10.793457,49.8924073 10.0218666,49.8461674 9.90309741,50.3507499 C9.78514729,50.8553323 10.3986517,52.3982838 11.8173295,53.7781788 C13.2368263,55.1572626 10.2446613,54.7435375 9.15362272,54.6121189 C8.06258416,54.4807003 4.68216664,54.2300316 4.4069497,54.5269402 C4.00313438,54.9625684 4.44380912,55.5166357 5.53402858,55.6229062 C6.63817271,55.7307993 9.89408733,56.2751318 9.84985604,56.8373112 C9.80644384,57.3913784 4.25377837,56.6474844 4.25377837,56.6474844 C4.25377837,56.6474844 3.07427723,56.3002798 3.0021966,56.9460155 C2.86950272,58.1117469 8.7907623,58.4759873 9.35348264,58.4970792 C9.74501149,58.5124925 9.71961945,59.1265904 9.29778397,59.089274 C8.86448112,59.0503352 3.76477686,58.2204512 3.61897741,59.4048408 C3.50676098,60.3134137 8.49097242,59.7496118 9.50665397,60.4959395 C10.5223355,61.2422672 5.6470641,60.5381233 5.57662167,61.4134359 C5.55041054,61.7395486 5.57662167,61.9910286 8.39759525,61.9999521 C11.2881922,62.0088756 19,60.7677001 19,60.7677001 L17.8843885,55.3552017" id="Fill-405" fill="#EFA78C"></path>
                <path d="M53.874449,32 C53.874449,32 39.3670235,51.6106989 36.038657,52.4853757 C32.7102904,53.3616982 13.6928056,54.5103801 13.6928056,54.5103801 L12,62.7996505 C12,62.7996505 36.3445069,64.092329 41.7058756,60.1106158 C50.13065,53.8529325 58.9814881,39.4582039 58.9814881,39.4582039 C59.2047421,34.7112513 57.4031718,32.3406549 53.874449,32" id="Fill-406" fill="#4AB8B3"></path>
                <path d="M36,125.95283 L40.6336238,131.804633 C40.6336238,131.804633 34.4215686,138.592393 36.49649,137.958171 C38.5714113,137.322286 50,128.3135 50,128.3135 C50,128.3135 44.4869281,121.054438 44.5792786,121.000408 C44.6716291,120.948041 36,125.95283 36,125.95283" id="Fill-407" fill="#5E4B44"></path>
                <polyline id="Fill-408" fill="#EEA555" points="27.4844857 82.8349267 46 123.156583 34.2361276 130 15 93.886937 16.211977 82 27.4844857 82.8349267"></polyline>
                <path d="M73.8845761,68 C73.8845761,68 82.2272551,85.8684526 65.7774134,92 L57,72.8820585 L73.8845761,68" id="Fill-409" fill="#F6C37F"></path>
                <path d="M63.31652,73.2593768 C63.31652,73.2593768 16.3826435,60.6420885 11.109643,71.2347631 C5.83580811,81.8290711 12.11168,137 12.11168,137 L26.8009913,135.487461 C26.8009913,135.487461 24.3580568,87.0437378 26.8009913,85.3409062 C29.2439257,83.6388912 63.060379,92.0035923 66.611311,91.8525017 C75.2525241,91.4833507 81.3648662,75.7037774 63.31652,73.2593768" id="Fill-410" fill="#F6C37F"></path>
                <path d="M63.8527557,26.1563064 C57.7979634,26.2839703 52.8772667,31.0721836 52.5986594,37.1149399 C52.3667598,42.1363852 52.1512489,48.29453 52.1266659,54.171978 C52.1135549,57.3660297 48,68.9768946 48,68.9768946 L49.5561037,69.7985261 C51.6841719,70.9204951 54.0056263,71.6570174 56.4016492,71.8616069 C60.951962,72.2511454 64.9319493,71.8239625 69.7952857,70.508861 L74.4472083,69.2510446 C74.4472083,69.2510446 77.1283939,55.2767614 78.6484426,42.1576626 C79.9177447,31.1933006 77.8232733,26.9386568 71.167017,26 L63.8527557,26.1563064" id="Fill-411" fill="#71C4C1"></path>
                <path d="M68.9991234,76.9947668 C68.9672276,77.051301 68.3433145,76.6442544 67.3133133,76.0415122 C66.2833121,75.4396397 64.8355537,74.6655552 63.1761938,73.9758373 C61.515278,73.2895983 59.9656086,72.8207988 58.8336964,72.5268207 C57.7017842,72.2328425 56.9915191,72.0867232 57.0000765,72.0206216 C57.0063,71.9684361 57.7313462,72.0075752 58.8881526,72.227624 C60.0449591,72.446803 61.6280802,72.8747238 63.3107785,73.5705301 C64.9919209,74.2689457 66.4420132,75.0986947 67.4455642,75.7753663 C68.452227,76.4511681 69.0255736,76.9504091 68.9991234,76.9947668" id="Fill-412" fill="#EEA555"></path>
                <path d="M71.9991498,75.7069546 C71.9678435,75.8529546 70.6441479,75.4369546 68.9913346,75.5179546 C67.3369158,75.5769546 66.0397102,76.1039546 66.0011793,75.9619546 C65.9554239,75.8509546 67.2462077,75.0849546 68.9776882,75.0209546 C70.708366,74.9389546 72.0384834,75.5919546 71.9991498,75.7069546" id="Fill-413" fill="#EEA555"></path>
                <path d="M45.9979436,125.999811 C45.9854673,126.005747 45.9089463,125.871768 45.7750347,125.611443 C45.637796,125.336702 45.4473253,124.955118 45.2061179,124.469234 C44.9524343,123.97063 44.644687,123.367727 44.2903616,122.669003 C43.9260553,121.968584 43.5135075,121.173192 43.0577087,120.296396 C41.1987484,116.778188 38.6427819,111.94309 35.8181603,106.600908 C32.9885482,101.251943 30.4533754,96.3931011 28.6825806,92.8418222 C28.2467438,91.9523066 27.8516627,91.1467395 27.5039914,90.4369925 C27.1729551,89.7255496 26.8860015,89.1099268 26.6489528,88.6028435 C26.4235487,88.0940643 26.259694,87.6938247 26.1490713,87.4233237 C26.0401121,87.1519748 25.9893754,87.0061248 26.0018516,87.000189 C26.0151596,86.9942532 26.0916806,87.1282318 26.2255923,87.3877092 C26.3619992,87.6632979 26.5516381,88.0448823 26.7936772,88.5307664 C27.0473609,89.0293701 27.3542765,89.6322734 27.7102653,90.3301489 C28.0745716,91.0314162 28.4871194,91.8259598 28.9420864,92.7044519 C30.8018785,96.2209641 33.357845,101.05691 36.1832984,106.400788 C39.011247,111.748905 41.5472515,116.606051 43.3172146,120.158178 C43.7530514,121.046845 44.1481325,121.85326 44.4966355,122.563007 C44.8276719,123.27445 45.1146255,123.889225 45.3508424,124.398004 C45.5770783,124.905936 45.7401012,125.306175 45.8515556,125.576676 C45.9596831,125.848025 46.0112515,125.993875 45.9979436,125.999811" id="Fill-414" fill="#D28A3F"></path>
                <path d="M70.9999767,88.3668566 C70.9983299,88.373508 70.9085814,88.3585423 70.7356714,88.3211281 C70.555351,88.2803881 70.3001029,88.2221881 69.9666336,88.1465282 C69.2873444,87.9843997 68.2968171,87.7474427 67.0230468,87.44314 C64.4664491,86.8328718 60.7645285,85.9557152 56.1750032,84.9496873 C51.585478,83.9419964 46.1067013,82.8070971 39.9980383,81.6805121 C36.9441184,81.1168038 33.7329328,80.553927 30.3990635,80.0068474 C29.5649786,79.872156 28.7226599,79.7366332 27.875401,79.5994476 C27.0322589,79.468082 26.1792363,79.351682 25.3435046,79.4431391 C24.5069496,79.5204619 23.7197975,79.8887846 23.1491945,80.5115242 C22.5703577,81.1284438 22.2154805,81.9515576 21.9692896,82.7962885 C21.7230987,83.6485023 21.5880643,84.5289846 21.4818481,85.415287 C21.3731618,86.3007579 21.2644756,87.1804088 21.1557893,88.0534082 C21.0709811,88.9280706 20.9869962,89.7977443 20.9030113,90.6599352 C20.8173797,91.5221262 20.7729172,92.3818228 20.7070467,93.2307108 C20.4847338,96.6312517 20.3744008,99.9195497 20.3785177,103.053202 C20.3760476,109.320507 20.6806985,114.961746 21.0009937,119.691741 C21.3270525,124.423398 21.6555815,128.247135 21.8746008,130.891077 C21.9799936,132.20889 22.0623317,133.232378 22.1183216,133.935766 C22.1413762,134.279978 22.1594906,134.54354 22.1718413,134.728949 C22.1817219,134.907706 22.1833687,134.999163 22.1759582,134.999994 C22.1693712,135.000826 22.153727,134.911031 22.1306723,134.733106 C22.108441,134.547697 22.0771525,134.285798 22.0359835,133.944081 C21.9618792,133.242355 21.8548397,132.22053 21.7156883,130.906042 C21.4472661,128.26709 21.075098,124.445015 20.7111636,119.713358 C20.3546396,114.981701 20.0187002,109.33381 20.0014092,103.053202 C19.9865884,99.9128982 20.0886876,96.6146231 20.3068836,93.2032737 C20.3719306,92.3510599 20.4147465,91.4897005 20.4995547,90.6241838 C20.5835395,89.7586672 20.666701,88.8864992 20.7506859,88.0076797 C20.8593722,87.1313545 20.9672351,86.2492093 21.0767447,85.3595813 C21.1829609,84.473279 21.3196421,83.5678538 21.5765369,82.68072 C21.8334318,81.8002377 22.2056,80.918924 22.8511306,80.2288387 C23.1689556,79.8846274 23.5526511,79.6027733 23.971752,79.398242 C24.3933231,79.1945421 24.847006,79.0839622 25.2982187,79.034908 C26.2039377,78.9367994 27.0874254,79.0631765 27.9371545,79.1953736 C28.7868837,79.3333906 29.628379,79.4705763 30.4632872,79.606099 C33.7996267,80.1589987 37.0124591,80.7318526 40.0663789,81.305538 C46.1766887,82.4537402 51.6529952,83.6194023 56.2375802,84.663676 C60.8221651,85.7079497 64.5150286,86.6283405 67.0609224,87.287663 C68.3346927,87.6135828 69.3202796,87.8813026 69.9880415,88.0650482 C70.3157471,88.1589996 70.5685251,88.229671 70.745552,88.2795567 C70.9159918,88.3311052 71.0016235,88.3602052 70.9999767,88.3668566" id="Fill-415" fill="#EEA555"></path>
                <path d="M25.9966859,82.9951646 C25.9576169,83.0422238 25.5822141,82.740491 25.1592489,82.3211101 C25.1070153,82.2680531 25.0564803,82.2168416 25.0059453,82.1660914 L25.1511803,82.0064591 C25.4662808,82.3893922 25.6777634,82.7035818 25.6408177,82.7409524 C25.6034472,82.7787843 25.3295391,82.5282631 25,82.1596323 L25.1456597,82 C25.197044,82.0498274 25.2484283,82.0996549 25.3015113,82.1513278 C25.7249011,82.5707087 26.035755,82.9485667 25.9966859,82.9951646" id="Fill-416" fill="#EEA555"></path>
                <path d="M26.9406139,85.9994014 C26.8092574,86.0261649 26.5066509,85.1521967 26.2633981,84.0475083 C26.0201453,82.9428199 25.9286822,82.0273221 26.0600387,82.0005586 C26.1894492,81.9747179 26.4930288,82.8486861 26.7362816,83.9542974 C26.9795344,85.05714 27.0709975,85.9735607 26.9406139,85.9994014" id="Fill-417" fill="#EEA555"></path>
                <polyline id="Fill-418" fill="#AD5035" points="13.7753002 52.5235457 12 61.8254848 15.1397942 62 17 52 13.7753002 52.5235457"></polyline>
                <path d="M80.9994673,92.9688844 C80.94548,93.1025725 76.7303829,92.7748341 71.5026155,92.5670099 C66.27403,92.3510834 62.0082176,92.335689 62.0000377,92.1995702 C61.9853139,92.07601 66.2862998,91.8799341 71.5803244,92.0982913 C76.873531,92.3085462 81.0542726,92.84816 80.9994673,92.9688844" id="Fill-419" fill="#2B4553"></path>
                <path d="M79.1296717,50.6142017 C79.0742385,50.651846 78.8698963,50.5940023 78.7764206,50.2983567 C78.6894665,50.0054656 78.8622878,49.5473068 79.3568394,49.2452342 C79.6024848,49.0974114 79.9492144,48.9716243 80.3807242,49.005596 C80.6024572,49.029468 80.8002778,49.0882298 80.9741861,49.1745363 C81.1557028,49.2590065 81.3198287,49.3765302 81.4556945,49.512417 C81.996984,50.0642275 82.1458929,50.8327223 81.8513358,51.5654092 C81.5459095,52.2742241 80.8752758,52.816853 80.043777,52.9665121 C79.8394348,53.0004838 79.628571,53.0105835 79.4296635,52.9876297 C79.2329298,52.9720211 79.0101098,52.905914 78.8427231,52.8278709 C78.5003413,52.6580124 78.2894775,52.4238832 78.1612202,52.1970991 C77.9047055,51.7416948 77.9840512,51.2835359 78.1916541,51.0558338 C78.3992571,50.8235408 78.6025124,50.8161956 78.6459894,50.866694 C78.7068573,50.9263741 78.6449025,51.0494067 78.6459894,51.2137562 C78.6394679,51.3716787 78.7155527,51.6030535 78.9275034,51.8114745 C79.0318484,51.9124714 79.169888,51.9978597 79.3057538,52.035504 L79.5133568,52.0520308 L79.7698715,52.011632 C80.1133403,51.9225711 80.50246,51.5993809 80.6633251,51.2082473 C80.8252772,50.836395 80.7481054,50.3699728 80.545937,50.1239075 C80.3209432,49.8649881 80.1263834,49.8053081 79.8111747,49.894369 C79.5166176,49.9871026 79.3351009,50.1652244 79.2666245,50.2974386 C79.1927135,50.436998 79.2090174,50.5728848 79.1296717,50.6142017" id="Fill-420" fill="#2B4553"></path>
                <polyline id="Fill-421" fill="#94B7CF" points="0 37.0148089 9.22505681 64 51 64 50.6917858 62.6112499 33.8008251 62.0880005 26.0182108 37 0 37.0148089"></polyline>
                <path d="M18.9576381,52.7003106 C19.1826421,53.7913953 18.4889663,54.8109921 17.4074957,54.9772016 C16.326025,55.1425174 15.2684027,54.3910004 15.0423619,53.2999157 C14.8173579,52.2079374 15.5110337,51.1883406 16.5925043,51.0230247 C17.673975,50.8568153 18.7326342,51.6083323 18.9576381,52.7003106" id="Fill-422" fill="#FFFFFE"></path>
                <path d="M39.8020954,57.1609929 L38.099168,56.3239588 C38.099168,56.3239588 37.0004789,55.9755977 35.2113478,54.9740598 C34.746987,54.7135954 34.3265412,54.3781366 33.9638355,53.9878432 C33.5230587,53.5144916 32.9611089,52.8637338 32.7577985,52.4242506 C32.5065069,51.8799365 31.7388071,51.8589703 31.6371519,52.3637712 C31.53631,52.8685722 32.1950355,54.3821686 33.6474846,55.7086822 C35.0999337,57.0335831 32.1177776,56.7182841 31.0312871,56.6223235 C29.9439833,56.5255566 26.5812302,56.3828253 26.31774,56.6868348 C25.9314503,57.1327692 26.3860523,57.6690194 27.4717295,57.7399818 C28.5712319,57.8125571 31.819318,58.2504275 31.7932942,58.8100631 C31.7680838,59.3624411 26.2339761,58.7987736 26.2339761,58.7987736 C26.2339761,58.7987736 25.0531496,58.4907321 25.0011022,59.1350388 C24.9075794,60.2970486 30.7954471,60.4720355 31.3549571,60.475261 C31.7436865,60.4776802 31.7371806,61.0889248 31.3191745,61.0639267 C30.8865301,61.0397349 25.798892,60.3768813 25.6931706,61.5582445 C25.6110332,62.4646283 30.539276,61.7461337 31.5704661,62.4565644 C32.6032827,63.1661887 27.7417257,62.6202618 27.7002503,63.4919708 C27.6847988,63.8169465 27.7197681,64.065315 30.518945,63.9846759 C33.3872474,63.902424 41,62.4259215 41,62.4259215 L39.7183316,57.0835793" id="Fill-423" fill="#EFA78C"></path>
                <path d="M72.058536,29.0217943 C72.058536,29.0217943 61.0428711,50.8897905 57.9138381,52.3183531 C54.784805,53.7477419 36.2594609,58.3746652 36.2594609,58.3746652 L36,66 C36,66 60.1412853,63.7559422 64.7536513,58.9084138 C70.3271649,53.048746 75.350752,42.384514 77.3742205,37.7691581 C78.2284833,35.8217191 78.2350106,33.5594841 77.2273559,31.6897114 C76.1568757,29.6993081 74.4100023,28.849111 72.058536,29.0217943" id="Fill-424" fill="#71C4C1"></path>
                <path d="M60.5419827,29 C60.6683233,28.0135823 60.1778708,23.9049236 60.1778708,23.9049236 C60.1778708,23.9049236 56.688203,23.6281834 56.3664661,19.9049236 C56.0447293,16.1816638 56,7.56960951 56,7.56960951 L62.2354172,4 L69.3724823,9.46859083 L71,13.5509338 L68.8624117,23.2648557 L68.8710437,28.1587436 L60.5419827,29" id="Fill-425" fill="#EFA78C"></path>
                <path d="M57.0003179,13.5164073 C57.0092016,13.7926912 57.2392899,14.0094543 57.5155736,13.9996821 C57.7918573,13.9907984 58.0086201,13.7607098 57.9997364,13.4844258 C57.9899643,13.2090302 57.7589876,12.9913788 57.4835922,13.0002626 C57.2073085,13.0091463 56.9905458,13.2410116 57.0003179,13.5164073" id="Fill-426" fill="#17152A"></path>
                <path d="M56.0047347,11.8552898 C56.0383721,11.9252898 56.2195656,11.5592898 56.4909074,11.5072898 C56.7613521,11.4462898 56.969904,11.7322898 56.9972625,11.6492898 C57.0107174,11.6122898 56.9748375,11.4802898 56.8837923,11.3502898 C56.794541,11.2202898 56.6447424,11.1072898 56.4756584,11.1422898 C56.3070229,11.1772898 56.1688852,11.3502898 56.0917435,11.5152898 C56.0128077,11.6802898 55.9885887,11.8252898 56.0047347,11.8552898" id="Fill-427" fill="#17152A"></path>
                <path d="M61.2049991,13.0967284 C60.9820894,13.2601689 60.9332446,13.5728376 61.0966525,13.7957917 C61.2600605,14.0178576 61.5726669,14.0667121 61.7955766,13.9032716 C62.0184863,13.7407194 62.066443,13.4271624 61.9030351,13.2042083 C61.7405153,12.9821424 61.4270207,12.9332879 61.2049991,13.0967284" id="Fill-428" fill="#17152A"></path>
                <path d="M62.0047786,11.8557797 C62.0384146,11.9257797 62.2196001,11.5587797 62.4909298,11.5077797 C62.7613626,11.4467797 62.9699054,11.7317797 62.9972626,11.6487797 C63.0107169,11.6117797 62.9748386,11.4797797 62.8837974,11.3497797 C62.7936531,11.2207797 62.6443096,11.1067797 62.4756815,11.1417797 C62.306605,11.1767797 62.1689219,11.3507797 62.0913351,11.5147797 C62.0124028,11.6797797 61.9886334,11.8247797 62.0047786,11.8557797" id="Fill-429" fill="#17152A"></path>
                <path d="M61,16.9270902 C61,16.8972582 60.7562531,16.8683585 60.3617681,16.8450523 C60.2636279,16.8431878 60.1635634,16.8273396 60.1385473,16.7191987 C60.1090411,16.6073288 60.1436788,16.4376595 60.183448,16.2577355 C60.2597793,15.8839037 60.3393177,15.4886302 60.4239877,15.0737795 C60.5901204,14.2338232 60.7325199,13.4693792 60.8287358,12.9128266 C60.9249516,12.3553418 60.9743424,12.007613 60.9544578,12.000155 C60.9352147,11.9917647 60.8492618,12.3245776 60.7273884,12.8699432 C60.605515,13.4153087 60.4470795,14.1741593 60.2803053,15.0150478 C60.2001255,15.4308308 60.1237942,15.8270365 60.051953,16.2018006 C60.0218054,16.3779956 59.9672831,16.5784291 60.0262955,16.7909819 C60.0570845,16.896326 60.1302086,16.9662446 60.1930696,16.9839574 C60.2565721,17.0053991 60.3123773,16.9998056 60.3611267,16.9979411 C60.7556117,16.9820929 61,16.9569222 61,16.9270902" id="Fill-430" fill="#17152A"></path>
                <path d="M63.9797127,17 C62.9176898,17 62.0380578,16.8166759 62.0011179,16.5433462 C61.9641779,16.2689122 62.8472731,16.0049696 63.977404,16 C63.9901021,16 64.0028002,16 64.0154983,16 C65.1283135,16 66.012563,16.2523468 65.9998649,16.5240199 C65.9871668,16.8006626 65.1006086,16.9944782 64.0212701,17 C64.0074176,17 63.9935652,17 63.9797127,17" id="Fill-431" fill="#EC9680"></path>
                <path d="M61.9667887,17.0414336 C62.1670903,16.8109995 61.412955,17.6158961 61,17.6375332 C61,17.6375332 61.266401,18.216864 61.6766853,17.9107004 C62.1019923,17.5931773 61.9667887,17.0414336 61.9667887,17.0414336" id="Fill-432" fill="#EEE5D9"></path>
                <path d="M61,22.6667638 C61,22.6667638 63.5703125,22.5912076 66,20 C66,20 64.9435764,24.0503101 61.1128472,23.9995264 L61,22.6667638" id="Fill-433" fill="#E88173"></path>
                <path d="M70.1492708,15.7176044 C69.2372776,17.7926588 68.6730395,20.8147335 68.6730395,20.8147335 C68.170215,21.7594231 68.002095,18.7839614 68.002095,18.7839614 C68.002095,18.7839614 67.5714316,15.9242553 67.9621762,14.8094282 C67.9621762,14.8094282 69.6817591,15.3726684 70.069433,12.2503758 C70.2605831,10.7067093 67.9575701,9.96711676 67.3303829,11.8339665 L65.8940705,11.9683672 C65.8940705,11.9683672 65.7773846,6.13630691 62.4664196,7.21073603 C62.4664196,7.21073603 60.0651448,8.7116739 58.6326708,7.79262137 C57.2017321,6.8751226 57.3046,6.55737747 57.3046,6.55737747 C57.3046,6.55737747 56.6152315,8.0917213 54.7689828,7.08410411 C52.9227341,6.07648692 52.6793824,4.28033353 53.31962,3.42110098 C53.6896374,2.92467277 54.0489074,2.37230899 54.6538321,2.26121473 C55.2579892,2.15167423 55.9135802,2.3948386 56.3035571,2.87572915 C55.8506312,2.20450227 56.1699823,1.20154638 56.8424621,0.757169329 C57.5149419,0.312015396 58.4108139,0.346198246 59.1585254,0.645298184 C59.9054693,0.943621238 60.5364948,1.47190165 61.1544699,1.99163634 C61.5774567,0.760276861 62.8801943,-0.0981788037 64.1637402,0.00903104402 C65.4480537,0.115464009 66.5941865,1.17823989 66.8137404,2.4632043 C67.5061796,1.58921097 68.8373211,1.38955205 69.836061,1.87355014 C70.8348009,2.35754822 71.4919273,3.41177839 71.6830774,4.51572906 C71.8734598,5.61890286 71.6446938,6.76325145 71.2263131,7.80116708 C71.9978225,7.35135185 73.0687235,7.67375827 73.5884367,8.40558202 C74.10815,9.13740576 74.1119883,10.1636681 73.7327589,10.9793952 C73.3535294,11.7943455 72.6388277,12.4127443 71.8465913,12.8244923 C72.4338596,13.3061597 72.6127269,14.2283198 72.2496185,14.8987698 C71.8865102,15.5684429 71.0221127,15.9118251 70.305108,15.6686608" id="Fill-434" fill="#332B2A"></path>
                <path d="M68.002271,15.5806591 C68.011907,15.5683957 68.0379808,15.6419762 68.098064,15.713104 C68.1575804,15.7805528 68.2618757,15.8357382 68.3746733,15.7609314 C68.6036695,15.612544 68.8139606,14.8669281 68.8479699,14.0403736 C68.8649746,13.6246437 68.8354998,13.2211771 68.7765503,12.8814804 C68.7210017,12.5381047 68.6269092,12.2903836 68.5152452,12.2315192 C68.4041481,12.1603913 68.3202584,12.2965153 68.2907836,12.4216022 C68.2590415,12.5466891 68.2698112,12.6398911 68.2584747,12.6472491 C68.2522397,12.6582862 68.2148294,12.5638579 68.2375023,12.3762275 C68.2488387,12.2867046 68.276613,12.1812392 68.3293275,12.0990742 C68.382042,12.0169093 68.458563,11.9813454 68.5367845,12.0095513 C68.6994625,12.0549259 68.8377671,12.4007544 68.9029517,12.7711096 C68.9766386,13.1463703 69.0146157,13.6001168 68.9947769,14.0685795 C68.9556662,14.992015 68.7124994,15.8296065 68.4007471,15.9816729 C68.2488387,16.0454427 68.1269719,15.9313929 68.0657551,15.8148904 C68.0028379,15.6934826 67.9949023,15.5892435 68.002271,15.5806591" id="Fill-435" fill="#E88173"></path>
                <path d="M51.124295,64 C51.0459037,64 51.0035084,63.9914166 51.0003087,63.9751082 C50.9715119,63.835199 52.9592915,63.3665463 56.0997433,62.4300991 C56.6732797,62.2532814 57.2852118,62.0575802 57.9251409,61.8318372 C60.8528162,60.8936733 63.2453509,59.7872751 64.3964233,58.5049176 C64.4092218,58.4903258 64.4228203,58.4757341 64.4356189,58.4611423 C65.3355191,57.7710382 66.2058226,56.9719252 67.0097335,56.0517864 C68.6967464,54.1419835 69.9934026,52.0141626 71.1020797,50.0408426 C72.2027576,48.0563642 73.1290549,46.2126533 73.9617626,44.6933944 C75.571984,41.6977934 76.852642,40 76.9870271,40 C76.9902268,40 76.9926265,40 76.9942263,40.0017167 C77.0902157,40.0772505 75.978339,41.8857695 74.4777054,45.0006795 C73.7137901,46.5499803 72.8434866,48.4237331 71.7644062,50.4562784 C70.6781267,52.479382 69.3710716,54.6767283 67.6128666,56.667215 C65.8642605,58.6714352 63.7692928,60.1280355 61.7639152,61.0842245 C59.7561378,62.0610136 57.8499492,62.6326669 56.2485268,63.0420943 C54.6455045,63.4489467 53.3344499,63.6892815 52.4273505,63.8394907 C51.773823,63.9459247 51.3274725,64 51.124295,64" id="Fill-436" fill="#62B3B1"></path>
                <path d="M57,61 C58.0187984,60.5365419 59.115739,59.9671505 60.2384814,59.2266361 C61.1643937,58.6256684 62.098415,57.8892284 63,57 C62.9882049,57.017316 62.9756727,57.034632 62.9638776,57.0519481 C61.9030593,58.5737204 59.6981202,59.8866819 57,61" id="Fill-437" fill="#62B3B1"></path>
                <path d="M56,53 C56.2129296,52.799085 57.1606899,52.3057091 58.3533937,51.248475 C59.7560491,50.0340736 61.3828018,47.9706443 62.8710758,45.4357129 C65.8379452,40.4249905 67.7312322,36 67.9776647,36 C67.9806428,36 67.9836208,36.0008101 67.9858543,36.0016203 C67.9932994,36.005671 67.998511,36.0178231 68,36.0372665 C65.3264673,41.39878 61.6552922,48.4073103 59.4768582,51.0742947 C59.2073458,51.3157167 58.9423005,51.5336447 58.6832113,51.7240278 C58.3221243,51.9962352 57.9826281,52.2198342 57.6736568,52.4021159 C57.2247177,52.5779165 56.6566572,52.7796416 56,53" id="Fill-438" fill="#62B3B1"></path>
                <path d="M56.0508128,53 C56.0211451,53 56.0040862,52.9951546 56.0018612,52.9846563 C55.9944442,52.9668899 56.0092781,52.9418555 56.0448793,52.9087454 C56.6990512,52.6890884 57.2649619,52.4880053 57.712202,52.3127642 C56.8496146,52.8199135 56.225852,53 56.0508128,53 M59.508579,50.9891692 C61.6787686,48.3306731 65.3360498,41.3444492 67.9994643,36 C68.0157815,36.2131965 67.6590279,37.3357085 66.9692547,38.9976723 C66.2149544,40.813073 65.0549487,43.2624103 63.5374477,45.8264215 C62.2810222,47.9713078 60.8473323,49.7842858 59.508579,50.9891692" id="Fill-439" fill="#62B3B1"></path>
            </g>
        </g>
    </g>
</svg>