<?xml version="1.0" encoding="UTF-8"?>
<svg width="176px" height="209px" viewBox="0 0 176 209" version="1.1" xmlns="http://www.w3.org/2000/svg" xmlns:xlink="http://www.w3.org/1999/xlink">
    <!-- Generator: Sketch 53.2 (72643) - https://sketchapp.com -->
    <title>Group 10</title>
    <desc>Created with Sketch.</desc>
    <defs>
        <path d="M0.734,4.781 C0.553,4.562 0.455,4.449 0.455,4.449 L0.455,0.827 C0.455,0.827 0.567,2.329 0.734,4.781 L0.734,4.781 Z" id="path-1"></path>
    </defs>
    <g id="Page-1" stroke="none" stroke-width="1" fill="none" fill-rule="evenodd">
        <g id="641" transform="translate(-54.000000, -259.000000)">
            <g id="Group-10" transform="translate(54.490000, 259.651215)">
                <g id="Group-5" transform="translate(76.155235, 2.522682)">
                    <polyline id="Fill-33" fill="#EFA78C" points="10.0577653 83.1011036 30.1537653 67.7471036 40.0827653 44.6751036 52.0177653 48.0881036 40.2327653 72.1601036 15.4247653 90.9951036 10.0577653 83.1011036"></polyline>
                    <path d="M14.6917653,82.3881036 L12.3777653,82.5971036 C12.3777653,82.5971036 10.9997653,82.9491036 8.49676529,83.0271036 C7.84776529,83.0481036 7.19976529,82.9511036 6.58076529,82.7531036 C5.83076529,82.5131036 4.84676529,82.1521036 4.36976529,81.7881036 C3.77876529,81.3371036 2.94676529,81.8391036 3.13776529,82.4861036 C3.32876529,83.1341036 4.92676529,84.4161036 7.26176529,84.9401036 C9.59776529,85.4621036 6.22676529,87.1431036 5.00976529,87.7771036 C3.79276529,88.4111036 0.11876529,90.5511036 0.0177652901,91.0791036 C-0.13123471,91.8551036 0.67176529,92.1571036 1.87276529,91.4951036 C3.08876529,90.8251036 6.81476529,89.1031036 7.11876529,89.7611036 C7.41776529,90.4101036 1.17776529,93.5551036 1.17776529,93.5551036 C1.17776529,93.5551036 -0.26523471,94.0111036 0.0607652901,94.7841036 C0.64876529,96.1791036 7.03676529,92.3481036 7.63476529,91.9681036 C8.05176529,91.7041036 8.40776529,92.4081036 7.94576529,92.6681036 C7.46976529,92.9351036 1.64776529,95.6591036 2.23276529,97.0851036 C2.68176529,98.1791036 7.51676529,93.9831036 9.03776529,94.0881036 C10.5597653,94.1941036 5.04776529,96.8981036 5.51976529,97.9251036 C5.69476529,98.3081036 5.87976529,98.5691036 8.82076529,96.5601036 C11.8327653,94.5011036 19.0857653,87.5971036 19.0857653,87.5971036 L14.5557653,82.3581036" id="Fill-34" fill="#EFA78C"></path>
                    <polyline id="Fill-35" fill="#D3435A" points="76.3777653 119.017104 94.1967653 108.461104 99.2017653 117.493104 81.3557653 127.940104 76.3777653 119.017104"></polyline>
                    <path d="M43.2207653,140.200104 C49.2127653,167.736104 88.6817653,193.353104 88.6817653,193.353104 L95.9427653,185.602104 C95.9427653,185.602104 63.6817653,156.824104 62.3297653,144.243104 C60.9767653,131.662104 71.5017653,111.944104 71.5017653,111.944104 L60.5947653,107.302104 L43.2207653,140.200104" id="Fill-36" fill="#EA8F80"></path>
                    <path d="M79.5687653,77.8651036 C79.9057653,77.8841036 78.8527653,94.6041036 75.2837653,101.906104 C74.9257653,102.641104 74.6457653,103.888104 73.6257653,106.549104 C71.9507653,110.920104 52.9987653,138.954104 52.9987653,146.294104 C52.9987653,151.068104 38.3827653,202.916104 38.3827653,202.916104 L26.3687653,200.606104 L34.6537653,144.162104 L46.9957653,90.6241036 L79.5687653,77.8651036" id="Fill-37" fill="#EFA78C"></path>
                    <path d="M57.0047653,31.6361036 C57.1987653,30.5041036 56.7387653,25.7491036 56.7387653,25.7491036 C56.7387653,25.7491036 52.3987653,25.2901036 52.1347653,20.9861036 C51.8717653,16.6821036 52.1347653,6.75610356 52.1347653,6.75610356 L60.0407653,2.89110356 L68.7367653,9.47910356 L67.4197653,31.0001036 L57.0047653,31.6361036" id="Fill-38" fill="#EFA78C"></path>
                    <path d="M68.0757653,12.7991036 C68.0757653,12.7991036 60.9767653,12.1291036 59.7217653,5.68610356 L52.0177653,12.7991036 C52.0177653,12.7991036 49.6797653,8.02910356 53.9477653,3.59410356 C58.2147653,-0.840896443 61.1437653,0.0791035571 62.8177653,0.0791035571 C64.3777653,0.0791035571 72.2677653,1.75310356 74.6157653,10.7301036 C74.7857653,11.3801036 74.9267653,12.9911036 75.0347653,13.7211036 L68.0757653,12.7991036" id="Fill-39" fill="#E36B5B"></path>
                    <path d="M52.9987653,13.9911036 C52.9987653,14.2951036 53.2457653,14.5421036 53.5497653,14.5421036 C53.8537653,14.5421036 54.1007653,14.2951036 54.1007653,13.9911036 C54.1007653,13.6871036 53.8537653,13.4401036 53.5497653,13.4401036 C53.2457653,13.4401036 52.9987653,13.6871036 52.9987653,13.9911036" id="Fill-40" fill="#17152A"></path>
                    <path d="M52.4647653,13.3911036 C52.5367653,13.4621036 52.9437653,13.1151036 53.5367653,13.0841036 C54.1287653,13.0431036 54.5747653,13.3371036 54.6367653,13.2581036 C54.6677653,13.2231036 54.5937653,13.0911036 54.3987653,12.9571036 C54.2077653,12.8241036 53.8837653,12.7031036 53.5147653,12.7261036 C53.1447653,12.7481036 52.8397653,12.9081036 52.6657653,13.0641036 C52.4877653,13.2201036 52.4307653,13.3591036 52.4647653,13.3911036" id="Fill-41" fill="#17152A"></path>
                    <path d="M59.3827653,13.9911036 C59.3827653,14.2951036 59.6297653,14.5421036 59.9337653,14.5421036 C60.2377653,14.5421036 60.4847653,14.2951036 60.4847653,13.9911036 C60.4847653,13.6871036 60.2377653,13.4401036 59.9337653,13.4401036 C59.6297653,13.4401036 59.3827653,13.6871036 59.3827653,13.9911036" id="Fill-42" fill="#17152A"></path>
                    <path d="M59.0407653,13.3911036 C59.1107653,13.4621036 59.5187653,13.1151036 60.1107653,13.0841036 C60.7037653,13.0431036 61.1497653,13.3371036 61.2117653,13.2581036 C61.2417653,13.2231036 61.1687653,13.0911036 60.9737653,12.9571036 C60.7817653,12.8241036 60.4587653,12.7031036 60.0897653,12.7261036 C59.7197653,12.7481036 59.4137653,12.9081036 59.2397653,13.0641036 C59.0627653,13.2201036 59.0057653,13.3591036 59.0407653,13.3911036" id="Fill-43" fill="#17152A"></path>
                    <path d="M56.9007653,18.4011036 C56.8997653,18.4321036 56.5267653,18.4471036 55.9237653,18.4451036 C55.8487653,18.4441036 55.7637653,18.4461036 55.6677653,18.4221036 C55.5717653,18.4011036 55.4607653,18.3221036 55.4177653,18.2101036 C55.3347653,17.9831036 55.4247653,17.7761036 55.4767653,17.5921036 C55.5997653,17.2011036 55.7287653,16.7891036 55.8647653,16.3571036 C56.1477653,15.4831036 56.4147653,14.6951036 56.6197653,14.1281036 C56.8247653,13.5621036 56.9667653,13.2171036 56.9967653,13.2271036 C57.0277653,13.2361036 56.9407653,13.6001036 56.7757653,14.1791036 C56.6107653,14.7581036 56.3677653,15.5541036 56.0867653,16.4281036 C55.9437653,16.8591036 55.8087653,17.2691036 55.6797653,17.6571036 C55.6127653,17.8451036 55.5537653,18.0221036 55.5957653,18.1391036 C55.6287653,18.2521036 55.7797653,18.2741036 55.9297653,18.2811036 C56.5307653,18.3251036 56.9017653,18.3681036 56.9007653,18.4011036" id="Fill-44" fill="#17152A"></path>
                    <path d="M61.5097653,19.5581036 C61.4847653,19.5581036 61.4597653,19.5571036 61.4337653,19.5571036 C60.5187653,19.5361036 59.7637653,19.1841036 59.7477653,18.6941036 C59.7327653,18.2171036 60.4607653,17.7831036 61.3877653,17.7831036 C61.4097653,17.7831036 61.4317653,17.7831036 61.4537653,17.7831036 C62.4117653,17.8041036 63.1657653,18.2801036 63.1377653,18.7671036 C63.1117653,19.2431036 62.3917653,19.5581036 61.5097653,19.5581036" id="Fill-45" fill="#ED9A83"></path>
                    <path d="M58.8597653,18.9611036 C59.4597653,18.5631036 57.2027653,19.9481036 55.9917653,19.9481036 C55.9917653,19.9481036 56.7387653,21.0221036 57.9587653,20.5071036 C59.2247653,19.9721036 58.8597653,18.9611036 58.8597653,18.9611036" id="Fill-46" fill="#EEE5D9"></path>
                    <path d="M56.7387653,25.7491036 C56.7387653,25.7491036 59.6377653,25.7821036 62.4417653,23.8231036 C62.4417653,23.8231036 61.1497653,26.9841036 56.8327653,26.8061036 L56.7387653,25.7491036" id="Fill-47" fill="#E88173"></path>
                    <path d="M84.3897653,107.035104 L83.3887653,109.131104 C83.3887653,109.131104 82.9877653,110.495104 81.7777653,112.688104 C81.4637653,113.256104 81.0487653,113.764104 80.5627653,114.194104 C79.9727653,114.717104 79.1607653,115.379104 78.6047653,115.604104 C77.9147653,115.881104 77.9217653,116.853104 78.5757653,117.019104 C79.2297653,117.186104 81.1487653,116.466104 82.7907653,114.726104 C84.4327653,112.985104 84.1567653,116.740104 84.0807653,118.110104 C84.0047653,119.482104 83.9677653,123.733104 84.3707653,124.090104 C84.9617653,124.613104 85.6317653,124.077104 85.6757653,122.707104 C85.7197653,121.319104 86.1417653,117.236104 86.8627653,117.311104 C87.5737653,117.385104 87.0917653,124.357104 87.0917653,124.357104 C87.0917653,124.357104 86.7477653,125.830104 87.5787653,125.944104 C89.0777653,126.152104 89.0457653,118.702104 89.0247653,117.993104 C89.0097653,117.501104 89.7977653,117.555104 89.7847653,118.084104 C89.7717653,118.630104 89.1417653,125.027104 90.6657653,125.252104 C91.8357653,125.424104 90.6957653,119.124104 91.5637653,117.870104 C92.4317653,116.615104 91.9427653,122.735104 93.0667653,122.855104 C93.4857653,122.899104 93.8037653,122.874104 93.5777653,119.318104 C93.3457653,115.678104 91.1117653,105.916104 91.1117653,105.916104 L84.2957653,107.136104" id="Fill-48" fill="#EFA78C"></path>
                    <path d="M45.5547653,81.1401036 C45.2557653,88.3101036 46.4087653,93.8761036 46.4087653,93.8761036 L78.8577653,92.6461036 C78.8577653,92.6461036 82.7157653,83.3501036 75.4657653,71.1541036 C73.2377653,67.4051036 73.4817653,62.6631036 73.9757653,52.9841036 L77.5697653,38.4951036 L73.3387653,30.3301036 L54.1007653,31.6361036 C54.1007653,31.6361036 43.2787653,31.6361036 38.2407653,46.5921036 L46.2167653,55.9941036 L46.3047653,60.0401036 L45.5547653,81.1401036" id="Fill-49" fill="#71C4C1"></path>
                    <path d="M59.9337653,5.17010356 C59.9337653,5.17010356 58.3577653,8.21810356 59.0307653,10.5131036 L52.1307653,12.2931036 C52.1307653,12.2931036 50.5567653,3.54610356 59.9337653,5.17010356" id="Fill-50" fill="#E36B5B"></path>
                    <path d="M73.1597653,8.28210356 C73.4867653,7.39410356 74.0877653,6.58710356 74.9097653,6.11610356 C75.7317653,5.64510356 76.7797653,5.54110356 77.6377653,5.94310356 C78.4957653,6.34610356 79.1037653,7.28210356 79.0217653,8.22610356 C78.9287653,9.28010356 78.0087653,10.1441036 76.9777653,10.3851036 C75.9467653,10.6271036 74.8497653,10.3371036 73.9247653,9.82010356" id="Fill-51" fill="#E36B5B"></path>
                    <path d="M71.3787653,10.4411036 C71.2357653,10.2911036 72.4347653,9.04210356 73.3207653,7.15610356 C74.2337653,5.28110356 74.4547653,3.56510356 74.6597653,3.58210356 C74.7497653,3.58810356 74.8147653,4.03510356 74.7387653,4.75510356 C74.6667653,5.47210356 74.4267653,6.45610356 73.9497653,7.45710356 C73.4697653,8.45610356 72.8537653,9.26010356 72.3417653,9.76710356 C71.8287653,10.2771036 71.4407653,10.5071036 71.3787653,10.4411036" id="Fill-52" fill="#E36B5B"></path>
                    <path d="M73.4777653,9.20710356 C73.5197653,9.12510356 73.8377653,9.18110356 74.2947653,9.41210356 C74.7497653,9.64210356 75.3307653,10.0651036 75.8437653,10.6581036 C76.3557653,11.2531036 76.6887653,11.8901036 76.8487653,12.3741036 C77.0107653,12.8601036 77.0187653,13.1831036 76.9317653,13.2121036 C76.7397653,13.2751036 76.2567653,12.1871036 75.3167653,11.1131036 C74.3927653,10.0271036 73.3867653,9.38810356 73.4777653,9.20710356" id="Fill-53" fill="#E36B5B"></path>
                    <path d="M75.0347653,12.6851036 C75.0347653,12.6851036 76.2107653,22.5161036 67.8287653,24.3071036 L68.0757653,12.4221036 L75.0347653,12.6851036" id="Fill-54" fill="#E36B5B"></path>
                    <path d="M73.7417653,30.3301036 C73.7417653,30.3301036 79.8967653,30.5821036 82.1187653,37.7661036 L77.3357653,48.0881036 L73.0967653,30.3301036" id="Fill-55" fill="#EFA78C"></path>
                    <path d="M74.1247653,52.3841036 L85.1757653,47.4851036 C85.1757653,47.4851036 83.8087653,28.5241036 72.0987653,30.4141036 L74.1247653,52.3841036" id="Fill-56" fill="#71C4C1"></path>
                    <path d="M83.8137653,48.0881036 C83.8137653,48.0881036 93.1887653,91.2611036 91.0427653,113.446104 L82.5617653,112.145104 C82.5617653,112.145104 81.2017653,72.2701036 74.1247653,52.3841036 L83.8137653,48.0881036" id="Fill-57" fill="#EFA78C"></path>
                    <path d="M46.8347653,58.7571036 C46.6387653,56.6061036 44.2027653,55.0031036 44.4347653,52.8561036 C44.5387653,51.8971036 45.1697653,51.0881036 45.7767653,50.3371036 C46.9977653,48.8251036 48.2197653,47.3131036 49.4417653,45.8011036" id="Fill-58" fill="#71C4C1"></path>
                    <path d="M69.0187653,54.7371036 C69.0607653,54.8051036 68.4907653,55.2721036 67.3617653,55.5801036 C66.2537653,55.8931036 64.5387653,55.9571036 62.8797653,55.2061036 C61.2207653,54.4501036 60.1407653,53.1171036 59.6467653,52.0771036 C59.1357653,51.0241036 59.1127653,50.2871036 59.1907653,50.2751036 C59.2987653,50.2461036 59.4937653,50.9191036 60.0757653,51.8361036 C60.6457653,52.7471036 61.6817653,53.8951036 63.1667653,54.5711036 C64.6537653,55.2441036 66.1997653,55.2701036 67.2607653,55.0981036 C68.3347653,54.9331036 68.9687653,54.6381036 69.0187653,54.7371036" id="Fill-59" fill="#00AFAB"></path>
                    <path d="M74.2587653,67.4711036 C74.3087653,67.6541036 72.9407653,68.1821036 71.1757653,68.5261036 C69.4117653,68.8731036 67.9447653,68.9001036 67.9217653,68.7111036 C67.8977653,68.5181036 69.3037653,68.1841036 71.0417653,67.8421036 C72.7807653,67.5041036 74.2087653,67.2821036 74.2587653,67.4711036" id="Fill-60" fill="#00AFAB"></path>
                    <path d="M73.9437653,66.3841036 C73.9537653,66.5761036 72.1987653,66.8221036 70.0247653,66.9331036 C67.8497653,67.0441036 66.0797653,66.9791036 66.0697653,66.7861036 C66.0597653,66.5941036 67.8147653,66.3491036 69.9887653,66.2371036 C72.1627653,66.1261036 73.9337653,66.1931036 73.9437653,66.3841036" id="Fill-61" fill="#00AFAB"></path>
                    <path d="M74.0217653,52.5501036 C73.8397653,52.6031036 72.9387653,50.0301036 72.1287653,46.7741036 C71.3157653,43.5181036 70.9047653,40.8231036 71.0907653,40.7841036 C71.2807653,40.7441036 71.9957653,43.3621036 72.8047653,46.6061036 C73.6107653,49.8481036 74.2087653,52.4961036 74.0217653,52.5501036" id="Fill-62" fill="#00AFAB"></path>
                    <path d="M24.7507653,202.533104 C24.7507653,202.533104 15.0987653,204.921104 17.3227653,205.595104 C19.5477653,206.270104 37.3697653,205.235104 37.3697653,205.235104 L37.7947653,201.462104 L24.7507653,202.533104" id="Fill-63" fill="#2D345D"></path>
                    <polyline id="Fill-64" fill="#2D345D" points="24.7507653 202.533104 25.8357653 196.778104 39.7517653 197.062104 37.4857653 205.415104 24.7507653 202.533104"></polyline>
                    <path d="M89.2477653,196.443104 C89.2477653,196.443104 85.1887653,205.521104 87.0897653,204.183104 C88.9897653,202.845104 99.1437653,188.161104 99.1437653,188.161104 L96.4317653,185.504104 L89.2477653,196.443104" id="Fill-65" fill="#2D345D"></path>
                    <polyline id="Fill-66" fill="#2D345D" points="89.2477653 196.443104 85.3797653 192.046104 93.4107653 181.763104 99.3567653 188.181104 89.2477653 196.443104"></polyline>
                    <path d="M45.8977653,71.4861036 L74.6277653,69.3961036 C74.6277653,69.3961036 84.5627653,79.4731036 78.0867653,96.9541036 C71.6097653,114.435104 62.8867653,137.153104 62.8867653,137.153104 L36.4397653,133.673104 C36.4397653,133.673104 45.6337653,78.9091036 45.8977653,71.4861036" id="Fill-67" fill="#2D345D"></path>
                    <polyline id="Fill-68" fill="#283F7C" points="74.6277653 69.3961036 38.2407653 133.910104 36.4397653 133.673104 45.8977653 71.4861036 74.6277653 69.3961036"></polyline>
                    <path d="M49.0167653,45.8881036 C49.0577653,45.9911036 48.4167653,46.2601036 47.5867653,46.9451036 C46.7597653,47.6161036 45.7637653,48.7841036 45.3097653,50.3351036 C44.8607653,51.8881036 45.0747653,53.4081036 45.4127653,54.4181036 C45.7457653,55.4421036 46.1427653,56.0121036 46.0517653,56.0781036 C45.9937653,56.1311036 45.4377653,55.6531036 44.9527653,54.5961036 C44.4687653,53.5611036 44.1367653,51.8821036 44.6407653,50.1411036 C45.1507653,48.4021036 46.3297653,47.1631036 47.2937653,46.5491036 C48.2707653,45.9161036 48.9957653,45.8121036 49.0167653,45.8881036" id="Fill-69" fill="#00AFAB"></path>
                    <path d="M52.0847653,31.9251036 C52.0847653,31.9251036 48.1487653,45.1911036 55.5337653,44.6591036 C62.9177653,44.1271036 74.7677653,30.3491036 74.7677653,30.3491036 C74.6907653,30.0471036 54.2667653,30.8401036 52.0847653,31.9251036" id="Fill-70" fill="#EFA78C"></path>
                    <polyline id="Fill-71" fill="#2D345D" points="45.6247653 73.2821036 75.4657653 71.1541036 74.2587653 67.4711036 45.9667653 69.5601036 45.6247653 73.2821036"></polyline>
                </g>
                <g id="man-with-hair-bun">
                    <path d="M16.965,102.175785 C16.965,102.175785 19.867,141.029785 18.04,145.928785 C16.171,150.943785 2.48689958e-14,194.911785 2.48689958e-14,194.911785 L14.452,201.077785 C14.452,201.077785 35.395,154.697785 35.852,151.626785 C36.309,148.554785 34.71,111.915785 34.71,111.915785 L30.314,104.175785 L16.965,102.175785" id="Fill-166" fill="#D34B5A"></path>
                    <path d="M41.818,5.39978533 C41.818,5.39978533 43.224,7.95278533 43.162,10.4517853 C43.134,11.6227853 43.252,12.7907853 43.618,13.9027853 C44.072,15.2857853 44.546,16.9337853 44.332,17.2297853 C43.952,17.7567853 42.529,17.4617853 42.529,17.4617853 C42.529,17.4617853 42.554,24.8517853 38.883,24.3587853 C35.415,23.8927853 36.721,23.8487853 36.721,23.8487853 L36.555,28.3447853 L25.495,27.9347853 L25.695,22.5397853 L27.385,3.69378533 L41.818,5.39978533" id="Fill-167" fill="#BD8876"></path>
                    <path d="M22.852,6.94678533 C20.623,8.75578533 23.477,14.3537853 24.559,16.7347853 C25.641,19.1157853 25.678,22.9887853 25.678,22.9887853 C32.65,24.2337853 33.899,19.0487853 33.899,19.0487853 C33.899,19.0487853 34.94,16.5517853 32.23,16.3387853 C29.148,16.0947853 29.312,12.4087853 31.5,11.6797853 C32.795,11.2487853 33.576,12.5947853 33.744,13.7067853 C33.841,14.3387853 34.471,13.9397853 34.471,13.9397853 C34.471,13.9397853 34.427,11.8357853 34.464,10.1957853 C34.503,8.45878533 34.305,6.47078533 34.305,6.47078533 L42.181,5.62178533 C42.181,5.62178533 41.327,-1.66121467 29.245,0.351785333 C23.806,1.25778533 22.852,6.94678533 22.852,6.94678533" id="Fill-168" fill="#17152A"></path>
                    <path d="M32.65,14.9677853 C32.663,14.9717853 32.664,15.0497853 32.581,15.1537853 C32.501,15.2547853 32.326,15.3697853 32.082,15.3647853 C31.579,15.3407853 31.095,14.8067853 30.916,14.1547853 C30.826,13.8237853 30.827,13.4877853 30.894,13.1987853 C30.948,12.9147853 31.119,12.6287853 31.366,12.5507853 C31.484,12.5087853 31.606,12.5127853 31.7,12.5577853 C31.791,12.6017853 31.848,12.6707853 31.877,12.7317853 C31.936,12.8597853 31.89,12.9367853 31.879,12.9307853 L31.8,12.7787853 C31.738,12.6967853 31.59,12.6217853 31.427,12.7037853 C31.261,12.7757853 31.146,12.9797853 31.104,13.2427853 C31.055,13.5027853 31.06,13.7997853 31.14,14.0947853 C31.297,14.6787853 31.719,15.1567853 32.095,15.2007853 C32.28,15.2227853 32.434,15.1547853 32.517,15.0897853 L32.65,14.9677853" id="Fill-169" fill="#A27062"></path>
                    <path d="M38.578,15.7197853 C38.351,15.7197853 38.109,15.6937853 37.863,15.6377853 C36.79,15.3967853 36.033,14.6937853 36.174,14.0677853 C36.282,13.5857853 36.891,13.2897853 37.657,13.2897853 C37.885,13.2897853 38.126,13.3157853 38.372,13.3717853 C39.446,13.6127853 40.202,14.3157853 40.062,14.9417853 C39.953,15.4237853 39.344,15.7197853 38.578,15.7197853" id="Fill-170" fill="#D68673"></path>
                    <path d="M23.191,7.42378533 C23.914,5.63478533 23.047,3.35978533 21.316,2.50778533 C19.586,1.65478533 17.253,2.35278533 16.276,4.01678533 C15.847,4.74778533 15.678,5.69278533 16.078,6.43878533 C16.287,6.82878533 16.631,7.13078533 17.001,7.37278533 C18.695,8.48078533 21.094,8.37278533 22.68,7.11578533" id="Fill-171" fill="#17152A"></path>
                    <path d="M33.744,13.7067853 C33.744,13.7067853 35.713,23.6737853 36.881,24.0417853 C38.05,24.4107853 41.366,26.2747853 42.349,20.5047853 L42.491,18.3977853 C42.491,18.3977853 37.789,17.9357853 36.68,17.0117853 C35.572,16.0887853 34.46,13.2907853 34.46,13.2907853 L33.744,13.7067853" id="Fill-172" fill="#17152A"></path>
                    <path d="M41.443,11.9207853 C41.433,12.2107853 41.191,12.4367853 40.902,12.4277853 C40.612,12.4187853 40.385,12.1757853 40.394,11.8867853 C40.404,11.5967853 40.646,11.3697853 40.935,11.3797853 C41.225,11.3877853 41.452,11.6317853 41.443,11.9207853" id="Fill-173" fill="#17152A"></path>
                    <path d="M41.479,11.7367853 C41.409,11.8027853 41.032,11.4607853 40.469,11.4127853 C39.906,11.3557853 39.472,11.6227853 39.416,11.5447853 C39.388,11.5097853 39.462,11.3867853 39.652,11.2657853 C39.838,11.1447853 40.149,11.0397853 40.5,11.0727853 C40.851,11.1047853 41.138,11.2657853 41.298,11.4197853 C41.462,11.5737853 41.512,11.7087853 41.479,11.7367853" id="Fill-174" fill="#17152A"></path>
                    <path d="M26.128,3.48278533 C26.204,3.48978533 26.196,4.23378533 25.618,5.24478533 C25.058,6.24978533 23.85,7.42178533 22.196,8.05378533 C20.545,8.68078533 18.939,8.71278533 17.829,8.63278533 C16.71,8.54778533 16.041,8.36478533 16.051,8.27578533 C16.061,8.17378533 16.748,8.18178533 17.837,8.14078533 C18.921,8.09478533 20.43,7.98178533 21.945,7.40378533 C23.453,6.82578533 24.59,5.82978533 25.205,4.97478533 C25.836,4.12078533 26.017,3.45278533 26.128,3.48278533" id="Fill-175" fill="#17152A"></path>
                    <path d="M22.544,6.01678533 C22.714,6.09278533 22.257,7.44178533 21.228,8.84078533 C20.204,10.2457853 19.058,11.0897853 18.934,10.9507853 C18.799,10.8057853 19.688,9.77378533 20.665,8.42978533 C21.65,7.09178533 22.365,5.93078533 22.544,6.01678533" id="Fill-176" fill="#17152A"></path>
                    <path d="M23.014,28.2057853 C17.342,29.3677853 13.297,34.4017853 13.363,40.1897853 C13.496,51.9737853 15.356,72.9827853 13.848,75.8297853 C12.273,78.8027853 15.302,83.0977853 15.302,83.0977853 L45.264,84.1307853 L47.267,33.1187853 C47.267,33.1187853 37.789,25.1767853 23.014,28.2057853" id="Fill-177" fill="#F9D9BC"></path>
                    <polyline id="Fill-178" fill="#BD8876" points="80.779 83.5867853 60.683 68.2327853 50.754 45.1607853 38.819 48.5737853 50.604 72.6457853 75.412 91.4807853 80.779 83.5867853"></polyline>
                    <path d="M76.145,82.8737853 L78.458,83.0837853 C78.458,83.0837853 79.837,83.4347853 82.34,83.5127853 C82.989,83.5337853 83.637,83.4367853 84.255,83.2387853 C85.006,82.9987853 85.99,82.6377853 86.467,82.2737853 C87.058,81.8227853 87.889,82.3247853 87.698,82.9717853 C87.507,83.6197853 85.91,84.9017853 83.575,85.4247853 C81.239,85.9487853 84.609,87.6287853 85.827,88.2627853 C87.044,88.8967853 90.718,91.0367853 90.819,91.5647853 C90.968,92.3407853 90.164,92.6427853 88.964,91.9807853 C87.748,91.3107853 84.022,89.5887853 83.718,90.2467853 C83.418,90.8957853 89.659,94.0407853 89.659,94.0407853 C89.659,94.0407853 91.102,94.4967853 90.776,95.2697853 C90.188,96.6647853 83.8,92.8337853 83.201,92.4537853 C82.785,92.1897853 82.429,92.8937853 82.891,93.1537853 C83.367,93.4207853 89.189,96.1447853 88.604,97.5707853 C88.155,98.6647853 83.32,94.4677853 81.798,94.5747853 C80.277,94.6797853 85.788,97.3837853 85.317,98.4117853 C85.141,98.7937853 84.957,99.0547853 82.016,97.0457853 C79.004,94.9867853 71.751,88.0827853 71.751,88.0827853 L76.281,82.8427853" id="Fill-179" fill="#BD8876"></path>
                    <path d="M47.267,33.1187853 L56.99,59.6517853 L45.237,65.3207853 C45.237,65.3207853 33.484,42.1227853 33.484,40.0027853 C33.484,37.8827853 37.537,26.4117853 47.267,33.1187853" id="Fill-180" fill="#F9D9BC"></path>
                    <path d="M56.99,59.6517853 C57.001,59.6747853 56.721,59.8417853 56.193,60.1297853 C55.665,60.4167853 54.891,60.8247853 53.914,61.3287853 C51.961,62.3387853 49.201,63.7357853 45.995,65.3377853 L45.78,65.4437853 L45.689,65.2187853 C45.124,63.8267853 44.484,62.3327853 43.778,60.8047853 C42.785,58.6537853 41.767,56.6347853 40.851,54.7927853 C39.934,52.9497853 39.128,51.2767853 38.493,49.8527853 C37.854,48.4307853 37.383,47.2597853 37.072,46.4467853 C36.769,45.6297853 36.616,45.1727853 36.645,45.1607853 C36.675,45.1487853 36.885,45.5827853 37.239,46.3767853 C37.6,47.1687853 38.116,48.3147853 38.791,49.7157853 C39.462,51.1167853 40.296,52.7677853 41.234,54.5997853 C42.17,56.4307853 43.202,58.4487853 44.2,60.6107853 C44.909,62.1447853 45.546,63.6497853 46.103,65.0547853 L45.797,64.9367853 C49.016,63.3617853 51.802,62.0167853 53.79,61.0777853 C54.784,60.6077853 55.578,60.2397853 56.126,59.9947853 C56.675,59.7497853 56.978,59.6277853 56.99,59.6517853" id="Fill-181" fill="#CDB7A3"></path>
                    <path d="M45.237,65.3207853 L46.817,68.3207853 C46.817,68.3207853 59.891,62.7587853 59.317,62.1847853 C58.743,61.6107853 57.697,61.2947853 57.697,61.2947853 C57.697,61.2947853 59.222,59.1227853 58.743,59.1227853 C58.265,59.1227853 45.237,65.3207853 45.237,65.3207853" id="Fill-182" fill="#CDB7A3"></path>
                    <path d="M41.8,84.1307853 C41.672,84.1317853 41.498,77.7787853 41.414,69.9427853 C41.328,62.1047853 41.364,55.7517853 41.492,55.7507853 C41.621,55.7487853 41.793,62.0997853 41.878,69.9377853 C41.963,77.7737853 41.928,84.1287853 41.8,84.1307853" id="Fill-183" fill="#CDB7A3"></path>
                    <path d="M44.58,77.4417853 C44.585,77.4727853 44.289,77.5507853 43.748,77.6647853 C43.208,77.7807853 42.421,77.9207853 41.446,78.0727853 C39.494,78.3767853 36.782,78.6967853 33.772,78.8697853 C30.761,79.0397853 28.029,79.0287853 26.055,78.9477853 C25.069,78.9077853 24.272,78.8577853 23.722,78.8037853 C23.172,78.7527853 22.869,78.7097853 22.871,78.6767853 C22.874,78.6077853 24.094,78.6237853 26.062,78.6197853 C28.03,78.6167853 30.748,78.5747853 33.746,78.4057853 C36.741,78.2337853 39.446,77.9667853 41.402,77.7467853 C43.358,77.5267853 44.569,77.3747853 44.58,77.4417853" id="Fill-184" fill="#CDB7A3"></path>
                    <path d="M43.517,71.4247853 C43.529,71.5527853 42.024,71.8027853 40.155,71.9847853 C38.285,72.1667853 36.76,72.2097853 36.748,72.0827853 C36.735,71.9547853 38.241,71.7037853 40.11,71.5227853 C41.979,71.3407853 43.504,71.2977853 43.517,71.4247853" id="Fill-185" fill="#CDB7A3"></path>
                    <path d="M43.515,70.3437853 C43.515,70.4717853 42.679,70.5767853 41.647,70.5767853 C40.614,70.5767853 39.778,70.4717853 39.778,70.3437853 C39.778,70.2157853 40.614,70.1117853 41.647,70.1117853 C42.679,70.1117853 43.515,70.2157853 43.515,70.3437853" id="Fill-186" fill="#CDB7A3"></path>
                    <path d="M25.003,27.8507853 L25.003,25.1827853 C25.003,25.1827853 34.895,25.3637853 38.118,26.5167853 L38.118,28.3447853 L25.003,27.8507853" id="Fill-187" fill="#F9D9BC"></path>
                    <path d="M46.91,33.0427853 C46.859,33.1177853 46.102,32.4717853 44.63,32.0067853 C43.9,31.7717853 42.991,31.6087853 41.981,31.6267853 C40.973,31.6417853 39.866,31.8617853 38.816,32.3527853 C37.773,32.8597853 36.904,33.5817853 36.258,34.3547853 C35.607,35.1287853 35.162,35.9367853 34.884,36.6517853 C34.319,38.0887853 34.344,39.0837853 34.254,39.0747853 C34.226,39.0747853 34.194,38.8307853 34.212,38.3857853 C34.227,37.9417853 34.323,37.2987853 34.576,36.5387853 C34.825,35.7787853 35.261,34.9137853 35.927,34.0827853 C36.59,33.2527853 37.503,32.4737853 38.616,31.9337853 C39.736,31.4097853 40.916,31.1907853 41.978,31.1987853 C43.042,31.2037853 43.99,31.4107853 44.737,31.6947853 C45.486,31.9777853 46.046,32.3087853 46.401,32.5767853 C46.757,32.8417853 46.927,33.0207853 46.91,33.0427853" id="Fill-188" fill="#CDB7A3"></path>
                    <path d="M33.235,38.8697853 C33.239,38.9297853 32.144,39.0697853 30.365,39.1937853 C28.586,39.3167853 26.123,39.4117853 23.401,39.3897853 C20.679,39.3657853 18.217,39.2287853 16.441,39.0757853 C14.664,38.9217853 13.572,38.7627853 13.577,38.7027853 C13.583,38.6347853 14.684,38.6777853 16.461,38.7477853 C18.238,38.8167853 20.693,38.9007853 23.405,38.9247853 C26.117,38.9477853 28.572,38.9047853 30.35,38.8657853 C32.128,38.8267853 33.23,38.8017853 33.235,38.8697853" id="Fill-189" fill="#CDB7A3"></path>
                    <path d="M37.149,28.7207853 C37.155,28.7807853 36.471,28.9067853 35.351,28.9877853 C34.232,29.0687853 32.676,29.0867853 30.968,28.9407853 C29.259,28.7927853 27.728,28.5077853 26.64,28.2367853 C25.551,27.9657853 24.898,27.7247853 24.914,27.6677853 C24.949,27.5297853 27.63,28.1957853 31.007,28.4777853 C34.382,28.7777853 37.139,28.5807853 37.149,28.7207853" id="Fill-190" fill="#CDB7A3"></path>
                    <g id="Group-193" transform="translate(16.510000, 101.348785)">
                        <mask id="mask-2" fill="white">
                            <use xlink:href="#path-1"></use>
                        </mask>
                        <g id="Clip-192"></g>
                        <polygon id="Fill-191" fill="#C9CCCC" mask="url(#mask-2)" points="0.455 4.781 0.734 4.781 0.734 0.827 0.455 0.827"></polygon>
                    </g>
                    <path d="M35.852,151.626785 C35.852,151.626785 34.011,145.459785 32.667,138.056785 C29.716,121.811785 19.102,108.382785 17.244,106.129785 C17.077,103.677785 16.965,102.175785 16.965,102.175785 L30.314,107.992785 L35.625,135.628785 L35.852,151.626785" id="Fill-194" fill="#AD4456"></path>
                    <path d="M15.302,83.0977853 C15.302,83.0977853 12.542,97.5027853 16.965,102.174785 C19.465,104.816785 26.955,107.188785 28.515,112.385785 C29.779,116.595785 38.819,143.619785 38.819,150.758785 C38.819,156.286785 38.819,202.509785 38.819,202.509785 L57.184,202.728785 C57.184,202.728785 57.432,145.859785 56.985,143.780785 C56.538,141.701785 43.515,84.1377853 43.515,84.1377853 L15.302,83.0977853" id="Fill-195" fill="#E15967"></path>
                    <polyline id="Fill-196" fill="#D34B5A" points="38.819 202.509785 38.819 196.792785 57.253 197.668785 57.184 202.728785 38.819 202.509785"></polyline>
                    <polyline id="Fill-197" fill="#BC4657" points="5.32907052e-14 194.911785 14.451 201.077785 16.38 196.792785 1.334 191.285785 5.32907052e-14 194.911785"></polyline>
                    <path d="M1.048,195.358785 L-4.61852778e-14,197.720785 C-4.61852778e-14,197.720785 17.35,206.314785 16.935,204.850785 C16.521,203.387785 12.369,200.188785 12.369,200.188785 L1.048,195.358785" id="Fill-198" fill="#2D345D"></path>
                    <path d="M40.089,202.640785 L40.595,205.328785 L62.431,205.328785 C62.431,205.328785 64.228,202.928785 55.659,202.826785 C47.09,202.724785 40.089,202.640785 40.089,202.640785" id="Fill-199" fill="#2D345D"></path>
                    <polyline id="Fill-200" fill="#A27062" points="15.302 83.0977853 15.028 84.7857853 44 86.2807853 43.515 84.1377853 15.302 83.0977853"></polyline>
                </g>
            </g>
        </g>
    </g>
</svg>